<?xml version="1.0" ?><!DOCTYPE svg  PUBLIC '-//W3C//DTD SVG 1.0//EN'  'http://www.w3.org/TR/2001/REC-SVG-20010904/DTD/svg10.dtd'><svg height="64px" style="shape-rendering:geometricPrecision; text-rendering:geometricPrecision; image-rendering:optimizeQuality; fill-rule:evenodd; clip-rule:evenodd" version="1.0" viewBox="0 0 47000 63658" width="47px" xml:space="preserve" xmlns="http://www.w3.org/2000/svg" xmlns:xlink="http://www.w3.org/1999/xlink"><defs><style type="text/css">
   <![CDATA[
    .fil0 {fill:#27afb7;fill-rule:nonzero}
   ]]>
  </style></defs><g id="Layer_x0020_1"><path class="fil0" d="M27404 15174l-2 -1 -12 0 -13 -1 -1 0 -15 -1 -8 -1 -6 0 -59 -1 -7576 0 -59 1 -5 0 -9 1 -15 1 -14 1 -11 0 -4 1c-269,28 -512,149 -693,327l-5 5c-204,208 -332,495 -332,809 0,315 128,602 332,809l5 5c182,179 424,300 693,327l4 1 11 0 14 1 15 1 9 1 5 0 59 1 7576 0 59 -1 6 0 8 -1 15 -1 1 0 13 -1 12 0 2 -1c269,-28 511,-147 693,-327l5 -5c204,-208 332,-495 332,-809 0,-315 -128,-602 -332,-809l-5 -5c-182,-179 -424,-300 -693,-327zm-4899 10781c0,-549 446,-995 995,-995 549,0 995,446 995,995l0 2818c914,49 1825,201 2693,461 2851,856 5247,2869 5921,6243 107,538 -243,1062 -781,1169 -538,107 -1062,-243 -1169,-781 -508,-2542 -2346,-4070 -4537,-4727 -683,-204 -1400,-328 -2126,-374l0 9520c1004,6 2038,81 3178,428 1255,381 2520,1069 3412,2270 717,967 1180,2240 1180,3912 0,2613 -1617,4574 -3910,5733 -1155,583 -2487,963 -3859,1110l0 2903c0,549 -446,995 -995,995 -549,0 -995,-446 -995,-995l0 -2850c-914,-49 -1825,-200 -2693,-459 -2850,-856 -5246,-2870 -5921,-6243 -107,-538 243,-1062 781,-1169 538,-107 1062,243 1169,781 510,2542 2346,4070 4537,4727 683,203 1400,328 2126,374l0 -9517c-1004,-7 -2038,-82 -3178,-430 -2294,-700 -4591,-2358 -4591,-6182 0,-2614 1617,-4574 3911,-5733 1154,-583 2486,-965 3858,-1111l0 -2871zm1990 16310l0 9470c1066,-136 2085,-436 2966,-881 1649,-834 2813,-2196 2813,-3962 0,-1205 -307,-2089 -782,-2730 -598,-806 -1493,-1282 -2394,-1555 -887,-270 -1749,-335 -2602,-342zm-1990 -1965l0 -9471c-1064,136 -2084,436 -2965,881 -1651,834 -2814,2195 -2814,3962 0,2652 1590,3802 3177,4286 888,270 1749,335 2602,343zm4013 -27122c23,-66 53,-128 89,-187l4165 -8327c-1644,529 -3724,1082 -4840,-873 -1028,-1800 -2428,-1801 -2432,-1801 -4,0 -1404,1 -2432,1801 -1116,1955 -3197,1402 -4840,873l4205 8408 46 106 6040 0zm-8105 284l-4655 -9307c-94,-153 -149,-332 -149,-524 0,-959 503,-1318 1362,-1318 452,0 985,175 1599,374 1024,334 2399,781 2774,125 1605,-2810 4149,-2811 4157,-2811 7,0 2552,1 4157,2811 375,657 1749,209 2774,-125 613,-199 1148,-374 1599,-374 859,0 1362,359 1362,1318l-5 0c0,149 -33,301 -105,443l-4695 9388c341,157 650,374 913,636l5 5 26 27 5 5c549,566 889,1335 889,2180 0,859 -354,1644 -920,2212l-5 5 -27 26 -5 5c-68,66 -141,129 -214,189 5354,3540 25038,18172 14876,36106 -1973,3481 -4971,5755 -8599,7117 -3539,1331 -7675,1786 -12031,1664 -4356,122 -8493,-332 -12031,-1664 -3628,-1362 -6626,-3636 -8599,-7117 -10161,-17934 9520,-32566 14874,-36106 -86,-69 -168,-142 -246,-220l-5 -5 -26 -27 -5 -5c-549,-566 -889,-1337 -889,-2180 0,-861 354,-1644 920,-2212l5 -5 27 -26 5 -5c256,-249 555,-455 882,-605zm8304 5989l-6432 0c-82,92 -180,167 -290,222 -1303,778 -25848,15763 -15400,34204 1723,3042 4367,5036 7574,6241 3288,1236 7181,1657 11304,1538l54 0c4124,119 8016,-302 11304,-1538 3207,-1204 5851,-3199 7574,-6241 10717,-18913 -15383,-34194 -15457,-34238 -88,-52 -166,-116 -231,-188z"/></g></svg>