<svg width="544" height="512" viewBox="0 0 544 512" fill="none" xmlns="http://www.w3.org/2000/svg">
<path d="M361.771 65.3619C338.031 78.1414 321.286 99.6352 300.995 116.89C275.757 138.266 245.04 153.089 211.866 159.898C184.666 165.437 156.248 165.519 130.038 174.234C78.9018 191.119 43.8791 241.234 42.9978 292.188C42.1165 343.142 72.9178 392.54 118.189 420.475C133.608 429.993 150.487 437.229 168.237 441.928C201.53 450.744 236.836 450.355 271.238 446.986C330.665 441.16 392.964 409.395 430.424 364.616C447.122 344.601 461.234 322.791 472.464 299.643C491.016 261.58 501.554 220.494 503.494 178.657C505.071 142.817 503.494 103.086 473.28 76.9639C443.066 50.8416 397.185 46.2848 361.771 65.3619Z" fill="#F9F9F9" fill-opacity="0.02"/>
<path d="M399.409 473.377C442.311 473.377 477.09 464.561 477.09 453.686C477.09 442.811 442.311 433.994 399.409 433.994C356.507 433.994 321.729 442.811 321.729 453.686C321.729 464.561 356.507 473.377 399.409 473.377Z" fill="#ECECEC"/>
<path d="M319.906 47.4527H90.5232C85.1453 47.4527 80.7856 52.167 80.7856 57.9825V197.034C80.7856 202.85 85.1453 207.564 90.5232 207.564H319.906C325.284 207.564 329.644 202.85 329.644 197.034V57.9825C329.644 52.167 325.284 47.4527 319.906 47.4527Z" fill="white"/>
<path d="M329.644 57.9825V62.1473H80.7856V57.9825C80.7856 55.1844 81.8098 52.5 83.6344 50.5159C85.459 48.5318 87.9357 47.4094 90.5232 47.3939H319.95C321.23 47.3985 322.497 47.6763 323.677 48.2113C324.858 48.7464 325.929 49.5282 326.83 50.5119C327.73 51.4956 328.443 52.6619 328.925 53.9439C329.408 55.2258 329.653 56.5983 329.644 57.9825V57.9825Z" fill="#92E3A9"/>
<path d="M319.906 47.4527H90.5232C85.1453 47.4527 80.7856 52.167 80.7856 57.9825V197.034C80.7856 202.85 85.1453 207.564 90.5232 207.564H319.906C325.284 207.564 329.644 202.85 329.644 197.034V57.9825C329.644 52.167 325.284 47.4527 319.906 47.4527Z" stroke="#263238" stroke-width="1.52" stroke-linecap="round" stroke-linejoin="round"/>
<path d="M329.644 57.9825V62.1473H80.7856V57.9825C80.7856 55.1844 81.8098 52.5 83.6344 50.5159C85.459 48.5318 87.9357 47.4094 90.5232 47.3939H319.95C321.23 47.3985 322.497 47.6763 323.677 48.2113C324.858 48.7464 325.929 49.5282 326.83 50.5119C327.73 51.4956 328.443 52.6619 328.925 53.9439C329.408 55.2258 329.653 56.5983 329.644 57.9825V57.9825Z" stroke="#263238" stroke-width="1.52" stroke-linecap="round" stroke-linejoin="round"/>
<path d="M108.736 54.7941C108.738 55.3275 108.594 55.8495 108.321 56.2941C108.049 56.7388 107.661 57.0859 107.206 57.2916C106.75 57.4974 106.249 57.5524 105.765 57.4498C105.281 57.3471 104.836 57.0915 104.487 56.7152C104.137 56.3388 103.899 55.8588 103.802 55.3359C103.705 54.8129 103.753 54.2706 103.942 53.7776C104.13 53.2846 104.449 52.8631 104.859 52.5666C105.269 52.27 105.751 52.1117 106.245 52.1117C106.903 52.1117 107.536 52.3939 108.002 52.8966C108.469 53.3994 108.733 54.0816 108.736 54.7941Z" fill="#263238"/>
<path d="M121.738 54.7941C121.74 55.3275 121.596 55.8495 121.323 56.2941C121.051 56.7388 120.663 57.0859 120.208 57.2916C119.752 57.4974 119.251 57.5524 118.767 57.4498C118.283 57.3471 117.838 57.0915 117.489 56.7152C117.139 56.3388 116.901 55.8588 116.804 55.3359C116.707 54.8129 116.755 54.2706 116.944 53.7776C117.132 53.2846 117.451 52.8631 117.861 52.5666C118.271 52.27 118.753 52.1117 119.247 52.1117C119.905 52.1117 120.538 52.3939 121.004 52.8966C121.471 53.3994 121.735 54.0816 121.738 54.7941V54.7941Z" fill="#263238"/>
<path d="M132.247 57.4883C133.624 57.4883 134.739 56.2821 134.739 54.7941C134.739 53.3062 133.624 52.0999 132.247 52.0999C130.871 52.0999 129.756 53.3062 129.756 54.7941C129.756 56.2821 130.871 57.4883 132.247 57.4883Z" fill="#263238"/>
<path d="M169.915 73.8065H99.5535C97.3363 73.8065 95.5388 75.7502 95.5388 78.1478V114.749C95.5388 117.147 97.3363 119.09 99.5535 119.09H169.915C172.132 119.09 173.929 117.147 173.929 114.749V78.1478C173.929 75.7502 172.132 73.8065 169.915 73.8065Z" stroke="#263238" stroke-width="1.52" stroke-linecap="round" stroke-linejoin="round"/>
<path d="M100.152 113.396H168.119" stroke="#263238" stroke-width="1.52" stroke-linecap="round" stroke-linejoin="round"/>
<path d="M113.088 104.749H105.2V113.278H113.088V104.749Z" fill="#92E3A9" stroke="#263238" stroke-width="1.52" stroke-miterlimit="10"/>
<path d="M124.632 93.5366H116.744V113.396H124.632V93.5366Z" fill="#92E3A9" stroke="#263238" stroke-width="1.52" stroke-miterlimit="10"/>
<path d="M137.634 96.9485H129.746V113.596H137.634V96.9485Z" fill="#92E3A9" stroke="#263238" stroke-width="1.52" stroke-miterlimit="10"/>
<path d="M151.299 80.3715H143.411V113.02H151.299V80.3715Z" fill="#92E3A9" stroke="#263238" stroke-width="1.52" stroke-miterlimit="10"/>
<path d="M164.953 80.6302H157.065V113.278H164.953V80.6302Z" fill="#92E3A9" stroke="#263238" stroke-width="1.52" stroke-miterlimit="10"/>
<path d="M271.12 121.432C283.3 121.432 293.174 110.755 293.174 97.5838C293.174 84.413 283.3 73.7359 271.12 73.7359C258.94 73.7359 249.066 84.413 249.066 97.5838C249.066 110.755 258.94 121.432 271.12 121.432Z" fill="#92E3A9" stroke="#263238" stroke-width="1.52" stroke-miterlimit="10"/>
<path d="M272.927 112.455V114.902H269.227V112.455C267.708 112.058 266.364 111.1 265.427 109.747C264.49 108.395 264.018 106.731 264.092 105.043V103.937L268.281 103.443V104.619C268.281 106.89 269.369 108.267 271.077 108.267C271.448 108.3 271.821 108.246 272.171 108.109C272.52 107.971 272.838 107.754 273.103 107.471C273.367 107.188 273.572 106.847 273.703 106.47C273.835 106.094 273.889 105.691 273.862 105.29C273.862 103.113 271.98 101.243 269.761 99.2545C267.128 96.9015 264.506 94.1014 264.506 90.1483C264.506 86.1952 266.225 83.5246 269.227 82.7245V80.2656H272.927V82.701C275.962 83.4657 277.725 86.2305 277.725 90.1718V90.9719L273.536 91.4542V90.6307C273.536 88.2777 272.676 86.9835 271.153 86.9835C269.63 86.9835 268.771 88.0071 268.771 89.9601C268.771 92.1366 270.707 93.9602 272.883 95.9956C275.473 98.3486 278.138 101.149 278.138 105.102C278.202 106.793 277.716 108.455 276.763 109.799C275.811 111.142 274.454 112.082 272.927 112.455V112.455Z" fill="#263238"/>
<path d="M93.7108 142.221H100.152" stroke="#263238" stroke-width="1.52" stroke-linecap="round" stroke-linejoin="round"/>
<path d="M93.7108 155.68H100.152" stroke="#263238" stroke-width="1.52" stroke-linecap="round" stroke-linejoin="round"/>
<path d="M93.7108 169.151H100.152" stroke="#263238" stroke-width="1.52" stroke-linecap="round" stroke-linejoin="round"/>
<path d="M93.7108 182.61H100.152" stroke="#263238" stroke-width="1.52" stroke-linecap="round" stroke-linejoin="round"/>
<path d="M114.351 192.775V187.363" stroke="#263238" stroke-width="1.52" stroke-linecap="round" stroke-linejoin="round"/>
<path d="M124.556 192.775V187.363" stroke="#263238" stroke-width="1.52" stroke-linecap="round" stroke-linejoin="round"/>
<path d="M134.761 192.775V187.363" stroke="#263238" stroke-width="1.52" stroke-linecap="round" stroke-linejoin="round"/>
<path d="M144.978 192.775V187.363" stroke="#263238" stroke-width="1.52" stroke-linecap="round" stroke-linejoin="round"/>
<path d="M155.183 192.775V187.363" stroke="#263238" stroke-width="1.52" stroke-linecap="round" stroke-linejoin="round"/>
<path d="M165.388 192.775V187.363" stroke="#263238" stroke-width="1.52" stroke-linecap="round" stroke-linejoin="round"/>
<path d="M175.594 192.775V187.363" stroke="#263238" stroke-width="1.52" stroke-linecap="round" stroke-linejoin="round"/>
<path d="M185.81 192.775V187.363" stroke="#263238" stroke-width="1.52" stroke-linecap="round" stroke-linejoin="round"/>
<path d="M196.016 192.775V187.363" stroke="#263238" stroke-width="1.52" stroke-linecap="round" stroke-linejoin="round"/>
<path d="M206.221 192.775V187.363" stroke="#263238" stroke-width="1.52" stroke-linecap="round" stroke-linejoin="round"/>
<path d="M216.427 192.775V187.363" stroke="#263238" stroke-width="1.52" stroke-linecap="round" stroke-linejoin="round"/>
<path d="M226.643 192.775V187.363" stroke="#263238" stroke-width="1.52" stroke-linecap="round" stroke-linejoin="round"/>
<path d="M236.848 192.775V187.363" stroke="#263238" stroke-width="1.52" stroke-linecap="round" stroke-linejoin="round"/>
<path d="M247.054 192.775V187.363" stroke="#263238" stroke-width="1.52" stroke-linecap="round" stroke-linejoin="round"/>
<path d="M257.26 192.775V187.363" stroke="#263238" stroke-width="1.52" stroke-linecap="round" stroke-linejoin="round"/>
<path d="M267.084 192.775V187.363" stroke="#263238" stroke-width="1.52" stroke-linecap="round" stroke-linejoin="round"/>
<path d="M276.909 192.775V187.363" stroke="#263238" stroke-width="1.52" stroke-linecap="round" stroke-linejoin="round"/>
<path d="M286.722 192.775V187.363" stroke="#263238" stroke-width="1.52" stroke-linecap="round" stroke-linejoin="round"/>
<path d="M312.704 133.985V186.293C312.704 189.881 309.331 192.775 305.175 192.775H101.262C100.02 192.823 98.785 192.56 97.6528 192.007C96.5205 191.454 95.5216 190.626 94.7337 189.587C94.053 188.644 93.6715 187.489 93.6457 186.293V133.985C93.6457 130.455 97.0185 127.502 101.175 127.502H305.175C309.331 127.502 312.704 130.397 312.704 133.985Z" stroke="#92E3A9" stroke-width="1.52" stroke-linecap="round" stroke-linejoin="round"/>
<path d="M250.644 32.6757L185.549 127.502L160.655 163.763L133.455 145.032L100.174 192.775H99.6948C98.6513 192.776 97.6256 192.483 96.7192 191.923C95.8128 191.364 95.0571 190.559 94.5268 189.587L131.921 135.926L159.121 154.621L177.737 127.561L245.617 28.7344L250.644 32.6757Z" fill="#219653"/>
<path d="M234.129 33.8758L258.054 18.1929L251.439 45.3232L247.217 32.7698L234.129 33.8758Z" fill="#219653"/>
<path d="M463.738 317.973H81.0993L38.2103 353.864" stroke="#27AE60" stroke-width="2.10526" stroke-linecap="round" stroke-linejoin="round"/>
<path d="M81.3391 292.844V223.058" stroke="#27AE60" stroke-width="2.10526" stroke-linecap="round" stroke-linejoin="round"/>
<path d="M81.3391 313.917V300.421" stroke="#27AE60" stroke-width="2.10526" stroke-linecap="round" stroke-linejoin="round"/>
<path d="M440.704 148.193C440.704 148.193 440.704 143.974 434.427 138.076C428.149 132.178 424.123 128.799 424.123 128.799C424.123 128.799 420.979 138.496 426.811 144.404C431.094 148.567 435.742 152.382 440.704 155.812V148.193Z" fill="#92E3A9"/>
<path d="M431.597 174.541C431.597 174.541 431.597 170.322 425.32 164.413C419.042 158.505 415.016 155.136 415.016 155.136C415.016 155.136 411.883 164.833 417.704 170.742C421.992 174.902 426.639 178.721 431.597 182.159V174.541Z" fill="#92E3A9"/>
<path d="M440.302 155.382C440.302 155.382 440.78 151.183 447.678 145.93C454.576 140.677 458.972 137.738 458.972 137.738C458.972 137.738 460.995 147.722 454.543 152.986C449.816 156.69 444.769 160.016 439.453 162.929L440.302 155.382Z" fill="#92E3A9"/>
<path d="M429.302 186.491C429.302 186.491 430.248 182.395 437.69 177.828C445.132 173.261 449.821 170.783 449.821 170.783C449.821 170.783 450.724 180.89 443.75 185.518C438.639 188.734 433.248 191.539 427.637 193.905L429.302 186.491Z" fill="#92E3A9"/>
<path d="M431.38 220.396C431.38 220.396 431.38 216.177 437.647 210.278C443.913 204.38 447.95 201.001 447.95 201.001C447.95 201.001 451.094 210.709 445.263 216.607C440.986 220.775 436.341 224.594 431.38 228.024V220.396Z" fill="#92E3A9"/>
<path d="M431.271 228.68C431.271 228.68 431.902 224.502 426.582 217.825C421.261 211.149 417.791 207.258 417.791 207.258C417.791 207.258 413.243 216.474 418.106 223.068C421.722 227.752 425.747 232.143 430.14 236.196L431.271 228.68Z" fill="#92E3A9"/>
<path d="M425.081 253.204C425.081 253.204 425.081 248.996 431.359 243.087C437.636 237.179 441.662 233.871 441.662 233.871C441.662 233.871 444.806 243.569 438.975 249.467C434.692 253.632 430.044 257.452 425.081 260.884V253.204Z" fill="#92E3A9"/>
<path d="M429.269 275.456C429.269 275.456 428.181 271.36 432.631 264.192C437.081 257.024 440.105 252.774 440.105 252.774C440.105 252.774 445.741 261.417 441.705 268.513C438.677 273.557 435.205 278.352 431.325 282.849L429.269 275.456Z" fill="#92E3A9"/>
<path d="M441.27 147.149C440.953 151.537 440.379 155.906 439.551 160.236C437.07 172.298 430.847 180.081 428.388 190.956C425.929 201.83 433.034 215.89 431.13 229.868C429.226 243.845 423.427 251.638 425.059 260.977C426.691 270.316 435.395 295.588 435.395 295.588" stroke="#263238" stroke-width="1.78978" stroke-linecap="round" stroke-linejoin="round"/>
<path d="M440.248 158.188L447.004 153.293" stroke="#263238" stroke-width="1.78978" stroke-linecap="round" stroke-linejoin="round"/>
<path d="M440.552 152.566L437.734 147.825" stroke="#263238" stroke-width="1.78978" stroke-linecap="round" stroke-linejoin="round"/>
<path d="M428.769 190.464C428.769 190.464 434.426 186.46 440.247 182.467" stroke="#263238" stroke-width="1.78978" stroke-linecap="round" stroke-linejoin="round"/>
<path d="M431.598 182.108C431.598 182.108 426.876 173.404 421.534 167.629" stroke="#263238" stroke-width="1.78978" stroke-linecap="round" stroke-linejoin="round"/>
<path d="M431.598 226.396C434.839 220.793 438.926 215.661 443.729 211.159" stroke="#263238" stroke-width="1.78978" stroke-linecap="round" stroke-linejoin="round"/>
<path d="M430.499 232.315C428.763 228.505 426.696 224.837 424.319 221.348C421.055 216.76 420.532 216.166 420.532 216.166" stroke="#263238" stroke-width="1.78978" stroke-linecap="round" stroke-linejoin="round"/>
<path d="M425.081 260.966C426.518 257.613 428.223 254.368 430.184 251.259C432.141 248.364 434.346 245.624 436.777 243.067" stroke="#263238" stroke-width="1.78978" stroke-linecap="round" stroke-linejoin="round"/>
<path d="M431.314 282.798C430.986 279.598 431.572 276.374 433.012 273.459C435.373 269.169 438.038 263.537 439.148 261.325" stroke="#263238" stroke-width="1.78978" stroke-linecap="round" stroke-linejoin="round"/>
<path d="M399.621 204.534C399.621 204.534 399.132 201.902 402.385 197.55C405.638 193.198 407.825 190.669 407.825 190.669C407.825 190.669 410.904 196.424 407.934 200.725C405.727 203.768 403.252 206.632 400.535 209.285L399.621 204.534Z" fill="#92E3A9"/>
<path d="M408.369 220.16C408.369 220.16 407.879 217.508 411.133 213.166C414.386 208.824 416.573 206.295 416.573 206.295C416.573 206.295 419.652 212.06 416.681 216.351C414.477 219.396 412.002 222.26 409.283 224.911L408.369 220.16Z" fill="#92E3A9"/>
<path d="M400.698 208.998C400.698 208.998 399.937 206.418 394.986 203.878C390.036 201.339 386.957 199.885 386.957 199.885C386.957 199.885 386.837 206.305 391.505 208.998C394.895 210.839 398.443 212.408 402.113 213.688L400.698 208.998Z" fill="#92E3A9"/>
<path d="M411.187 227.379C411.187 227.379 410.099 224.891 404.92 222.812C399.741 220.733 396.488 219.638 396.488 219.638C396.488 219.638 397.086 226.058 402.015 228.25C405.593 229.743 409.298 230.952 413.091 231.864L411.187 227.379Z" fill="#92E3A9"/>
<path d="M413.798 248.832C413.798 248.832 413.309 246.19 408.695 243.128C404.082 240.067 401.156 238.356 401.156 238.356C401.156 238.356 400.307 244.777 404.648 247.869C407.812 250.032 411.164 251.94 414.669 253.573L413.798 248.832Z" fill="#92E3A9"/>
<path d="M414.81 254.044C414.81 254.044 413.928 251.494 416.496 246.764C419.064 242.033 420.848 239.237 420.848 239.237C420.848 239.237 424.765 244.521 422.48 249.18C420.738 252.487 418.707 255.651 416.409 258.642L414.81 254.044Z" fill="#92E3A9"/>
<path d="M422.687 275.374C422.687 275.374 423.013 272.712 427.43 269.404C431.848 266.097 434.666 264.284 434.666 264.284C434.666 264.284 435.906 270.633 431.761 273.971C428.733 276.301 425.505 278.391 422.11 280.218L422.687 275.374Z" fill="#92E3A9"/>
<path d="M421.523 268.8C421.523 268.8 421.033 266.148 416.42 263.086C411.807 260.024 408.891 258.325 408.891 258.325C408.891 258.325 408.043 264.745 412.373 267.838C415.541 269.999 418.897 271.907 422.404 273.541L421.523 268.8Z" fill="#92E3A9"/>
<path d="M421.457 283.177C421.457 283.177 421.708 280.494 418.063 276.439C414.418 272.384 412.057 270.019 412.057 270.019C412.057 270.019 409.511 276.009 412.873 280.054C415.356 282.906 418.085 285.56 421.033 287.99L421.457 283.177Z" fill="#92E3A9"/>
<path d="M399.132 203.919C399.84 206.642 400.708 209.326 401.732 211.958C404.67 219.259 409.457 223.509 412.264 230.083C415.071 236.657 412.264 246.19 415.039 254.761C417.813 263.332 422.383 267.602 422.415 273.654C422.448 279.706 419.967 296.428 419.967 296.428" stroke="#263238" stroke-width="1.78978" stroke-linecap="round" stroke-linejoin="round"/>
<path d="M401.057 210.749L396.259 208.384" stroke="#263238" stroke-width="1.78978" stroke-linecap="round" stroke-linejoin="round"/>
<path d="M400.208 207.258L401.438 204.001" stroke="#263238" stroke-width="1.78978" stroke-linecap="round" stroke-linejoin="round"/>
<path d="M411.981 229.806C411.981 229.806 407.966 227.881 403.865 225.966" stroke="#263238" stroke-width="1.78978" stroke-linecap="round" stroke-linejoin="round"/>
<path d="M409.239 224.911C410.419 221.406 411.976 218.023 413.885 214.815" stroke="#263238" stroke-width="1.78978" stroke-linecap="round" stroke-linejoin="round"/>
<path d="M414.352 252.641C411.675 249.46 408.524 246.66 404.996 244.326" stroke="#263238" stroke-width="1.78978" stroke-linecap="round" stroke-linejoin="round"/>
<path d="M415.724 256.246C416.359 253.687 417.222 251.183 418.303 248.76C419.815 245.535 420.076 245.115 420.076 245.115" stroke="#263238" stroke-width="1.78978" stroke-linecap="round" stroke-linejoin="round"/>
<path d="M422.208 278.221C423.765 276.401 425.491 274.715 427.365 273.183C428.559 272.351 429.68 271.429 430.716 270.428" stroke="#263238" stroke-width="1.78978" stroke-linecap="round" stroke-linejoin="round"/>
<path d="M422.415 273.654C421.115 271.7 419.66 269.842 418.063 268.093C416.501 266.488 414.801 265.005 412.982 263.66" stroke="#263238" stroke-width="1.78978" stroke-linecap="round" stroke-linejoin="round"/>
<path d="M421.055 287.99C420.882 285.94 420.131 283.971 418.879 282.286C416.899 279.829 414.527 276.572 413.635 275.292" stroke="#263238" stroke-width="1.78978" stroke-linecap="round" stroke-linejoin="round"/>
<path d="M441.923 325.263H413.352C412.784 325.264 412.239 325.055 411.832 324.682C411.426 324.309 411.19 323.801 411.176 323.267L407.074 293.509H448.114L444.012 323.267C443.999 323.787 443.775 324.283 443.387 324.654C442.999 325.025 442.476 325.243 441.923 325.263Z" fill="#263238"/>
<path d="M447.787 298.537H407.117C406.271 298.54 405.458 298.227 404.856 297.666C404.255 297.106 403.913 296.344 403.908 295.547V295.547C403.922 294.752 404.263 293.992 404.859 293.429C405.456 292.866 406.261 292.542 407.106 292.526H447.787C448.208 292.525 448.625 292.602 449.014 292.752C449.404 292.903 449.758 293.125 450.056 293.404C450.354 293.684 450.59 294.016 450.752 294.382C450.913 294.748 450.996 295.14 450.996 295.537V295.537C450.995 295.932 450.911 296.323 450.749 296.688C450.587 297.053 450.35 297.384 450.052 297.662C449.754 297.941 449.4 298.162 449.012 298.312C448.623 298.462 448.207 298.538 447.787 298.537V298.537Z" fill="#263238"/>
<path d="M356.102 179.517C356.101 187.921 353.074 196.077 347.516 202.654C341.958 209.232 334.196 213.843 325.497 215.736H325.377C324.344 215.951 323.31 216.146 322.244 216.289C320.373 216.54 318.486 216.666 316.597 216.668C306.27 216.633 296.369 212.794 289.012 205.973C281.656 199.152 277.43 189.891 277.24 180.173C277.049 170.456 280.909 161.054 287.993 153.982C295.076 146.91 304.821 142.729 315.139 142.336C315.498 142.336 315.879 142.336 316.227 142.336C316.343 142.326 316.459 142.326 316.575 142.336C316.709 142.326 316.844 142.326 316.978 142.336C322.308 142.368 327.574 143.431 332.449 145.459C339.482 148.359 345.464 153.124 349.665 159.173C353.866 165.222 356.103 172.291 356.102 179.517Z" fill="#92E3A9"/>
<path opacity="0.4" d="M332.471 145.469C286.851 143.237 286.634 190.904 286.634 190.904C286.634 190.904 279.67 175.35 291.04 158.136C297.394 148.5 308.448 144.251 317 142.367C322.328 142.393 327.594 143.449 332.471 145.469V145.469Z" fill="white"/>
<path d="M356.102 179.517C356.102 187.942 353.062 196.117 347.479 202.703C341.897 209.288 334.104 213.895 325.377 215.767C322.498 216.391 319.552 216.704 316.597 216.699C306.119 216.881 295.994 213.138 288.449 206.294C280.904 199.45 276.556 190.065 276.363 180.204C276.169 170.342 280.146 160.813 287.418 153.711C294.69 146.61 304.662 142.518 315.139 142.336C315.618 142.336 316.107 142.336 316.597 142.336C327.074 142.339 337.12 146.257 344.528 153.229C351.936 160.202 356.099 169.657 356.102 179.517V179.517Z" stroke="#263238" stroke-width="1.52" stroke-linecap="round" stroke-linejoin="round"/>
<path d="M356.103 179.517C356.102 187.942 353.062 196.117 347.48 202.703C341.898 209.288 334.105 213.895 325.378 215.767C324.899 215.767 324.409 215.767 323.92 215.767C314.222 215.743 304.873 212.364 297.652 206.273C290.43 200.182 285.84 191.804 284.756 182.735C283.671 173.665 286.168 164.537 291.771 157.088C297.373 149.638 305.691 144.388 315.139 142.336C315.618 142.336 316.108 142.336 316.597 142.336C327.074 142.339 337.121 146.257 344.529 153.229C351.937 160.202 356.1 169.657 356.103 179.517V179.517Z" stroke="#263238" stroke-width="1.52" stroke-linecap="round" stroke-linejoin="round"/>
<path d="M330.208 202.752L331.231 206.684L324.398 208.251L323.375 204.329C317.261 204.329 312.354 200.591 310.787 194.591L310.319 192.809L317.859 190.239L318.338 192.092C319.284 195.738 321.841 197.489 325.029 196.751C325.729 196.649 326.396 196.405 326.986 196.036C327.576 195.667 328.074 195.182 328.445 194.614C328.816 194.047 329.052 193.41 329.137 192.748C329.221 192.087 329.153 191.416 328.935 190.781C328.021 187.279 323.756 185.088 318.816 182.825C312.974 180.163 306.946 176.783 305.293 170.424C303.682 164.219 305.706 159.048 310.917 156.488L309.895 152.555L316.717 150.989L317.739 154.911C323.669 154.829 328.086 158.505 329.707 164.854L330.045 166.144L322.516 168.714L322.135 167.291C321.134 163.43 319.023 161.802 316.216 162.447C313.409 163.092 312.245 165.11 313.061 168.243C313.975 171.745 318.294 173.855 323.179 176.21C328.957 178.964 335.049 182.251 336.703 188.6C338.368 194.714 335.713 200.161 330.208 202.752Z" stroke="#263238" stroke-width="1.52" stroke-miterlimit="10"/>
<path opacity="0.3" d="M330.208 202.752L331.231 206.684L324.398 208.251L323.375 204.329C317.261 204.329 312.354 200.591 310.787 194.591L310.319 192.809L317.859 190.239L318.338 192.092C319.284 195.738 321.841 197.489 325.029 196.751C325.729 196.649 326.396 196.405 326.986 196.036C327.576 195.667 328.074 195.182 328.445 194.614C328.816 194.047 329.052 193.41 329.137 192.748C329.221 192.087 329.153 191.416 328.935 190.781C328.021 187.279 323.756 185.088 318.816 182.825C312.974 180.163 306.946 176.783 305.293 170.424C303.682 164.219 305.706 159.048 310.917 156.488L309.895 152.555L316.717 150.989L317.739 154.911C323.669 154.829 328.086 158.505 329.707 164.854L330.045 166.144L322.516 168.714L322.135 167.291C321.134 163.43 319.023 161.802 316.216 162.447C313.409 163.092 312.245 165.11 313.061 168.243C313.975 171.745 318.294 173.855 323.179 176.21C328.957 178.964 335.049 182.251 336.703 188.6C338.368 194.714 335.713 200.161 330.208 202.752Z" fill="black"/>
<path d="M296.404 211.487L304.749 211.128" stroke="#263238" stroke-width="1.52" stroke-linecap="round" stroke-linejoin="round"/>
<path d="M292.389 208.876L299.668 208.292" stroke="#263238" stroke-width="1.52" stroke-linecap="round" stroke-linejoin="round"/>
<path d="M289.125 206.121L296.404 205.537" stroke="#263238" stroke-width="1.52" stroke-linecap="round" stroke-linejoin="round"/>
<path d="M288.124 153.733H294.358" stroke="#263238" stroke-width="1.52" stroke-linecap="round" stroke-linejoin="round"/>
<path d="M291.203 151.03L297.416 150.764" stroke="#263238" stroke-width="1.52" stroke-linecap="round" stroke-linejoin="round"/>
<path d="M295.098 148.316L301.648 147.733" stroke="#263238" stroke-width="1.52" stroke-linecap="round" stroke-linejoin="round"/>
<path opacity="0.3" d="M325.497 215.736H325.377C322.498 216.36 319.552 216.673 316.597 216.668C306.27 216.633 296.369 212.794 289.012 205.973C281.656 199.152 277.43 189.891 277.24 180.173C277.049 170.456 280.909 161.054 287.993 153.982C295.076 146.91 304.821 142.73 315.139 142.336C315.498 142.336 315.879 142.336 316.227 142.336C306.598 145.193 290.441 152.494 286.122 167.721C280.018 189.358 293.76 213.924 325.497 215.736Z" fill="black"/>
<path opacity="0.1" d="M356.103 179.517C356.101 187.921 353.074 196.077 347.516 202.654C341.958 209.232 334.197 213.843 325.497 215.736H325.377C324.344 215.951 323.31 216.146 322.244 216.289L332.471 145.439C339.503 148.343 345.483 153.113 349.68 159.165C353.877 165.218 356.109 172.29 356.103 179.517Z" fill="black"/>
<path d="M378.515 120.986C375.387 125.144 370.853 128.182 365.654 129.603C360.455 131.024 354.898 130.744 349.89 128.809L349.748 128.748C349.006 128.44 348.279 128.098 347.572 127.724C346.774 127.32 346.003 126.868 345.266 126.372C340.446 122.908 337.203 117.851 336.192 112.223C335.182 106.595 336.478 100.816 339.82 96.0534C343.162 91.2906 348.3 87.8992 354.196 86.5645C360.092 85.2297 366.307 86.0511 371.585 88.8627L372.118 89.1802C372.368 89.3133 372.607 89.4771 372.858 89.641C373.108 89.8048 373.586 90.1427 373.946 90.409C378.701 93.9993 381.822 99.1624 382.672 104.845C383.521 110.527 382.034 116.3 378.515 120.986Z" fill="#92E3A9"/>
<path opacity="0.4" d="M342.459 121.293C342.459 121.293 338.553 110.469 343.743 102.502C350.271 92.5184 360.269 87.9616 373.88 90.4192C373.88 90.4192 366.504 85.7293 354.155 89.0573C341.806 92.3853 335.18 108.38 342.459 121.293Z" fill="white"/>
<path d="M378.515 120.996C375.384 125.151 370.849 128.185 365.65 129.602C360.451 131.019 354.896 130.736 349.89 128.799C348.238 128.163 346.668 127.353 345.212 126.382C340.362 122.881 337.119 117.766 336.148 112.086C335.177 106.406 336.552 100.592 339.99 95.8356C343.428 91.0792 348.67 87.741 354.639 86.5054C360.609 85.2698 366.855 86.2305 372.096 89.1905C372.335 89.3236 372.586 89.4772 372.825 89.641C377.989 93.0948 381.488 98.3345 382.554 104.212C383.621 110.089 382.168 116.125 378.515 120.996Z" stroke="#263238" stroke-width="1.52" stroke-linecap="round" stroke-linejoin="round"/>
<path d="M378.515 120.996C375.384 125.151 370.849 128.185 365.65 129.602C360.451 131.019 354.895 130.736 349.889 128.799L349.161 128.348C344.434 125.123 341.122 120.384 339.849 115.022C338.575 109.66 339.428 104.044 342.246 99.2324C345.065 94.4206 349.654 90.744 355.152 88.8946C360.649 87.0452 366.675 87.1504 372.096 89.1904C372.335 89.3236 372.585 89.4772 372.825 89.641C377.989 93.0948 381.487 98.3344 382.554 104.212C383.62 110.089 382.168 116.125 378.515 120.996Z" stroke="#263238" stroke-width="1.52" stroke-linecap="round" stroke-linejoin="round"/>
<path d="M357.093 123.986L356.146 126.259L352.186 124.795L353.132 122.511C351.663 121.538 350.599 120.113 350.123 118.483C349.646 116.852 349.787 115.116 350.521 113.572L350.956 112.548L355.635 113.746L355.189 114.831C354.307 116.941 354.906 118.641 356.755 119.327C357.139 119.507 357.56 119.606 357.989 119.617C358.417 119.629 358.844 119.553 359.238 119.394C359.632 119.235 359.985 118.998 360.272 118.698C360.559 118.398 360.774 118.043 360.901 117.658C361.749 115.61 360.455 113.142 358.855 110.408C356.962 107.172 355.243 103.526 356.777 99.84C358.311 96.1536 361.205 94.3514 364.72 94.802L365.677 92.5287L369.626 93.993L368.68 96.256C371.639 98.1607 372.455 101.376 370.921 105.114L370.606 105.851L365.927 104.653L366.275 103.823C367.211 101.591 366.776 100.086 365.187 99.4816C363.599 98.8775 362.239 99.4816 361.477 101.315C360.629 103.363 361.989 105.8 363.523 108.565C365.361 111.831 367.146 115.456 365.612 119.132C365.03 120.758 363.855 122.138 362.296 123.026C360.736 123.915 358.893 124.255 357.093 123.986V123.986Z" stroke="#263238" stroke-width="1.52" stroke-miterlimit="10"/>
<path opacity="0.3" d="M357.093 123.986L356.146 126.259L352.186 124.795L353.132 122.511C351.663 121.538 350.599 120.113 350.123 118.483C349.646 116.852 349.787 115.116 350.521 113.572L350.956 112.548L355.635 113.746L355.189 114.831C354.307 116.941 354.906 118.641 356.755 119.327C357.139 119.507 357.56 119.606 357.989 119.617C358.417 119.629 358.844 119.553 359.238 119.394C359.632 119.235 359.985 118.998 360.272 118.698C360.559 118.398 360.774 118.043 360.901 117.658C361.749 115.61 360.455 113.142 358.855 110.408C356.962 107.172 355.243 103.526 356.777 99.84C358.311 96.1536 361.205 94.3514 364.72 94.802L365.677 92.5287L369.626 93.993L368.68 96.256C371.639 98.1607 372.455 101.376 370.921 105.114L370.606 105.851L365.927 104.653L366.275 103.823C367.211 101.591 366.776 100.086 365.187 99.4816C363.599 98.8775 362.239 99.4816 361.477 101.315C360.629 103.363 361.989 105.8 363.523 108.565C365.361 111.831 367.146 115.456 365.612 119.132C365.03 120.758 363.855 122.138 362.296 123.026C360.736 123.915 358.893 124.255 357.093 123.986V123.986Z" fill="black"/>
<path opacity="0.3" d="M371.53 88.8731C365.002 87.7774 356.733 87.1732 352.272 89.8971C344.08 94.843 338.977 101.079 339.053 111.186C339.129 121.293 349.161 128.379 349.161 128.379L349.748 128.778C348.148 128.149 346.627 127.356 345.211 126.413C340.392 122.949 337.149 117.892 336.138 112.264C335.127 106.636 336.424 100.857 339.765 96.0944C343.107 91.3316 348.245 87.9403 354.142 86.6055C360.038 85.2708 366.253 86.0922 371.53 88.9038V88.8731Z" fill="black"/>
<path opacity="0.1" d="M378.515 120.986C375.387 125.144 370.853 128.182 365.654 129.603C360.455 131.024 354.898 130.744 349.89 128.809L349.748 128.748C349.005 128.44 348.279 128.098 347.572 127.724L373.88 90.4192C378.643 94.0005 381.775 99.1573 382.636 104.838C383.498 110.518 382.024 116.293 378.515 120.986Z" fill="black"/>
<path d="M366.199 409.354C356.072 420.819 343.999 430.629 330.469 438.385C326.254 440.758 321.894 442.899 317.413 444.795C286.503 457.871 251.274 458.721 218.329 451.205C149.056 435.405 112.304 377.856 107.636 313.969C106.385 296.704 103.578 278.057 111.009 261.632C118.44 245.207 133.465 235.008 150.46 227.922C162.798 222.751 176.126 219.279 188.235 216.443C210.15 211.348 233.265 213.592 253.613 222.792C267.855 229.151 277.995 240.2 289.974 249.508C291.243 250.491 292.52 251.47 293.804 252.447C305.904 261.614 318.624 270.031 331.884 277.647C352.023 289.208 372.64 300.114 385.511 319.529C406.042 350.474 388.721 384.164 366.199 409.354Z" fill="#92E3A9"/>
<path opacity="0.4" d="M366.199 409.354C356.072 420.819 343.999 430.629 330.469 438.385C326.254 440.758 321.894 442.899 317.413 444.795C286.503 457.871 251.274 458.721 218.329 451.205C149.056 435.405 112.304 377.856 107.636 313.969C106.385 296.704 103.578 278.057 111.009 261.632C118.44 245.207 133.465 235.008 150.46 227.922C162.798 222.751 176.126 219.279 188.235 216.443C210.15 211.348 233.265 213.592 253.613 222.792C267.855 229.151 277.995 240.2 289.974 249.508C291.243 250.491 292.52 251.47 293.804 252.447C305.904 261.614 318.624 270.031 331.884 277.647C352.023 289.208 372.64 300.114 385.511 319.529C406.042 350.474 388.721 384.164 366.199 409.354Z" fill="white"/>
<path d="M293.76 252.447C292.477 251.477 291.2 250.494 289.931 249.498C277.963 240.169 267.801 229.151 253.57 222.792C233.221 213.597 210.107 211.353 188.192 216.443C159.392 223.17 123.673 233.533 110.944 261.642C103.513 278.026 106.32 296.704 107.582 313.969C112.304 377.856 149.056 435.405 218.329 451.205C256.018 459.807 296.665 457.451 330.47 438.385C343.999 430.629 356.072 420.819 366.199 409.354C388.721 384.164 406.042 350.474 385.533 319.529C372.673 300.073 352.055 289.208 331.906 277.647C318.624 270.034 305.882 261.616 293.76 252.447V252.447Z" stroke="#263238" stroke-width="1.52" stroke-miterlimit="10"/>
<path d="M188.823 366.367C183.056 368.009 177.458 370.141 172.1 372.736" stroke="#263238" stroke-width="1.52" stroke-linecap="round" stroke-linejoin="round"/>
<path d="M224.128 360.038C215.703 360.725 207.341 361.974 199.104 363.776" stroke="#263238" stroke-width="1.52" stroke-linecap="round" stroke-linejoin="round"/>
<path d="M216.784 358.4C216.784 358.4 184.275 340.603 145.042 354.867" stroke="#263238" stroke-width="1.52" stroke-linecap="round" stroke-linejoin="round"/>
<path opacity="0.1" d="M366.2 409.354C356.072 420.819 343.999 430.629 330.47 438.384C326.254 440.758 321.895 442.899 317.414 444.795C313.876 443.775 310.401 442.575 307.002 441.2C286.7 433.008 269.662 419.154 253.015 405.494C242.973 397.302 232.767 388.905 220.745 383.508C204.487 376.273 185.991 374.84 168.695 379.474C177.641 369.971 189.803 363.672 203.119 361.646C194.524 354.283 182.567 351.191 170.947 350.996C159.327 350.802 152.93 352.143 141.571 354.539C145.368 347.965 155.443 342.016 163.397 342.19C155.836 342.096 148.287 341.593 140.788 340.685C130.528 339.128 125.937 327.762 124.403 318.095C120.159 291.471 124.457 263.117 139.896 240.486C142.952 235.972 146.488 231.763 150.449 227.922C162.787 222.751 176.115 219.279 188.225 216.443C210.139 211.348 233.255 213.592 253.603 222.792C267.845 229.151 277.985 240.2 289.964 249.508C291.233 250.491 292.51 251.47 293.793 252.447C305.894 261.613 318.614 270.031 331.873 277.647C352.012 289.208 372.63 300.114 385.501 319.529C406.042 350.474 388.721 384.164 366.2 409.354Z" fill="black"/>
<path d="M377.536 408.576C383.637 413.349 390.019 417.793 396.653 421.888C409.589 422.707 403.79 437.422 403.79 437.422L392.714 444.129C392.714 444.129 373.75 429.947 363.392 425.349C353.035 420.751 377.536 408.576 377.536 408.576Z" fill="white"/>
<path opacity="0.3" d="M285.611 253.645C285.611 253.645 283.838 237.128 281.009 232.489L238.055 224.256V221.122C238.055 221.122 239.045 215.675 229.471 212.265C219.896 208.855 199.942 213.289 194.796 216.955C189.65 220.621 191.532 226.929 191.532 226.929C191.532 226.929 174.233 235.151 166.464 238.285C160.105 241.046 153.906 244.122 147.892 247.501C147.892 247.501 144.367 285.471 145.063 294.287C145.76 303.104 144.498 311.398 145.303 316.283C146.108 321.167 146.739 323.942 152.179 328.1C157.619 332.257 162.569 338.34 176.833 332.308L174.842 330.824L268.736 301.056L285.611 253.645Z" fill="black"/>
<path d="M285.611 253.645C285.611 253.645 283.838 237.128 281.009 232.489L238.055 224.256V221.122C238.055 221.122 239.045 215.675 229.471 212.265C219.896 208.855 199.942 213.289 194.796 216.955C189.65 220.621 191.532 226.929 191.532 226.929C191.532 226.929 174.233 235.151 166.464 238.285C160.105 241.046 153.906 244.122 147.892 247.501C147.892 247.501 144.367 285.471 145.063 294.287C145.76 303.104 144.498 311.398 145.303 316.283C146.108 321.167 146.739 323.942 152.179 328.1C157.619 332.257 162.569 338.34 176.833 332.308L174.842 330.824L268.736 301.056L285.611 253.645Z" fill="#92E3A9"/>
<path opacity="0.05" d="M285.611 253.645C285.611 253.645 283.838 237.128 281.009 232.489L238.055 224.256V221.122C238.055 221.122 239.045 215.675 229.471 212.265C219.896 208.855 199.942 213.289 194.796 216.955C189.65 220.621 191.532 226.929 191.532 226.929C191.532 226.929 174.233 235.151 166.464 238.285C160.105 241.046 153.906 244.122 147.892 247.501C147.892 247.501 144.367 285.471 145.063 294.287C145.76 303.104 144.498 311.398 145.303 316.283C146.108 321.167 146.739 323.942 152.179 328.1C157.619 332.257 162.569 338.34 176.833 332.308L174.842 330.824L268.736 301.056L285.611 253.645Z" fill="black"/>
<path opacity="0.1" d="M281.575 234.496H263.601C261.911 234.498 260.277 235.065 258.988 236.094C257.699 237.123 256.84 238.549 256.562 240.118L247.706 290.294C247.706 290.294 235.509 291.246 226.87 297.175C218.232 303.104 196.983 260.802 163.407 260.782C163.407 260.782 173.069 281.569 175.212 298.158C175.212 298.158 154.225 296.008 150.743 303.739C147.261 311.47 152.321 325.96 161.199 320.348C170.077 314.736 178.433 305.377 184.362 311.296C190.292 317.215 216.785 320.399 216.785 320.399L257.552 301.056L273.361 294.062L281.575 234.496Z" fill="black"/>
<path opacity="0.4" d="M224.509 209.623C224.509 209.623 234.715 212.285 236.369 215.511C238.022 218.737 237.848 226.898 237.848 226.898C235.372 232.352 231.619 237.211 226.87 241.111L219.254 226.898L219.94 243.016C219.94 243.016 205.491 240.752 199.355 236.411L193.229 232.059C193.229 232.059 190.586 223.867 190.966 221.092C191.347 218.317 202.369 212.685 202.369 212.685L224.509 209.623Z" fill="white"/>
<path d="M394.498 458.158C394.215 457.574 398.687 450.14 395.184 442.573C391.68 435.005 386.099 437.924 386.099 437.924C386.099 437.924 370.203 428.401 363.523 425.39C358.71 423.115 354.074 420.521 349.651 417.628L342.59 426.578L349.118 445.583L394.498 458.158Z" fill="#92E3A9"/>
<path d="M385.523 437.463L405.934 449.198C405.934 449.198 420.284 440.535 427.128 434.555C433.971 428.575 449.345 415.836 449.345 415.836L459.137 403.435C459.137 403.435 452.348 395.53 441.032 401.879C426.41 410.071 408.577 421.97 396.686 421.857C396.686 421.857 399.025 435.609 385.599 437.463" fill="#92E3A9"/>
<path d="M221.05 159.979C221.05 159.979 230.309 173.169 231.995 177.439C233.681 181.709 235.041 188.027 234.704 191.068C234.367 194.109 230.972 210.401 229.264 210.872L227.621 212.623L228.709 219.525C228.709 219.525 221.463 231.311 200.16 222.669C200.16 222.669 199.333 208.906 196.744 204.585C194.154 200.264 190.281 205.404 186.397 192.922C182.513 180.439 194.883 167.322 194.883 167.322L221.05 159.979Z" fill="white"/>
<path opacity="0.5" d="M450.247 399.585C450.247 399.585 439.748 401.306 436.343 407.153C432.937 413 426.399 423.864 424.168 429.117C421.938 434.37 403.496 447.058 403.496 447.058L405.944 449.198C405.944 449.198 420.959 440.463 430.022 432.159C439.085 423.854 459.071 402.964 459.071 402.964C459.071 402.964 457.635 401.623 450.247 399.585Z" fill="white"/>
<path opacity="0.5" d="M345.19 423.291L342.59 426.578L350.576 442.163L394.498 457.021L396.533 450.97C396.533 450.97 397.207 444.826 381.79 440.156C366.373 435.487 356.973 432.404 352.588 429.199C348.204 425.994 345.19 423.291 345.19 423.291Z" fill="white"/>
<path d="M200.193 307.538C200.193 307.538 186.745 305.633 180.467 315.986C174.19 326.339 174.831 330.824 174.831 330.824C174.831 330.824 183.72 338.422 195.939 337.992C208.157 337.562 225.946 324.393 231.745 320.102C237.544 315.812 252.166 303.534 262.143 306.074L263.231 297.195C263.231 297.195 262.252 293.212 253.722 294.287C245.192 295.363 241.841 299.94 239.089 299.94C236.336 299.94 233.736 297.451 228.209 306.34C228.198 306.34 208.799 309.576 200.193 307.538Z" fill="white"/>
<path d="M217.666 178.944C217.952 180.603 218.359 182.242 218.884 183.849C219.081 184.633 219.452 185.37 219.972 186.01C220.995 187.034 222.649 187.3 224.161 187.515C224.411 187.532 224.648 187.625 224.836 187.781C224.958 187.965 225.015 188.18 224.999 188.395C224.99 190.008 224.475 191.583 223.519 192.922" stroke="#263238" stroke-width="1.52" stroke-linecap="round" stroke-linejoin="round"/>
<path opacity="0.1" d="M354.21 412.672L345.19 423.25C345.19 423.25 355.091 431.862 365.34 435.057C375.589 438.251 393.53 444.273 396.533 448.911L395.379 443.392C395.379 443.392 367.32 427.192 360.879 423.321C358.975 422.146 357.383 420.574 356.226 418.728C355.07 416.881 354.38 414.809 354.21 412.672V412.672Z" fill="black"/>
<path opacity="0.1" d="M385.523 437.463L403.486 447.058C403.486 447.058 412.353 441.344 416.705 437.135C421.057 432.927 426.421 428.257 429.761 418.826C434.32 405.791 447.376 399.585 447.376 399.585C447.376 399.585 429.217 407.634 419.762 413.921C410.307 420.209 401.092 422.871 395.739 422.441C395.685 422.472 399.982 435.272 385.523 437.463Z" fill="black"/>
<path d="M211.334 195.246C211.334 195.246 218.395 200.458 225.728 198.502C225.728 198.502 218.808 211.405 211.334 195.246Z" fill="white" stroke="#263238" stroke-width="1.52" stroke-linecap="round" stroke-linejoin="round"/>
<path d="M211.072 183.982C211.279 185.416 210.811 186.655 210.05 186.757C209.288 186.859 208.494 185.733 208.287 184.33C208.081 182.927 208.537 181.657 209.31 181.555C210.082 181.453 210.909 182.548 211.072 183.982Z" fill="#263238"/>
<path d="M226.446 181.371C226.642 182.815 226.185 184.054 225.423 184.146C224.662 184.238 223.857 183.122 223.661 181.729C223.465 180.337 223.911 179.046 224.683 178.954C225.456 178.862 226.239 179.937 226.446 181.371Z" fill="#263238"/>
<path d="M209.985 177.899C209.985 177.899 205.872 175.903 202.945 180.183" stroke="#263238" stroke-width="1.52" stroke-linecap="round" stroke-linejoin="round"/>
<path d="M220.527 175.237C220.527 175.237 224.879 171.725 227.392 175.237" stroke="#263238" stroke-width="1.52" stroke-linecap="round" stroke-linejoin="round"/>
<path d="M196.014 191.078C196.014 191.078 193.371 187.402 190.574 187.515C187.778 187.627 186.669 191.314 187.669 194.877C188.67 198.441 192.837 203.417 195.993 202.946C197.772 202.731 199.396 201.88 200.53 200.571" stroke="#263238" stroke-width="1.52" stroke-linecap="round" stroke-linejoin="round"/>
<path d="M221.365 162.949C224.335 165.274 227.479 167.803 228.981 171.223C230.308 174.131 230.602 177.367 231.821 180.306C233.115 183.45 234.53 186.737 234.638 190.167C234.581 193.341 234.139 196.498 233.322 199.578C232.87 202.248 232.197 204.881 231.309 207.452C229.84 211.128 227.131 213.391 223.497 215.132C220.854 216.402 216.447 218.204 213.586 216.504C211.921 215.48 209.419 212.552 207.341 209.859" stroke="#263238" stroke-width="1.52" stroke-linecap="round" stroke-linejoin="round"/>
<path d="M196.015 202.947C196.015 202.947 200.693 213.74 199.562 221.327" stroke="#263238" stroke-width="1.52" stroke-linecap="round" stroke-linejoin="round"/>
<path d="M194.818 189.266C195.441 188.832 195.934 188.255 196.25 187.589C196.567 186.924 196.696 186.193 196.624 185.467C196.45 183.808 195.231 182.272 195.471 180.613C195.671 179.819 195.986 179.054 196.406 178.34C197.04 176.962 197.319 175.463 197.221 173.965C197.122 172.467 196.65 171.011 195.841 169.718C195.841 169.718 210.703 170.373 217.666 166.205C224.629 162.038 229.939 151.378 225.728 146.289C221.518 141.199 213.314 148.142 207.232 148.91C201.15 149.678 179.521 152.924 176.072 160.768C172.623 168.612 177.878 171.428 178.041 178.913C178.204 186.399 178.204 200.581 190.096 199.281C190.096 199.281 185.646 193.864 188.736 188.283C190.836 185.938 194.818 189.266 194.818 189.266Z" fill="#263238"/>
<path d="M223.965 155.136C225.983 156.615 227.656 158.47 228.88 160.584C230.104 162.698 230.853 165.026 231.08 167.424C231.744 173.035 242.319 183.941 234.693 190.157C234.693 190.157 232.919 183.552 231.875 180.296C230.83 177.039 229.492 171.08 227.74 169.032C225.989 166.984 216.697 159.816 216.697 159.816L223.965 155.136Z" fill="#263238"/>
<path d="M197.385 221.092C197.385 221.092 204.718 225.638 218.34 225.823L219.939 243.016C219.939 243.016 204.62 241.92 193.229 232.059C193.229 232.059 190.15 224.389 190.966 221.092C191.782 217.795 199.104 214.528 199.104 214.528" stroke="#263238" stroke-width="1.52" stroke-linecap="round" stroke-linejoin="round"/>
<path d="M228.197 213.402L228.633 219.546C225.761 222.361 222.239 224.515 218.34 225.843L226.87 241.131C226.87 241.131 237.043 233.677 238.055 225.843C238.055 225.843 238.142 217.825 236.368 215.531C234.595 213.238 228.132 212.162 228.132 212.162" stroke="#263238" stroke-width="1.52" stroke-linecap="round" stroke-linejoin="round"/>
<path opacity="0.8" d="M186.919 165.888C188.007 163.318 190.988 161.792 193.893 161.382C196.798 160.973 199.779 161.259 202.717 161.188C206.784 161.157 210.768 160.096 214.249 158.116C215.979 157.124 217.484 155.822 218.679 154.283C219.874 152.744 220.735 150.998 221.213 149.146" stroke="white" stroke-width="1.52" stroke-linecap="round" stroke-linejoin="round"/>
<path opacity="0.8" d="M179.901 165.386C181.74 160.133 187.702 156.887 193.566 156.426C196.471 156.191 199.409 156.508 202.27 156.191C205.132 155.873 208.178 154.747 209.69 152.402" stroke="white" stroke-width="1.52" stroke-linecap="round" stroke-linejoin="round"/>
<path d="M176.811 332.308C162.667 339.21 157.641 332.104 149.764 326.226C141.886 320.348 147.054 309.842 145.412 292.997C143.769 276.152 147.86 247.501 147.86 247.501C147.86 247.501 151.385 246.743 161.166 241.111C170.947 235.479 191.532 226.898 191.532 226.898" stroke="#263238" stroke-width="1.52" stroke-linecap="round" stroke-linejoin="round"/>
<path d="M190.825 306.811C190.825 306.811 188.583 300.124 182.251 299.95C175.919 299.776 165.931 302.459 158.816 315.126" stroke="#263238" stroke-width="1.52" stroke-linecap="round" stroke-linejoin="round"/>
<path d="M180.804 299.551C180.411 299.526 180.024 299.44 179.662 299.295C174.442 297.527 168.776 297.284 163.407 298.598" stroke="#263238" stroke-width="1.52" stroke-linecap="round" stroke-linejoin="round"/>
<path d="M159.762 256.645C171.284 268.626 176.898 284.477 182.219 299.837" stroke="#263238" stroke-width="1.52" stroke-linecap="round" stroke-linejoin="round"/>
<path d="M238.055 224.256C238.055 224.256 258.944 228.946 269.15 230.062C279.355 231.178 281.009 232.52 281.009 232.52L282.913 239.216" stroke="#263238" stroke-width="1.52" stroke-linecap="round" stroke-linejoin="round"/>
<path d="M335.398 235.909L264.254 238.479L258.444 307.343H270.63L332.406 294.328L340.175 237.558L335.398 235.909Z" fill="white"/>
<path d="M262.143 309.381L339.957 239.186L332.406 294.328L262.143 309.381Z" fill="#92E3A9"/>
<path opacity="0.7" d="M262.143 309.381L339.957 239.186L332.406 294.328L262.143 309.381Z" fill="white"/>
<path d="M262.143 307.538L268.366 241.111L340.174 237.558L332.406 294.328L262.143 307.538Z" stroke="#263238" stroke-width="1.52" stroke-linecap="round" stroke-linejoin="round"/>
<path d="M309.906 269.742C309.427 273.787 307.132 276.859 304.782 276.613C302.432 276.367 300.93 272.876 301.409 268.831C301.888 264.786 304.194 261.714 306.544 261.96C308.894 262.205 310.396 265.697 309.906 269.742Z" fill="#263238"/>
<path d="M332.406 294.328C332.406 294.328 365.285 293.448 375.567 299.837C385.849 306.227 391.887 338.268 390.462 355.287C389.036 372.306 376.633 411.361 376.633 411.361L352.871 386.048C352.871 386.048 341.164 345.989 347.551 330.301C347.551 330.301 315.999 331.97 303.574 328.305C303.574 328.305 292.444 311.153 273.36 305.48L332.406 294.328Z" fill="#263238"/>
<path d="M381.649 412.027C373.209 404.611 365.63 396.373 359.04 387.451C347.54 370.729 331.644 354.683 315.292 342.159C302.116 332.104 299.135 315.72 282.88 307.497C255.952 293.908 232.669 320.911 223.965 326.379C215.261 331.848 200.192 338.043 200.192 338.043C200.192 338.043 205.698 357.499 221.865 359.803C238.033 362.107 254.386 351.611 262.121 356.68C269.857 361.748 275.58 384.379 301.126 397.64C322.005 408.474 350.456 419.041 365.133 426.168C368.397 427.766 370.834 429.445 372.684 430.397C377.754 432.998 383.172 436.06 388.286 439.091L405.9 449.188C405.9 449.188 423.58 439.347 430.37 430.274C431.273 429.056 433.155 425.81 434.917 422.676C438.758 415.826 443.621 409.682 450.356 406.292C455.013 403.927 459.158 403.22 459.06 402.975C458.614 402.196 450.171 398.131 444.437 400.353C432.295 405.074 408.022 423.209 396.565 421.857C391.237 419.088 386.236 415.792 381.649 412.027V412.027Z" stroke="#263238" stroke-width="1.52" stroke-miterlimit="10"/>
<path d="M381.649 412.027C371.063 416.051 366.798 422.267 365.166 426.178C350.489 419.01 322.037 408.484 301.159 397.65C275.612 384.338 269.933 361.748 262.154 356.69C254.375 351.631 238.011 362.158 221.898 359.813C205.785 357.468 200.192 338.032 200.192 338.032C200.192 338.032 215.272 331.888 223.976 326.42C232.68 320.952 252.754 293.939 282.88 307.538C299.516 315.044 302.116 332.114 315.292 342.2C331.612 354.683 347.54 370.77 359.04 387.492C365.614 396.414 373.195 404.64 381.649 412.027V412.027Z" fill="#263238"/>
<path d="M302.095 325.212C302.095 325.212 293.945 309.627 280.879 306.606" stroke="white" stroke-width="1.52" stroke-linecap="round" stroke-linejoin="round"/>
<path d="M259.38 294.185C250.393 292.342 240.525 301.691 236.368 299.94C233.279 298.639 228.198 306.34 228.198 306.34C219.834 307.476 211.377 307.877 202.934 307.538C190.825 306.811 185.091 309.033 180.804 315.126L174.82 330.045C174.82 330.045 190.607 343.357 207.46 335.606C224.313 327.854 246.704 304.466 262.132 304.548" stroke="#263238" stroke-width="1.52" stroke-linecap="round" stroke-linejoin="round"/>
<path d="M384.837 437.064C384.837 437.064 399.59 438.2 396.13 421.612" stroke="#263238" stroke-width="1.52" stroke-miterlimit="10"/>
<path d="M454.36 411.361C453.272 413.409 439.748 424.243 428.096 433.715C428.096 433.572 431.36 427.786 432.709 425.318C435.81 419.871 443.817 404.93 459.06 402.964C461.225 404.193 454.36 411.361 454.36 411.361Z" fill="#263238"/>
<path d="M448.561 399.698C433.144 402.586 429.641 421.202 424.168 429.117C418.696 437.033 403.496 447.795 403.496 447.795" stroke="#263238" stroke-width="1.52" stroke-miterlimit="10"/>
<path d="M395.184 443.044C397.697 447.365 396.511 452.383 395.184 455.526C394.533 457.088 393.725 458.586 392.768 460.001C370.943 456.622 349.118 445.583 349.118 445.583L343.493 429.199L342.59 426.578L351.065 415.836" stroke="#263238" stroke-width="1.52" stroke-miterlimit="10"/>
<path d="M395.184 455.526C394.533 457.088 393.725 458.586 392.768 460.001C370.943 456.622 349.118 445.583 349.118 445.583L343.493 429.199C346.311 432.66 351.533 437.729 359.367 439.808C369.997 442.644 389.613 445.962 395.184 455.526Z" fill="#263238"/>
<path d="M258.444 304.947L264.254 238.479L335.398 235.909L340.175 237.558" stroke="#263238" stroke-width="1.52" stroke-linecap="round" stroke-linejoin="round"/>
<path d="M396.032 429.117C396.032 429.117 405.759 430.756 413.233 425.021C420.708 419.287 432.752 406.313 432.752 406.313" stroke="#263238" stroke-width="1.52" stroke-miterlimit="10"/>
<path d="M405.933 420.864C405.933 420.864 403.583 424.192 405.933 430.869" stroke="#263238" stroke-width="1.52" stroke-linecap="round" stroke-linejoin="round"/>
<path d="M412.831 417.679C411.762 420.998 412.077 424.576 413.712 427.684" stroke="#263238" stroke-width="1.52" stroke-linecap="round" stroke-linejoin="round"/>
<path d="M421.056 413.194C421.056 413.194 419.087 418.755 421.056 423.66" stroke="#263238" stroke-width="1.52" stroke-linecap="round" stroke-linejoin="round"/>
<path d="M352.991 414.454L345.19 423.291C345.19 423.291 353.045 431.37 364.132 434.729C375.219 438.088 395.02 443.791 396.663 449.864" stroke="#263238" stroke-width="1.52" stroke-miterlimit="10"/>
<path d="M304.282 266.779C303.847 266.779 303.495 267.106 303.495 267.508V272.113C303.495 272.516 303.847 272.842 304.282 272.842C304.717 272.842 305.069 272.516 305.069 272.113V267.508C305.069 267.106 304.717 266.779 304.282 266.779Z" fill="#6FCF97"/>
<path d="M306.416 268.708C306.02 268.708 305.699 269.005 305.699 269.372V270.97C305.699 271.337 306.02 271.634 306.416 271.634C306.811 271.634 307.132 271.337 307.132 270.97V269.372C307.132 269.005 306.811 268.708 306.416 268.708Z" fill="#6FCF97"/>
<path d="M305.699 267.718C305.699 267.352 306.02 267.055 306.416 267.055C306.811 267.055 307.132 267.352 307.132 267.718V267.854C307.132 268.22 306.811 268.517 306.416 268.517C306.02 268.517 305.699 268.22 305.699 267.854V267.718Z" fill="#6FCF97"/>
<path d="M308.505 269.047C308.109 269.047 307.788 269.344 307.788 269.71V269.846C307.788 270.212 308.109 270.509 308.505 270.509C308.9 270.509 309.221 270.212 309.221 269.846V269.71C309.221 269.344 308.9 269.047 308.505 269.047Z" fill="#6FCF97"/>
</svg>
