<svg width="375" height="667" viewBox="0 0 375 667" fill="none" xmlns="http://www.w3.org/2000/svg">
<g clip-path="url(#clip0)">
<rect width="375" height="667" fill="#1D1D1D"/>
<g opacity="0.05">
<path opacity="0.91" d="M70.4496 276.129C-77.0232 97.556 -129.554 196.371 -133.726 205.032C-133.933 205.461 -133.998 205.866 -133.995 206.342L-132.826 380.202C-131.992 504.112 -15.8588 614.863 70.1603 525.671C94.0458 500.905 113.763 468.06 124.55 424.514C148.346 328.452 82.328 290.512 70.4496 276.129Z" fill="#6FCF97"/>
</g>
<g opacity="0.91" filter="url(#filter0_d)">
<path d="M88.8484 612.997C35.6641 548.61 -0.380295 533.857 -23.3897 535.816C-46.3713 537.772 -56.8826 556.456 -58.8654 560.431C-59.0374 560.776 -59.1132 561.146 -59.1102 561.59L-58.8284 603.482C-58.365 672.359 -19.59 735.024 23.1294 763.716C44.4905 778.063 66.6746 783.813 85.4835 777.847C104.245 771.895 119.997 754.168 128.271 720.771C136.916 685.881 129.242 661.633 118.388 644.8C112.949 636.366 106.697 629.77 101.244 624.615C99.1068 622.595 97.0994 620.802 95.306 619.2C94.809 618.756 94.3285 618.327 93.8661 617.911C91.7565 616.016 89.9915 614.381 88.8484 612.997Z" stroke="#4F4F4F" stroke-width="2"/>
</g>
<mask id="mask0" mask-type="alpha" maskUnits="userSpaceOnUse" x="-61" y="498" width="162" height="205">
<path opacity="0.69" d="M64.0632 562.962C-23.9069 456.571 -56.2557 512.488 -59.7853 519.499C-60.0174 519.96 -60.1142 520.456 -60.1107 520.972L-59.8783 555.482C-59.1055 670.236 69.2983 764.361 96.9229 652.979C111.376 594.704 71.2779 571.688 64.0632 562.962Z" fill="#25356A" fill-opacity="0.35"/>
</mask>
<g mask="url(#mask0)">
<ellipse cx="0.669777" cy="495.568" rx="2.24397" ry="3.10074" fill="#25356A" fill-opacity="0.35"/>
<ellipse cx="8.14967" cy="495.568" rx="2.24397" ry="3.10074" fill="#25356A" fill-opacity="0.35"/>
<ellipse cx="15.6295" cy="495.568" rx="2.24397" ry="3.10074" fill="#25356A" fill-opacity="0.35"/>
<ellipse cx="23.1094" cy="495.568" rx="2.24397" ry="3.10074" fill="#25356A" fill-opacity="0.35"/>
<ellipse cx="30.5893" cy="495.568" rx="2.24397" ry="3.10074" fill="#25356A" fill-opacity="0.35"/>
<ellipse cx="38.0692" cy="495.568" rx="2.24397" ry="3.10074" fill="#25356A" fill-opacity="0.35"/>
<ellipse cx="45.5491" cy="495.568" rx="2.24397" ry="3.10074" fill="#25356A" fill-opacity="0.35"/>
<ellipse cx="53.029" cy="495.568" rx="2.24397" ry="3.10074" fill="#25356A" fill-opacity="0.35"/>
<ellipse cx="60.5088" cy="495.568" rx="2.24397" ry="3.10074" fill="#25356A" fill-opacity="0.35"/>
<ellipse cx="67.9887" cy="495.568" rx="2.24397" ry="3.10074" fill="#25356A" fill-opacity="0.35"/>
<ellipse cx="75.4686" cy="495.568" rx="2.24397" ry="3.10074" fill="#25356A" fill-opacity="0.35"/>
<ellipse cx="82.9485" cy="495.568" rx="2.24397" ry="3.10074" fill="#25356A" fill-opacity="0.35"/>
<ellipse cx="90.4284" cy="495.568" rx="2.24397" ry="3.10074" fill="#25356A" fill-opacity="0.35"/>
<ellipse cx="97.9083" cy="495.568" rx="2.24397" ry="3.10074" fill="#25356A" fill-opacity="0.35"/>
<ellipse cx="8.14967" cy="505.904" rx="2.24397" ry="3.10074" fill="#25356A" fill-opacity="0.35"/>
<ellipse cx="15.6295" cy="505.904" rx="2.24397" ry="3.10074" fill="#25356A" fill-opacity="0.35"/>
<ellipse cx="23.1094" cy="505.904" rx="2.24397" ry="3.10074" fill="#25356A" fill-opacity="0.35"/>
<ellipse cx="30.5893" cy="505.904" rx="2.24397" ry="3.10074" fill="#25356A" fill-opacity="0.35"/>
<ellipse cx="38.0692" cy="505.904" rx="2.24397" ry="3.10074" fill="#25356A" fill-opacity="0.35"/>
<ellipse cx="45.5491" cy="505.904" rx="2.24397" ry="3.10074" fill="#25356A" fill-opacity="0.35"/>
<ellipse cx="53.029" cy="505.904" rx="2.24397" ry="3.10074" fill="#25356A" fill-opacity="0.35"/>
<ellipse cx="60.5088" cy="505.904" rx="2.24397" ry="3.10074" fill="#25356A" fill-opacity="0.35"/>
<ellipse cx="67.9887" cy="505.904" rx="2.24397" ry="3.10074" fill="#25356A" fill-opacity="0.35"/>
<ellipse cx="75.4686" cy="505.904" rx="2.24397" ry="3.10074" fill="#25356A" fill-opacity="0.35"/>
<ellipse cx="82.9485" cy="505.904" rx="2.24397" ry="3.10074" fill="#25356A" fill-opacity="0.35"/>
<ellipse cx="90.4284" cy="505.904" rx="2.24397" ry="3.10074" fill="#25356A" fill-opacity="0.35"/>
<ellipse cx="97.9083" cy="505.904" rx="2.24397" ry="3.10074" fill="#25356A" fill-opacity="0.35"/>
<ellipse cx="0.669777" cy="516.24" rx="2.24397" ry="3.10074" fill="#25356A" fill-opacity="0.35"/>
<ellipse cx="8.14967" cy="516.24" rx="2.24397" ry="3.10074" fill="#25356A" fill-opacity="0.35"/>
<ellipse cx="23.1094" cy="516.24" rx="2.24397" ry="3.10074" fill="#25356A" fill-opacity="0.35"/>
<ellipse cx="30.5893" cy="516.24" rx="2.24397" ry="3.10074" fill="#25356A" fill-opacity="0.35"/>
<ellipse cx="38.0692" cy="516.24" rx="2.24397" ry="3.10074" fill="#25356A" fill-opacity="0.35"/>
<ellipse cx="45.5491" cy="516.24" rx="2.24397" ry="3.10074" fill="#25356A" fill-opacity="0.35"/>
<ellipse cx="53.029" cy="516.24" rx="2.24397" ry="3.10074" fill="#25356A" fill-opacity="0.35"/>
<ellipse cx="60.5088" cy="516.24" rx="2.24397" ry="3.10074" fill="#25356A" fill-opacity="0.35"/>
<ellipse cx="67.9887" cy="516.24" rx="2.24397" ry="3.10074" fill="#25356A" fill-opacity="0.35"/>
<ellipse cx="75.4686" cy="516.24" rx="2.24397" ry="3.10074" fill="#25356A" fill-opacity="0.35"/>
<ellipse cx="82.9485" cy="516.24" rx="2.24397" ry="3.10074" fill="#25356A" fill-opacity="0.35"/>
<ellipse cx="90.4284" cy="516.24" rx="2.24397" ry="3.10074" fill="#25356A" fill-opacity="0.35"/>
<ellipse cx="97.9083" cy="516.24" rx="2.24397" ry="3.10074" fill="#25356A" fill-opacity="0.35"/>
<ellipse cx="0.669777" cy="526.576" rx="2.24397" ry="3.10074" fill="#25356A" fill-opacity="0.35"/>
<ellipse cx="8.14967" cy="526.576" rx="2.24397" ry="3.10074" fill="#25356A" fill-opacity="0.35"/>
<ellipse cx="15.6295" cy="526.576" rx="2.24397" ry="3.10074" fill="#25356A" fill-opacity="0.35"/>
<ellipse cx="23.1094" cy="526.576" rx="2.24397" ry="3.10074" fill="#25356A" fill-opacity="0.35"/>
<ellipse cx="38.0692" cy="526.576" rx="2.24397" ry="3.10074" fill="#25356A" fill-opacity="0.35"/>
<ellipse cx="45.5491" cy="526.576" rx="2.24397" ry="3.10074" fill="#25356A" fill-opacity="0.35"/>
<ellipse cx="53.029" cy="526.576" rx="2.24397" ry="3.10074" fill="#25356A" fill-opacity="0.35"/>
<ellipse cx="60.5088" cy="526.576" rx="2.24397" ry="3.10074" fill="#25356A" fill-opacity="0.35"/>
<ellipse cx="67.9887" cy="526.576" rx="2.24397" ry="3.10074" fill="#25356A" fill-opacity="0.35"/>
<ellipse cx="75.4686" cy="526.576" rx="2.24397" ry="3.10074" fill="#25356A" fill-opacity="0.35"/>
<ellipse cx="82.9485" cy="526.576" rx="2.24397" ry="3.10074" fill="#25356A" fill-opacity="0.35"/>
<ellipse cx="90.4284" cy="526.576" rx="2.24397" ry="3.10074" fill="#25356A" fill-opacity="0.35"/>
<ellipse cx="97.9083" cy="526.576" rx="2.24397" ry="3.10074" fill="#25356A" fill-opacity="0.35"/>
<ellipse cx="0.669777" cy="536.911" rx="2.24397" ry="3.10074" fill="#25356A" fill-opacity="0.35"/>
<ellipse cx="8.14967" cy="536.911" rx="2.24397" ry="3.10074" fill="#25356A" fill-opacity="0.35"/>
<ellipse cx="15.6295" cy="536.911" rx="2.24397" ry="3.10074" fill="#25356A" fill-opacity="0.35"/>
<ellipse cx="23.1094" cy="536.911" rx="2.24397" ry="3.10074" fill="#25356A" fill-opacity="0.35"/>
<ellipse cx="30.5893" cy="536.911" rx="2.24397" ry="3.10074" fill="#25356A" fill-opacity="0.35"/>
<ellipse cx="45.5491" cy="536.911" rx="2.24397" ry="3.10074" fill="#25356A" fill-opacity="0.35"/>
<ellipse cx="53.029" cy="536.911" rx="2.24397" ry="3.10074" fill="#25356A" fill-opacity="0.35"/>
<ellipse cx="60.5088" cy="536.911" rx="2.24397" ry="3.10074" fill="#25356A" fill-opacity="0.35"/>
<ellipse cx="67.9887" cy="536.911" rx="2.24397" ry="3.10074" fill="#25356A" fill-opacity="0.35"/>
<ellipse cx="75.4686" cy="536.911" rx="2.24397" ry="3.10074" fill="#25356A" fill-opacity="0.35"/>
<ellipse cx="82.9485" cy="536.911" rx="2.24397" ry="3.10074" fill="#25356A" fill-opacity="0.35"/>
<ellipse cx="90.4284" cy="536.911" rx="2.24397" ry="3.10074" fill="#25356A" fill-opacity="0.35"/>
<ellipse cx="97.9083" cy="536.911" rx="2.24397" ry="3.10074" fill="#25356A" fill-opacity="0.35"/>
<ellipse cx="0.669777" cy="547.247" rx="2.24397" ry="3.10074" fill="#25356A" fill-opacity="0.35"/>
<ellipse cx="8.14967" cy="547.247" rx="2.24397" ry="3.10074" fill="#25356A" fill-opacity="0.35"/>
<ellipse cx="15.6295" cy="547.247" rx="2.24397" ry="3.10074" fill="#25356A" fill-opacity="0.35"/>
<ellipse cx="23.1094" cy="547.247" rx="2.24397" ry="3.10074" fill="#25356A" fill-opacity="0.35"/>
<ellipse cx="30.5893" cy="547.247" rx="2.24397" ry="3.10074" fill="#25356A" fill-opacity="0.35"/>
<ellipse cx="38.0692" cy="547.247" rx="2.24397" ry="3.10074" fill="#25356A" fill-opacity="0.35"/>
<ellipse cx="45.5491" cy="547.247" rx="2.24397" ry="3.10074" fill="#25356A" fill-opacity="0.35"/>
<ellipse cx="60.5088" cy="547.247" rx="2.24397" ry="3.10074" fill="#25356A" fill-opacity="0.35"/>
<ellipse cx="67.9887" cy="547.247" rx="2.24397" ry="3.10074" fill="#25356A" fill-opacity="0.35"/>
<ellipse cx="75.4686" cy="547.247" rx="2.24397" ry="3.10074" fill="#25356A" fill-opacity="0.35"/>
<ellipse cx="82.9485" cy="547.247" rx="2.24397" ry="3.10074" fill="#25356A" fill-opacity="0.35"/>
<ellipse cx="90.4284" cy="547.247" rx="2.24397" ry="3.10074" fill="#25356A" fill-opacity="0.35"/>
<ellipse cx="97.9083" cy="547.247" rx="2.24397" ry="3.10074" fill="#25356A" fill-opacity="0.35"/>
<ellipse cx="0.669777" cy="557.583" rx="2.24397" ry="3.10074" fill="#25356A" fill-opacity="0.35"/>
<ellipse cx="8.14967" cy="557.583" rx="2.24397" ry="3.10074" fill="#25356A" fill-opacity="0.35"/>
<ellipse cx="15.6295" cy="557.583" rx="2.24397" ry="3.10074" fill="#25356A" fill-opacity="0.35"/>
<ellipse cx="23.1094" cy="557.583" rx="2.24397" ry="3.10074" fill="#25356A" fill-opacity="0.35"/>
<ellipse cx="30.5893" cy="557.583" rx="2.24397" ry="3.10074" fill="#25356A" fill-opacity="0.35"/>
<ellipse cx="38.0692" cy="557.583" rx="2.24397" ry="3.10074" fill="#25356A" fill-opacity="0.35"/>
<ellipse cx="45.5491" cy="557.583" rx="2.24397" ry="3.10074" fill="#25356A" fill-opacity="0.35"/>
<ellipse cx="53.029" cy="557.583" rx="2.24397" ry="3.10074" fill="#25356A" fill-opacity="0.35"/>
<ellipse cx="67.9887" cy="557.583" rx="2.24397" ry="3.10074" fill="#25356A" fill-opacity="0.35"/>
<ellipse cx="75.4686" cy="557.583" rx="2.24397" ry="3.10074" fill="#25356A" fill-opacity="0.35"/>
<ellipse cx="82.9485" cy="557.583" rx="2.24397" ry="3.10074" fill="#25356A" fill-opacity="0.35"/>
<ellipse cx="90.4284" cy="557.583" rx="2.24397" ry="3.10074" fill="#25356A" fill-opacity="0.35"/>
<ellipse cx="97.9083" cy="557.583" rx="2.24397" ry="3.10074" fill="#25356A" fill-opacity="0.35"/>
<ellipse cx="0.669777" cy="567.919" rx="2.24397" ry="3.10074" fill="#25356A" fill-opacity="0.35"/>
<ellipse cx="8.14967" cy="567.919" rx="2.24397" ry="3.10074" fill="#25356A" fill-opacity="0.35"/>
<ellipse cx="15.6295" cy="567.919" rx="2.24397" ry="3.10074" fill="#25356A" fill-opacity="0.35"/>
<ellipse cx="23.1094" cy="567.919" rx="2.24397" ry="3.10074" fill="#25356A" fill-opacity="0.35"/>
<ellipse cx="30.5893" cy="567.919" rx="2.24397" ry="3.10074" fill="#25356A" fill-opacity="0.35"/>
<ellipse cx="38.0692" cy="567.919" rx="2.24397" ry="3.10074" fill="#25356A" fill-opacity="0.35"/>
<ellipse cx="45.5491" cy="567.919" rx="2.24397" ry="3.10074" fill="#25356A" fill-opacity="0.35"/>
<ellipse cx="53.029" cy="567.919" rx="2.24397" ry="3.10074" fill="#25356A" fill-opacity="0.35"/>
<ellipse cx="60.5088" cy="567.919" rx="2.24397" ry="3.10074" fill="#25356A" fill-opacity="0.35"/>
<ellipse cx="75.4686" cy="567.919" rx="2.24397" ry="3.10074" fill="#25356A" fill-opacity="0.35"/>
<ellipse cx="82.9485" cy="567.919" rx="2.24397" ry="3.10074" fill="#25356A" fill-opacity="0.35"/>
<ellipse cx="90.4284" cy="567.919" rx="2.24397" ry="3.10074" fill="#25356A" fill-opacity="0.35"/>
<ellipse cx="97.9083" cy="567.919" rx="2.24397" ry="3.10074" fill="#25356A" fill-opacity="0.35"/>
<ellipse cx="0.669777" cy="578.254" rx="2.24397" ry="3.10074" fill="#25356A" fill-opacity="0.35"/>
<ellipse cx="8.14967" cy="578.254" rx="2.24397" ry="3.10074" fill="#25356A" fill-opacity="0.35"/>
<ellipse cx="15.6295" cy="578.254" rx="2.24397" ry="3.10074" fill="#25356A" fill-opacity="0.35"/>
<ellipse cx="23.1094" cy="578.254" rx="2.24397" ry="3.10074" fill="#25356A" fill-opacity="0.35"/>
<ellipse cx="30.5893" cy="578.254" rx="2.24397" ry="3.10074" fill="#25356A" fill-opacity="0.35"/>
<ellipse cx="38.0692" cy="578.254" rx="2.24397" ry="3.10074" fill="#25356A" fill-opacity="0.35"/>
<ellipse cx="45.5491" cy="578.254" rx="2.24397" ry="3.10074" fill="#25356A" fill-opacity="0.35"/>
<ellipse cx="53.029" cy="578.254" rx="2.24397" ry="3.10074" fill="#25356A" fill-opacity="0.35"/>
<ellipse cx="60.5088" cy="578.254" rx="2.24397" ry="3.10074" fill="#25356A" fill-opacity="0.35"/>
<ellipse cx="67.9887" cy="578.254" rx="2.24397" ry="3.10074" fill="#25356A" fill-opacity="0.35"/>
<ellipse cx="75.4686" cy="578.254" rx="2.24397" ry="3.10074" fill="#25356A" fill-opacity="0.35"/>
<ellipse cx="90.4284" cy="578.254" rx="2.24397" ry="3.10074" fill="#25356A" fill-opacity="0.35"/>
<ellipse cx="97.9083" cy="578.254" rx="2.24397" ry="3.10074" fill="#25356A" fill-opacity="0.35"/>
<ellipse cx="0.669777" cy="588.59" rx="2.24397" ry="3.10074" fill="#25356A" fill-opacity="0.35"/>
<ellipse cx="8.14967" cy="588.59" rx="2.24397" ry="3.10074" fill="#25356A" fill-opacity="0.35"/>
<ellipse cx="15.6295" cy="588.59" rx="2.24397" ry="3.10074" fill="#25356A" fill-opacity="0.35"/>
<ellipse cx="23.1094" cy="588.59" rx="2.24397" ry="3.10074" fill="#25356A" fill-opacity="0.35"/>
<ellipse cx="30.5893" cy="588.59" rx="2.24397" ry="3.10074" fill="#25356A" fill-opacity="0.35"/>
<ellipse cx="38.0692" cy="588.59" rx="2.24397" ry="3.10074" fill="#25356A" fill-opacity="0.35"/>
<ellipse cx="45.5491" cy="588.59" rx="2.24397" ry="3.10074" fill="#25356A" fill-opacity="0.35"/>
<ellipse cx="53.029" cy="588.59" rx="2.24397" ry="3.10074" fill="#25356A" fill-opacity="0.35"/>
<ellipse cx="60.5088" cy="588.59" rx="2.24397" ry="3.10074" fill="#25356A" fill-opacity="0.35"/>
<ellipse cx="67.9887" cy="588.59" rx="2.24397" ry="3.10074" fill="#25356A" fill-opacity="0.35"/>
<ellipse cx="75.4686" cy="588.59" rx="2.24397" ry="3.10074" fill="#25356A" fill-opacity="0.35"/>
<ellipse cx="82.9485" cy="588.59" rx="2.24397" ry="3.10074" fill="#25356A" fill-opacity="0.35"/>
<ellipse cx="97.9083" cy="588.59" rx="2.24397" ry="3.10074" fill="#25356A" fill-opacity="0.35"/>
<ellipse cx="0.669777" cy="598.926" rx="2.24397" ry="3.10074" fill="#25356A" fill-opacity="0.35"/>
<ellipse cx="8.14967" cy="598.926" rx="2.24397" ry="3.10074" fill="#25356A" fill-opacity="0.35"/>
<ellipse cx="15.6295" cy="598.926" rx="2.24397" ry="3.10074" fill="#25356A" fill-opacity="0.35"/>
<ellipse cx="23.1094" cy="598.926" rx="2.24397" ry="3.10074" fill="#25356A" fill-opacity="0.35"/>
<ellipse cx="30.5893" cy="598.926" rx="2.24397" ry="3.10074" fill="#25356A" fill-opacity="0.35"/>
<ellipse cx="38.0692" cy="598.926" rx="2.24397" ry="3.10074" fill="#25356A" fill-opacity="0.35"/>
<ellipse cx="45.5491" cy="598.926" rx="2.24397" ry="3.10074" fill="#25356A" fill-opacity="0.35"/>
<ellipse cx="53.029" cy="598.926" rx="2.24397" ry="3.10074" fill="#25356A" fill-opacity="0.35"/>
<ellipse cx="60.5088" cy="598.926" rx="2.24397" ry="3.10074" fill="#25356A" fill-opacity="0.35"/>
<ellipse cx="67.9887" cy="598.926" rx="2.24397" ry="3.10074" fill="#25356A" fill-opacity="0.35"/>
<ellipse cx="75.4686" cy="598.926" rx="2.24397" ry="3.10074" fill="#25356A" fill-opacity="0.35"/>
<ellipse cx="82.9485" cy="598.926" rx="2.24397" ry="3.10074" fill="#25356A" fill-opacity="0.35"/>
<ellipse cx="90.4284" cy="598.926" rx="2.24397" ry="3.10074" fill="#25356A" fill-opacity="0.35"/>
<ellipse cx="97.9083" cy="598.926" rx="2.24397" ry="3.10074" fill="#25356A" fill-opacity="0.35"/>
<ellipse cx="0.669777" cy="609.262" rx="2.24397" ry="3.10074" fill="#25356A" fill-opacity="0.35"/>
<ellipse cx="8.14967" cy="609.262" rx="2.24397" ry="3.10074" fill="#25356A" fill-opacity="0.35"/>
<ellipse cx="15.6295" cy="609.262" rx="2.24397" ry="3.10074" fill="#25356A" fill-opacity="0.35"/>
<ellipse cx="23.1094" cy="609.262" rx="2.24397" ry="3.10074" fill="#25356A" fill-opacity="0.35"/>
<ellipse cx="30.5893" cy="609.262" rx="2.24397" ry="3.10074" fill="#25356A" fill-opacity="0.35"/>
<ellipse cx="38.0692" cy="609.262" rx="2.24397" ry="3.10074" fill="#25356A" fill-opacity="0.35"/>
<ellipse cx="45.5491" cy="609.262" rx="2.24397" ry="3.10074" fill="#25356A" fill-opacity="0.35"/>
<ellipse cx="53.029" cy="609.262" rx="2.24397" ry="3.10074" fill="#25356A" fill-opacity="0.35"/>
<ellipse cx="60.5088" cy="609.262" rx="2.24397" ry="3.10074" fill="#25356A" fill-opacity="0.35"/>
<ellipse cx="67.9887" cy="609.262" rx="2.24397" ry="3.10074" fill="#25356A" fill-opacity="0.35"/>
<ellipse cx="75.4686" cy="609.262" rx="2.24397" ry="3.10074" fill="#25356A" fill-opacity="0.35"/>
<ellipse cx="82.9485" cy="609.262" rx="2.24397" ry="3.10074" fill="#25356A" fill-opacity="0.35"/>
<ellipse cx="90.4284" cy="609.262" rx="2.24397" ry="3.10074" fill="#25356A" fill-opacity="0.35"/>
<ellipse cx="0.669777" cy="619.598" rx="2.24397" ry="3.10074" fill="#25356A" fill-opacity="0.35"/>
<ellipse cx="8.14967" cy="619.598" rx="2.24397" ry="3.10074" fill="#25356A" fill-opacity="0.35"/>
<ellipse cx="15.6295" cy="619.598" rx="2.24397" ry="3.10074" fill="#25356A" fill-opacity="0.35"/>
<ellipse cx="23.1094" cy="619.598" rx="2.24397" ry="3.10074" fill="#25356A" fill-opacity="0.35"/>
<ellipse cx="30.5893" cy="619.598" rx="2.24397" ry="3.10074" fill="#25356A" fill-opacity="0.35"/>
<ellipse cx="38.0692" cy="619.598" rx="2.24397" ry="3.10074" fill="#25356A" fill-opacity="0.35"/>
<ellipse cx="45.5491" cy="619.598" rx="2.24397" ry="3.10074" fill="#25356A" fill-opacity="0.35"/>
<ellipse cx="53.029" cy="619.598" rx="2.24397" ry="3.10074" fill="#25356A" fill-opacity="0.35"/>
<ellipse cx="60.5088" cy="619.598" rx="2.24397" ry="3.10074" fill="#25356A" fill-opacity="0.35"/>
<ellipse cx="67.9887" cy="619.598" rx="2.24397" ry="3.10074" fill="#25356A" fill-opacity="0.35"/>
<ellipse cx="75.4686" cy="619.598" rx="2.24397" ry="3.10074" fill="#25356A" fill-opacity="0.35"/>
<ellipse cx="82.9485" cy="619.598" rx="2.24397" ry="3.10074" fill="#25356A" fill-opacity="0.35"/>
<ellipse cx="90.4284" cy="619.598" rx="2.24397" ry="3.10074" fill="#25356A" fill-opacity="0.35"/>
<ellipse cx="0.669777" cy="629.933" rx="2.24397" ry="3.10074" fill="#25356A" fill-opacity="0.35"/>
<ellipse cx="8.14967" cy="629.933" rx="2.24397" ry="3.10074" fill="#25356A" fill-opacity="0.35"/>
<ellipse cx="15.6295" cy="629.933" rx="2.24397" ry="3.10074" fill="#25356A" fill-opacity="0.35"/>
<ellipse cx="23.1094" cy="629.933" rx="2.24397" ry="3.10074" fill="#25356A" fill-opacity="0.35"/>
<ellipse cx="30.5893" cy="629.933" rx="2.24397" ry="3.10074" fill="#25356A" fill-opacity="0.35"/>
<ellipse cx="38.0692" cy="629.933" rx="2.24397" ry="3.10074" fill="#25356A" fill-opacity="0.35"/>
<ellipse cx="45.5491" cy="629.933" rx="2.24397" ry="3.10074" fill="#25356A" fill-opacity="0.35"/>
<ellipse cx="53.029" cy="629.933" rx="2.24397" ry="3.10074" fill="#25356A" fill-opacity="0.35"/>
<ellipse cx="60.5088" cy="629.933" rx="2.24397" ry="3.10074" fill="#25356A" fill-opacity="0.35"/>
<ellipse cx="67.9887" cy="629.933" rx="2.24397" ry="3.10074" fill="#25356A" fill-opacity="0.35"/>
<ellipse cx="75.4686" cy="629.933" rx="2.24397" ry="3.10074" fill="#25356A" fill-opacity="0.35"/>
<ellipse cx="82.9485" cy="629.933" rx="2.24397" ry="3.10074" fill="#25356A" fill-opacity="0.35"/>
<ellipse cx="90.4284" cy="629.933" rx="2.24397" ry="3.10074" fill="#25356A" fill-opacity="0.35"/>
<ellipse cx="97.9083" cy="629.933" rx="2.24397" ry="3.10074" fill="#25356A" fill-opacity="0.35"/>
<ellipse cx="0.669777" cy="640.269" rx="2.24397" ry="3.10074" fill="#25356A" fill-opacity="0.35"/>
<ellipse cx="8.14967" cy="640.269" rx="2.24397" ry="3.10074" fill="#25356A" fill-opacity="0.35"/>
<ellipse cx="15.6295" cy="640.269" rx="2.24397" ry="3.10074" fill="#25356A" fill-opacity="0.35"/>
<ellipse cx="23.1094" cy="640.269" rx="2.24397" ry="3.10074" fill="#25356A" fill-opacity="0.35"/>
<ellipse cx="30.5893" cy="640.269" rx="2.24397" ry="3.10074" fill="#25356A" fill-opacity="0.35"/>
<ellipse cx="38.0692" cy="640.269" rx="2.24397" ry="3.10074" fill="#25356A" fill-opacity="0.35"/>
<ellipse cx="45.5491" cy="640.269" rx="2.24397" ry="3.10074" fill="#25356A" fill-opacity="0.35"/>
<ellipse cx="53.029" cy="640.269" rx="2.24397" ry="3.10074" fill="#25356A" fill-opacity="0.35"/>
<ellipse cx="60.5088" cy="640.269" rx="2.24397" ry="3.10074" fill="#25356A" fill-opacity="0.35"/>
<ellipse cx="67.9887" cy="640.269" rx="2.24397" ry="3.10074" fill="#25356A" fill-opacity="0.35"/>
<ellipse cx="75.4686" cy="640.269" rx="2.24397" ry="3.10074" fill="#25356A" fill-opacity="0.35"/>
<ellipse cx="82.9485" cy="640.269" rx="2.24397" ry="3.10074" fill="#25356A" fill-opacity="0.35"/>
<ellipse cx="90.4284" cy="640.269" rx="2.24397" ry="3.10074" fill="#25356A" fill-opacity="0.35"/>
<ellipse cx="0.669777" cy="650.605" rx="2.24397" ry="3.10074" fill="#25356A" fill-opacity="0.35"/>
<ellipse cx="8.14967" cy="650.605" rx="2.24397" ry="3.10074" fill="#25356A" fill-opacity="0.35"/>
<ellipse cx="15.6295" cy="650.605" rx="2.24397" ry="3.10074" fill="#25356A" fill-opacity="0.35"/>
<ellipse cx="23.1094" cy="650.605" rx="2.24397" ry="3.10074" fill="#25356A" fill-opacity="0.35"/>
<ellipse cx="30.5893" cy="650.605" rx="2.24397" ry="3.10074" fill="#25356A" fill-opacity="0.35"/>
<ellipse cx="38.0692" cy="650.605" rx="2.24397" ry="3.10074" fill="#25356A" fill-opacity="0.35"/>
<ellipse cx="45.5491" cy="650.605" rx="2.24397" ry="3.10074" fill="#25356A" fill-opacity="0.35"/>
<ellipse cx="53.029" cy="650.605" rx="2.24397" ry="3.10074" fill="#25356A" fill-opacity="0.35"/>
<ellipse cx="60.5088" cy="650.605" rx="2.24397" ry="3.10074" fill="#25356A" fill-opacity="0.35"/>
<ellipse cx="67.9887" cy="650.605" rx="2.24397" ry="3.10074" fill="#25356A" fill-opacity="0.35"/>
<ellipse cx="75.4686" cy="650.605" rx="2.24397" ry="3.10074" fill="#25356A" fill-opacity="0.35"/>
<ellipse cx="82.9485" cy="650.605" rx="2.24397" ry="3.10074" fill="#25356A" fill-opacity="0.35"/>
<ellipse cx="90.4284" cy="650.605" rx="2.24397" ry="3.10074" fill="#25356A" fill-opacity="0.35"/>
<ellipse cx="0.669777" cy="660.941" rx="2.24397" ry="3.10074" fill="#25356A" fill-opacity="0.35"/>
<ellipse cx="8.14967" cy="660.941" rx="2.24397" ry="3.10074" fill="#25356A" fill-opacity="0.35"/>
<ellipse cx="15.6295" cy="660.941" rx="2.24397" ry="3.10074" fill="#25356A" fill-opacity="0.35"/>
<ellipse cx="23.1094" cy="660.941" rx="2.24397" ry="3.10074" fill="#25356A" fill-opacity="0.35"/>
<ellipse cx="30.5893" cy="660.941" rx="2.24397" ry="3.10074" fill="#25356A" fill-opacity="0.35"/>
<ellipse cx="38.0692" cy="660.941" rx="2.24397" ry="3.10074" fill="#25356A" fill-opacity="0.35"/>
<ellipse cx="45.5491" cy="660.941" rx="2.24397" ry="3.10074" fill="#25356A" fill-opacity="0.35"/>
<ellipse cx="53.029" cy="660.941" rx="2.24397" ry="3.10074" fill="#25356A" fill-opacity="0.35"/>
<ellipse cx="60.5088" cy="660.941" rx="2.24397" ry="3.10074" fill="#25356A" fill-opacity="0.35"/>
<ellipse cx="67.9887" cy="660.941" rx="2.24397" ry="3.10074" fill="#25356A" fill-opacity="0.35"/>
<ellipse cx="75.4686" cy="660.941" rx="2.24397" ry="3.10074" fill="#25356A" fill-opacity="0.35"/>
<ellipse cx="82.9485" cy="660.941" rx="2.24397" ry="3.10074" fill="#25356A" fill-opacity="0.35"/>
<ellipse cx="90.4284" cy="660.941" rx="2.24397" ry="3.10074" fill="#25356A" fill-opacity="0.35"/>
<ellipse cx="97.9083" cy="660.941" rx="2.24397" ry="3.10074" fill="#25356A" fill-opacity="0.35"/>
</g>
<g opacity="0.91" filter="url(#filter1_d)">
<path d="M80.771 612.36C-25.67 483.499 -64.5785 551.905 -68.6086 559.984C-68.8634 560.495 -68.9624 561.026 -68.9586 561.597L-68.6768 603.489C-67.7455 741.913 87.1025 855.376 120.393 721.012C137.821 650.673 89.4705 622.892 80.771 612.36Z" fill="#6FCF97"/>
</g>
</g>
<defs>
<filter id="filter0_d" x="-96.0766" y="498.683" width="305.914" height="359.334" filterUnits="userSpaceOnUse" color-interpolation-filters="sRGB">
<feFlood flood-opacity="0" result="BackgroundImageFix"/>
<feColorMatrix in="SourceAlpha" type="matrix" values="0 0 0 0 0 0 0 0 0 0 0 0 0 0 0 0 0 0 127 0" result="hardAlpha"/>
<feOffset dx="20.4354" dy="20.4354"/>
<feGaussianBlur stdDeviation="28.2009"/>
<feColorMatrix type="matrix" values="0 0 0 0 0 0 0 0 0 0 0 0 0 0 0 0 0 0 0.04 0"/>
<feBlend mode="normal" in2="BackgroundImageFix" result="effect1_dropShadow"/>
<feBlend mode="normal" in="SourceGraphic" in2="effect1_dropShadow" result="shape"/>
</filter>
<filter id="filter1_d" x="-104.925" y="498.683" width="305.914" height="359.334" filterUnits="userSpaceOnUse" color-interpolation-filters="sRGB">
<feFlood flood-opacity="0" result="BackgroundImageFix"/>
<feColorMatrix in="SourceAlpha" type="matrix" values="0 0 0 0 0 0 0 0 0 0 0 0 0 0 0 0 0 0 127 0" result="hardAlpha"/>
<feOffset dx="20.4354" dy="20.4354"/>
<feGaussianBlur stdDeviation="28.2009"/>
<feColorMatrix type="matrix" values="0 0 0 0 0 0 0 0 0 0 0 0 0 0 0 0 0 0 0.04 0"/>
<feBlend mode="normal" in2="BackgroundImageFix" result="effect1_dropShadow"/>
<feBlend mode="normal" in="SourceGraphic" in2="effect1_dropShadow" result="shape"/>
</filter>
<clipPath id="clip0">
<rect width="375" height="667" fill="white"/>
</clipPath>
</defs>
</svg>
