<svg width="150" height="144" viewBox="0 0 150 144" fill="none" xmlns="http://www.w3.org/2000/svg">
<path d="M134.482 87.2412C131.263 99.7685 123.642 110.771 112.862 118.455C102.081 126.138 88.777 130.05 75.1186 129.551L74.9406 129.506C73.3217 129.432 71.7105 129.327 70.0705 129.134C67.1937 128.793 64.34 128.262 61.5304 127.543C46.191 123.55 32.9395 114.047 24.6136 101.071C16.2878 88.0947 13.5496 72.6761 16.9854 58.1172C20.4212 43.5583 29.7579 31.0166 42.9959 23.1779C56.234 15.3392 72.321 12.8268 87.8118 16.1787C88.3456 16.3158 88.9117 16.4611 89.4293 16.594C89.6054 16.623 89.7787 16.6675 89.947 16.7269C90.15 16.7629 90.3502 16.8143 90.5454 16.8806C98.4572 18.9633 105.879 22.558 112.352 27.4418C121.697 34.4486 128.767 43.836 132.698 54.4563C136.628 65.0765 137.248 76.4692 134.482 87.2412Z" fill="#92E3A9"/>
<path opacity="0.4" d="M112.38 27.4654C45.4111 6.72465 26.8441 77.6998 26.8441 77.6998C26.8441 77.6998 22.445 51.8546 45.9363 30.534C59.0706 18.595 77.1312 16.4793 90.5662 16.9347C98.4782 19.0072 105.903 22.5916 112.38 27.4654Z" fill="white"/>
<path d="M134.482 87.2413C131.257 99.7998 123.608 110.826 112.789 118.512C101.969 126.199 88.6204 130.091 74.9289 129.551C70.409 129.382 65.9099 128.724 61.5187 127.589C45.8721 123.861 32.2515 114.417 23.6531 101.334C15.0548 88.2513 12.1831 72.6016 15.6698 57.8276C19.1564 43.0537 28.7159 30.3658 42.2452 22.5551C55.7744 14.7445 72.1652 12.4508 87.8118 16.1788C88.5235 16.3615 89.2514 16.5484 89.9793 16.7353C105.554 20.7382 118.991 30.4139 127.336 43.6352C135.681 56.8565 138.251 72.5413 134.482 87.2413V87.2413Z" stroke="#263238" stroke-width="1.52" stroke-linecap="round" stroke-linejoin="round"/>
<path d="M134.482 87.2414C131.257 99.7999 123.609 110.826 112.789 118.512C101.97 126.199 88.621 130.092 74.9294 129.552C74.2177 129.369 73.4898 129.182 72.7619 128.995C58.3543 125.258 45.7481 116.652 37.3428 104.815C28.9375 92.9789 25.3199 78.7383 27.1788 64.8044C29.0377 50.8704 36.2432 38.2159 47.4238 29.2496C58.6043 20.2833 72.9792 15.6312 87.8124 16.1789C88.5241 16.3616 89.252 16.5485 89.9799 16.7354C105.554 20.7383 118.991 30.414 127.336 43.6353C135.682 56.8567 138.252 72.5414 134.482 87.2414V87.2414Z" stroke="#263238" stroke-width="1.52" stroke-linecap="round" stroke-linejoin="round"/>
<path d="M87.0919 111.994L87.1075 118.246L76.3497 117.973L76.3302 111.736C67.2396 109.402 61.375 101.958 61.3423 92.4145L61.3287 89.5798L73.522 88.6263L73.5243 91.572C73.5364 97.3676 76.6674 100.954 81.689 101.072C82.7685 101.186 83.8548 101.077 84.8728 100.752C85.8908 100.427 86.8164 99.8941 87.5856 99.1898C88.3549 98.4855 88.9495 97.6266 89.3285 96.6724C89.7075 95.7183 89.8618 94.6915 89.7808 93.663C89.7624 88.0935 84.2604 83.1989 77.7829 77.9399C70.1156 71.741 62.4478 64.4028 62.4229 54.2921C62.4039 44.4269 67.3917 37.4906 76.1195 35.6636L76.1039 29.4114L86.8456 29.6798L86.865 35.9166C95.712 38.0578 100.872 45.224 100.853 55.307L100.86 57.3591L88.683 58.3168L88.6617 56.0497C88.651 49.9127 86.1362 46.68 81.716 46.5702C77.2959 46.4605 74.793 49.0233 74.8069 54.0058C74.8253 59.5753 80.4396 64.3685 86.801 69.7441C94.3359 76.0556 102.136 83.2812 102.165 93.3767C102.3 103.125 96.2682 110.233 87.0919 111.994Z" stroke="#263238" stroke-width="1.52" stroke-miterlimit="10"/>
<path opacity="0.3" d="M87.0919 111.994L87.1075 118.246L76.3497 117.973L76.3302 111.736C67.2396 109.402 61.375 101.958 61.3423 92.4145L61.3287 89.5798L73.522 88.6263L73.5243 91.572C73.5364 97.3676 76.6674 100.954 81.689 101.072C82.7685 101.186 83.8548 101.077 84.8728 100.752C85.8908 100.427 86.8164 99.8941 87.5856 99.1898C88.3549 98.4855 88.9495 97.6266 89.3285 96.6724C89.7075 95.7183 89.8618 94.6915 89.7808 93.663C89.7624 88.0935 84.2604 83.1989 77.7829 77.9399C70.1156 71.741 62.4478 64.4028 62.4229 54.2921C62.4039 44.4269 67.3917 37.4906 76.1195 35.6636L76.1039 29.4114L86.8456 29.6798L86.865 35.9166C95.712 38.0578 100.872 45.224 100.853 55.307L100.86 57.3591L88.683 58.3168L88.6617 56.0497C88.651 49.9127 86.1362 46.68 81.716 46.5702C77.2959 46.4605 74.793 49.0233 74.8069 54.0058C74.8253 59.5753 80.4396 64.3685 86.801 69.7441C94.3359 76.0556 102.136 83.2812 102.165 93.3767C102.3 103.125 96.2682 110.233 87.0919 111.994Z" fill="black"/>
<path d="M33.4926 112.112L46.0363 114.763" stroke="#263238" stroke-width="1.52" stroke-linecap="round" stroke-linejoin="round"/>
<path d="M28.523 106.687L39.5677 108.595" stroke="#263238" stroke-width="1.52" stroke-linecap="round" stroke-linejoin="round"/>
<path d="M24.7245 101.334L35.7693 103.243" stroke="#263238" stroke-width="1.52" stroke-linecap="round" stroke-linejoin="round"/>
<path d="M43.2864 22.8571L52.5549 25.2366" stroke="#263238" stroke-width="1.52" stroke-linecap="round" stroke-linejoin="round"/>
<path d="M48.8987 20.0024L58.2367 21.9768" stroke="#263238" stroke-width="1.52" stroke-linecap="round" stroke-linejoin="round"/>
<path d="M55.7279 17.4439L65.6889 19.0738" stroke="#263238" stroke-width="1.52" stroke-linecap="round" stroke-linejoin="round"/>
<path opacity="0.3" d="M75.1186 129.551L74.9407 129.506C70.4209 129.336 65.9217 128.678 61.5305 127.543C46.1911 123.55 32.9395 114.047 24.6137 101.071C16.2878 88.0947 13.5496 72.6761 16.9854 58.1172C20.4212 43.5583 29.7579 31.0166 42.996 23.1779C56.234 15.3393 72.321 12.8269 87.8118 16.1788C88.3456 16.3158 88.9118 16.4612 89.4294 16.5941C74.0207 17.1777 47.2059 21.8945 34.9566 42.9448C17.6011 72.8698 28.6286 114.735 75.1186 129.551Z" fill="black"/>
<path opacity="0.1" d="M134.482 87.2414C131.264 99.7687 123.643 110.771 112.862 118.455C102.082 126.138 88.7776 130.05 75.1191 129.551L74.9412 129.506C73.3222 129.432 71.7111 129.327 70.071 129.134L112.392 27.4197C121.735 34.4329 128.8 43.8262 132.724 54.4506C136.647 65.075 137.258 76.4699 134.482 87.2414Z" fill="black"/>
</svg>
