<svg width="1592" height="1052" viewBox="0 0 1592 1052" fill="none" xmlns="http://www.w3.org/2000/svg">
<g filter="url(#filter0_d)">
<g clip-path="url(#clip0)">
<rect x="76" y="52" width="1440" height="900" rx="20" fill="#1D1D1D"/>
<mask id="mask0" mask-type="alpha" maskUnits="userSpaceOnUse" x="1070" y="194" width="787" height="708">
<path d="M1430.59 894.196C1608.43 941.005 1766.13 753.421 1822.75 653.778C1833.72 636.812 1855.87 587.232 1856.74 524.638C1857.83 446.395 1698.83 447.763 1644.67 409.261C1590.5 370.76 1552.29 291.66 1473.51 224.542C1394.72 157.425 1303.43 211.927 1277.82 303.217C1252.21 394.508 1099.7 301.134 1073.17 506.027C1046.65 710.92 1208.29 835.686 1430.59 894.196Z" fill="#0B56FA"/>
</mask>
<g mask="url(#mask0)">
<rect x="1117.31" y="-40.3202" width="1256.55" height="8.35841" transform="rotate(36.8196 1117.31 -40.3202)" fill="#25356A" fill-opacity="0.05"/>
<rect x="1103.95" y="-22.4775" width="1256.55" height="8.35841" transform="rotate(36.8196 1103.95 -22.4775)" fill="#25356A" fill-opacity="0.05"/>
<rect x="1090.59" y="-4.63452" width="1256.55" height="8.35841" transform="rotate(36.8196 1090.59 -4.63452)" fill="#25356A" fill-opacity="0.05"/>
<rect x="1077.23" y="13.2085" width="1256.55" height="8.35841" transform="rotate(36.8196 1077.23 13.2085)" fill="#25356A" fill-opacity="0.05"/>
<rect x="1063.87" y="31.0515" width="1256.55" height="8.35841" transform="rotate(36.8196 1063.87 31.0515)" fill="#25356A" fill-opacity="0.05"/>
<rect x="1050.52" y="48.8945" width="1256.55" height="8.35841" transform="rotate(36.8196 1050.52 48.8945)" fill="#25356A" fill-opacity="0.05"/>
<rect x="1037.16" y="66.7375" width="1256.55" height="8.35841" transform="rotate(36.8196 1037.16 66.7375)" fill="#25356A" fill-opacity="0.05"/>
<rect x="1023.8" y="84.5806" width="1256.55" height="8.35841" transform="rotate(36.8196 1023.8 84.5806)" fill="#25356A" fill-opacity="0.05"/>
<rect x="1010.44" y="102.424" width="1256.55" height="8.35841" transform="rotate(36.8196 1010.44 102.424)" fill="#25356A" fill-opacity="0.05"/>
<rect x="997.086" y="120.267" width="1256.55" height="8.35841" transform="rotate(36.8196 997.086 120.267)" fill="#25356A" fill-opacity="0.05"/>
<rect x="983.728" y="138.11" width="1256.55" height="8.35841" transform="rotate(36.8196 983.728 138.11)" fill="#25356A" fill-opacity="0.05"/>
<rect x="970.37" y="155.953" width="1256.55" height="8.35841" transform="rotate(36.8196 970.37 155.953)" fill="#25356A" fill-opacity="0.05"/>
<rect x="957.012" y="173.796" width="1256.55" height="8.35841" transform="rotate(36.8196 957.012 173.796)" fill="#25356A" fill-opacity="0.05"/>
<rect x="943.655" y="191.639" width="1256.55" height="8.35841" transform="rotate(36.8196 943.655 191.639)" fill="#25356A" fill-opacity="0.05"/>
<rect x="930.297" y="209.482" width="1256.55" height="8.35841" transform="rotate(36.8196 930.297 209.482)" fill="#25356A" fill-opacity="0.05"/>
<rect x="916.939" y="227.325" width="1256.55" height="8.35841" transform="rotate(36.8196 916.939 227.325)" fill="#25356A" fill-opacity="0.05"/>
<rect x="903.581" y="245.168" width="1256.55" height="8.35841" transform="rotate(36.8196 903.581 245.168)" fill="#25356A" fill-opacity="0.05"/>
<rect x="890.224" y="263.011" width="1256.55" height="8.35841" transform="rotate(36.8196 890.224 263.011)" fill="#25356A" fill-opacity="0.05"/>
<rect x="876.866" y="280.854" width="1256.55" height="8.35841" transform="rotate(36.8196 876.866 280.854)" fill="#25356A" fill-opacity="0.05"/>
<rect x="863.508" y="298.697" width="1256.55" height="8.35841" transform="rotate(36.8196 863.508 298.697)" fill="#25356A" fill-opacity="0.05"/>
<rect x="850.15" y="316.54" width="1256.55" height="8.35841" transform="rotate(36.8196 850.15 316.54)" fill="#25356A" fill-opacity="0.05"/>
<rect x="835.123" y="336.613" width="1256.55" height="8.35841" transform="rotate(36.8196 835.123 336.613)" fill="#25356A" fill-opacity="0.05"/>
<rect x="820.095" y="356.687" width="1256.55" height="8.35841" transform="rotate(36.8196 820.095 356.687)" fill="#25356A" fill-opacity="0.05"/>
<rect x="805.068" y="376.76" width="1256.55" height="8.35841" transform="rotate(36.8196 805.068 376.76)" fill="#25356A" fill-opacity="0.05"/>
<rect x="790.04" y="396.833" width="1256.55" height="8.35841" transform="rotate(36.8196 790.04 396.833)" fill="#25356A" fill-opacity="0.05"/>
<rect x="775.013" y="416.907" width="1256.55" height="8.35841" transform="rotate(36.8196 775.013 416.907)" fill="#25356A" fill-opacity="0.05"/>
<rect x="759.985" y="436.98" width="1256.55" height="8.35841" transform="rotate(36.8196 759.985 436.98)" fill="#25356A" fill-opacity="0.05"/>
</g>
<g opacity="0.05">
<path opacity="0.91" d="M351.117 337.125C15.9353 43.4044 -102.262 208.47 -110.528 221.05C-110.874 221.577 -110.997 222.124 -110.991 222.754L-107.061 645.638C-105.901 770.457 -5.27097 872.781 116.552 845.575C255.056 814.644 417.425 743.378 473.401 579.846C527.187 422.713 377.966 360.652 351.117 337.125Z" fill="#6FCF97"/>
</g>
<g opacity="0.91" filter="url(#filter1_d)">
<path d="M393.788 887.867C272.465 781.574 190.184 757.574 137.42 761.374C84.6922 765.171 61.1688 796.753 57.4001 802.342C57.1171 802.762 57.0049 803.204 57.0106 803.81L58.9179 1008.99C59.6106 1083.5 91.1832 1152.94 139.579 1196.24C187.946 1239.52 253.093 1256.68 321.14 1226.76C391.219 1195.95 455.206 1145.87 483.059 1064.52C492.852 1035.91 493.387 1011.7 488.423 991.19C483.457 970.678 472.972 953.815 460.625 939.957C448.274 926.096 434.076 915.258 421.711 906.798C416.866 903.483 412.312 900.54 408.257 897.919C407.136 897.194 406.052 896.494 405.011 895.817C400.232 892.71 396.31 890.076 393.788 887.867Z" stroke="#4F4F4F" stroke-width="2"/>
</g>
<mask id="mask1" mask-type="alpha" maskUnits="userSpaceOnUse" x="56" y="701" width="362" height="390">
<path opacity="0.69" d="M336.682 806.312C136.486 631.095 63.7327 725.01 56.593 735.441C56.166 736.065 56.0037 736.746 56.0107 737.502L57.1637 861.403C58.5553 1010.95 189.604 1146.17 316.673 1067.31C358.152 1041.56 393.283 1005.12 410.955 953.556C443.623 858.233 352.99 820.585 336.682 806.312Z" fill="#25356A" fill-opacity="0.35"/>
</mask>
<g mask="url(#mask1)">
<circle cx="75.0466" cy="696.072" r="5.07203" fill="#25356A" fill-opacity="0.35"/>
<circle cx="91.9534" cy="696.072" r="5.07203" fill="#25356A" fill-opacity="0.35"/>
<circle cx="108.86" cy="696.072" r="5.07203" fill="#25356A" fill-opacity="0.35"/>
<circle cx="125.767" cy="696.072" r="5.07203" fill="#25356A" fill-opacity="0.35"/>
<circle cx="142.674" cy="696.072" r="5.07203" fill="#25356A" fill-opacity="0.35"/>
<circle cx="159.581" cy="696.072" r="5.07203" fill="#25356A" fill-opacity="0.35"/>
<circle cx="176.487" cy="696.072" r="5.07203" fill="#25356A" fill-opacity="0.35"/>
<circle cx="193.394" cy="696.072" r="5.07203" fill="#25356A" fill-opacity="0.35"/>
<circle cx="210.301" cy="696.072" r="5.07203" fill="#25356A" fill-opacity="0.35"/>
<circle cx="227.208" cy="696.072" r="5.07203" fill="#25356A" fill-opacity="0.35"/>
<circle cx="244.114" cy="696.072" r="5.07203" fill="#25356A" fill-opacity="0.35"/>
<circle cx="261.021" cy="696.072" r="5.07203" fill="#25356A" fill-opacity="0.35"/>
<circle cx="277.928" cy="696.072" r="5.07203" fill="#25356A" fill-opacity="0.35"/>
<circle cx="294.835" cy="696.072" r="5.07203" fill="#25356A" fill-opacity="0.35"/>
<circle cx="311.741" cy="696.072" r="5.07203" fill="#25356A" fill-opacity="0.35"/>
<circle cx="328.648" cy="696.072" r="5.07203" fill="#25356A" fill-opacity="0.35"/>
<circle cx="345.555" cy="696.072" r="5.07203" fill="#25356A" fill-opacity="0.35"/>
<circle cx="362.462" cy="696.072" r="5.07203" fill="#25356A" fill-opacity="0.35"/>
<circle cx="379.369" cy="696.072" r="5.07203" fill="#25356A" fill-opacity="0.35"/>
<circle cx="396.275" cy="696.072" r="5.07203" fill="#25356A" fill-opacity="0.35"/>
<circle cx="413.182" cy="696.072" r="5.07203" fill="#25356A" fill-opacity="0.35"/>
<circle cx="91.9534" cy="712.979" r="5.07203" fill="#25356A" fill-opacity="0.35"/>
<circle cx="108.86" cy="712.979" r="5.07203" fill="#25356A" fill-opacity="0.35"/>
<circle cx="125.767" cy="712.979" r="5.07203" fill="#25356A" fill-opacity="0.35"/>
<circle cx="142.674" cy="712.979" r="5.07203" fill="#25356A" fill-opacity="0.35"/>
<circle cx="159.581" cy="712.979" r="5.07203" fill="#25356A" fill-opacity="0.35"/>
<circle cx="210.301" cy="712.979" r="5.07203" fill="#25356A" fill-opacity="0.35"/>
<circle cx="227.208" cy="712.979" r="5.07203" fill="#25356A" fill-opacity="0.35"/>
<circle cx="244.114" cy="712.979" r="5.07203" fill="#25356A" fill-opacity="0.35"/>
<circle cx="261.021" cy="712.979" r="5.07203" fill="#25356A" fill-opacity="0.35"/>
<circle cx="277.928" cy="712.979" r="5.07203" fill="#25356A" fill-opacity="0.35"/>
<circle cx="294.835" cy="712.979" r="5.07203" fill="#25356A" fill-opacity="0.35"/>
<circle cx="311.741" cy="712.979" r="5.07203" fill="#25356A" fill-opacity="0.35"/>
<circle cx="328.648" cy="712.979" r="5.07203" fill="#25356A" fill-opacity="0.35"/>
<circle cx="345.555" cy="712.979" r="5.07203" fill="#25356A" fill-opacity="0.35"/>
<circle cx="362.462" cy="712.979" r="5.07203" fill="#25356A" fill-opacity="0.35"/>
<circle cx="379.369" cy="712.979" r="5.07203" fill="#25356A" fill-opacity="0.35"/>
<circle cx="396.275" cy="712.979" r="5.07203" fill="#25356A" fill-opacity="0.35"/>
<circle cx="413.182" cy="712.979" r="5.07203" fill="#25356A" fill-opacity="0.35"/>
<circle cx="75.0466" cy="729.885" r="5.07203" fill="#25356A" fill-opacity="0.35"/>
<circle cx="91.9534" cy="729.885" r="5.07203" fill="#25356A" fill-opacity="0.35"/>
<circle cx="108.86" cy="729.885" r="5.07203" fill="#25356A" fill-opacity="0.35"/>
<circle cx="125.767" cy="729.885" r="5.07203" fill="#25356A" fill-opacity="0.35"/>
<circle cx="142.674" cy="729.885" r="5.07203" fill="#25356A" fill-opacity="0.35"/>
<circle cx="159.581" cy="729.885" r="5.07203" fill="#25356A" fill-opacity="0.35"/>
<circle cx="176.487" cy="729.885" r="5.07203" fill="#25356A" fill-opacity="0.35"/>
<circle cx="193.394" cy="729.885" r="5.07203" fill="#25356A" fill-opacity="0.35"/>
<circle cx="210.301" cy="729.885" r="5.07203" fill="#25356A" fill-opacity="0.35"/>
<circle cx="244.114" cy="729.885" r="5.07203" fill="#25356A" fill-opacity="0.35"/>
<circle cx="261.021" cy="729.885" r="5.07203" fill="#25356A" fill-opacity="0.35"/>
<circle cx="277.928" cy="729.885" r="5.07203" fill="#25356A" fill-opacity="0.35"/>
<circle cx="294.835" cy="729.885" r="5.07203" fill="#25356A" fill-opacity="0.35"/>
<circle cx="311.741" cy="729.885" r="5.07203" fill="#25356A" fill-opacity="0.35"/>
<circle cx="328.648" cy="729.885" r="5.07203" fill="#25356A" fill-opacity="0.35"/>
<circle cx="345.555" cy="729.885" r="5.07203" fill="#25356A" fill-opacity="0.35"/>
<circle cx="362.462" cy="729.885" r="5.07203" fill="#25356A" fill-opacity="0.35"/>
<circle cx="379.369" cy="729.885" r="5.07203" fill="#25356A" fill-opacity="0.35"/>
<circle cx="396.275" cy="729.885" r="5.07203" fill="#25356A" fill-opacity="0.35"/>
<circle cx="413.182" cy="729.885" r="5.07203" fill="#25356A" fill-opacity="0.35"/>
<circle cx="75.0466" cy="746.792" r="5.07203" fill="#25356A" fill-opacity="0.35"/>
<circle cx="91.9534" cy="746.792" r="5.07203" fill="#25356A" fill-opacity="0.35"/>
<circle cx="108.86" cy="746.792" r="5.07203" fill="#25356A" fill-opacity="0.35"/>
<circle cx="125.767" cy="746.792" r="5.07203" fill="#25356A" fill-opacity="0.35"/>
<circle cx="142.674" cy="746.792" r="5.07203" fill="#25356A" fill-opacity="0.35"/>
<circle cx="159.581" cy="746.792" r="5.07203" fill="#25356A" fill-opacity="0.35"/>
<circle cx="176.487" cy="746.792" r="5.07203" fill="#25356A" fill-opacity="0.35"/>
<circle cx="193.394" cy="746.792" r="5.07203" fill="#25356A" fill-opacity="0.35"/>
<circle cx="210.301" cy="746.792" r="5.07203" fill="#25356A" fill-opacity="0.35"/>
<circle cx="227.208" cy="746.792" r="5.07203" fill="#25356A" fill-opacity="0.35"/>
<circle cx="244.114" cy="746.792" r="5.07203" fill="#25356A" fill-opacity="0.35"/>
<circle cx="277.928" cy="746.792" r="5.07203" fill="#25356A" fill-opacity="0.35"/>
<circle cx="294.835" cy="746.792" r="5.07203" fill="#25356A" fill-opacity="0.35"/>
<circle cx="311.741" cy="746.792" r="5.07203" fill="#25356A" fill-opacity="0.35"/>
<circle cx="328.648" cy="746.792" r="5.07203" fill="#25356A" fill-opacity="0.35"/>
<circle cx="345.555" cy="746.792" r="5.07203" fill="#25356A" fill-opacity="0.35"/>
<circle cx="362.462" cy="746.792" r="5.07203" fill="#25356A" fill-opacity="0.35"/>
<circle cx="379.369" cy="746.792" r="5.07203" fill="#25356A" fill-opacity="0.35"/>
<circle cx="396.275" cy="746.792" r="5.07203" fill="#25356A" fill-opacity="0.35"/>
<circle cx="413.182" cy="746.792" r="5.07203" fill="#25356A" fill-opacity="0.35"/>
<circle cx="75.0466" cy="763.699" r="5.07203" fill="#25356A" fill-opacity="0.35"/>
<circle cx="91.9534" cy="763.699" r="5.07203" fill="#25356A" fill-opacity="0.35"/>
<circle cx="108.86" cy="763.699" r="5.07203" fill="#25356A" fill-opacity="0.35"/>
<circle cx="125.767" cy="763.699" r="5.07203" fill="#25356A" fill-opacity="0.35"/>
<circle cx="142.674" cy="763.699" r="5.07203" fill="#25356A" fill-opacity="0.35"/>
<circle cx="159.581" cy="763.699" r="5.07203" fill="#25356A" fill-opacity="0.35"/>
<circle cx="176.487" cy="763.699" r="5.07203" fill="#25356A" fill-opacity="0.35"/>
<circle cx="193.394" cy="763.699" r="5.07203" fill="#25356A" fill-opacity="0.35"/>
<circle cx="210.301" cy="763.699" r="5.07203" fill="#25356A" fill-opacity="0.35"/>
<circle cx="227.208" cy="763.699" r="5.07203" fill="#25356A" fill-opacity="0.35"/>
<circle cx="244.114" cy="763.699" r="5.07203" fill="#25356A" fill-opacity="0.35"/>
<circle cx="261.021" cy="763.699" r="5.07203" fill="#25356A" fill-opacity="0.35"/>
<circle cx="294.835" cy="763.699" r="5.07203" fill="#25356A" fill-opacity="0.35"/>
<circle cx="311.741" cy="763.699" r="5.07203" fill="#25356A" fill-opacity="0.35"/>
<circle cx="328.648" cy="763.699" r="5.07203" fill="#25356A" fill-opacity="0.35"/>
<circle cx="345.555" cy="763.699" r="5.07203" fill="#25356A" fill-opacity="0.35"/>
<circle cx="362.462" cy="763.699" r="5.07203" fill="#25356A" fill-opacity="0.35"/>
<circle cx="379.369" cy="763.699" r="5.07203" fill="#25356A" fill-opacity="0.35"/>
<circle cx="396.275" cy="763.699" r="5.07203" fill="#25356A" fill-opacity="0.35"/>
<circle cx="413.182" cy="763.699" r="5.07203" fill="#25356A" fill-opacity="0.35"/>
<circle cx="75.0466" cy="780.606" r="5.07203" fill="#25356A" fill-opacity="0.35"/>
<circle cx="91.9534" cy="780.606" r="5.07203" fill="#25356A" fill-opacity="0.35"/>
<circle cx="108.86" cy="780.606" r="5.07203" fill="#25356A" fill-opacity="0.35"/>
<circle cx="125.767" cy="780.606" r="5.07203" fill="#25356A" fill-opacity="0.35"/>
<circle cx="142.674" cy="780.606" r="5.07203" fill="#25356A" fill-opacity="0.35"/>
<circle cx="159.581" cy="780.606" r="5.07203" fill="#25356A" fill-opacity="0.35"/>
<circle cx="176.487" cy="780.606" r="5.07203" fill="#25356A" fill-opacity="0.35"/>
<circle cx="193.394" cy="780.606" r="5.07203" fill="#25356A" fill-opacity="0.35"/>
<circle cx="210.301" cy="780.606" r="5.07203" fill="#25356A" fill-opacity="0.35"/>
<circle cx="227.208" cy="780.606" r="5.07203" fill="#25356A" fill-opacity="0.35"/>
<circle cx="244.114" cy="780.606" r="5.07203" fill="#25356A" fill-opacity="0.35"/>
<circle cx="261.021" cy="780.606" r="5.07203" fill="#25356A" fill-opacity="0.35"/>
<circle cx="277.928" cy="780.606" r="5.07203" fill="#25356A" fill-opacity="0.35"/>
<circle cx="294.835" cy="780.606" r="5.07203" fill="#25356A" fill-opacity="0.35"/>
<circle cx="328.648" cy="780.606" r="5.07203" fill="#25356A" fill-opacity="0.35"/>
<circle cx="345.555" cy="780.606" r="5.07203" fill="#25356A" fill-opacity="0.35"/>
<circle cx="362.462" cy="780.606" r="5.07203" fill="#25356A" fill-opacity="0.35"/>
<circle cx="379.369" cy="780.606" r="5.07203" fill="#25356A" fill-opacity="0.35"/>
<circle cx="396.275" cy="780.606" r="5.07203" fill="#25356A" fill-opacity="0.35"/>
<circle cx="413.182" cy="780.606" r="5.07203" fill="#25356A" fill-opacity="0.35"/>
<circle cx="75.0466" cy="797.513" r="5.07203" fill="#25356A" fill-opacity="0.35"/>
<circle cx="91.9534" cy="797.513" r="5.07203" fill="#25356A" fill-opacity="0.35"/>
<circle cx="108.86" cy="797.513" r="5.07203" fill="#25356A" fill-opacity="0.35"/>
<circle cx="125.767" cy="797.513" r="5.07203" fill="#25356A" fill-opacity="0.35"/>
<circle cx="142.674" cy="797.513" r="5.07203" fill="#25356A" fill-opacity="0.35"/>
<circle cx="159.581" cy="797.513" r="5.07203" fill="#25356A" fill-opacity="0.35"/>
<circle cx="176.487" cy="797.513" r="5.07203" fill="#25356A" fill-opacity="0.35"/>
<circle cx="193.394" cy="797.513" r="5.07203" fill="#25356A" fill-opacity="0.35"/>
<circle cx="210.301" cy="797.513" r="5.07203" fill="#25356A" fill-opacity="0.35"/>
<circle cx="227.208" cy="797.513" r="5.07203" fill="#25356A" fill-opacity="0.35"/>
<circle cx="244.114" cy="797.513" r="5.07203" fill="#25356A" fill-opacity="0.35"/>
<circle cx="261.021" cy="797.513" r="5.07203" fill="#25356A" fill-opacity="0.35"/>
<circle cx="277.928" cy="797.513" r="5.07203" fill="#25356A" fill-opacity="0.35"/>
<circle cx="294.835" cy="797.513" r="5.07203" fill="#25356A" fill-opacity="0.35"/>
<circle cx="311.741" cy="797.513" r="5.07203" fill="#25356A" fill-opacity="0.35"/>
<circle cx="345.555" cy="797.513" r="5.07203" fill="#25356A" fill-opacity="0.35"/>
<circle cx="362.462" cy="797.513" r="5.07203" fill="#25356A" fill-opacity="0.35"/>
<circle cx="379.369" cy="797.513" r="5.07203" fill="#25356A" fill-opacity="0.35"/>
<circle cx="396.275" cy="797.513" r="5.07203" fill="#25356A" fill-opacity="0.35"/>
<circle cx="413.182" cy="797.513" r="5.07203" fill="#25356A" fill-opacity="0.35"/>
<circle cx="75.0466" cy="814.419" r="5.07203" fill="#25356A" fill-opacity="0.35"/>
<circle cx="91.9534" cy="814.419" r="5.07203" fill="#25356A" fill-opacity="0.35"/>
<circle cx="108.86" cy="814.419" r="5.07203" fill="#25356A" fill-opacity="0.35"/>
<circle cx="125.767" cy="814.419" r="5.07203" fill="#25356A" fill-opacity="0.35"/>
<circle cx="142.674" cy="814.419" r="5.07203" fill="#25356A" fill-opacity="0.35"/>
<circle cx="159.581" cy="814.419" r="5.07203" fill="#25356A" fill-opacity="0.35"/>
<circle cx="176.487" cy="814.419" r="5.07203" fill="#25356A" fill-opacity="0.35"/>
<circle cx="193.394" cy="814.419" r="5.07203" fill="#25356A" fill-opacity="0.35"/>
<circle cx="210.301" cy="814.419" r="5.07203" fill="#25356A" fill-opacity="0.35"/>
<circle cx="227.208" cy="814.419" r="5.07203" fill="#25356A" fill-opacity="0.35"/>
<circle cx="244.114" cy="814.419" r="5.07203" fill="#25356A" fill-opacity="0.35"/>
<circle cx="261.021" cy="814.419" r="5.07203" fill="#25356A" fill-opacity="0.35"/>
<circle cx="277.928" cy="814.419" r="5.07203" fill="#25356A" fill-opacity="0.35"/>
<circle cx="294.835" cy="814.419" r="5.07203" fill="#25356A" fill-opacity="0.35"/>
<circle cx="311.741" cy="814.419" r="5.07203" fill="#25356A" fill-opacity="0.35"/>
<circle cx="328.648" cy="814.419" r="5.07203" fill="#25356A" fill-opacity="0.35"/>
<circle cx="362.462" cy="814.419" r="5.07203" fill="#25356A" fill-opacity="0.35"/>
<circle cx="379.369" cy="814.419" r="5.07203" fill="#25356A" fill-opacity="0.35"/>
<circle cx="396.275" cy="814.419" r="5.07203" fill="#25356A" fill-opacity="0.35"/>
<circle cx="413.182" cy="814.419" r="5.07203" fill="#25356A" fill-opacity="0.35"/>
<circle cx="75.0466" cy="831.326" r="5.07203" fill="#25356A" fill-opacity="0.35"/>
<circle cx="91.9534" cy="831.326" r="5.07203" fill="#25356A" fill-opacity="0.35"/>
<circle cx="108.86" cy="831.326" r="5.07203" fill="#25356A" fill-opacity="0.35"/>
<circle cx="125.767" cy="831.326" r="5.07203" fill="#25356A" fill-opacity="0.35"/>
<circle cx="142.674" cy="831.326" r="5.07203" fill="#25356A" fill-opacity="0.35"/>
<circle cx="159.581" cy="831.326" r="5.07203" fill="#25356A" fill-opacity="0.35"/>
<circle cx="176.487" cy="831.326" r="5.07203" fill="#25356A" fill-opacity="0.35"/>
<circle cx="193.394" cy="831.326" r="5.07203" fill="#25356A" fill-opacity="0.35"/>
<circle cx="210.301" cy="831.326" r="5.07203" fill="#25356A" fill-opacity="0.35"/>
<circle cx="227.208" cy="831.326" r="5.07203" fill="#25356A" fill-opacity="0.35"/>
<circle cx="244.114" cy="831.326" r="5.07203" fill="#25356A" fill-opacity="0.35"/>
<circle cx="261.021" cy="831.326" r="5.07203" fill="#25356A" fill-opacity="0.35"/>
<circle cx="277.928" cy="831.326" r="5.07203" fill="#25356A" fill-opacity="0.35"/>
<circle cx="294.835" cy="831.326" r="5.07203" fill="#25356A" fill-opacity="0.35"/>
<circle cx="311.741" cy="831.326" r="5.07203" fill="#25356A" fill-opacity="0.35"/>
<circle cx="328.648" cy="831.326" r="5.07203" fill="#25356A" fill-opacity="0.35"/>
<circle cx="345.555" cy="831.326" r="5.07203" fill="#25356A" fill-opacity="0.35"/>
<circle cx="362.462" cy="831.326" r="5.07203" fill="#25356A" fill-opacity="0.35"/>
<circle cx="396.275" cy="831.326" r="5.07203" fill="#25356A" fill-opacity="0.35"/>
<circle cx="413.182" cy="831.326" r="5.07203" fill="#25356A" fill-opacity="0.35"/>
<circle cx="75.0466" cy="848.233" r="5.07203" fill="#25356A" fill-opacity="0.35"/>
<circle cx="91.9534" cy="848.233" r="5.07203" fill="#25356A" fill-opacity="0.35"/>
<circle cx="108.86" cy="848.233" r="5.07203" fill="#25356A" fill-opacity="0.35"/>
<circle cx="125.767" cy="848.233" r="5.07203" fill="#25356A" fill-opacity="0.35"/>
<circle cx="142.674" cy="848.233" r="5.07203" fill="#25356A" fill-opacity="0.35"/>
<circle cx="159.581" cy="848.233" r="5.07203" fill="#25356A" fill-opacity="0.35"/>
<circle cx="176.487" cy="848.233" r="5.07203" fill="#25356A" fill-opacity="0.35"/>
<circle cx="193.394" cy="848.233" r="5.07203" fill="#25356A" fill-opacity="0.35"/>
<circle cx="210.301" cy="848.233" r="5.07203" fill="#25356A" fill-opacity="0.35"/>
<circle cx="227.208" cy="848.233" r="5.07203" fill="#25356A" fill-opacity="0.35"/>
<circle cx="244.114" cy="848.233" r="5.07203" fill="#25356A" fill-opacity="0.35"/>
<circle cx="261.021" cy="848.233" r="5.07203" fill="#25356A" fill-opacity="0.35"/>
<circle cx="277.928" cy="848.233" r="5.07203" fill="#25356A" fill-opacity="0.35"/>
<circle cx="294.835" cy="848.233" r="5.07203" fill="#25356A" fill-opacity="0.35"/>
<circle cx="311.741" cy="848.233" r="5.07203" fill="#25356A" fill-opacity="0.35"/>
<circle cx="328.648" cy="848.233" r="5.07203" fill="#25356A" fill-opacity="0.35"/>
<circle cx="345.555" cy="848.233" r="5.07203" fill="#25356A" fill-opacity="0.35"/>
<circle cx="362.462" cy="848.233" r="5.07203" fill="#25356A" fill-opacity="0.35"/>
<circle cx="379.369" cy="848.233" r="5.07203" fill="#25356A" fill-opacity="0.35"/>
<circle cx="413.182" cy="848.233" r="5.07203" fill="#25356A" fill-opacity="0.35"/>
<circle cx="75.0466" cy="865.14" r="5.07203" fill="#25356A" fill-opacity="0.35"/>
<circle cx="91.9534" cy="865.14" r="5.07203" fill="#25356A" fill-opacity="0.35"/>
<circle cx="108.86" cy="865.14" r="5.07203" fill="#25356A" fill-opacity="0.35"/>
<circle cx="125.767" cy="865.14" r="5.07203" fill="#25356A" fill-opacity="0.35"/>
<circle cx="142.674" cy="865.14" r="5.07203" fill="#25356A" fill-opacity="0.35"/>
<circle cx="159.581" cy="865.14" r="5.07203" fill="#25356A" fill-opacity="0.35"/>
<circle cx="176.487" cy="865.14" r="5.07203" fill="#25356A" fill-opacity="0.35"/>
<circle cx="193.394" cy="865.14" r="5.07203" fill="#25356A" fill-opacity="0.35"/>
<circle cx="210.301" cy="865.14" r="5.07203" fill="#25356A" fill-opacity="0.35"/>
<circle cx="227.208" cy="865.14" r="5.07203" fill="#25356A" fill-opacity="0.35"/>
<circle cx="244.114" cy="865.14" r="5.07203" fill="#25356A" fill-opacity="0.35"/>
<circle cx="261.021" cy="865.14" r="5.07203" fill="#25356A" fill-opacity="0.35"/>
<circle cx="277.928" cy="865.14" r="5.07203" fill="#25356A" fill-opacity="0.35"/>
<circle cx="294.835" cy="865.14" r="5.07203" fill="#25356A" fill-opacity="0.35"/>
<circle cx="311.741" cy="865.14" r="5.07203" fill="#25356A" fill-opacity="0.35"/>
<circle cx="328.648" cy="865.14" r="5.07203" fill="#25356A" fill-opacity="0.35"/>
<circle cx="345.555" cy="865.14" r="5.07203" fill="#25356A" fill-opacity="0.35"/>
<circle cx="362.462" cy="865.14" r="5.07203" fill="#25356A" fill-opacity="0.35"/>
<circle cx="379.369" cy="865.14" r="5.07203" fill="#25356A" fill-opacity="0.35"/>
<circle cx="396.275" cy="865.14" r="5.07203" fill="#25356A" fill-opacity="0.35"/>
<circle cx="413.182" cy="865.14" r="5.07203" fill="#25356A" fill-opacity="0.35"/>
<circle cx="75.0466" cy="882.047" r="5.07203" fill="#25356A" fill-opacity="0.35"/>
<circle cx="91.9534" cy="882.047" r="5.07203" fill="#25356A" fill-opacity="0.35"/>
<circle cx="108.86" cy="882.047" r="5.07203" fill="#25356A" fill-opacity="0.35"/>
<circle cx="125.767" cy="882.047" r="5.07203" fill="#25356A" fill-opacity="0.35"/>
<circle cx="142.674" cy="882.047" r="5.07203" fill="#25356A" fill-opacity="0.35"/>
<circle cx="159.581" cy="882.047" r="5.07203" fill="#25356A" fill-opacity="0.35"/>
<circle cx="176.487" cy="882.047" r="5.07203" fill="#25356A" fill-opacity="0.35"/>
<circle cx="193.394" cy="882.047" r="5.07203" fill="#25356A" fill-opacity="0.35"/>
<circle cx="210.301" cy="882.047" r="5.07203" fill="#25356A" fill-opacity="0.35"/>
<circle cx="227.208" cy="882.047" r="5.07203" fill="#25356A" fill-opacity="0.35"/>
<circle cx="244.114" cy="882.047" r="5.07203" fill="#25356A" fill-opacity="0.35"/>
<circle cx="261.021" cy="882.047" r="5.07203" fill="#25356A" fill-opacity="0.35"/>
<circle cx="277.928" cy="882.047" r="5.07203" fill="#25356A" fill-opacity="0.35"/>
<circle cx="294.835" cy="882.047" r="5.07203" fill="#25356A" fill-opacity="0.35"/>
<circle cx="311.741" cy="882.047" r="5.07203" fill="#25356A" fill-opacity="0.35"/>
<circle cx="328.648" cy="882.047" r="5.07203" fill="#25356A" fill-opacity="0.35"/>
<circle cx="345.555" cy="882.047" r="5.07203" fill="#25356A" fill-opacity="0.35"/>
<circle cx="362.462" cy="882.047" r="5.07203" fill="#25356A" fill-opacity="0.35"/>
<circle cx="379.369" cy="882.047" r="5.07203" fill="#25356A" fill-opacity="0.35"/>
<circle cx="396.275" cy="882.047" r="5.07203" fill="#25356A" fill-opacity="0.35"/>
<circle cx="75.0466" cy="898.953" r="5.07203" fill="#25356A" fill-opacity="0.35"/>
<circle cx="91.9534" cy="898.953" r="5.07203" fill="#25356A" fill-opacity="0.35"/>
<circle cx="108.86" cy="898.953" r="5.07203" fill="#25356A" fill-opacity="0.35"/>
<circle cx="125.767" cy="898.953" r="5.07203" fill="#25356A" fill-opacity="0.35"/>
<circle cx="142.674" cy="898.953" r="5.07203" fill="#25356A" fill-opacity="0.35"/>
<circle cx="159.581" cy="898.953" r="5.07203" fill="#25356A" fill-opacity="0.35"/>
<circle cx="176.487" cy="898.953" r="5.07203" fill="#25356A" fill-opacity="0.35"/>
<circle cx="193.394" cy="898.953" r="5.07203" fill="#25356A" fill-opacity="0.35"/>
<circle cx="210.301" cy="898.953" r="5.07203" fill="#25356A" fill-opacity="0.35"/>
<circle cx="227.208" cy="898.953" r="5.07203" fill="#25356A" fill-opacity="0.35"/>
<circle cx="244.114" cy="898.953" r="5.07203" fill="#25356A" fill-opacity="0.35"/>
<circle cx="261.021" cy="898.953" r="5.07203" fill="#25356A" fill-opacity="0.35"/>
<circle cx="277.928" cy="898.953" r="5.07203" fill="#25356A" fill-opacity="0.35"/>
<circle cx="294.835" cy="898.953" r="5.07203" fill="#25356A" fill-opacity="0.35"/>
<circle cx="311.741" cy="898.953" r="5.07203" fill="#25356A" fill-opacity="0.35"/>
<circle cx="328.648" cy="898.953" r="5.07203" fill="#25356A" fill-opacity="0.35"/>
<circle cx="345.555" cy="898.953" r="5.07203" fill="#25356A" fill-opacity="0.35"/>
<circle cx="362.462" cy="898.953" r="5.07203" fill="#25356A" fill-opacity="0.35"/>
<circle cx="379.369" cy="898.953" r="5.07203" fill="#25356A" fill-opacity="0.35"/>
<circle cx="396.275" cy="898.953" r="5.07203" fill="#25356A" fill-opacity="0.35"/>
<circle cx="75.0466" cy="915.86" r="5.07203" fill="#25356A" fill-opacity="0.35"/>
<circle cx="91.9534" cy="915.86" r="5.07203" fill="#25356A" fill-opacity="0.35"/>
<circle cx="108.86" cy="915.86" r="5.07203" fill="#25356A" fill-opacity="0.35"/>
<circle cx="125.767" cy="915.86" r="5.07203" fill="#25356A" fill-opacity="0.35"/>
<circle cx="142.674" cy="915.86" r="5.07203" fill="#25356A" fill-opacity="0.35"/>
<circle cx="159.581" cy="915.86" r="5.07203" fill="#25356A" fill-opacity="0.35"/>
<circle cx="176.487" cy="915.86" r="5.07203" fill="#25356A" fill-opacity="0.35"/>
<circle cx="193.394" cy="915.86" r="5.07203" fill="#25356A" fill-opacity="0.35"/>
<circle cx="210.301" cy="915.86" r="5.07203" fill="#25356A" fill-opacity="0.35"/>
<circle cx="227.208" cy="915.86" r="5.07203" fill="#25356A" fill-opacity="0.35"/>
<circle cx="244.114" cy="915.86" r="5.07203" fill="#25356A" fill-opacity="0.35"/>
<circle cx="261.021" cy="915.86" r="5.07203" fill="#25356A" fill-opacity="0.35"/>
<circle cx="277.928" cy="915.86" r="5.07203" fill="#25356A" fill-opacity="0.35"/>
<circle cx="294.835" cy="915.86" r="5.07203" fill="#25356A" fill-opacity="0.35"/>
<circle cx="311.741" cy="915.86" r="5.07203" fill="#25356A" fill-opacity="0.35"/>
<circle cx="328.648" cy="915.86" r="5.07203" fill="#25356A" fill-opacity="0.35"/>
<circle cx="345.555" cy="915.86" r="5.07203" fill="#25356A" fill-opacity="0.35"/>
<circle cx="362.462" cy="915.86" r="5.07203" fill="#25356A" fill-opacity="0.35"/>
<circle cx="379.369" cy="915.86" r="5.07203" fill="#25356A" fill-opacity="0.35"/>
<circle cx="396.275" cy="915.86" r="5.07203" fill="#25356A" fill-opacity="0.35"/>
<circle cx="413.182" cy="915.86" r="5.07203" fill="#25356A" fill-opacity="0.35"/>
<circle cx="75.0466" cy="932.767" r="5.07203" fill="#25356A" fill-opacity="0.35"/>
<circle cx="91.9534" cy="932.767" r="5.07203" fill="#25356A" fill-opacity="0.35"/>
<circle cx="108.86" cy="932.767" r="5.07203" fill="#25356A" fill-opacity="0.35"/>
<circle cx="125.767" cy="932.767" r="5.07203" fill="#25356A" fill-opacity="0.35"/>
<circle cx="142.674" cy="932.767" r="5.07203" fill="#25356A" fill-opacity="0.35"/>
<circle cx="159.581" cy="932.767" r="5.07203" fill="#25356A" fill-opacity="0.35"/>
<circle cx="176.487" cy="932.767" r="5.07203" fill="#25356A" fill-opacity="0.35"/>
<circle cx="193.394" cy="932.767" r="5.07203" fill="#25356A" fill-opacity="0.35"/>
<circle cx="210.301" cy="932.767" r="5.07203" fill="#25356A" fill-opacity="0.35"/>
<circle cx="227.208" cy="932.767" r="5.07203" fill="#25356A" fill-opacity="0.35"/>
<circle cx="244.114" cy="932.767" r="5.07203" fill="#25356A" fill-opacity="0.35"/>
<circle cx="261.021" cy="932.767" r="5.07203" fill="#25356A" fill-opacity="0.35"/>
<circle cx="277.928" cy="932.767" r="5.07203" fill="#25356A" fill-opacity="0.35"/>
<circle cx="294.835" cy="932.767" r="5.07203" fill="#25356A" fill-opacity="0.35"/>
<circle cx="311.741" cy="932.767" r="5.07203" fill="#25356A" fill-opacity="0.35"/>
<circle cx="328.648" cy="932.767" r="5.07203" fill="#25356A" fill-opacity="0.35"/>
<circle cx="345.555" cy="932.767" r="5.07203" fill="#25356A" fill-opacity="0.35"/>
<circle cx="362.462" cy="932.767" r="5.07203" fill="#25356A" fill-opacity="0.35"/>
<circle cx="379.369" cy="932.767" r="5.07203" fill="#25356A" fill-opacity="0.35"/>
<circle cx="396.275" cy="932.767" r="5.07203" fill="#25356A" fill-opacity="0.35"/>
<circle cx="75.0466" cy="949.674" r="5.07203" fill="#25356A" fill-opacity="0.35"/>
<circle cx="91.9534" cy="949.674" r="5.07203" fill="#25356A" fill-opacity="0.35"/>
<circle cx="108.86" cy="949.674" r="5.07203" fill="#25356A" fill-opacity="0.35"/>
<circle cx="125.767" cy="949.674" r="5.07203" fill="#25356A" fill-opacity="0.35"/>
<circle cx="142.674" cy="949.674" r="5.07203" fill="#25356A" fill-opacity="0.35"/>
<circle cx="159.581" cy="949.674" r="5.07203" fill="#25356A" fill-opacity="0.35"/>
<circle cx="176.487" cy="949.674" r="5.07203" fill="#25356A" fill-opacity="0.35"/>
<circle cx="193.394" cy="949.674" r="5.07203" fill="#25356A" fill-opacity="0.35"/>
<circle cx="210.301" cy="949.674" r="5.07203" fill="#25356A" fill-opacity="0.35"/>
<circle cx="227.208" cy="949.674" r="5.07203" fill="#25356A" fill-opacity="0.35"/>
<circle cx="244.114" cy="949.674" r="5.07203" fill="#25356A" fill-opacity="0.35"/>
<circle cx="261.021" cy="949.674" r="5.07203" fill="#25356A" fill-opacity="0.35"/>
<circle cx="277.928" cy="949.674" r="5.07203" fill="#25356A" fill-opacity="0.35"/>
<circle cx="294.835" cy="949.674" r="5.07203" fill="#25356A" fill-opacity="0.35"/>
<circle cx="311.741" cy="949.674" r="5.07203" fill="#25356A" fill-opacity="0.35"/>
<circle cx="328.648" cy="949.674" r="5.07203" fill="#25356A" fill-opacity="0.35"/>
<circle cx="345.555" cy="949.674" r="5.07203" fill="#25356A" fill-opacity="0.35"/>
<circle cx="362.462" cy="949.674" r="5.07203" fill="#25356A" fill-opacity="0.35"/>
<circle cx="379.369" cy="949.674" r="5.07203" fill="#25356A" fill-opacity="0.35"/>
<circle cx="396.275" cy="949.674" r="5.07203" fill="#25356A" fill-opacity="0.35"/>
</g>
<g opacity="0.91" filter="url(#filter2_d)">
<path d="M374.447 887.115C131.628 674.377 44.2958 790.327 36.571 801.783C36.1487 802.409 36.0036 803.063 36.0106 803.819L37.918 1009C39.3081 1158.54 164.637 1287.87 301.543 1227.68C371.772 1196.8 436.03 1146.55 464.005 1064.84C503.397 949.785 394.11 904.342 374.447 887.115Z" fill="#6FCF97"/>
</g>
<path d="M1261.42 307.022C1228.25 325.991 1204.86 357.896 1176.51 383.508C1141.25 415.239 1098.33 437.241 1051.99 447.348C1013.99 455.571 974.287 455.693 937.67 468.628C866.23 493.693 817.302 568.082 816.07 643.717C814.839 719.352 857.87 792.677 921.118 834.142C942.658 848.272 966.239 859.011 991.038 865.986C1037.55 879.074 1086.87 878.496 1134.94 873.495C1217.96 864.846 1304.99 817.696 1357.33 751.226C1380.66 721.518 1400.37 689.143 1416.06 654.782C1441.98 598.283 1456.7 537.296 1459.41 475.194C1461.61 421.994 1459.41 363.018 1417.2 324.243C1374.99 285.468 1310.89 278.704 1261.42 307.022Z" fill="#F9F9F9" fill-opacity="0.02"/>
<path d="M1314 912.67C1373.94 912.67 1422.52 899.583 1422.52 883.44C1422.52 867.297 1373.94 854.21 1314 854.21C1254.06 854.21 1205.47 867.297 1205.47 883.44C1205.47 899.583 1254.06 912.67 1314 912.67Z" fill="#ECECEC"/>
<path d="M1207.38 313.816H886.918C879.405 313.816 873.314 319.907 873.314 327.42V507.069C873.314 514.582 879.405 520.673 886.918 520.673H1207.38C1214.89 520.673 1220.98 514.582 1220.98 507.069V327.42C1220.98 319.907 1214.89 313.816 1207.38 313.816Z" fill="white"/>
<path d="M1220.98 327.42V332.801H873.314V327.42C873.314 323.805 874.745 320.337 877.294 317.774C879.843 315.21 883.303 313.76 886.918 313.74H1207.44C1209.23 313.746 1211 314.105 1212.65 314.796C1214.3 315.487 1215.79 316.497 1217.05 317.768C1218.31 319.039 1219.31 320.546 1219.98 322.202C1220.65 323.859 1221 325.632 1220.98 327.42Z" fill="#92E3A9"/>
<path d="M1207.38 313.816H886.918C879.405 313.816 873.314 319.907 873.314 327.42V507.069C873.314 514.582 879.405 520.673 886.918 520.673H1207.38C1214.89 520.673 1220.98 514.582 1220.98 507.069V327.42C1220.98 319.907 1214.89 313.816 1207.38 313.816Z" stroke="#263238" stroke-width="1.52" stroke-linecap="round" stroke-linejoin="round"/>
<path d="M1220.98 327.42V332.801H873.314V327.42C873.314 323.805 874.745 320.337 877.294 317.774C879.843 315.21 883.303 313.76 886.918 313.74H1207.44C1209.23 313.746 1211 314.105 1212.65 314.796C1214.3 315.487 1215.79 316.497 1217.05 317.768C1218.31 319.039 1219.31 320.546 1219.98 322.202C1220.65 323.859 1221 325.632 1220.98 327.42V327.42Z" stroke="#263238" stroke-width="1.52" stroke-linecap="round" stroke-linejoin="round"/>
<path d="M912.362 323.301C912.365 323.99 912.164 324.664 911.783 325.239C911.402 325.813 910.86 326.262 910.224 326.527C909.588 326.793 908.888 326.864 908.212 326.732C907.536 326.599 906.914 326.269 906.426 325.783C905.937 325.296 905.604 324.676 905.469 324.001C905.333 323.325 905.401 322.624 905.664 321.987C905.927 321.351 906.373 320.806 906.946 320.423C907.519 320.04 908.192 319.835 908.881 319.835C909.802 319.835 910.685 320.2 911.337 320.849C911.99 321.499 912.358 322.38 912.362 323.301Z" fill="#263238"/>
<path d="M930.527 323.301C930.53 323.99 930.328 324.664 929.948 325.239C929.567 325.813 929.024 326.262 928.389 326.527C927.753 326.793 927.053 326.864 926.376 326.732C925.7 326.599 925.079 326.269 924.59 325.783C924.102 325.296 923.769 324.676 923.633 324.001C923.498 323.325 923.566 322.624 923.829 321.987C924.092 321.351 924.538 320.806 925.111 320.423C925.683 320.04 926.357 319.835 927.046 319.835C927.967 319.835 928.85 320.2 929.502 320.849C930.154 321.499 930.523 322.38 930.527 323.301Z" fill="#263238"/>
<path d="M945.209 326.782C947.132 326.782 948.69 325.223 948.69 323.301C948.69 321.378 947.132 319.82 945.209 319.82C943.287 319.82 941.728 321.378 941.728 323.301C941.728 325.223 943.287 326.782 945.209 326.782Z" fill="#263238"/>
<path d="M997.832 347.864H899.534C896.436 347.864 893.925 350.375 893.925 353.473V400.76C893.925 403.858 896.436 406.369 899.534 406.369H997.832C1000.93 406.369 1003.44 403.858 1003.44 400.76V353.473C1003.44 350.375 1000.93 347.864 997.832 347.864Z" stroke="#263238" stroke-width="1.52" stroke-linecap="round" stroke-linejoin="round"/>
<path d="M900.37 399.012H995.324" stroke="#263238" stroke-width="1.52" stroke-linecap="round" stroke-linejoin="round"/>
<path d="M918.443 387.84H907.423V398.86H918.443V387.84Z" fill="#92E3A9" stroke="#263238" stroke-width="1.52" stroke-miterlimit="10"/>
<path d="M934.57 373.354H923.55V399.012H934.57V373.354Z" fill="#92E3A9" stroke="#263238" stroke-width="1.52" stroke-miterlimit="10"/>
<path d="M952.734 377.762H941.714V399.27H952.734V377.762Z" fill="#92E3A9" stroke="#263238" stroke-width="1.52" stroke-miterlimit="10"/>
<path d="M971.825 356.346H960.805V398.526H971.825V356.346Z" fill="#92E3A9" stroke="#263238" stroke-width="1.52" stroke-miterlimit="10"/>
<path d="M990.901 356.68H979.881V398.86H990.901V356.68Z" fill="#92E3A9" stroke="#263238" stroke-width="1.52" stroke-miterlimit="10"/>
<path d="M1139.22 409.394C1156.24 409.394 1170.03 395.599 1170.03 378.583C1170.03 361.567 1156.24 347.773 1139.22 347.773C1122.21 347.773 1108.41 361.567 1108.41 378.583C1108.41 395.599 1122.21 409.394 1139.22 409.394Z" fill="#92E3A9" stroke="#263238" stroke-width="1.52" stroke-miterlimit="10"/>
<path d="M1141.75 397.796V400.958H1136.58V397.796C1134.46 397.283 1132.58 396.046 1131.27 394.298C1129.96 392.551 1129.3 390.401 1129.4 388.22V386.791L1135.26 386.153V387.673C1135.26 390.606 1136.78 392.385 1139.16 392.385C1139.68 392.428 1140.2 392.358 1140.69 392.181C1141.18 392.003 1141.62 391.722 1141.99 391.357C1142.36 390.992 1142.65 390.551 1142.83 390.064C1143.01 389.578 1143.09 389.058 1143.05 388.539C1143.05 385.727 1140.42 383.31 1137.32 380.742C1133.64 377.702 1129.98 374.084 1129.98 368.977C1129.98 363.87 1132.38 360.419 1136.58 359.386V356.209H1141.75V359.355C1145.99 360.343 1148.45 363.915 1148.45 369.007V370.041L1142.6 370.664V369.6C1142.6 366.56 1141.4 364.888 1139.27 364.888C1137.14 364.888 1135.94 366.21 1135.94 368.734C1135.94 371.546 1138.65 373.902 1141.69 376.531C1145.3 379.571 1149.03 383.189 1149.03 388.296C1149.12 390.481 1148.44 392.628 1147.11 394.364C1145.78 396.1 1143.88 397.314 1141.75 397.796Z" fill="#263238"/>
<path d="M891.371 436.252H900.37" stroke="#263238" stroke-width="1.52" stroke-linecap="round" stroke-linejoin="round"/>
<path d="M891.371 453.641H900.37" stroke="#263238" stroke-width="1.52" stroke-linecap="round" stroke-linejoin="round"/>
<path d="M891.371 471.045H900.37" stroke="#263238" stroke-width="1.52" stroke-linecap="round" stroke-linejoin="round"/>
<path d="M891.371 488.434H900.37" stroke="#263238" stroke-width="1.52" stroke-linecap="round" stroke-linejoin="round"/>
<path d="M920.206 501.566V494.574" stroke="#263238" stroke-width="1.52" stroke-linecap="round" stroke-linejoin="round"/>
<path d="M934.464 501.566V494.574" stroke="#263238" stroke-width="1.52" stroke-linecap="round" stroke-linejoin="round"/>
<path d="M948.721 501.566V494.574" stroke="#263238" stroke-width="1.52" stroke-linecap="round" stroke-linejoin="round"/>
<path d="M962.994 501.566V494.574" stroke="#263238" stroke-width="1.52" stroke-linecap="round" stroke-linejoin="round"/>
<path d="M977.252 501.566V494.574" stroke="#263238" stroke-width="1.52" stroke-linecap="round" stroke-linejoin="round"/>
<path d="M991.509 501.566V494.574" stroke="#263238" stroke-width="1.52" stroke-linecap="round" stroke-linejoin="round"/>
<path d="M1005.77 501.566V494.574" stroke="#263238" stroke-width="1.52" stroke-linecap="round" stroke-linejoin="round"/>
<path d="M1020.04 501.566V494.574" stroke="#263238" stroke-width="1.52" stroke-linecap="round" stroke-linejoin="round"/>
<path d="M1034.3 501.566V494.574" stroke="#263238" stroke-width="1.52" stroke-linecap="round" stroke-linejoin="round"/>
<path d="M1048.55 501.566V494.574" stroke="#263238" stroke-width="1.52" stroke-linecap="round" stroke-linejoin="round"/>
<path d="M1062.81 501.566V494.574" stroke="#263238" stroke-width="1.52" stroke-linecap="round" stroke-linejoin="round"/>
<path d="M1077.09 501.566V494.574" stroke="#263238" stroke-width="1.52" stroke-linecap="round" stroke-linejoin="round"/>
<path d="M1091.34 501.566V494.574" stroke="#263238" stroke-width="1.52" stroke-linecap="round" stroke-linejoin="round"/>
<path d="M1105.6 501.566V494.574" stroke="#263238" stroke-width="1.52" stroke-linecap="round" stroke-linejoin="round"/>
<path d="M1119.86 501.566V494.574" stroke="#263238" stroke-width="1.52" stroke-linecap="round" stroke-linejoin="round"/>
<path d="M1133.58 501.566V494.574" stroke="#263238" stroke-width="1.52" stroke-linecap="round" stroke-linejoin="round"/>
<path d="M1147.31 501.566V494.574" stroke="#263238" stroke-width="1.52" stroke-linecap="round" stroke-linejoin="round"/>
<path d="M1161.02 501.566V494.574" stroke="#263238" stroke-width="1.52" stroke-linecap="round" stroke-linejoin="round"/>
<path d="M1197.32 425.612V493.191C1197.32 497.827 1192.6 501.566 1186.8 501.566H901.92C900.185 501.628 898.46 501.288 896.878 500.574C895.296 499.859 893.901 498.789 892.8 497.447C891.849 496.229 891.316 494.736 891.28 493.191V425.612C891.28 421.052 895.992 417.237 901.798 417.237H1186.8C1192.6 417.237 1197.32 420.976 1197.32 425.612Z" stroke="#92E3A9" stroke-width="1.52" stroke-linecap="round" stroke-linejoin="round"/>
<path d="M1110.62 294.725L1019.67 417.237L984.897 464.083L946.897 439.885L900.4 501.566H899.731C898.273 501.568 896.84 501.188 895.574 500.466C894.308 499.743 893.252 498.703 892.511 497.447L944.754 428.12L982.754 452.273L1008.76 417.313L1103.59 289.633L1110.62 294.725Z" fill="#219653"/>
<path d="M1087.54 296.275L1120.97 276.014L1111.73 311.065L1105.83 294.846L1087.54 296.275Z" fill="#219653"/>
<path d="M1403.87 681.99H869.3L809.382 735.266" stroke="#27AE60" stroke-width="2.10526" stroke-linecap="round" stroke-linejoin="round"/>
<path d="M869.635 644.69V541.102" stroke="#27AE60" stroke-width="2.10526" stroke-linecap="round" stroke-linejoin="round"/>
<path d="M869.635 675.971V655.938" stroke="#27AE60" stroke-width="2.10526" stroke-linecap="round" stroke-linejoin="round"/>
<path d="M1371.69 429.974C1371.69 429.974 1371.69 423.712 1362.92 414.957C1354.15 406.202 1348.52 401.186 1348.52 401.186C1348.52 401.186 1344.13 415.58 1352.28 424.35C1358.26 430.528 1364.76 436.193 1371.69 441.283V429.974Z" fill="#92E3A9"/>
<path d="M1358.97 469.084C1358.97 469.084 1358.97 462.822 1350.2 454.051C1341.43 445.281 1335.8 440.28 1335.8 440.28C1335.8 440.28 1331.42 454.674 1339.56 463.445C1345.55 469.62 1352.04 475.288 1358.97 480.393V469.084Z" fill="#92E3A9"/>
<path d="M1371.13 440.645C1371.13 440.645 1371.8 434.413 1381.43 426.615C1391.07 418.817 1397.21 414.455 1397.21 414.455C1397.21 414.455 1400.04 429.275 1391.02 437.088C1384.42 442.586 1377.37 447.523 1369.94 451.847L1371.13 440.645Z" fill="#92E3A9"/>
<path d="M1355.76 486.822C1355.76 486.822 1357.08 480.742 1367.48 473.963C1377.88 467.184 1384.43 463.506 1384.43 463.506C1384.43 463.506 1385.69 478.508 1375.95 485.378C1368.8 490.152 1361.27 494.316 1353.43 497.827L1355.76 486.822Z" fill="#92E3A9"/>
<path d="M1358.66 537.15C1358.66 537.15 1358.66 530.887 1367.42 522.132C1376.17 513.377 1381.81 508.361 1381.81 508.361C1381.81 508.361 1386.21 522.77 1378.06 531.526C1372.08 537.712 1365.59 543.382 1358.66 548.474V537.15Z" fill="#92E3A9"/>
<path d="M1358.51 549.446C1358.51 549.446 1359.39 543.245 1351.96 533.334C1344.53 523.424 1339.68 517.648 1339.68 517.648C1339.68 517.648 1333.32 531.328 1340.12 541.117C1345.17 548.069 1350.79 554.588 1356.93 560.603L1358.51 549.446Z" fill="#92E3A9"/>
<path d="M1349.86 585.85C1349.86 585.85 1349.86 579.603 1358.63 570.833C1367.4 562.062 1373.03 557.153 1373.03 557.153C1373.03 557.153 1377.42 571.547 1369.27 580.302C1363.29 586.486 1356.8 592.155 1349.86 597.25V585.85Z" fill="#92E3A9"/>
<path d="M1355.71 618.88C1355.71 618.88 1354.19 612.8 1360.41 602.16C1366.63 591.52 1370.85 585.212 1370.85 585.212C1370.85 585.212 1378.73 598.041 1373.09 608.574C1368.86 616.06 1364.01 623.179 1358.59 629.854L1355.71 618.88Z" fill="#92E3A9"/>
<path d="M1372.48 428.424C1372.04 434.938 1371.24 441.423 1370.08 447.85C1366.61 465.755 1357.92 477.307 1354.48 493.45C1351.05 509.592 1360.97 530.462 1358.31 551.21C1355.65 571.958 1347.55 583.525 1349.83 597.387C1352.11 611.25 1364.27 648.763 1364.27 648.763" stroke="#263238" stroke-width="1.78978" stroke-linecap="round" stroke-linejoin="round"/>
<path d="M1371.05 444.81L1380.49 437.544" stroke="#263238" stroke-width="1.78978" stroke-linecap="round" stroke-linejoin="round"/>
<path d="M1371.48 436.465L1367.54 429.427" stroke="#263238" stroke-width="1.78978" stroke-linecap="round" stroke-linejoin="round"/>
<path d="M1355.02 492.72C1355.02 492.72 1362.92 486.777 1371.05 480.849" stroke="#263238" stroke-width="1.78978" stroke-linecap="round" stroke-linejoin="round"/>
<path d="M1358.97 480.317C1358.97 480.317 1352.37 467.397 1344.91 458.824" stroke="#263238" stroke-width="1.78978" stroke-linecap="round" stroke-linejoin="round"/>
<path d="M1358.97 546.057C1363.5 537.74 1369.2 530.121 1375.92 523.439" stroke="#263238" stroke-width="1.78978" stroke-linecap="round" stroke-linejoin="round"/>
<path d="M1357.43 554.842C1355.01 549.187 1352.12 543.742 1348.8 538.563C1344.24 531.754 1343.51 530.872 1343.51 530.872" stroke="#263238" stroke-width="1.78978" stroke-linecap="round" stroke-linejoin="round"/>
<path d="M1349.86 597.372C1351.87 592.395 1354.25 587.578 1356.99 582.962C1359.73 578.665 1362.81 574.598 1366.2 570.802" stroke="#263238" stroke-width="1.78978" stroke-linecap="round" stroke-linejoin="round"/>
<path d="M1358.57 629.778C1358.11 625.029 1358.93 620.243 1360.94 615.916C1364.24 609.547 1367.96 601.187 1369.52 597.904" stroke="#263238" stroke-width="1.78978" stroke-linecap="round" stroke-linejoin="round"/>
<path d="M1314.29 513.605C1314.29 513.605 1313.61 509.698 1318.16 503.238C1322.7 496.778 1325.76 493.024 1325.76 493.024C1325.76 493.024 1330.06 501.566 1325.91 507.95C1322.82 512.468 1319.37 516.719 1315.57 520.658L1314.29 513.605Z" fill="#92E3A9"/>
<path d="M1326.52 536.8C1326.52 536.8 1325.83 532.863 1330.38 526.418C1334.92 519.974 1337.98 516.219 1337.98 516.219C1337.98 516.219 1342.28 524.777 1338.13 531.146C1335.05 535.666 1331.59 539.917 1327.79 543.853L1326.52 536.8Z" fill="#92E3A9"/>
<path d="M1315.8 520.232C1315.8 520.232 1314.74 516.402 1307.82 512.632C1300.9 508.862 1296.6 506.704 1296.6 506.704C1296.6 506.704 1296.43 516.234 1302.96 520.232C1307.69 522.964 1312.65 525.293 1317.78 527.194L1315.8 520.232Z" fill="#92E3A9"/>
<path d="M1330.45 547.516C1330.45 547.516 1328.93 543.822 1321.7 540.737C1314.46 537.651 1309.92 536.025 1309.92 536.025C1309.92 536.025 1310.75 545.555 1317.64 548.808C1322.64 551.025 1327.81 552.82 1333.11 554.174L1330.45 547.516Z" fill="#92E3A9"/>
<path d="M1334.1 579.36C1334.1 579.36 1333.42 575.438 1326.97 570.894C1320.53 566.349 1316.44 563.81 1316.44 563.81C1316.44 563.81 1315.25 573.341 1321.32 577.931C1325.74 581.142 1330.42 583.974 1335.32 586.398L1334.1 579.36Z" fill="#92E3A9"/>
<path d="M1335.51 587.097C1335.51 587.097 1334.28 583.312 1337.87 576.29C1341.46 569.267 1343.95 565.118 1343.95 565.118C1343.95 565.118 1349.42 572.961 1346.23 579.877C1343.8 584.785 1340.96 589.482 1337.75 593.922L1335.51 587.097Z" fill="#92E3A9"/>
<path d="M1346.52 618.758C1346.52 618.758 1346.97 614.806 1353.15 609.897C1359.32 604.987 1363.25 602.297 1363.25 602.297C1363.25 602.297 1364.99 611.721 1359.19 616.676C1354.97 620.135 1350.46 623.236 1345.71 625.948L1346.52 618.758Z" fill="#92E3A9"/>
<path d="M1344.89 609C1344.89 609 1344.21 605.063 1337.76 600.518C1331.32 595.974 1327.25 593.45 1327.25 593.45C1327.25 593.45 1326.06 602.981 1332.11 607.571C1336.54 610.78 1341.22 613.612 1346.12 616.038L1344.89 609Z" fill="#92E3A9"/>
<path d="M1344.8 630.341C1344.8 630.341 1345.15 626.358 1340.06 620.339C1334.97 614.32 1331.67 610.809 1331.67 610.809C1331.67 610.809 1328.11 619.701 1332.81 625.705C1336.28 629.939 1340.09 633.879 1344.21 637.485L1344.8 630.341Z" fill="#92E3A9"/>
<path d="M1313.61 512.693C1314.6 516.734 1315.81 520.718 1317.24 524.625C1321.35 535.462 1328.04 541.77 1331.96 551.529C1335.88 561.287 1331.96 575.438 1335.83 588.161C1339.71 600.883 1346.09 607.222 1346.14 616.205C1346.18 625.188 1342.72 650.01 1342.72 650.01" stroke="#263238" stroke-width="1.78978" stroke-linecap="round" stroke-linejoin="round"/>
<path d="M1316.3 522.831L1309.6 519.32" stroke="#263238" stroke-width="1.78978" stroke-linecap="round" stroke-linejoin="round"/>
<path d="M1315.11 517.648L1316.83 512.814" stroke="#263238" stroke-width="1.78978" stroke-linecap="round" stroke-linejoin="round"/>
<path d="M1331.56 551.118C1331.56 551.118 1325.95 548.261 1320.22 545.418" stroke="#263238" stroke-width="1.78978" stroke-linecap="round" stroke-linejoin="round"/>
<path d="M1327.73 543.853C1329.38 538.649 1331.55 533.628 1334.22 528.865" stroke="#263238" stroke-width="1.78978" stroke-linecap="round" stroke-linejoin="round"/>
<path d="M1334.87 585.014C1331.13 580.292 1326.73 576.135 1321.8 572.672" stroke="#263238" stroke-width="1.78978" stroke-linecap="round" stroke-linejoin="round"/>
<path d="M1336.79 590.365C1337.68 586.567 1338.88 582.85 1340.39 579.253C1342.51 574.465 1342.87 573.842 1342.87 573.842" stroke="#263238" stroke-width="1.78978" stroke-linecap="round" stroke-linejoin="round"/>
<path d="M1345.85 622.984C1348.02 620.282 1350.44 617.78 1353.05 615.506C1354.72 614.27 1356.29 612.903 1357.74 611.417" stroke="#263238" stroke-width="1.78978" stroke-linecap="round" stroke-linejoin="round"/>
<path d="M1346.14 616.205C1344.32 613.305 1342.29 610.546 1340.06 607.951C1337.88 605.567 1335.5 603.366 1332.96 601.37" stroke="#263238" stroke-width="1.78978" stroke-linecap="round" stroke-linejoin="round"/>
<path d="M1344.24 637.485C1344 634.442 1342.95 631.52 1341.2 629.018C1338.43 625.37 1335.12 620.537 1333.87 618.637" stroke="#263238" stroke-width="1.78978" stroke-linecap="round" stroke-linejoin="round"/>
<path d="M1373.39 692.813H1333.48C1332.68 692.813 1331.92 692.503 1331.35 691.949C1330.79 691.396 1330.46 690.642 1330.44 689.849L1324.71 645.677H1382.04L1376.31 689.849C1376.29 690.621 1375.98 691.357 1375.44 691.908C1374.9 692.459 1374.16 692.782 1373.39 692.813Z" fill="#263238"/>
<path d="M1381.58 653.141H1324.77C1323.58 653.145 1322.45 652.68 1321.61 651.848C1320.77 651.016 1320.29 649.885 1320.28 648.702C1320.3 647.522 1320.78 646.395 1321.61 645.558C1322.45 644.722 1323.57 644.242 1324.75 644.218H1381.58C1382.17 644.216 1382.76 644.33 1383.3 644.554C1383.84 644.778 1384.34 645.107 1384.75 645.522C1385.17 645.937 1385.5 646.43 1385.73 646.973C1385.95 647.517 1386.07 648.099 1386.07 648.687C1386.07 649.274 1385.95 649.855 1385.72 650.396C1385.5 650.937 1385.17 651.429 1384.75 651.843C1384.33 652.256 1383.84 652.584 1383.3 652.806C1382.75 653.029 1382.17 653.143 1381.58 653.141Z" fill="#263238"/>
<path d="M1253.5 476.471C1253.49 488.946 1249.27 501.052 1241.5 510.815C1233.74 520.578 1222.89 527.423 1210.74 530.233H1210.57C1209.13 530.553 1207.68 530.841 1206.19 531.054C1203.58 531.426 1200.94 531.614 1198.3 531.617C1183.88 531.565 1170.04 525.866 1159.77 515.741C1149.49 505.616 1143.59 491.869 1143.32 477.444C1143.05 463.02 1148.45 449.065 1158.34 438.567C1168.24 428.069 1181.85 421.864 1196.27 421.28C1196.77 421.28 1197.3 421.28 1197.79 421.28C1197.95 421.265 1198.11 421.265 1198.27 421.28C1198.46 421.265 1198.65 421.265 1198.84 421.28C1206.28 421.328 1213.64 422.906 1220.45 425.916C1230.28 430.22 1238.63 437.294 1244.5 446.272C1250.37 455.251 1253.5 465.745 1253.5 476.471Z" fill="#92E3A9"/>
<path opacity="0.4" d="M1220.48 425.931C1156.75 422.618 1156.44 493.374 1156.44 493.374C1156.44 493.374 1146.72 470.285 1162.6 444.734C1171.48 430.43 1186.92 424.122 1198.87 421.326C1206.31 421.364 1213.67 422.932 1220.48 425.931Z" fill="white"/>
<path d="M1253.5 476.471C1253.5 488.976 1249.25 501.111 1241.45 510.886C1233.65 520.662 1222.76 527.5 1210.57 530.279C1206.55 531.205 1202.43 531.669 1198.3 531.662C1183.67 531.932 1169.52 526.377 1158.98 516.217C1148.44 506.058 1142.37 492.127 1142.1 477.49C1141.82 462.852 1147.38 448.707 1157.54 438.165C1167.7 427.624 1181.63 421.55 1196.27 421.28C1196.94 421.28 1197.62 421.28 1198.3 421.28C1212.94 421.284 1226.98 427.1 1237.33 437.449C1247.68 447.799 1253.49 461.835 1253.5 476.471V476.471Z" stroke="#263238" stroke-width="1.52" stroke-linecap="round" stroke-linejoin="round"/>
<path d="M1253.5 476.471C1253.5 488.976 1249.25 501.111 1241.45 510.886C1233.65 520.662 1222.76 527.5 1210.57 530.279C1209.9 530.279 1209.22 530.279 1208.53 530.279C1194.99 530.243 1181.93 525.227 1171.84 516.186C1161.75 507.145 1155.34 494.709 1153.82 481.247C1152.31 467.784 1155.79 454.234 1163.62 443.177C1171.45 432.119 1183.07 424.326 1196.27 421.28C1196.94 421.28 1197.62 421.28 1198.31 421.28C1212.94 421.284 1226.98 427.1 1237.33 437.449C1247.68 447.799 1253.49 461.835 1253.5 476.471V476.471Z" stroke="#263238" stroke-width="1.52" stroke-linecap="round" stroke-linejoin="round"/>
<path d="M1217.32 510.96L1218.75 516.797L1209.2 519.122L1207.77 513.301C1199.23 513.301 1192.38 507.753 1190.19 498.845L1189.53 496.201L1200.07 492.385L1200.74 495.137C1202.06 500.548 1205.63 503.147 1210.08 502.053C1211.06 501.901 1212 501.538 1212.82 500.991C1213.64 500.443 1214.34 499.723 1214.86 498.881C1215.38 498.038 1215.71 497.093 1215.82 496.111C1215.94 495.129 1215.85 494.133 1215.54 493.191C1214.26 487.993 1208.31 484.74 1201.41 481.381C1193.24 477.429 1184.82 472.413 1182.51 462.973C1180.26 453.762 1183.09 446.086 1190.37 442.286L1188.94 436.449L1198.47 434.124L1199.9 439.946C1208.18 439.824 1214.36 445.281 1216.62 454.705L1217.09 456.62L1206.57 460.435L1206.04 458.322C1204.64 452.592 1201.69 450.175 1197.77 451.133C1193.85 452.09 1192.22 455.085 1193.36 459.736C1194.64 464.934 1200.68 468.066 1207.5 471.562C1215.57 475.65 1224.08 480.529 1226.39 489.953C1228.72 499.028 1225.01 507.114 1217.32 510.96Z" stroke="#263238" stroke-width="1.52" stroke-miterlimit="10"/>
<path opacity="0.3" d="M1217.32 510.96L1218.75 516.797L1209.2 519.122L1207.77 513.301C1199.23 513.301 1192.38 507.753 1190.19 498.845L1189.53 496.201L1200.07 492.385L1200.74 495.137C1202.06 500.548 1205.63 503.147 1210.08 502.053C1211.06 501.901 1212 501.538 1212.82 500.991C1213.64 500.443 1214.34 499.723 1214.86 498.881C1215.38 498.038 1215.71 497.093 1215.82 496.111C1215.94 495.129 1215.85 494.133 1215.54 493.191C1214.26 487.993 1208.31 484.74 1201.41 481.381C1193.24 477.429 1184.82 472.413 1182.51 462.973C1180.26 453.762 1183.09 446.086 1190.37 442.286L1188.94 436.449L1198.47 434.124L1199.9 439.946C1208.18 439.824 1214.36 445.281 1216.62 454.705L1217.09 456.62L1206.57 460.435L1206.04 458.322C1204.64 452.592 1201.69 450.175 1197.77 451.133C1193.85 452.09 1192.22 455.085 1193.36 459.736C1194.64 464.934 1200.68 468.066 1207.5 471.562C1215.57 475.65 1224.08 480.529 1226.39 489.953C1228.72 499.028 1225.01 507.114 1217.32 510.96Z" fill="black"/>
<path d="M1170.09 523.926L1181.75 523.394" stroke="#263238" stroke-width="1.52" stroke-linecap="round" stroke-linejoin="round"/>
<path d="M1164.48 520.049L1174.65 519.183" stroke="#263238" stroke-width="1.52" stroke-linecap="round" stroke-linejoin="round"/>
<path d="M1159.92 515.961L1170.09 515.094" stroke="#263238" stroke-width="1.52" stroke-linecap="round" stroke-linejoin="round"/>
<path d="M1158.53 438.198H1167.24" stroke="#263238" stroke-width="1.52" stroke-linecap="round" stroke-linejoin="round"/>
<path d="M1162.83 434.185L1171.51 433.79" stroke="#263238" stroke-width="1.52" stroke-linecap="round" stroke-linejoin="round"/>
<path d="M1168.27 430.157L1177.42 429.29" stroke="#263238" stroke-width="1.52" stroke-linecap="round" stroke-linejoin="round"/>
<path opacity="0.3" d="M1210.74 530.233H1210.57C1206.55 531.16 1202.43 531.624 1198.3 531.617C1183.88 531.565 1170.04 525.866 1159.77 515.741C1149.49 505.616 1143.59 491.869 1143.32 477.445C1143.05 463.02 1148.45 449.065 1158.34 438.567C1168.24 428.069 1181.85 421.864 1196.27 421.28C1196.77 421.28 1197.3 421.28 1197.79 421.28C1184.34 425.521 1161.76 436.358 1155.73 458.961C1147.2 491.078 1166.4 527.543 1210.74 530.233Z" fill="black"/>
<path opacity="0.1" d="M1253.5 476.471C1253.49 488.946 1249.27 501.052 1241.5 510.815C1233.74 520.578 1222.89 527.423 1210.74 530.233H1210.57C1209.13 530.553 1207.68 530.841 1206.19 531.054L1220.48 425.885C1230.31 430.196 1238.66 437.277 1244.52 446.261C1250.39 455.245 1253.51 465.743 1253.5 476.471Z" fill="black"/>
<path d="M1284.81 389.588C1280.44 395.761 1274.1 400.27 1266.84 402.379C1259.58 404.488 1251.81 404.073 1244.82 401.201L1244.62 401.11C1243.58 400.653 1242.57 400.146 1241.58 399.59C1240.46 398.99 1239.39 398.32 1238.36 397.583C1231.62 392.441 1227.09 384.935 1225.68 376.581C1224.27 368.227 1226.08 359.649 1230.75 352.579C1235.42 345.509 1242.6 340.475 1250.83 338.494C1259.07 336.513 1267.75 337.732 1275.13 341.906L1275.87 342.377C1276.22 342.574 1276.55 342.818 1276.9 343.061C1277.25 343.304 1277.92 343.806 1278.42 344.201C1285.07 349.53 1289.43 357.194 1290.61 365.629C1291.8 374.063 1289.72 382.633 1284.81 389.588Z" fill="#92E3A9"/>
<path opacity="0.4" d="M1234.44 390.044C1234.44 390.044 1228.98 373.978 1236.23 362.152C1245.35 347.332 1259.32 340.568 1278.33 344.216C1278.33 344.216 1268.03 337.254 1250.78 342.194C1233.52 347.134 1224.27 370.877 1234.44 390.044Z" fill="white"/>
<path d="M1284.81 389.603C1280.43 395.771 1274.1 400.274 1266.83 402.377C1259.57 404.481 1251.81 404.061 1244.82 401.186C1242.51 400.242 1240.32 399.039 1238.28 397.598C1231.51 392.401 1226.98 384.808 1225.62 376.377C1224.26 367.946 1226.18 359.316 1230.99 352.256C1235.79 345.196 1243.11 340.24 1251.45 338.406C1259.79 336.572 1268.52 337.998 1275.84 342.392C1276.17 342.59 1276.52 342.818 1276.86 343.061C1284.07 348.187 1288.96 355.965 1290.45 364.689C1291.94 373.413 1289.91 382.373 1284.81 389.603Z" stroke="#263238" stroke-width="1.52" stroke-linecap="round" stroke-linejoin="round"/>
<path d="M1284.81 389.603C1280.43 395.771 1274.1 400.274 1266.83 402.377C1259.57 404.481 1251.81 404.061 1244.82 401.186L1243.8 400.517C1237.19 395.73 1232.57 388.695 1230.79 380.735C1229.01 372.776 1230.2 364.441 1234.14 357.298C1238.08 350.155 1244.49 344.698 1252.17 341.953C1259.85 339.208 1268.27 339.364 1275.84 342.392C1276.17 342.59 1276.52 342.818 1276.86 343.061C1284.07 348.187 1288.96 355.965 1290.45 364.689C1291.94 373.413 1289.91 382.372 1284.81 389.603Z" stroke="#263238" stroke-width="1.52" stroke-linecap="round" stroke-linejoin="round"/>
<path d="M1254.88 394.042L1253.56 397.416L1248.02 395.242L1249.35 391.853C1247.29 390.407 1245.81 388.293 1245.14 385.872C1244.48 383.452 1244.67 380.875 1245.7 378.583L1246.31 377.063L1252.84 378.842L1252.22 380.453C1250.99 383.584 1251.82 386.107 1254.41 387.126C1254.94 387.392 1255.53 387.54 1256.13 387.557C1256.73 387.574 1257.33 387.461 1257.88 387.225C1258.43 386.99 1258.92 386.637 1259.32 386.192C1259.72 385.747 1260.02 385.22 1260.2 384.648C1261.39 381.608 1259.58 377.945 1257.34 373.886C1254.7 369.083 1252.3 363.672 1254.44 358.2C1256.58 352.728 1260.63 350.053 1265.53 350.722L1266.87 347.347L1272.39 349.521L1271.07 352.88C1275.2 355.707 1276.34 360.48 1274.2 366.028L1273.76 367.122L1267.22 365.344L1267.71 364.113C1269.02 360.799 1268.41 358.565 1266.19 357.668C1263.97 356.771 1262.07 357.668 1261.01 360.389C1259.82 363.429 1261.72 367.046 1263.86 371.15C1266.43 375.999 1268.92 381.38 1266.78 386.837C1265.97 389.25 1264.33 391.298 1262.15 392.617C1259.97 393.936 1257.39 394.441 1254.88 394.042V394.042Z" stroke="#263238" stroke-width="1.52" stroke-miterlimit="10"/>
<path opacity="0.3" d="M1254.88 394.042L1253.56 397.416L1248.02 395.242L1249.35 391.853C1247.29 390.407 1245.81 388.293 1245.14 385.872C1244.48 383.452 1244.67 380.875 1245.7 378.583L1246.31 377.063L1252.84 378.842L1252.22 380.453C1250.99 383.584 1251.82 386.107 1254.41 387.126C1254.94 387.392 1255.53 387.54 1256.13 387.557C1256.73 387.574 1257.33 387.461 1257.88 387.225C1258.43 386.99 1258.92 386.637 1259.32 386.192C1259.72 385.747 1260.02 385.22 1260.2 384.648C1261.39 381.608 1259.58 377.945 1257.34 373.886C1254.7 369.083 1252.3 363.672 1254.44 358.2C1256.58 352.728 1260.63 350.053 1265.53 350.722L1266.87 347.347L1272.39 349.521L1271.07 352.88C1275.2 355.707 1276.34 360.48 1274.2 366.028L1273.76 367.122L1267.22 365.344L1267.71 364.113C1269.02 360.799 1268.41 358.565 1266.19 357.668C1263.97 356.771 1262.07 357.668 1261.01 360.389C1259.82 363.429 1261.72 367.046 1263.86 371.15C1266.43 375.999 1268.92 381.38 1266.78 386.837C1265.97 389.25 1264.33 391.298 1262.15 392.617C1259.97 393.936 1257.39 394.441 1254.88 394.042Z" fill="black"/>
<path opacity="0.3" d="M1275.05 341.921C1265.93 340.294 1254.38 339.398 1248.15 343.441C1236.7 350.782 1229.57 360.039 1229.68 375.042C1229.78 390.044 1243.8 400.562 1243.8 400.562L1244.62 401.155C1242.38 400.222 1240.26 399.044 1238.28 397.644C1231.55 392.502 1227.02 384.996 1225.6 376.642C1224.19 368.288 1226 359.71 1230.67 352.64C1235.34 345.57 1242.52 340.536 1250.76 338.555C1258.99 336.574 1267.68 337.793 1275.05 341.966V341.921Z" fill="black"/>
<path opacity="0.1" d="M1284.81 389.588C1280.44 395.761 1274.1 400.27 1266.84 402.379C1259.58 404.488 1251.81 404.073 1244.82 401.201L1244.62 401.11C1243.58 400.653 1242.57 400.146 1241.58 399.59L1278.33 344.216C1284.99 349.532 1289.36 357.187 1290.57 365.618C1291.77 374.05 1289.71 382.623 1284.81 389.588Z" fill="black"/>
<path d="M1267.6 817.635C1253.45 834.654 1236.59 849.215 1217.69 860.727C1211.8 864.251 1205.71 867.428 1199.45 870.242C1156.26 889.653 1107.04 890.914 1061.02 879.758C964.24 856.304 912.895 770.88 906.374 676.047C904.626 650.42 900.704 622.741 911.086 598.36C921.468 573.979 942.459 558.84 966.201 548.322C983.438 540.646 1002.06 535.493 1018.98 531.282C1049.59 523.719 1081.89 527.051 1110.31 540.706C1130.21 550.146 1144.38 566.546 1161.11 580.363C1162.88 581.822 1164.67 583.277 1166.46 584.726C1183.37 598.333 1201.14 610.828 1219.66 622.133C1247.8 639.294 1276.6 655.482 1294.58 684.301C1323.26 730.235 1299.07 780.243 1267.6 817.635Z" fill="#92E3A9"/>
<path opacity="0.4" d="M1267.6 817.635C1253.45 834.654 1236.59 849.215 1217.69 860.727C1211.8 864.251 1205.71 867.428 1199.45 870.242C1156.26 889.653 1107.04 890.914 1061.02 879.758C964.24 856.304 912.895 770.88 906.374 676.047C904.626 650.42 900.704 622.741 911.086 598.36C921.468 573.979 942.459 558.84 966.201 548.322C983.438 540.646 1002.06 535.493 1018.98 531.282C1049.59 523.719 1081.89 527.051 1110.31 540.706C1130.21 550.146 1144.38 566.546 1161.11 580.363C1162.88 581.822 1164.67 583.277 1166.46 584.726C1183.37 598.333 1201.14 610.828 1219.66 622.133C1247.8 639.294 1276.6 655.482 1294.58 684.301C1323.26 730.235 1299.07 780.243 1267.6 817.635Z" fill="white"/>
<path d="M1166.4 584.726C1164.61 583.287 1162.82 581.827 1161.05 580.348C1144.33 566.501 1130.13 550.146 1110.25 540.706C1081.82 527.059 1049.53 523.727 1018.91 531.282C978.681 541.269 928.779 556.651 910.995 598.375C900.613 622.695 904.535 650.42 906.298 676.047C912.895 770.88 964.241 856.304 1061.02 879.758C1113.67 892.526 1170.46 889.03 1217.69 860.727C1236.59 849.215 1253.45 834.654 1267.6 817.635C1299.07 780.243 1323.26 730.235 1294.61 684.301C1276.65 655.421 1247.84 639.294 1219.69 622.133C1201.14 610.831 1183.34 598.336 1166.4 584.726V584.726Z" stroke="#263238" stroke-width="1.52" stroke-miterlimit="10"/>
<path d="M1019.8 753.826C1011.74 756.264 1003.92 759.428 996.434 763.28" stroke="#263238" stroke-width="1.52" stroke-linecap="round" stroke-linejoin="round"/>
<path d="M1069.12 744.432C1057.35 745.451 1045.67 747.305 1034.16 749.98" stroke="#263238" stroke-width="1.52" stroke-linecap="round" stroke-linejoin="round"/>
<path d="M1058.86 742C1058.86 742 1013.44 715.582 958.632 736.756" stroke="#263238" stroke-width="1.52" stroke-linecap="round" stroke-linejoin="round"/>
<path opacity="0.1" d="M1267.6 817.635C1253.45 834.654 1236.59 849.215 1217.69 860.727C1211.8 864.251 1205.71 867.428 1199.45 870.242C1194.5 868.729 1189.65 866.948 1184.9 864.907C1156.54 852.747 1132.73 832.182 1109.48 811.905C1095.45 799.745 1081.19 787.281 1064.39 779.27C1041.68 768.531 1015.84 766.403 991.677 773.282C1004.17 759.176 1021.17 749.826 1039.77 746.818C1027.76 735.89 1011.06 731.299 994.823 731.01C978.59 730.722 969.652 732.713 953.783 736.27C959.088 726.511 973.163 717.68 984.275 717.938C973.712 717.798 963.166 717.052 952.689 715.704C938.355 713.394 931.941 696.522 929.798 682.173C923.87 642.653 929.874 600.564 951.443 566.972C955.713 560.272 960.653 554.023 966.187 548.322C983.423 540.646 1002.04 535.493 1018.96 531.282C1049.58 523.719 1081.87 527.051 1110.3 540.706C1130.19 550.146 1144.36 566.546 1161.1 580.363C1162.87 581.822 1164.65 583.276 1166.45 584.726C1183.35 598.333 1201.12 610.828 1219.65 622.133C1247.78 639.294 1276.59 655.482 1294.57 684.301C1323.27 730.235 1299.07 780.243 1267.6 817.635Z" fill="black"/>
<path d="M1283.44 816.48C1291.96 823.565 1300.88 830.162 1310.15 836.24C1328.22 837.456 1320.12 859.298 1320.12 859.298L1304.64 869.254C1304.64 869.254 1278.15 848.202 1263.68 841.378C1249.21 834.553 1283.44 816.48 1283.44 816.48Z" fill="white"/>
<path opacity="0.3" d="M1155.02 586.504C1155.02 586.504 1152.54 561.986 1148.59 555.101L1088.58 542.88V538.229C1088.58 538.229 1089.96 530.142 1076.58 525.081C1063.21 520.019 1035.33 526.601 1028.14 532.042C1020.95 537.484 1023.58 546.847 1023.58 546.847C1023.58 546.847 999.413 559.053 988.561 563.704C979.677 567.803 971.016 572.369 962.614 577.384C962.614 577.384 957.689 633.746 958.662 646.833C959.635 659.92 957.872 672.232 958.997 679.482C960.121 686.733 961.003 690.852 968.603 697.023C976.203 703.194 983.119 712.223 1003.05 703.27L1000.26 701.066L1131.44 656.88L1155.02 586.504Z" fill="black"/>
<path d="M1155.02 586.504C1155.02 586.504 1152.54 561.986 1148.59 555.101L1088.58 542.88V538.229C1088.58 538.229 1089.96 530.142 1076.58 525.081C1063.21 520.019 1035.33 526.601 1028.14 532.042C1020.95 537.484 1023.58 546.847 1023.58 546.847C1023.58 546.847 999.413 559.053 988.561 563.704C979.677 567.803 971.016 572.369 962.614 577.384C962.614 577.384 957.689 633.746 958.662 646.833C959.635 659.92 957.872 672.232 958.997 679.482C960.121 686.733 961.003 690.852 968.603 697.023C976.203 703.194 983.119 712.223 1003.05 703.27L1000.26 701.066L1131.44 656.88L1155.02 586.504Z" fill="#92E3A9"/>
<path opacity="0.05" d="M1155.02 586.504C1155.02 586.504 1152.54 561.986 1148.59 555.101L1088.58 542.88V538.229C1088.58 538.229 1089.96 530.142 1076.58 525.081C1063.21 520.019 1035.33 526.601 1028.14 532.042C1020.95 537.484 1023.58 546.847 1023.58 546.847C1023.58 546.847 999.413 559.053 988.561 563.704C979.677 567.803 971.016 572.369 962.614 577.384C962.614 577.384 957.689 633.746 958.662 646.833C959.635 659.92 957.872 672.232 958.997 679.482C960.121 686.733 961.003 690.852 968.603 697.023C976.203 703.194 983.119 712.223 1003.05 703.27L1000.26 701.066L1131.44 656.88L1155.02 586.504Z" fill="black"/>
<path opacity="0.1" d="M1149.38 558.08H1124.27C1121.91 558.084 1119.62 558.924 1117.82 560.452C1116.02 561.979 1114.82 564.096 1114.43 566.425L1102.06 640.905C1102.06 640.905 1085.02 642.318 1072.95 651.119C1060.88 659.92 1031.2 597.129 984.29 597.098C984.29 597.098 997.787 627.954 1000.78 652.578C1000.78 652.578 971.461 649.386 966.597 660.862C961.733 672.338 968.801 693.846 981.204 685.517C993.607 677.187 1005.28 663.294 1013.56 672.08C1021.85 680.866 1058.86 685.593 1058.86 685.593L1115.82 656.88L1137.9 646.498L1149.38 558.08Z" fill="black"/>
<path opacity="0.4" d="M1069.65 521.159C1069.65 521.159 1083.91 525.111 1086.22 529.899C1088.53 534.687 1088.29 546.802 1088.29 546.802C1084.83 554.898 1079.59 562.11 1072.95 567.899L1062.31 546.802L1063.27 570.726C1063.27 570.726 1043.08 567.367 1034.51 560.922L1025.95 554.462C1025.95 554.462 1022.26 542.302 1022.79 538.183C1023.32 534.064 1038.72 525.704 1038.72 525.704L1069.65 521.159Z" fill="white"/>
<path d="M1307.14 890.078C1306.74 889.212 1312.99 878.177 1308.09 866.944C1303.2 855.711 1295.4 860.043 1295.4 860.043C1295.4 860.043 1273.2 845.907 1263.86 841.438C1257.14 838.061 1250.66 834.211 1244.48 829.917L1234.62 843.202L1243.74 871.413L1307.14 890.078Z" fill="#92E3A9"/>
<path d="M1294.6 859.359L1323.11 876.778C1323.11 876.778 1343.16 863.919 1352.72 855.042C1362.28 846.166 1383.76 827.257 1383.76 827.257L1397.44 808.85C1397.44 808.85 1387.96 797.115 1372.15 806.539C1351.72 818.699 1326.81 836.362 1310.19 836.194C1310.19 836.194 1313.46 856.608 1294.7 859.359" fill="#92E3A9"/>
<path d="M1064.82 447.47C1064.82 447.47 1077.75 467.047 1080.11 473.386C1082.47 479.724 1084.37 489.102 1083.9 493.617C1083.42 498.131 1078.68 522.314 1076.3 523.014L1074 525.613L1075.52 535.858C1075.52 535.858 1065.4 553.353 1035.64 540.524C1035.64 540.524 1034.48 520.095 1030.86 513.681C1027.25 507.266 1021.83 514.897 1016.41 496.368C1010.98 477.839 1028.26 458.368 1028.26 458.368L1064.82 447.47Z" fill="white"/>
<path opacity="0.5" d="M1385.02 803.134C1385.02 803.134 1370.35 805.688 1365.6 814.367C1360.84 823.046 1351.7 839.173 1348.59 846.971C1345.47 854.769 1319.71 873.601 1319.71 873.601L1323.13 876.778C1323.13 876.778 1344.1 863.813 1356.77 851.485C1369.43 839.158 1397.35 808.15 1397.35 808.15C1397.35 808.15 1395.34 806.159 1385.02 803.134Z" fill="white"/>
<path opacity="0.5" d="M1238.25 838.322L1234.62 843.201L1245.77 866.336L1307.14 888.391L1309.98 879.408C1309.98 879.408 1310.92 870.288 1289.38 863.357C1267.85 856.425 1254.71 851.85 1248.59 847.093C1242.46 842.335 1238.25 838.322 1238.25 838.322Z" fill="white"/>
<path d="M1035.68 666.501C1035.68 666.501 1016.89 663.674 1008.12 679.041C999.353 694.409 1000.25 701.066 1000.25 701.066C1000.25 701.066 1012.67 712.345 1029.74 711.706C1046.81 711.068 1071.66 691.521 1079.76 685.152C1087.86 678.783 1108.29 660.558 1122.23 664.328L1123.75 651.15C1123.75 651.15 1122.38 645.237 1110.46 646.833C1098.55 648.429 1093.87 655.223 1090.02 655.223C1086.18 655.223 1082.54 651.53 1074.82 664.723C1074.81 664.723 1047.7 669.526 1035.68 666.501Z" fill="white"/>
<path d="M1060.09 475.62C1060.49 478.083 1061.06 480.516 1061.79 482.901C1062.07 484.065 1062.59 485.158 1063.31 486.108C1064.74 487.628 1067.05 488.023 1069.17 488.342C1069.52 488.367 1069.85 488.506 1070.11 488.738C1070.28 489.01 1070.36 489.329 1070.34 489.65C1070.32 492.044 1069.6 494.381 1068.27 496.368" stroke="#263238" stroke-width="1.52" stroke-linecap="round" stroke-linejoin="round"/>
<path opacity="0.1" d="M1250.85 822.56L1238.25 838.262C1238.25 838.262 1252.08 851.045 1266.4 855.787C1280.72 860.53 1305.78 869.467 1309.98 876.353L1308.37 868.16C1308.37 868.16 1269.17 844.114 1260.17 838.368C1257.51 836.623 1255.28 834.29 1253.67 831.549C1252.05 828.808 1251.09 825.733 1250.85 822.56Z" fill="black"/>
<path opacity="0.1" d="M1294.6 859.359L1319.69 873.601C1319.69 873.601 1332.08 865.12 1338.16 858.873C1344.24 852.625 1351.73 845.694 1356.4 831.695C1362.77 812.345 1381.01 803.134 1381.01 803.134C1381.01 803.134 1355.64 815.081 1342.43 824.414C1329.22 833.747 1316.35 837.699 1308.87 837.061C1308.79 837.106 1314.8 856.106 1294.6 859.359Z" fill="black"/>
<path d="M1051.25 499.818C1051.25 499.818 1061.11 507.555 1071.36 504.652C1071.36 504.652 1061.69 523.804 1051.25 499.818Z" fill="white" stroke="#263238" stroke-width="1.52" stroke-linecap="round" stroke-linejoin="round"/>
<path d="M1050.88 483.098C1051.17 485.226 1050.52 487.066 1049.45 487.218C1048.39 487.37 1047.28 485.698 1046.99 483.615C1046.7 481.533 1047.34 479.648 1048.42 479.496C1049.5 479.344 1050.65 480.97 1050.88 483.098Z" fill="#263238"/>
<path d="M1072.36 479.222C1072.63 481.366 1071.99 483.205 1070.93 483.342C1069.87 483.478 1068.74 481.822 1068.47 479.754C1068.19 477.687 1068.82 475.772 1069.9 475.635C1070.98 475.498 1072.07 477.094 1072.36 479.222Z" fill="#263238"/>
<path d="M1049.36 474.07C1049.36 474.07 1043.62 471.106 1039.53 477.459" stroke="#263238" stroke-width="1.52" stroke-linecap="round" stroke-linejoin="round"/>
<path d="M1064.09 470.118C1064.09 470.118 1070.17 464.904 1073.68 470.118" stroke="#263238" stroke-width="1.52" stroke-linecap="round" stroke-linejoin="round"/>
<path d="M1029.84 493.632C1029.84 493.632 1026.15 488.175 1022.24 488.342C1018.34 488.51 1016.79 493.982 1018.19 499.271C1019.58 504.561 1025.41 511.948 1029.81 511.249C1032.3 510.928 1034.57 509.666 1036.15 507.722" stroke="#263238" stroke-width="1.52" stroke-linecap="round" stroke-linejoin="round"/>
<path d="M1065.26 451.878C1069.41 455.328 1073.8 459.082 1075.9 464.159C1077.75 468.476 1078.16 473.279 1079.87 477.642C1081.68 482.308 1083.65 487.187 1083.8 492.279C1083.72 496.99 1083.11 501.677 1081.96 506.248C1081.33 510.212 1080.39 514.12 1079.15 517.937C1077.1 523.394 1073.32 526.753 1068.24 529.337C1064.55 531.222 1058.39 533.897 1054.39 531.374C1052.07 529.854 1048.57 525.506 1045.67 521.509" stroke="#263238" stroke-width="1.52" stroke-linecap="round" stroke-linejoin="round"/>
<path d="M1029.84 511.249C1029.84 511.249 1036.38 527.27 1034.8 538.533" stroke="#263238" stroke-width="1.52" stroke-linecap="round" stroke-linejoin="round"/>
<path d="M1028.17 490.942C1029.04 490.298 1029.73 489.441 1030.17 488.453C1030.62 487.465 1030.8 486.38 1030.7 485.302C1030.45 482.84 1028.75 480.56 1029.08 478.098C1029.36 476.918 1029.8 475.783 1030.39 474.723C1031.28 472.678 1031.67 470.453 1031.53 468.229C1031.39 466.005 1030.73 463.845 1029.6 461.925C1029.6 461.925 1050.36 462.898 1060.09 456.711C1069.82 450.525 1077.24 434.702 1071.36 427.147C1065.47 419.593 1054.01 429.898 1045.52 431.038C1037.02 432.178 1006.8 436.997 1001.98 448.64C997.164 460.283 1004.51 464.463 1004.73 475.574C1004.96 486.686 1004.96 507.738 1021.58 505.807C1021.58 505.807 1015.36 497.766 1019.68 489.482C1022.61 486.002 1028.17 490.942 1028.17 490.942Z" fill="#263238"/>
<path d="M1068.89 440.28C1071.71 442.476 1074.05 445.228 1075.76 448.366C1077.47 451.504 1078.52 454.96 1078.83 458.52C1079.76 466.85 1094.53 483.038 1083.88 492.264C1083.88 492.264 1081.4 482.46 1079.94 477.626C1078.48 472.793 1076.61 463.946 1074.17 460.906C1071.72 457.866 1058.74 447.226 1058.74 447.226L1068.89 440.28Z" fill="#263238"/>
<path d="M1031.76 538.183C1031.76 538.183 1042 544.932 1061.03 545.206L1063.27 570.726C1063.27 570.726 1041.87 569.1 1025.95 554.462C1025.95 554.462 1021.65 543.078 1022.79 538.183C1023.93 533.289 1034.16 528.44 1034.16 528.44" stroke="#263238" stroke-width="1.52" stroke-linecap="round" stroke-linejoin="round"/>
<path d="M1074.81 526.768L1075.41 535.888C1071.4 540.067 1066.48 543.265 1061.03 545.236L1072.95 567.93C1072.95 567.93 1087.16 556.864 1088.58 545.236C1088.58 545.236 1088.7 533.334 1086.22 529.93C1083.74 526.525 1074.71 524.929 1074.71 524.929" stroke="#263238" stroke-width="1.52" stroke-linecap="round" stroke-linejoin="round"/>
<path opacity="0.8" d="M1017.14 456.24C1018.66 452.425 1022.82 450.16 1026.88 449.552C1030.94 448.944 1035.1 449.37 1039.21 449.263C1044.89 449.217 1050.46 447.642 1055.32 444.703C1057.74 443.231 1059.84 441.298 1061.51 439.013C1063.18 436.729 1064.38 434.138 1065.05 431.388" stroke="white" stroke-width="1.52" stroke-linecap="round" stroke-linejoin="round"/>
<path opacity="0.8" d="M1007.33 455.495C1009.9 447.698 1018.23 442.879 1026.42 442.195C1030.48 441.846 1034.59 442.317 1038.58 441.846C1042.58 441.374 1046.84 439.702 1048.95 436.222" stroke="white" stroke-width="1.52" stroke-linecap="round" stroke-linejoin="round"/>
<path d="M1003.02 703.27C983.256 713.515 976.233 702.966 965.229 694.242C954.224 685.517 961.444 669.922 959.149 644.918C956.853 619.914 962.569 577.384 962.569 577.384C962.569 577.384 967.493 576.259 981.158 567.899C994.823 559.539 1023.58 546.802 1023.58 546.802" stroke="#263238" stroke-width="1.52" stroke-linecap="round" stroke-linejoin="round"/>
<path d="M1022.59 665.422C1022.59 665.422 1019.46 655.497 1010.62 655.238C1001.77 654.98 987.816 658.962 977.875 677.765" stroke="#263238" stroke-width="1.52" stroke-linecap="round" stroke-linejoin="round"/>
<path d="M1008.59 654.646C1008.04 654.61 1007.5 654.481 1007 654.266C999.705 651.641 991.79 651.281 984.289 653.232" stroke="#263238" stroke-width="1.52" stroke-linecap="round" stroke-linejoin="round"/>
<path d="M979.198 590.958C995.294 608.742 1003.14 632.271 1010.57 655.071" stroke="#263238" stroke-width="1.52" stroke-linecap="round" stroke-linejoin="round"/>
<path d="M1088.58 542.88C1088.58 542.88 1117.76 549.842 1132.02 551.498C1146.28 553.155 1148.59 555.146 1148.59 555.146L1151.25 565.087" stroke="#263238" stroke-width="1.52" stroke-linecap="round" stroke-linejoin="round"/>
<path d="M1224.57 560.178L1125.18 563.993L1117.06 666.213H1134.09L1220.39 646.894L1231.24 562.625L1224.57 560.178Z" fill="white"/>
<path d="M1122.23 669.238L1230.94 565.042L1220.39 646.894L1122.23 669.238Z" fill="#92E3A9"/>
<path opacity="0.7" d="M1122.23 669.238L1230.94 565.042L1220.39 646.894L1122.23 669.238Z" fill="white"/>
<path d="M1122.23 666.502L1130.92 567.899L1231.24 562.625L1220.39 646.894L1122.23 666.502Z" stroke="#263238" stroke-width="1.52" stroke-linecap="round" stroke-linejoin="round"/>
<path d="M1188.96 610.398C1188.29 616.402 1185.08 620.962 1181.8 620.598C1178.51 620.233 1176.42 615.05 1177.09 609.046C1177.75 603.042 1180.98 598.482 1184.26 598.846C1187.54 599.211 1189.64 604.394 1188.96 610.398Z" fill="#263238"/>
<path d="M1220.39 646.894C1220.39 646.894 1266.33 645.586 1280.69 655.071C1295.05 664.556 1303.49 712.117 1301.5 737.379C1299.51 762.642 1282.18 820.614 1282.18 820.614L1248.98 783.04C1248.98 783.04 1232.63 723.578 1241.55 700.291C1241.55 700.291 1197.47 702.769 1180.11 697.327C1180.11 697.327 1164.56 671.867 1137.9 663.446L1220.39 646.894Z" fill="#263238"/>
<path d="M1289.19 821.602C1277.4 810.595 1266.81 798.367 1257.6 785.122C1241.53 760.301 1219.33 736.482 1196.48 717.893C1178.07 702.966 1173.91 678.646 1151.2 666.441C1113.58 646.27 1081.05 686.353 1068.89 694.47C1056.73 702.586 1035.68 711.782 1035.68 711.782C1035.68 711.782 1043.37 740.662 1065.96 744.082C1088.55 747.502 1111.39 731.922 1122.2 739.446C1133.01 746.97 1141 780.562 1176.69 800.246C1205.86 816.328 1245.61 832.014 1266.11 842.594C1270.67 844.965 1274.08 847.458 1276.66 848.871C1283.74 852.732 1291.31 857.277 1298.46 861.776L1323.07 876.763C1323.07 876.763 1347.77 862.156 1357.25 848.689C1358.51 846.88 1361.14 842.062 1363.61 837.41C1368.97 827.242 1375.77 818.122 1385.17 813.09C1391.68 809.579 1397.47 808.53 1397.33 808.166C1396.71 807.01 1384.92 800.976 1376.91 804.274C1359.94 811.282 1326.03 838.201 1310.03 836.194C1302.58 832.084 1295.59 827.192 1289.19 821.602V821.602Z" stroke="#263238" stroke-width="1.52" stroke-miterlimit="10"/>
<path d="M1289.19 821.602C1274.4 827.576 1268.44 836.802 1266.16 842.609C1245.65 831.969 1205.91 816.343 1176.74 800.262C1141.05 780.502 1133.11 746.97 1122.24 739.462C1111.38 731.953 1088.52 747.578 1066 744.098C1043.49 740.617 1035.68 711.767 1035.68 711.767C1035.68 711.767 1056.75 702.647 1068.91 694.53C1081.07 686.414 1109.11 646.316 1151.2 666.502C1174.44 677.643 1178.07 702.982 1196.48 717.954C1219.28 736.482 1241.53 760.362 1257.6 785.183C1266.78 798.426 1277.37 810.637 1289.19 821.602Z" fill="#263238"/>
<path d="M1178.04 692.737C1178.04 692.737 1166.66 669.602 1148.4 665.118" stroke="white" stroke-width="1.52" stroke-linecap="round" stroke-linejoin="round"/>
<path d="M1118.37 646.681C1105.81 643.945 1092.03 657.822 1086.22 655.223C1081.9 653.293 1074.81 664.723 1074.81 664.723C1063.12 666.41 1051.31 667.006 1039.51 666.502C1022.59 665.422 1014.58 668.721 1008.59 677.765L1000.23 699.911C1000.23 699.911 1022.29 719.671 1045.83 708.165C1069.38 696.658 1100.66 661.942 1122.21 662.063" stroke="#263238" stroke-width="1.52" stroke-linecap="round" stroke-linejoin="round"/>
<path d="M1293.64 858.766C1293.64 858.766 1314.25 860.454 1309.42 835.83" stroke="#263238" stroke-width="1.52" stroke-miterlimit="10"/>
<path d="M1390.77 820.614C1389.25 823.654 1370.35 839.736 1354.08 853.796C1354.08 853.583 1358.64 844.995 1360.52 841.332C1364.85 833.246 1376.04 811.069 1397.33 808.15C1400.36 809.974 1390.77 820.614 1390.77 820.614Z" fill="#263238"/>
<path d="M1382.67 803.302C1361.13 807.588 1356.23 835.222 1348.59 846.971C1340.94 858.721 1319.71 874.696 1319.71 874.696" stroke="#263238" stroke-width="1.52" stroke-miterlimit="10"/>
<path d="M1308.09 867.643C1311.61 874.058 1309.95 881.506 1308.09 886.172C1307.19 888.49 1306.06 890.714 1304.72 892.814C1274.23 887.798 1243.74 871.413 1243.74 871.413L1235.88 847.093L1234.62 843.202L1246.46 827.257" stroke="#263238" stroke-width="1.52" stroke-miterlimit="10"/>
<path d="M1308.09 886.172C1307.19 888.49 1306.06 890.714 1304.72 892.814C1274.23 887.798 1243.74 871.413 1243.74 871.413L1235.88 847.093C1239.82 852.23 1247.11 859.754 1258.06 862.84C1272.91 867.05 1300.31 871.975 1308.09 886.172Z" fill="#263238"/>
<path d="M1117.06 662.656L1125.18 563.993L1224.57 560.178L1231.24 562.625" stroke="#263238" stroke-width="1.52" stroke-linecap="round" stroke-linejoin="round"/>
<path d="M1309.28 846.971C1309.28 846.971 1322.87 849.403 1333.31 840.891C1343.75 832.379 1360.58 813.121 1360.58 813.121" stroke="#263238" stroke-width="1.52" stroke-miterlimit="10"/>
<path d="M1323.11 834.72C1323.11 834.72 1319.83 839.66 1323.11 849.57" stroke="#263238" stroke-width="1.52" stroke-linecap="round" stroke-linejoin="round"/>
<path d="M1332.75 829.993C1331.26 834.919 1331.7 840.23 1333.98 844.843" stroke="#263238" stroke-width="1.52" stroke-linecap="round" stroke-linejoin="round"/>
<path d="M1344.24 823.335C1344.24 823.335 1341.49 831.589 1344.24 838.87" stroke="#263238" stroke-width="1.52" stroke-linecap="round" stroke-linejoin="round"/>
<path d="M1249.15 825.205L1238.25 838.322C1238.25 838.322 1249.23 850.315 1264.71 855.301C1280.2 860.286 1307.87 868.753 1310.16 877.766" stroke="#263238" stroke-width="1.52" stroke-miterlimit="10"/>
<path d="M1181.1 606C1180.49 606 1180 606.485 1180 607.083V613.917C1180 614.515 1180.49 615 1181.1 615C1181.71 615 1182.2 614.515 1182.2 613.917V607.083C1182.2 606.485 1181.71 606 1181.1 606Z" fill="#6FCF97"/>
<path d="M1184.08 608.864C1183.53 608.864 1183.08 609.305 1183.08 609.849V612.221C1183.08 612.765 1183.53 613.206 1184.08 613.206C1184.63 613.206 1185.08 612.765 1185.08 612.221V609.849C1185.08 609.305 1184.63 608.864 1184.08 608.864Z" fill="#6FCF97"/>
<path d="M1183.08 607.394C1183.08 606.85 1183.53 606.409 1184.08 606.409C1184.63 606.409 1185.08 606.85 1185.08 607.394V607.595C1185.08 608.139 1184.63 608.581 1184.08 608.581C1183.53 608.581 1183.08 608.139 1183.08 607.595V607.394Z" fill="#6FCF97"/>
<path d="M1187 609.366C1186.45 609.366 1186 609.807 1186 610.351V610.552C1186 611.096 1186.45 611.537 1187 611.537C1187.55 611.537 1188 611.096 1188 610.552V610.351C1188 609.807 1187.55 609.366 1187 609.366Z" fill="#6FCF97"/>
<path d="M751.239 138.59V121.487H754.085V138.59H751.239ZM758.125 138.59V121.487H760.843L769.92 134.052V121.487H772.612V138.59H770.074L760.817 125.898V138.59H758.125ZM781.552 138.59L775.065 121.487H778.245L783.219 135.257L788.142 121.513L791.117 121.487L784.501 138.59H781.552ZM793.582 138.59V121.487H796.428V138.59H793.582ZM805.699 138.872C804.844 138.872 804.092 138.821 803.443 138.718C802.81 138.633 802.22 138.488 801.673 138.283C801.143 138.077 800.596 137.83 800.032 137.539V134.718C800.699 135.248 801.502 135.684 802.443 136.026C803.4 136.368 804.425 136.539 805.519 136.539C806.579 136.539 807.366 136.325 807.878 135.898C808.408 135.453 808.673 134.847 808.673 134.077C808.673 133.479 808.477 133 808.084 132.641C807.708 132.265 807.203 131.949 806.571 131.693C805.938 131.436 805.263 131.18 804.545 130.923C803.81 130.667 803.101 130.368 802.417 130.026C801.733 129.667 801.169 129.18 800.725 128.564C800.297 127.949 800.084 127.103 800.084 126.026C800.084 125.257 800.28 124.505 800.673 123.77C801.066 123.017 801.682 122.402 802.519 121.923C803.374 121.428 804.502 121.18 805.904 121.18C806.588 121.18 807.178 121.223 807.673 121.308C808.186 121.393 808.665 121.53 809.109 121.718C809.571 121.889 810.067 122.103 810.596 122.359V125.129C809.947 124.718 809.28 124.351 808.596 124.026C807.913 123.701 807.101 123.53 806.161 123.513C805.101 123.496 804.306 123.701 803.776 124.129C803.246 124.556 802.981 125.094 802.981 125.744C802.981 126.342 803.135 126.821 803.443 127.18C803.75 127.522 804.169 127.812 804.699 128.052C805.246 128.274 805.878 128.496 806.596 128.718C807.434 128.992 808.229 129.317 808.981 129.693C809.75 130.069 810.374 130.573 810.853 131.206C811.332 131.838 811.571 132.684 811.571 133.744C811.571 134.633 811.366 135.471 810.955 136.257C810.562 137.026 809.93 137.659 809.058 138.154C808.203 138.633 807.084 138.872 805.699 138.872ZM818.993 138.59V123.872H813.48V121.487H827.352V123.872H821.813V138.59H818.993ZM826.823 138.59L833.49 121.487H836.49L842.977 138.59H840.003L838.311 133.949H831.336L829.644 138.59H826.823ZM832.157 131.641H837.49L834.823 124.334L832.157 131.641ZM845.441 131.949V129.77H853.261V131.949H845.441ZM857.335 138.59V121.487H860.283L865.668 129.411L871.181 121.487H874.078V138.59H871.258V125.564L865.54 133.436L860.078 125.616V138.59H857.335ZM878.118 138.59V121.487H889.323V123.872H880.964V128.821H888.272V131.231H880.939V136.206H889.323V138.59H878.118Z" fill="#EEEEEE"/>
<rect x="690.955" y="110" width="13.5365" height="41.5979" rx="6.76825" fill="#6FCF97"/>
<path d="M709.906 129.394C709.906 125.993 712.663 123.236 716.065 123.236V123.236C719.466 123.236 722.223 125.993 722.223 129.394V137.15C722.223 140.551 719.466 143.308 716.065 143.308V143.308C712.663 143.308 709.906 140.551 709.906 137.15V129.394Z" fill="#27AE60"/>
<rect x="709.906" y="111.891" width="12.3172" height="10.0362" rx="5.0181" fill="#27AE60"/>
<rect x="727.863" y="125.557" width="12.3172" height="10.0362" rx="5.0181" fill="#6FCF97"/>
</g>
</g>
<defs>
<filter id="filter0_d" x="0" y="0" width="1592" height="1052" filterUnits="userSpaceOnUse" color-interpolation-filters="sRGB">
<feFlood flood-opacity="0" result="BackgroundImageFix"/>
<feColorMatrix in="SourceAlpha" type="matrix" values="0 0 0 0 0 0 0 0 0 0 0 0 0 0 0 0 0 0 127 0" result="hardAlpha"/>
<feMorphology radius="14" operator="dilate" in="SourceAlpha" result="effect1_dropShadow"/>
<feOffset dy="24"/>
<feGaussianBlur stdDeviation="31"/>
<feColorMatrix type="matrix" values="0 0 0 0 0.0669626 0 0 0 0 0.0669626 0 0 0 0 0.0669626 0 0 0 0.32 0"/>
<feBlend mode="normal" in2="BackgroundImageFix" result="effect1_dropShadow"/>
<feBlend mode="normal" in="SourceGraphic" in2="effect1_dropShadow" result="shape"/>
</filter>
<filter id="filter1_d" x="20.0441" y="724.034" width="549.293" height="595.581" filterUnits="userSpaceOnUse" color-interpolation-filters="sRGB">
<feFlood flood-opacity="0" result="BackgroundImageFix"/>
<feColorMatrix in="SourceAlpha" type="matrix" values="0 0 0 0 0 0 0 0 0 0 0 0 0 0 0 0 0 0 127 0" result="hardAlpha"/>
<feOffset dx="20.4354" dy="20.4354"/>
<feGaussianBlur stdDeviation="28.2009"/>
<feColorMatrix type="matrix" values="0 0 0 0 0 0 0 0 0 0 0 0 0 0 0 0 0 0 0.04 0"/>
<feBlend mode="normal" in2="BackgroundImageFix" result="effect1_dropShadow"/>
<feBlend mode="normal" in="SourceGraphic" in2="effect1_dropShadow" result="shape"/>
</filter>
<filter id="filter2_d" x="0.0440731" y="724.034" width="549.293" height="595.581" filterUnits="userSpaceOnUse" color-interpolation-filters="sRGB">
<feFlood flood-opacity="0" result="BackgroundImageFix"/>
<feColorMatrix in="SourceAlpha" type="matrix" values="0 0 0 0 0 0 0 0 0 0 0 0 0 0 0 0 0 0 127 0" result="hardAlpha"/>
<feOffset dx="20.4354" dy="20.4354"/>
<feGaussianBlur stdDeviation="28.2009"/>
<feColorMatrix type="matrix" values="0 0 0 0 0 0 0 0 0 0 0 0 0 0 0 0 0 0 0.04 0"/>
<feBlend mode="normal" in2="BackgroundImageFix" result="effect1_dropShadow"/>
<feBlend mode="normal" in="SourceGraphic" in2="effect1_dropShadow" result="shape"/>
</filter>
<clipPath id="clip0">
<rect x="76" y="52" width="1440" height="900" rx="20" fill="white"/>
</clipPath>
</defs>
</svg>
