<svg width="1440" height="900" viewBox="0 0 1440 900" fill="none" xmlns="http://www.w3.org/2000/svg">
<g clip-path="url(#clip0)">
<rect width="1440" height="900" rx="20" fill="#1D1D1D"/>
<mask id="mask0" mask-type="alpha" maskUnits="userSpaceOnUse" x="994" y="142" width="787" height="708">
<path d="M1354.59 842.196C1532.43 889.005 1690.13 701.421 1746.75 601.778C1757.72 584.812 1779.87 535.232 1780.74 472.638C1781.83 394.395 1622.83 395.763 1568.67 357.261C1514.5 318.76 1476.29 239.66 1397.51 172.542C1318.72 105.425 1227.43 159.927 1201.82 251.217C1176.21 342.508 1023.7 249.134 997.173 454.027C970.65 658.92 1132.29 783.686 1354.59 842.196Z" fill="#0B56FA"/>
</mask>
<g mask="url(#mask0)">
<rect x="1041.31" y="-92.3202" width="1256.55" height="8.35841" transform="rotate(36.8196 1041.31 -92.3202)" fill="#25356A" fill-opacity="0.05"/>
<rect x="1027.95" y="-74.4775" width="1256.55" height="8.35841" transform="rotate(36.8196 1027.95 -74.4775)" fill="#25356A" fill-opacity="0.05"/>
<rect x="1014.59" y="-56.6345" width="1256.55" height="8.35841" transform="rotate(36.8196 1014.59 -56.6345)" fill="#25356A" fill-opacity="0.05"/>
<rect x="1001.23" y="-38.7915" width="1256.55" height="8.35841" transform="rotate(36.8196 1001.23 -38.7915)" fill="#25356A" fill-opacity="0.05"/>
<rect x="987.875" y="-20.9485" width="1256.55" height="8.35841" transform="rotate(36.8196 987.875 -20.9485)" fill="#25356A" fill-opacity="0.05"/>
<rect x="974.517" y="-3.10547" width="1256.55" height="8.35841" transform="rotate(36.8196 974.517 -3.10547)" fill="#25356A" fill-opacity="0.05"/>
<rect x="961.159" y="14.7375" width="1256.55" height="8.35841" transform="rotate(36.8196 961.159 14.7375)" fill="#25356A" fill-opacity="0.05"/>
<rect x="947.802" y="32.5806" width="1256.55" height="8.35841" transform="rotate(36.8196 947.802 32.5806)" fill="#25356A" fill-opacity="0.05"/>
<rect x="934.444" y="50.4236" width="1256.55" height="8.35841" transform="rotate(36.8196 934.444 50.4236)" fill="#25356A" fill-opacity="0.05"/>
<rect x="921.086" y="68.2666" width="1256.55" height="8.35841" transform="rotate(36.8196 921.086 68.2666)" fill="#25356A" fill-opacity="0.05"/>
<rect x="907.728" y="86.1096" width="1256.55" height="8.35841" transform="rotate(36.8196 907.728 86.1096)" fill="#25356A" fill-opacity="0.05"/>
<rect x="894.37" y="103.953" width="1256.55" height="8.35841" transform="rotate(36.8196 894.37 103.953)" fill="#25356A" fill-opacity="0.05"/>
<rect x="881.012" y="121.796" width="1256.55" height="8.35841" transform="rotate(36.8196 881.012 121.796)" fill="#25356A" fill-opacity="0.05"/>
<rect x="867.655" y="139.639" width="1256.55" height="8.35841" transform="rotate(36.8196 867.655 139.639)" fill="#25356A" fill-opacity="0.05"/>
<rect x="854.297" y="157.482" width="1256.55" height="8.35841" transform="rotate(36.8196 854.297 157.482)" fill="#25356A" fill-opacity="0.05"/>
<rect x="840.939" y="175.325" width="1256.55" height="8.35841" transform="rotate(36.8196 840.939 175.325)" fill="#25356A" fill-opacity="0.05"/>
<rect x="827.581" y="193.168" width="1256.55" height="8.35841" transform="rotate(36.8196 827.581 193.168)" fill="#25356A" fill-opacity="0.05"/>
<rect x="814.224" y="211.011" width="1256.55" height="8.35841" transform="rotate(36.8196 814.224 211.011)" fill="#25356A" fill-opacity="0.05"/>
<rect x="800.866" y="228.854" width="1256.55" height="8.35841" transform="rotate(36.8196 800.866 228.854)" fill="#25356A" fill-opacity="0.05"/>
<rect x="787.508" y="246.697" width="1256.55" height="8.35841" transform="rotate(36.8196 787.508 246.697)" fill="#25356A" fill-opacity="0.05"/>
<rect x="774.15" y="264.54" width="1256.55" height="8.35841" transform="rotate(36.8196 774.15 264.54)" fill="#25356A" fill-opacity="0.05"/>
<rect x="759.123" y="284.613" width="1256.55" height="8.35841" transform="rotate(36.8196 759.123 284.613)" fill="#25356A" fill-opacity="0.05"/>
<rect x="744.095" y="304.687" width="1256.55" height="8.35841" transform="rotate(36.8196 744.095 304.687)" fill="#25356A" fill-opacity="0.05"/>
<rect x="729.068" y="324.76" width="1256.55" height="8.35841" transform="rotate(36.8196 729.068 324.76)" fill="#25356A" fill-opacity="0.05"/>
<rect x="714.04" y="344.833" width="1256.55" height="8.35841" transform="rotate(36.8196 714.04 344.833)" fill="#25356A" fill-opacity="0.05"/>
<rect x="699.013" y="364.907" width="1256.55" height="8.35841" transform="rotate(36.8196 699.013 364.907)" fill="#25356A" fill-opacity="0.05"/>
<rect x="683.985" y="384.98" width="1256.55" height="8.35841" transform="rotate(36.8196 683.985 384.98)" fill="#25356A" fill-opacity="0.05"/>
</g>
<g opacity="0.05">
<path opacity="0.91" d="M275.117 285.125C-60.0647 -8.5956 -178.262 156.47 -186.528 169.05C-186.874 169.577 -186.997 170.124 -186.991 170.754L-183.061 593.638C-181.901 718.457 -81.271 820.781 40.5524 793.575C179.056 762.644 341.425 691.378 397.401 527.846C451.187 370.713 301.966 308.652 275.117 285.125Z" fill="#6FCF97"/>
</g>
<g opacity="0.91" filter="url(#filter0_d)">
<path d="M317.788 835.867C196.465 729.574 114.184 705.574 61.4203 709.374C8.69217 713.171 -14.8312 744.753 -18.5999 750.342C-18.8829 750.762 -18.9951 751.204 -18.9894 751.81L-17.0821 956.99C-16.3894 1031.5 15.1832 1100.94 63.5789 1144.24C111.946 1187.52 177.093 1204.68 245.14 1174.76C315.219 1143.95 379.206 1093.87 407.059 1012.52C416.852 983.915 417.387 959.696 412.423 939.19C407.457 918.678 396.972 901.815 384.625 887.957C372.274 874.096 358.076 863.258 345.711 854.798C340.866 851.483 336.312 848.54 332.257 845.919C331.136 845.194 330.052 844.494 329.011 843.817C324.232 840.71 320.31 838.076 317.788 835.867Z" stroke="#4F4F4F" stroke-width="2"/>
</g>
<mask id="mask1" mask-type="alpha" maskUnits="userSpaceOnUse" x="-20" y="649" width="362" height="390">
<path opacity="0.69" d="M260.682 754.312C60.4857 579.095 -12.2673 673.01 -19.407 683.441C-19.834 684.065 -19.9963 684.746 -19.9893 685.502L-18.8363 809.403C-17.4447 958.951 113.604 1094.17 240.673 1015.31C282.152 989.563 317.283 953.121 334.955 901.556C367.623 806.233 276.99 768.585 260.682 754.312Z" fill="#25356A" fill-opacity="0.35"/>
</mask>
<g mask="url(#mask1)">
<circle cx="-0.953357" cy="644.072" r="5.07203" fill="#25356A" fill-opacity="0.35"/>
<circle cx="15.9534" cy="644.072" r="5.07203" fill="#25356A" fill-opacity="0.35"/>
<circle cx="32.8601" cy="644.072" r="5.07203" fill="#25356A" fill-opacity="0.35"/>
<circle cx="49.767" cy="644.072" r="5.07203" fill="#25356A" fill-opacity="0.35"/>
<circle cx="66.6737" cy="644.072" r="5.07203" fill="#25356A" fill-opacity="0.35"/>
<circle cx="83.5806" cy="644.072" r="5.07203" fill="#25356A" fill-opacity="0.35"/>
<circle cx="100.487" cy="644.072" r="5.07203" fill="#25356A" fill-opacity="0.35"/>
<circle cx="117.394" cy="644.072" r="5.07203" fill="#25356A" fill-opacity="0.35"/>
<circle cx="134.301" cy="644.072" r="5.07203" fill="#25356A" fill-opacity="0.35"/>
<circle cx="151.208" cy="644.072" r="5.07203" fill="#25356A" fill-opacity="0.35"/>
<circle cx="168.114" cy="644.072" r="5.07203" fill="#25356A" fill-opacity="0.35"/>
<circle cx="185.021" cy="644.072" r="5.07203" fill="#25356A" fill-opacity="0.35"/>
<circle cx="201.928" cy="644.072" r="5.07203" fill="#25356A" fill-opacity="0.35"/>
<circle cx="218.835" cy="644.072" r="5.07203" fill="#25356A" fill-opacity="0.35"/>
<circle cx="235.741" cy="644.072" r="5.07203" fill="#25356A" fill-opacity="0.35"/>
<circle cx="252.648" cy="644.072" r="5.07203" fill="#25356A" fill-opacity="0.35"/>
<circle cx="269.555" cy="644.072" r="5.07203" fill="#25356A" fill-opacity="0.35"/>
<circle cx="286.462" cy="644.072" r="5.07203" fill="#25356A" fill-opacity="0.35"/>
<circle cx="303.369" cy="644.072" r="5.07203" fill="#25356A" fill-opacity="0.35"/>
<circle cx="320.275" cy="644.072" r="5.07203" fill="#25356A" fill-opacity="0.35"/>
<circle cx="337.182" cy="644.072" r="5.07203" fill="#25356A" fill-opacity="0.35"/>
<circle cx="15.9534" cy="660.979" r="5.07203" fill="#25356A" fill-opacity="0.35"/>
<circle cx="32.8601" cy="660.979" r="5.07203" fill="#25356A" fill-opacity="0.35"/>
<circle cx="49.767" cy="660.979" r="5.07203" fill="#25356A" fill-opacity="0.35"/>
<circle cx="66.6737" cy="660.979" r="5.07203" fill="#25356A" fill-opacity="0.35"/>
<circle cx="83.5806" cy="660.979" r="5.07203" fill="#25356A" fill-opacity="0.35"/>
<circle cx="134.301" cy="660.979" r="5.07203" fill="#25356A" fill-opacity="0.35"/>
<circle cx="151.208" cy="660.979" r="5.07203" fill="#25356A" fill-opacity="0.35"/>
<circle cx="168.114" cy="660.979" r="5.07203" fill="#25356A" fill-opacity="0.35"/>
<circle cx="185.021" cy="660.979" r="5.07203" fill="#25356A" fill-opacity="0.35"/>
<circle cx="201.928" cy="660.979" r="5.07203" fill="#25356A" fill-opacity="0.35"/>
<circle cx="218.835" cy="660.979" r="5.07203" fill="#25356A" fill-opacity="0.35"/>
<circle cx="235.741" cy="660.979" r="5.07203" fill="#25356A" fill-opacity="0.35"/>
<circle cx="252.648" cy="660.979" r="5.07203" fill="#25356A" fill-opacity="0.35"/>
<circle cx="269.555" cy="660.979" r="5.07203" fill="#25356A" fill-opacity="0.35"/>
<circle cx="286.462" cy="660.979" r="5.07203" fill="#25356A" fill-opacity="0.35"/>
<circle cx="303.369" cy="660.979" r="5.07203" fill="#25356A" fill-opacity="0.35"/>
<circle cx="320.275" cy="660.979" r="5.07203" fill="#25356A" fill-opacity="0.35"/>
<circle cx="337.182" cy="660.979" r="5.07203" fill="#25356A" fill-opacity="0.35"/>
<circle cx="-0.953357" cy="677.885" r="5.07203" fill="#25356A" fill-opacity="0.35"/>
<circle cx="15.9534" cy="677.885" r="5.07203" fill="#25356A" fill-opacity="0.35"/>
<circle cx="32.8601" cy="677.885" r="5.07203" fill="#25356A" fill-opacity="0.35"/>
<circle cx="49.767" cy="677.885" r="5.07203" fill="#25356A" fill-opacity="0.35"/>
<circle cx="66.6737" cy="677.885" r="5.07203" fill="#25356A" fill-opacity="0.35"/>
<circle cx="83.5806" cy="677.885" r="5.07203" fill="#25356A" fill-opacity="0.35"/>
<circle cx="100.487" cy="677.885" r="5.07203" fill="#25356A" fill-opacity="0.35"/>
<circle cx="117.394" cy="677.885" r="5.07203" fill="#25356A" fill-opacity="0.35"/>
<circle cx="134.301" cy="677.885" r="5.07203" fill="#25356A" fill-opacity="0.35"/>
<circle cx="168.114" cy="677.885" r="5.07203" fill="#25356A" fill-opacity="0.35"/>
<circle cx="185.021" cy="677.885" r="5.07203" fill="#25356A" fill-opacity="0.35"/>
<circle cx="201.928" cy="677.885" r="5.07203" fill="#25356A" fill-opacity="0.35"/>
<circle cx="218.835" cy="677.885" r="5.07203" fill="#25356A" fill-opacity="0.35"/>
<circle cx="235.741" cy="677.885" r="5.07203" fill="#25356A" fill-opacity="0.35"/>
<circle cx="252.648" cy="677.885" r="5.07203" fill="#25356A" fill-opacity="0.35"/>
<circle cx="269.555" cy="677.885" r="5.07203" fill="#25356A" fill-opacity="0.35"/>
<circle cx="286.462" cy="677.885" r="5.07203" fill="#25356A" fill-opacity="0.35"/>
<circle cx="303.369" cy="677.885" r="5.07203" fill="#25356A" fill-opacity="0.35"/>
<circle cx="320.275" cy="677.885" r="5.07203" fill="#25356A" fill-opacity="0.35"/>
<circle cx="337.182" cy="677.885" r="5.07203" fill="#25356A" fill-opacity="0.35"/>
<circle cx="-0.953357" cy="694.792" r="5.07203" fill="#25356A" fill-opacity="0.35"/>
<circle cx="15.9534" cy="694.792" r="5.07203" fill="#25356A" fill-opacity="0.35"/>
<circle cx="32.8601" cy="694.792" r="5.07203" fill="#25356A" fill-opacity="0.35"/>
<circle cx="49.767" cy="694.792" r="5.07203" fill="#25356A" fill-opacity="0.35"/>
<circle cx="66.6737" cy="694.792" r="5.07203" fill="#25356A" fill-opacity="0.35"/>
<circle cx="83.5806" cy="694.792" r="5.07203" fill="#25356A" fill-opacity="0.35"/>
<circle cx="100.487" cy="694.792" r="5.07203" fill="#25356A" fill-opacity="0.35"/>
<circle cx="117.394" cy="694.792" r="5.07203" fill="#25356A" fill-opacity="0.35"/>
<circle cx="134.301" cy="694.792" r="5.07203" fill="#25356A" fill-opacity="0.35"/>
<circle cx="151.208" cy="694.792" r="5.07203" fill="#25356A" fill-opacity="0.35"/>
<circle cx="168.114" cy="694.792" r="5.07203" fill="#25356A" fill-opacity="0.35"/>
<circle cx="201.928" cy="694.792" r="5.07203" fill="#25356A" fill-opacity="0.35"/>
<circle cx="218.835" cy="694.792" r="5.07203" fill="#25356A" fill-opacity="0.35"/>
<circle cx="235.741" cy="694.792" r="5.07203" fill="#25356A" fill-opacity="0.35"/>
<circle cx="252.648" cy="694.792" r="5.07203" fill="#25356A" fill-opacity="0.35"/>
<circle cx="269.555" cy="694.792" r="5.07203" fill="#25356A" fill-opacity="0.35"/>
<circle cx="286.462" cy="694.792" r="5.07203" fill="#25356A" fill-opacity="0.35"/>
<circle cx="303.369" cy="694.792" r="5.07203" fill="#25356A" fill-opacity="0.35"/>
<circle cx="320.275" cy="694.792" r="5.07203" fill="#25356A" fill-opacity="0.35"/>
<circle cx="337.182" cy="694.792" r="5.07203" fill="#25356A" fill-opacity="0.35"/>
<circle cx="-0.953357" cy="711.699" r="5.07203" fill="#25356A" fill-opacity="0.35"/>
<circle cx="15.9534" cy="711.699" r="5.07203" fill="#25356A" fill-opacity="0.35"/>
<circle cx="32.8601" cy="711.699" r="5.07203" fill="#25356A" fill-opacity="0.35"/>
<circle cx="49.767" cy="711.699" r="5.07203" fill="#25356A" fill-opacity="0.35"/>
<circle cx="66.6737" cy="711.699" r="5.07203" fill="#25356A" fill-opacity="0.35"/>
<circle cx="83.5806" cy="711.699" r="5.07203" fill="#25356A" fill-opacity="0.35"/>
<circle cx="100.487" cy="711.699" r="5.07203" fill="#25356A" fill-opacity="0.35"/>
<circle cx="117.394" cy="711.699" r="5.07203" fill="#25356A" fill-opacity="0.35"/>
<circle cx="134.301" cy="711.699" r="5.07203" fill="#25356A" fill-opacity="0.35"/>
<circle cx="151.208" cy="711.699" r="5.07203" fill="#25356A" fill-opacity="0.35"/>
<circle cx="168.114" cy="711.699" r="5.07203" fill="#25356A" fill-opacity="0.35"/>
<circle cx="185.021" cy="711.699" r="5.07203" fill="#25356A" fill-opacity="0.35"/>
<circle cx="218.835" cy="711.699" r="5.07203" fill="#25356A" fill-opacity="0.35"/>
<circle cx="235.741" cy="711.699" r="5.07203" fill="#25356A" fill-opacity="0.35"/>
<circle cx="252.648" cy="711.699" r="5.07203" fill="#25356A" fill-opacity="0.35"/>
<circle cx="269.555" cy="711.699" r="5.07203" fill="#25356A" fill-opacity="0.35"/>
<circle cx="286.462" cy="711.699" r="5.07203" fill="#25356A" fill-opacity="0.35"/>
<circle cx="303.369" cy="711.699" r="5.07203" fill="#25356A" fill-opacity="0.35"/>
<circle cx="320.275" cy="711.699" r="5.07203" fill="#25356A" fill-opacity="0.35"/>
<circle cx="337.182" cy="711.699" r="5.07203" fill="#25356A" fill-opacity="0.35"/>
<circle cx="-0.953357" cy="728.606" r="5.07203" fill="#25356A" fill-opacity="0.35"/>
<circle cx="15.9534" cy="728.606" r="5.07203" fill="#25356A" fill-opacity="0.35"/>
<circle cx="32.8601" cy="728.606" r="5.07203" fill="#25356A" fill-opacity="0.35"/>
<circle cx="49.767" cy="728.606" r="5.07203" fill="#25356A" fill-opacity="0.35"/>
<circle cx="66.6737" cy="728.606" r="5.07203" fill="#25356A" fill-opacity="0.35"/>
<circle cx="83.5806" cy="728.606" r="5.07203" fill="#25356A" fill-opacity="0.35"/>
<circle cx="100.487" cy="728.606" r="5.07203" fill="#25356A" fill-opacity="0.35"/>
<circle cx="117.394" cy="728.606" r="5.07203" fill="#25356A" fill-opacity="0.35"/>
<circle cx="134.301" cy="728.606" r="5.07203" fill="#25356A" fill-opacity="0.35"/>
<circle cx="151.208" cy="728.606" r="5.07203" fill="#25356A" fill-opacity="0.35"/>
<circle cx="168.114" cy="728.606" r="5.07203" fill="#25356A" fill-opacity="0.35"/>
<circle cx="185.021" cy="728.606" r="5.07203" fill="#25356A" fill-opacity="0.35"/>
<circle cx="201.928" cy="728.606" r="5.07203" fill="#25356A" fill-opacity="0.35"/>
<circle cx="218.835" cy="728.606" r="5.07203" fill="#25356A" fill-opacity="0.35"/>
<circle cx="252.648" cy="728.606" r="5.07203" fill="#25356A" fill-opacity="0.35"/>
<circle cx="269.555" cy="728.606" r="5.07203" fill="#25356A" fill-opacity="0.35"/>
<circle cx="286.462" cy="728.606" r="5.07203" fill="#25356A" fill-opacity="0.35"/>
<circle cx="303.369" cy="728.606" r="5.07203" fill="#25356A" fill-opacity="0.35"/>
<circle cx="320.275" cy="728.606" r="5.07203" fill="#25356A" fill-opacity="0.35"/>
<circle cx="337.182" cy="728.606" r="5.07203" fill="#25356A" fill-opacity="0.35"/>
<circle cx="-0.953357" cy="745.513" r="5.07203" fill="#25356A" fill-opacity="0.35"/>
<circle cx="15.9534" cy="745.513" r="5.07203" fill="#25356A" fill-opacity="0.35"/>
<circle cx="32.8601" cy="745.513" r="5.07203" fill="#25356A" fill-opacity="0.35"/>
<circle cx="49.767" cy="745.513" r="5.07203" fill="#25356A" fill-opacity="0.35"/>
<circle cx="66.6737" cy="745.513" r="5.07203" fill="#25356A" fill-opacity="0.35"/>
<circle cx="83.5806" cy="745.513" r="5.07203" fill="#25356A" fill-opacity="0.35"/>
<circle cx="100.487" cy="745.513" r="5.07203" fill="#25356A" fill-opacity="0.35"/>
<circle cx="117.394" cy="745.513" r="5.07203" fill="#25356A" fill-opacity="0.35"/>
<circle cx="134.301" cy="745.513" r="5.07203" fill="#25356A" fill-opacity="0.35"/>
<circle cx="151.208" cy="745.513" r="5.07203" fill="#25356A" fill-opacity="0.35"/>
<circle cx="168.114" cy="745.513" r="5.07203" fill="#25356A" fill-opacity="0.35"/>
<circle cx="185.021" cy="745.513" r="5.07203" fill="#25356A" fill-opacity="0.35"/>
<circle cx="201.928" cy="745.513" r="5.07203" fill="#25356A" fill-opacity="0.35"/>
<circle cx="218.835" cy="745.513" r="5.07203" fill="#25356A" fill-opacity="0.35"/>
<circle cx="235.741" cy="745.513" r="5.07203" fill="#25356A" fill-opacity="0.35"/>
<circle cx="269.555" cy="745.513" r="5.07203" fill="#25356A" fill-opacity="0.35"/>
<circle cx="286.462" cy="745.513" r="5.07203" fill="#25356A" fill-opacity="0.35"/>
<circle cx="303.369" cy="745.513" r="5.07203" fill="#25356A" fill-opacity="0.35"/>
<circle cx="320.275" cy="745.513" r="5.07203" fill="#25356A" fill-opacity="0.35"/>
<circle cx="337.182" cy="745.513" r="5.07203" fill="#25356A" fill-opacity="0.35"/>
<circle cx="-0.953357" cy="762.419" r="5.07203" fill="#25356A" fill-opacity="0.35"/>
<circle cx="15.9534" cy="762.419" r="5.07203" fill="#25356A" fill-opacity="0.35"/>
<circle cx="32.8601" cy="762.419" r="5.07203" fill="#25356A" fill-opacity="0.35"/>
<circle cx="49.767" cy="762.419" r="5.07203" fill="#25356A" fill-opacity="0.35"/>
<circle cx="66.6737" cy="762.419" r="5.07203" fill="#25356A" fill-opacity="0.35"/>
<circle cx="83.5806" cy="762.419" r="5.07203" fill="#25356A" fill-opacity="0.35"/>
<circle cx="100.487" cy="762.419" r="5.07203" fill="#25356A" fill-opacity="0.35"/>
<circle cx="117.394" cy="762.419" r="5.07203" fill="#25356A" fill-opacity="0.35"/>
<circle cx="134.301" cy="762.419" r="5.07203" fill="#25356A" fill-opacity="0.35"/>
<circle cx="151.208" cy="762.419" r="5.07203" fill="#25356A" fill-opacity="0.35"/>
<circle cx="168.114" cy="762.419" r="5.07203" fill="#25356A" fill-opacity="0.35"/>
<circle cx="185.021" cy="762.419" r="5.07203" fill="#25356A" fill-opacity="0.35"/>
<circle cx="201.928" cy="762.419" r="5.07203" fill="#25356A" fill-opacity="0.35"/>
<circle cx="218.835" cy="762.419" r="5.07203" fill="#25356A" fill-opacity="0.35"/>
<circle cx="235.741" cy="762.419" r="5.07203" fill="#25356A" fill-opacity="0.35"/>
<circle cx="252.648" cy="762.419" r="5.07203" fill="#25356A" fill-opacity="0.35"/>
<circle cx="286.462" cy="762.419" r="5.07203" fill="#25356A" fill-opacity="0.35"/>
<circle cx="303.369" cy="762.419" r="5.07203" fill="#25356A" fill-opacity="0.35"/>
<circle cx="320.275" cy="762.419" r="5.07203" fill="#25356A" fill-opacity="0.35"/>
<circle cx="337.182" cy="762.419" r="5.07203" fill="#25356A" fill-opacity="0.35"/>
<circle cx="-0.953357" cy="779.326" r="5.07203" fill="#25356A" fill-opacity="0.35"/>
<circle cx="15.9534" cy="779.326" r="5.07203" fill="#25356A" fill-opacity="0.35"/>
<circle cx="32.8601" cy="779.326" r="5.07203" fill="#25356A" fill-opacity="0.35"/>
<circle cx="49.767" cy="779.326" r="5.07203" fill="#25356A" fill-opacity="0.35"/>
<circle cx="66.6737" cy="779.326" r="5.07203" fill="#25356A" fill-opacity="0.35"/>
<circle cx="83.5806" cy="779.326" r="5.07203" fill="#25356A" fill-opacity="0.35"/>
<circle cx="100.487" cy="779.326" r="5.07203" fill="#25356A" fill-opacity="0.35"/>
<circle cx="117.394" cy="779.326" r="5.07203" fill="#25356A" fill-opacity="0.35"/>
<circle cx="134.301" cy="779.326" r="5.07203" fill="#25356A" fill-opacity="0.35"/>
<circle cx="151.208" cy="779.326" r="5.07203" fill="#25356A" fill-opacity="0.35"/>
<circle cx="168.114" cy="779.326" r="5.07203" fill="#25356A" fill-opacity="0.35"/>
<circle cx="185.021" cy="779.326" r="5.07203" fill="#25356A" fill-opacity="0.35"/>
<circle cx="201.928" cy="779.326" r="5.07203" fill="#25356A" fill-opacity="0.35"/>
<circle cx="218.835" cy="779.326" r="5.07203" fill="#25356A" fill-opacity="0.35"/>
<circle cx="235.741" cy="779.326" r="5.07203" fill="#25356A" fill-opacity="0.35"/>
<circle cx="252.648" cy="779.326" r="5.07203" fill="#25356A" fill-opacity="0.35"/>
<circle cx="269.555" cy="779.326" r="5.07203" fill="#25356A" fill-opacity="0.35"/>
<circle cx="286.462" cy="779.326" r="5.07203" fill="#25356A" fill-opacity="0.35"/>
<circle cx="320.275" cy="779.326" r="5.07203" fill="#25356A" fill-opacity="0.35"/>
<circle cx="337.182" cy="779.326" r="5.07203" fill="#25356A" fill-opacity="0.35"/>
<circle cx="-0.953357" cy="796.233" r="5.07203" fill="#25356A" fill-opacity="0.35"/>
<circle cx="15.9534" cy="796.233" r="5.07203" fill="#25356A" fill-opacity="0.35"/>
<circle cx="32.8601" cy="796.233" r="5.07203" fill="#25356A" fill-opacity="0.35"/>
<circle cx="49.767" cy="796.233" r="5.07203" fill="#25356A" fill-opacity="0.35"/>
<circle cx="66.6737" cy="796.233" r="5.07203" fill="#25356A" fill-opacity="0.35"/>
<circle cx="83.5806" cy="796.233" r="5.07203" fill="#25356A" fill-opacity="0.35"/>
<circle cx="100.487" cy="796.233" r="5.07203" fill="#25356A" fill-opacity="0.35"/>
<circle cx="117.394" cy="796.233" r="5.07203" fill="#25356A" fill-opacity="0.35"/>
<circle cx="134.301" cy="796.233" r="5.07203" fill="#25356A" fill-opacity="0.35"/>
<circle cx="151.208" cy="796.233" r="5.07203" fill="#25356A" fill-opacity="0.35"/>
<circle cx="168.114" cy="796.233" r="5.07203" fill="#25356A" fill-opacity="0.35"/>
<circle cx="185.021" cy="796.233" r="5.07203" fill="#25356A" fill-opacity="0.35"/>
<circle cx="201.928" cy="796.233" r="5.07203" fill="#25356A" fill-opacity="0.35"/>
<circle cx="218.835" cy="796.233" r="5.07203" fill="#25356A" fill-opacity="0.35"/>
<circle cx="235.741" cy="796.233" r="5.07203" fill="#25356A" fill-opacity="0.35"/>
<circle cx="252.648" cy="796.233" r="5.07203" fill="#25356A" fill-opacity="0.35"/>
<circle cx="269.555" cy="796.233" r="5.07203" fill="#25356A" fill-opacity="0.35"/>
<circle cx="286.462" cy="796.233" r="5.07203" fill="#25356A" fill-opacity="0.35"/>
<circle cx="303.369" cy="796.233" r="5.07203" fill="#25356A" fill-opacity="0.35"/>
<circle cx="337.182" cy="796.233" r="5.07203" fill="#25356A" fill-opacity="0.35"/>
<circle cx="-0.953357" cy="813.14" r="5.07203" fill="#25356A" fill-opacity="0.35"/>
<circle cx="15.9534" cy="813.14" r="5.07203" fill="#25356A" fill-opacity="0.35"/>
<circle cx="32.8601" cy="813.14" r="5.07203" fill="#25356A" fill-opacity="0.35"/>
<circle cx="49.767" cy="813.14" r="5.07203" fill="#25356A" fill-opacity="0.35"/>
<circle cx="66.6737" cy="813.14" r="5.07203" fill="#25356A" fill-opacity="0.35"/>
<circle cx="83.5806" cy="813.14" r="5.07203" fill="#25356A" fill-opacity="0.35"/>
<circle cx="100.487" cy="813.14" r="5.07203" fill="#25356A" fill-opacity="0.35"/>
<circle cx="117.394" cy="813.14" r="5.07203" fill="#25356A" fill-opacity="0.35"/>
<circle cx="134.301" cy="813.14" r="5.07203" fill="#25356A" fill-opacity="0.35"/>
<circle cx="151.208" cy="813.14" r="5.07203" fill="#25356A" fill-opacity="0.35"/>
<circle cx="168.114" cy="813.14" r="5.07203" fill="#25356A" fill-opacity="0.35"/>
<circle cx="185.021" cy="813.14" r="5.07203" fill="#25356A" fill-opacity="0.35"/>
<circle cx="201.928" cy="813.14" r="5.07203" fill="#25356A" fill-opacity="0.35"/>
<circle cx="218.835" cy="813.14" r="5.07203" fill="#25356A" fill-opacity="0.35"/>
<circle cx="235.741" cy="813.14" r="5.07203" fill="#25356A" fill-opacity="0.35"/>
<circle cx="252.648" cy="813.14" r="5.07203" fill="#25356A" fill-opacity="0.35"/>
<circle cx="269.555" cy="813.14" r="5.07203" fill="#25356A" fill-opacity="0.35"/>
<circle cx="286.462" cy="813.14" r="5.07203" fill="#25356A" fill-opacity="0.35"/>
<circle cx="303.369" cy="813.14" r="5.07203" fill="#25356A" fill-opacity="0.35"/>
<circle cx="320.275" cy="813.14" r="5.07203" fill="#25356A" fill-opacity="0.35"/>
<circle cx="337.182" cy="813.14" r="5.07203" fill="#25356A" fill-opacity="0.35"/>
<circle cx="-0.953357" cy="830.047" r="5.07203" fill="#25356A" fill-opacity="0.35"/>
<circle cx="15.9534" cy="830.047" r="5.07203" fill="#25356A" fill-opacity="0.35"/>
<circle cx="32.8601" cy="830.047" r="5.07203" fill="#25356A" fill-opacity="0.35"/>
<circle cx="49.767" cy="830.047" r="5.07203" fill="#25356A" fill-opacity="0.35"/>
<circle cx="66.6737" cy="830.047" r="5.07203" fill="#25356A" fill-opacity="0.35"/>
<circle cx="83.5806" cy="830.047" r="5.07203" fill="#25356A" fill-opacity="0.35"/>
<circle cx="100.487" cy="830.047" r="5.07203" fill="#25356A" fill-opacity="0.35"/>
<circle cx="117.394" cy="830.047" r="5.07203" fill="#25356A" fill-opacity="0.35"/>
<circle cx="134.301" cy="830.047" r="5.07203" fill="#25356A" fill-opacity="0.35"/>
<circle cx="151.208" cy="830.047" r="5.07203" fill="#25356A" fill-opacity="0.35"/>
<circle cx="168.114" cy="830.047" r="5.07203" fill="#25356A" fill-opacity="0.35"/>
<circle cx="185.021" cy="830.047" r="5.07203" fill="#25356A" fill-opacity="0.35"/>
<circle cx="201.928" cy="830.047" r="5.07203" fill="#25356A" fill-opacity="0.35"/>
<circle cx="218.835" cy="830.047" r="5.07203" fill="#25356A" fill-opacity="0.35"/>
<circle cx="235.741" cy="830.047" r="5.07203" fill="#25356A" fill-opacity="0.35"/>
<circle cx="252.648" cy="830.047" r="5.07203" fill="#25356A" fill-opacity="0.35"/>
<circle cx="269.555" cy="830.047" r="5.07203" fill="#25356A" fill-opacity="0.35"/>
<circle cx="286.462" cy="830.047" r="5.07203" fill="#25356A" fill-opacity="0.35"/>
<circle cx="303.369" cy="830.047" r="5.07203" fill="#25356A" fill-opacity="0.35"/>
<circle cx="320.275" cy="830.047" r="5.07203" fill="#25356A" fill-opacity="0.35"/>
<circle cx="-0.953357" cy="846.953" r="5.07203" fill="#25356A" fill-opacity="0.35"/>
<circle cx="15.9534" cy="846.953" r="5.07203" fill="#25356A" fill-opacity="0.35"/>
<circle cx="32.8601" cy="846.953" r="5.07203" fill="#25356A" fill-opacity="0.35"/>
<circle cx="49.767" cy="846.953" r="5.07203" fill="#25356A" fill-opacity="0.35"/>
<circle cx="66.6737" cy="846.953" r="5.07203" fill="#25356A" fill-opacity="0.35"/>
<circle cx="83.5806" cy="846.953" r="5.07203" fill="#25356A" fill-opacity="0.35"/>
<circle cx="100.487" cy="846.953" r="5.07203" fill="#25356A" fill-opacity="0.35"/>
<circle cx="117.394" cy="846.953" r="5.07203" fill="#25356A" fill-opacity="0.35"/>
<circle cx="134.301" cy="846.953" r="5.07203" fill="#25356A" fill-opacity="0.35"/>
<circle cx="151.208" cy="846.953" r="5.07203" fill="#25356A" fill-opacity="0.35"/>
<circle cx="168.114" cy="846.953" r="5.07203" fill="#25356A" fill-opacity="0.35"/>
<circle cx="185.021" cy="846.953" r="5.07203" fill="#25356A" fill-opacity="0.35"/>
<circle cx="201.928" cy="846.953" r="5.07203" fill="#25356A" fill-opacity="0.35"/>
<circle cx="218.835" cy="846.953" r="5.07203" fill="#25356A" fill-opacity="0.35"/>
<circle cx="235.741" cy="846.953" r="5.07203" fill="#25356A" fill-opacity="0.35"/>
<circle cx="252.648" cy="846.953" r="5.07203" fill="#25356A" fill-opacity="0.35"/>
<circle cx="269.555" cy="846.953" r="5.07203" fill="#25356A" fill-opacity="0.35"/>
<circle cx="286.462" cy="846.953" r="5.07203" fill="#25356A" fill-opacity="0.35"/>
<circle cx="303.369" cy="846.953" r="5.07203" fill="#25356A" fill-opacity="0.35"/>
<circle cx="320.275" cy="846.953" r="5.07203" fill="#25356A" fill-opacity="0.35"/>
<circle cx="-0.953357" cy="863.86" r="5.07203" fill="#25356A" fill-opacity="0.35"/>
<circle cx="15.9534" cy="863.86" r="5.07203" fill="#25356A" fill-opacity="0.35"/>
<circle cx="32.8601" cy="863.86" r="5.07203" fill="#25356A" fill-opacity="0.35"/>
<circle cx="49.767" cy="863.86" r="5.07203" fill="#25356A" fill-opacity="0.35"/>
<circle cx="66.6737" cy="863.86" r="5.07203" fill="#25356A" fill-opacity="0.35"/>
<circle cx="83.5806" cy="863.86" r="5.07203" fill="#25356A" fill-opacity="0.35"/>
<circle cx="100.487" cy="863.86" r="5.07203" fill="#25356A" fill-opacity="0.35"/>
<circle cx="117.394" cy="863.86" r="5.07203" fill="#25356A" fill-opacity="0.35"/>
<circle cx="134.301" cy="863.86" r="5.07203" fill="#25356A" fill-opacity="0.35"/>
<circle cx="151.208" cy="863.86" r="5.07203" fill="#25356A" fill-opacity="0.35"/>
<circle cx="168.114" cy="863.86" r="5.07203" fill="#25356A" fill-opacity="0.35"/>
<circle cx="185.021" cy="863.86" r="5.07203" fill="#25356A" fill-opacity="0.35"/>
<circle cx="201.928" cy="863.86" r="5.07203" fill="#25356A" fill-opacity="0.35"/>
<circle cx="218.835" cy="863.86" r="5.07203" fill="#25356A" fill-opacity="0.35"/>
<circle cx="235.741" cy="863.86" r="5.07203" fill="#25356A" fill-opacity="0.35"/>
<circle cx="252.648" cy="863.86" r="5.07203" fill="#25356A" fill-opacity="0.35"/>
<circle cx="269.555" cy="863.86" r="5.07203" fill="#25356A" fill-opacity="0.35"/>
<circle cx="286.462" cy="863.86" r="5.07203" fill="#25356A" fill-opacity="0.35"/>
<circle cx="303.369" cy="863.86" r="5.07203" fill="#25356A" fill-opacity="0.35"/>
<circle cx="320.275" cy="863.86" r="5.07203" fill="#25356A" fill-opacity="0.35"/>
<circle cx="337.182" cy="863.86" r="5.07203" fill="#25356A" fill-opacity="0.35"/>
<circle cx="-0.953357" cy="880.767" r="5.07203" fill="#25356A" fill-opacity="0.35"/>
<circle cx="15.9534" cy="880.767" r="5.07203" fill="#25356A" fill-opacity="0.35"/>
<circle cx="32.8601" cy="880.767" r="5.07203" fill="#25356A" fill-opacity="0.35"/>
<circle cx="49.767" cy="880.767" r="5.07203" fill="#25356A" fill-opacity="0.35"/>
<circle cx="66.6737" cy="880.767" r="5.07203" fill="#25356A" fill-opacity="0.35"/>
<circle cx="83.5806" cy="880.767" r="5.07203" fill="#25356A" fill-opacity="0.35"/>
<circle cx="100.487" cy="880.767" r="5.07203" fill="#25356A" fill-opacity="0.35"/>
<circle cx="117.394" cy="880.767" r="5.07203" fill="#25356A" fill-opacity="0.35"/>
<circle cx="134.301" cy="880.767" r="5.07203" fill="#25356A" fill-opacity="0.35"/>
<circle cx="151.208" cy="880.767" r="5.07203" fill="#25356A" fill-opacity="0.35"/>
<circle cx="168.114" cy="880.767" r="5.07203" fill="#25356A" fill-opacity="0.35"/>
<circle cx="185.021" cy="880.767" r="5.07203" fill="#25356A" fill-opacity="0.35"/>
<circle cx="201.928" cy="880.767" r="5.07203" fill="#25356A" fill-opacity="0.35"/>
<circle cx="218.835" cy="880.767" r="5.07203" fill="#25356A" fill-opacity="0.35"/>
<circle cx="235.741" cy="880.767" r="5.07203" fill="#25356A" fill-opacity="0.35"/>
<circle cx="252.648" cy="880.767" r="5.07203" fill="#25356A" fill-opacity="0.35"/>
<circle cx="269.555" cy="880.767" r="5.07203" fill="#25356A" fill-opacity="0.35"/>
<circle cx="286.462" cy="880.767" r="5.07203" fill="#25356A" fill-opacity="0.35"/>
<circle cx="303.369" cy="880.767" r="5.07203" fill="#25356A" fill-opacity="0.35"/>
<circle cx="320.275" cy="880.767" r="5.07203" fill="#25356A" fill-opacity="0.35"/>
<circle cx="-0.953357" cy="897.674" r="5.07203" fill="#25356A" fill-opacity="0.35"/>
<circle cx="15.9534" cy="897.674" r="5.07203" fill="#25356A" fill-opacity="0.35"/>
<circle cx="32.8601" cy="897.674" r="5.07203" fill="#25356A" fill-opacity="0.35"/>
<circle cx="49.767" cy="897.674" r="5.07203" fill="#25356A" fill-opacity="0.35"/>
<circle cx="66.6737" cy="897.674" r="5.07203" fill="#25356A" fill-opacity="0.35"/>
<circle cx="83.5806" cy="897.674" r="5.07203" fill="#25356A" fill-opacity="0.35"/>
<circle cx="100.487" cy="897.674" r="5.07203" fill="#25356A" fill-opacity="0.35"/>
<circle cx="117.394" cy="897.674" r="5.07203" fill="#25356A" fill-opacity="0.35"/>
<circle cx="134.301" cy="897.674" r="5.07203" fill="#25356A" fill-opacity="0.35"/>
<circle cx="151.208" cy="897.674" r="5.07203" fill="#25356A" fill-opacity="0.35"/>
<circle cx="168.114" cy="897.674" r="5.07203" fill="#25356A" fill-opacity="0.35"/>
<circle cx="185.021" cy="897.674" r="5.07203" fill="#25356A" fill-opacity="0.35"/>
<circle cx="201.928" cy="897.674" r="5.07203" fill="#25356A" fill-opacity="0.35"/>
<circle cx="218.835" cy="897.674" r="5.07203" fill="#25356A" fill-opacity="0.35"/>
<circle cx="235.741" cy="897.674" r="5.07203" fill="#25356A" fill-opacity="0.35"/>
<circle cx="252.648" cy="897.674" r="5.07203" fill="#25356A" fill-opacity="0.35"/>
<circle cx="269.555" cy="897.674" r="5.07203" fill="#25356A" fill-opacity="0.35"/>
<circle cx="286.462" cy="897.674" r="5.07203" fill="#25356A" fill-opacity="0.35"/>
<circle cx="303.369" cy="897.674" r="5.07203" fill="#25356A" fill-opacity="0.35"/>
<circle cx="320.275" cy="897.674" r="5.07203" fill="#25356A" fill-opacity="0.35"/>
</g>
<g opacity="0.91" filter="url(#filter1_d)">
<path d="M298.447 835.115C55.6277 622.377 -31.7042 738.327 -39.429 749.783C-39.8513 750.409 -39.9964 751.063 -39.9894 751.819L-38.082 956.999C-36.6919 1106.54 88.6374 1235.87 225.543 1175.68C295.772 1144.8 360.03 1094.55 388.005 1012.84C427.397 897.785 318.11 852.342 298.447 835.115Z" fill="#6FCF97"/>
</g>
<path d="M1185.42 255.022C1152.25 273.991 1128.86 305.896 1100.51 331.508C1065.25 363.239 1022.33 385.241 975.99 395.348C937.99 403.571 898.287 403.693 861.67 416.628C790.23 441.693 741.302 516.082 740.07 591.717C738.839 667.352 781.87 740.677 845.118 782.142C866.658 796.272 890.239 807.011 915.038 813.986C961.55 827.074 1010.87 826.496 1058.94 821.495C1141.96 812.846 1228.99 765.696 1281.33 699.226C1304.66 669.518 1324.37 637.143 1340.06 602.782C1365.98 546.283 1380.7 485.296 1383.41 423.194C1385.61 369.994 1383.41 311.018 1341.2 272.243C1298.99 233.468 1234.89 226.704 1185.42 255.022Z" fill="#F9F9F9" fill-opacity="0.02"/>
<path d="M1238 860.67C1297.94 860.67 1346.52 847.583 1346.52 831.44C1346.52 815.297 1297.94 802.21 1238 802.21C1178.06 802.21 1129.47 815.297 1129.47 831.44C1129.47 847.583 1178.06 860.67 1238 860.67Z" fill="#ECECEC"/>
<path d="M1131.38 261.816H810.918C803.405 261.816 797.314 267.907 797.314 275.42V455.069C797.314 462.582 803.405 468.673 810.918 468.673H1131.38C1138.89 468.673 1144.98 462.582 1144.98 455.069V275.42C1144.98 267.907 1138.89 261.816 1131.38 261.816Z" fill="white"/>
<path d="M1144.98 275.42V280.801H797.314V275.42C797.314 271.805 798.745 268.337 801.294 265.774C803.843 263.21 807.303 261.76 810.918 261.74H1131.44C1133.23 261.746 1135 262.105 1136.65 262.796C1138.3 263.487 1139.79 264.497 1141.05 265.768C1142.31 267.039 1143.31 268.546 1143.98 270.202C1144.65 271.859 1145 273.632 1144.98 275.42Z" fill="#92E3A9"/>
<path d="M1131.38 261.816H810.918C803.405 261.816 797.314 267.907 797.314 275.42V455.069C797.314 462.582 803.405 468.673 810.918 468.673H1131.38C1138.89 468.673 1144.98 462.582 1144.98 455.069V275.42C1144.98 267.907 1138.89 261.816 1131.38 261.816Z" stroke="#263238" stroke-width="1.52" stroke-linecap="round" stroke-linejoin="round"/>
<path d="M1144.98 275.42V280.801H797.314V275.42C797.314 271.805 798.745 268.337 801.294 265.774C803.843 263.21 807.303 261.76 810.918 261.74H1131.44C1133.23 261.746 1135 262.105 1136.65 262.796C1138.3 263.487 1139.79 264.497 1141.05 265.768C1142.31 267.039 1143.31 268.546 1143.98 270.202C1144.65 271.859 1145 273.632 1144.98 275.42V275.42Z" stroke="#263238" stroke-width="1.52" stroke-linecap="round" stroke-linejoin="round"/>
<path d="M836.362 271.301C836.365 271.99 836.164 272.664 835.783 273.239C835.402 273.813 834.86 274.262 834.224 274.527C833.588 274.793 832.888 274.864 832.212 274.732C831.536 274.599 830.914 274.269 830.426 273.783C829.937 273.296 829.604 272.676 829.469 272.001C829.333 271.325 829.401 270.624 829.664 269.987C829.927 269.351 830.373 268.806 830.946 268.423C831.519 268.04 832.192 267.835 832.881 267.835C833.802 267.835 834.685 268.2 835.337 268.849C835.99 269.499 836.358 270.38 836.362 271.301Z" fill="#263238"/>
<path d="M854.527 271.301C854.53 271.99 854.328 272.664 853.948 273.239C853.567 273.813 853.024 274.262 852.389 274.527C851.753 274.793 851.053 274.864 850.376 274.732C849.7 274.599 849.079 274.269 848.59 273.783C848.102 273.296 847.769 272.676 847.633 272.001C847.498 271.325 847.566 270.624 847.829 269.987C848.092 269.351 848.538 268.806 849.111 268.423C849.683 268.04 850.357 267.835 851.046 267.835C851.967 267.835 852.85 268.2 853.502 268.849C854.154 269.499 854.523 270.38 854.527 271.301Z" fill="#263238"/>
<path d="M869.209 274.782C871.132 274.782 872.69 273.223 872.69 271.301C872.69 269.378 871.132 267.82 869.209 267.82C867.287 267.82 865.728 269.378 865.728 271.301C865.728 273.223 867.287 274.782 869.209 274.782Z" fill="#263238"/>
<path d="M921.832 295.864H823.534C820.436 295.864 817.925 298.375 817.925 301.473V348.76C817.925 351.858 820.436 354.369 823.534 354.369H921.832C924.93 354.369 927.441 351.858 927.441 348.76V301.473C927.441 298.375 924.93 295.864 921.832 295.864Z" stroke="#263238" stroke-width="1.52" stroke-linecap="round" stroke-linejoin="round"/>
<path d="M824.37 347.012H919.324" stroke="#263238" stroke-width="1.52" stroke-linecap="round" stroke-linejoin="round"/>
<path d="M842.443 335.84H831.423V346.86H842.443V335.84Z" fill="#92E3A9" stroke="#263238" stroke-width="1.52" stroke-miterlimit="10"/>
<path d="M858.57 321.354H847.55V347.012H858.57V321.354Z" fill="#92E3A9" stroke="#263238" stroke-width="1.52" stroke-miterlimit="10"/>
<path d="M876.734 325.762H865.714V347.27H876.734V325.762Z" fill="#92E3A9" stroke="#263238" stroke-width="1.52" stroke-miterlimit="10"/>
<path d="M895.825 304.346H884.805V346.526H895.825V304.346Z" fill="#92E3A9" stroke="#263238" stroke-width="1.52" stroke-miterlimit="10"/>
<path d="M914.901 304.68H903.881V346.86H914.901V304.68Z" fill="#92E3A9" stroke="#263238" stroke-width="1.52" stroke-miterlimit="10"/>
<path d="M1063.22 357.394C1080.24 357.394 1094.03 343.599 1094.03 326.583C1094.03 309.567 1080.24 295.773 1063.22 295.773C1046.21 295.773 1032.41 309.567 1032.41 326.583C1032.41 343.599 1046.21 357.394 1063.22 357.394Z" fill="#92E3A9" stroke="#263238" stroke-width="1.52" stroke-miterlimit="10"/>
<path d="M1065.75 345.796V348.958H1060.58V345.796C1058.46 345.283 1056.58 344.046 1055.27 342.298C1053.96 340.551 1053.3 338.401 1053.4 336.22V334.791L1059.26 334.153V335.673C1059.26 338.606 1060.78 340.385 1063.16 340.385C1063.68 340.428 1064.2 340.358 1064.69 340.181C1065.18 340.003 1065.62 339.722 1065.99 339.357C1066.36 338.992 1066.65 338.551 1066.83 338.064C1067.01 337.578 1067.09 337.058 1067.05 336.539C1067.05 333.727 1064.42 331.31 1061.32 328.742C1057.64 325.702 1053.98 322.084 1053.98 316.977C1053.98 311.87 1056.38 308.419 1060.58 307.386V304.209H1065.75V307.355C1069.99 308.343 1072.45 311.915 1072.45 317.007V318.041L1066.6 318.664V317.6C1066.6 314.56 1065.4 312.888 1063.27 312.888C1061.14 312.888 1059.94 314.21 1059.94 316.734C1059.94 319.546 1062.65 321.902 1065.69 324.531C1069.3 327.571 1073.03 331.189 1073.03 336.296C1073.12 338.481 1072.44 340.628 1071.11 342.364C1069.78 344.1 1067.88 345.314 1065.75 345.796Z" fill="#263238"/>
<path d="M815.371 384.252H824.37" stroke="#263238" stroke-width="1.52" stroke-linecap="round" stroke-linejoin="round"/>
<path d="M815.371 401.641H824.37" stroke="#263238" stroke-width="1.52" stroke-linecap="round" stroke-linejoin="round"/>
<path d="M815.371 419.045H824.37" stroke="#263238" stroke-width="1.52" stroke-linecap="round" stroke-linejoin="round"/>
<path d="M815.371 436.434H824.37" stroke="#263238" stroke-width="1.52" stroke-linecap="round" stroke-linejoin="round"/>
<path d="M844.206 449.566V442.574" stroke="#263238" stroke-width="1.52" stroke-linecap="round" stroke-linejoin="round"/>
<path d="M858.464 449.566V442.574" stroke="#263238" stroke-width="1.52" stroke-linecap="round" stroke-linejoin="round"/>
<path d="M872.721 449.566V442.574" stroke="#263238" stroke-width="1.52" stroke-linecap="round" stroke-linejoin="round"/>
<path d="M886.994 449.566V442.574" stroke="#263238" stroke-width="1.52" stroke-linecap="round" stroke-linejoin="round"/>
<path d="M901.252 449.566V442.574" stroke="#263238" stroke-width="1.52" stroke-linecap="round" stroke-linejoin="round"/>
<path d="M915.509 449.566V442.574" stroke="#263238" stroke-width="1.52" stroke-linecap="round" stroke-linejoin="round"/>
<path d="M929.767 449.566V442.574" stroke="#263238" stroke-width="1.52" stroke-linecap="round" stroke-linejoin="round"/>
<path d="M944.039 449.566V442.574" stroke="#263238" stroke-width="1.52" stroke-linecap="round" stroke-linejoin="round"/>
<path d="M958.298 449.566V442.574" stroke="#263238" stroke-width="1.52" stroke-linecap="round" stroke-linejoin="round"/>
<path d="M972.555 449.566V442.574" stroke="#263238" stroke-width="1.52" stroke-linecap="round" stroke-linejoin="round"/>
<path d="M986.812 449.566V442.574" stroke="#263238" stroke-width="1.52" stroke-linecap="round" stroke-linejoin="round"/>
<path d="M1001.09 449.566V442.574" stroke="#263238" stroke-width="1.52" stroke-linecap="round" stroke-linejoin="round"/>
<path d="M1015.34 449.566V442.574" stroke="#263238" stroke-width="1.52" stroke-linecap="round" stroke-linejoin="round"/>
<path d="M1029.6 449.566V442.574" stroke="#263238" stroke-width="1.52" stroke-linecap="round" stroke-linejoin="round"/>
<path d="M1043.86 449.566V442.574" stroke="#263238" stroke-width="1.52" stroke-linecap="round" stroke-linejoin="round"/>
<path d="M1057.58 449.566V442.574" stroke="#263238" stroke-width="1.52" stroke-linecap="round" stroke-linejoin="round"/>
<path d="M1071.31 449.566V442.574" stroke="#263238" stroke-width="1.52" stroke-linecap="round" stroke-linejoin="round"/>
<path d="M1085.02 449.566V442.574" stroke="#263238" stroke-width="1.52" stroke-linecap="round" stroke-linejoin="round"/>
<path d="M1121.32 373.612V441.191C1121.32 445.827 1116.6 449.566 1110.8 449.566H825.92C824.185 449.628 822.46 449.288 820.878 448.574C819.296 447.859 817.901 446.789 816.8 445.447C815.849 444.229 815.316 442.736 815.28 441.191V373.612C815.28 369.052 819.992 365.237 825.798 365.237H1110.8C1116.6 365.237 1121.32 368.976 1121.32 373.612Z" stroke="#92E3A9" stroke-width="1.52" stroke-linecap="round" stroke-linejoin="round"/>
<path d="M1034.62 242.725L943.674 365.237L908.897 412.083L870.897 387.885L824.4 449.566H823.731C822.273 449.568 820.84 449.188 819.574 448.466C818.308 447.743 817.252 446.703 816.511 445.447L868.754 376.12L906.754 400.273L932.761 365.313L1027.59 237.633L1034.62 242.725Z" fill="#219653"/>
<path d="M1011.54 244.275L1044.97 224.014L1035.73 259.065L1029.83 242.846L1011.54 244.275Z" fill="#219653"/>
<path d="M1327.87 629.99H793.3L733.382 683.266" stroke="#27AE60" stroke-width="2.10526" stroke-linecap="round" stroke-linejoin="round"/>
<path d="M793.635 592.69V489.102" stroke="#27AE60" stroke-width="2.10526" stroke-linecap="round" stroke-linejoin="round"/>
<path d="M793.635 623.971V603.938" stroke="#27AE60" stroke-width="2.10526" stroke-linecap="round" stroke-linejoin="round"/>
<path d="M1295.69 377.974C1295.69 377.974 1295.69 371.712 1286.92 362.957C1278.15 354.202 1272.52 349.186 1272.52 349.186C1272.52 349.186 1268.13 363.58 1276.28 372.35C1282.26 378.528 1288.76 384.193 1295.69 389.283V377.974Z" fill="#92E3A9"/>
<path d="M1282.97 417.084C1282.97 417.084 1282.97 410.822 1274.2 402.051C1265.43 393.281 1259.8 388.28 1259.8 388.28C1259.8 388.28 1255.42 402.674 1263.56 411.445C1269.55 417.62 1276.04 423.288 1282.97 428.393V417.084Z" fill="#92E3A9"/>
<path d="M1295.13 388.645C1295.13 388.645 1295.8 382.413 1305.43 374.615C1315.07 366.817 1321.21 362.455 1321.21 362.455C1321.21 362.455 1324.04 377.275 1315.02 385.088C1308.42 390.586 1301.37 395.523 1293.94 399.847L1295.13 388.645Z" fill="#92E3A9"/>
<path d="M1279.76 434.822C1279.76 434.822 1281.08 428.742 1291.48 421.963C1301.88 415.184 1308.43 411.506 1308.43 411.506C1308.43 411.506 1309.69 426.508 1299.95 433.378C1292.8 438.152 1285.27 442.316 1277.43 445.827L1279.76 434.822Z" fill="#92E3A9"/>
<path d="M1282.66 485.15C1282.66 485.15 1282.66 478.887 1291.42 470.132C1300.17 461.377 1305.81 456.361 1305.81 456.361C1305.81 456.361 1310.21 470.77 1302.06 479.526C1296.08 485.712 1289.59 491.382 1282.66 496.474V485.15Z" fill="#92E3A9"/>
<path d="M1282.51 497.446C1282.51 497.446 1283.39 491.245 1275.96 481.334C1268.53 471.424 1263.68 465.648 1263.68 465.648C1263.68 465.648 1257.32 479.328 1264.12 489.117C1269.17 496.069 1274.79 502.588 1280.93 508.603L1282.51 497.446Z" fill="#92E3A9"/>
<path d="M1273.86 533.85C1273.86 533.85 1273.86 527.603 1282.63 518.833C1291.4 510.062 1297.03 505.153 1297.03 505.153C1297.03 505.153 1301.42 519.547 1293.27 528.302C1287.29 534.486 1280.8 540.155 1273.86 545.25V533.85Z" fill="#92E3A9"/>
<path d="M1279.71 566.88C1279.71 566.88 1278.19 560.8 1284.41 550.16C1290.63 539.52 1294.85 533.212 1294.85 533.212C1294.85 533.212 1302.73 546.041 1297.09 556.574C1292.86 564.06 1288.01 571.179 1282.59 577.854L1279.71 566.88Z" fill="#92E3A9"/>
<path d="M1296.48 376.424C1296.04 382.938 1295.24 389.423 1294.08 395.85C1290.61 413.755 1281.92 425.307 1278.48 441.45C1275.05 457.592 1284.97 478.462 1282.31 499.21C1279.65 519.958 1271.55 531.525 1273.83 545.387C1276.11 559.25 1288.27 596.763 1288.27 596.763" stroke="#263238" stroke-width="1.78978" stroke-linecap="round" stroke-linejoin="round"/>
<path d="M1295.05 392.81L1304.49 385.544" stroke="#263238" stroke-width="1.78978" stroke-linecap="round" stroke-linejoin="round"/>
<path d="M1295.48 384.465L1291.54 377.427" stroke="#263238" stroke-width="1.78978" stroke-linecap="round" stroke-linejoin="round"/>
<path d="M1279.02 440.72C1279.02 440.72 1286.92 434.777 1295.05 428.849" stroke="#263238" stroke-width="1.78978" stroke-linecap="round" stroke-linejoin="round"/>
<path d="M1282.97 428.317C1282.97 428.317 1276.37 415.397 1268.91 406.824" stroke="#263238" stroke-width="1.78978" stroke-linecap="round" stroke-linejoin="round"/>
<path d="M1282.97 494.057C1287.5 485.74 1293.2 478.121 1299.92 471.439" stroke="#263238" stroke-width="1.78978" stroke-linecap="round" stroke-linejoin="round"/>
<path d="M1281.43 502.842C1279.01 497.187 1276.12 491.742 1272.8 486.563C1268.24 479.754 1267.51 478.872 1267.51 478.872" stroke="#263238" stroke-width="1.78978" stroke-linecap="round" stroke-linejoin="round"/>
<path d="M1273.86 545.372C1275.87 540.395 1278.25 535.578 1280.99 530.962C1283.73 526.665 1286.81 522.598 1290.2 518.802" stroke="#263238" stroke-width="1.78978" stroke-linecap="round" stroke-linejoin="round"/>
<path d="M1282.57 577.778C1282.11 573.029 1282.93 568.243 1284.94 563.916C1288.24 557.547 1291.96 549.187 1293.52 545.904" stroke="#263238" stroke-width="1.78978" stroke-linecap="round" stroke-linejoin="round"/>
<path d="M1238.29 461.605C1238.29 461.605 1237.61 457.698 1242.16 451.238C1246.7 444.778 1249.76 441.024 1249.76 441.024C1249.76 441.024 1254.06 449.566 1249.91 455.95C1246.82 460.468 1243.37 464.719 1239.57 468.658L1238.29 461.605Z" fill="#92E3A9"/>
<path d="M1250.52 484.8C1250.52 484.8 1249.83 480.863 1254.38 474.418C1258.92 467.974 1261.98 464.219 1261.98 464.219C1261.98 464.219 1266.28 472.777 1262.13 479.146C1259.05 483.666 1255.59 487.917 1251.79 491.853L1250.52 484.8Z" fill="#92E3A9"/>
<path d="M1239.8 468.232C1239.8 468.232 1238.74 464.402 1231.82 460.632C1224.9 456.862 1220.6 454.704 1220.6 454.704C1220.6 454.704 1220.43 464.234 1226.96 468.232C1231.69 470.964 1236.65 473.293 1241.78 475.194L1239.8 468.232Z" fill="#92E3A9"/>
<path d="M1254.45 495.516C1254.45 495.516 1252.93 491.822 1245.7 488.737C1238.46 485.651 1233.92 484.025 1233.92 484.025C1233.92 484.025 1234.75 493.555 1241.64 496.808C1246.64 499.025 1251.81 500.82 1257.11 502.174L1254.45 495.516Z" fill="#92E3A9"/>
<path d="M1258.1 527.36C1258.1 527.36 1257.42 523.438 1250.97 518.894C1244.53 514.349 1240.44 511.81 1240.44 511.81C1240.44 511.81 1239.25 521.341 1245.32 525.931C1249.74 529.142 1254.42 531.974 1259.32 534.398L1258.1 527.36Z" fill="#92E3A9"/>
<path d="M1259.51 535.097C1259.51 535.097 1258.28 531.312 1261.87 524.29C1265.46 517.267 1267.95 513.118 1267.95 513.118C1267.95 513.118 1273.42 520.961 1270.23 527.877C1267.8 532.785 1264.96 537.482 1261.75 541.922L1259.51 535.097Z" fill="#92E3A9"/>
<path d="M1270.52 566.758C1270.52 566.758 1270.97 562.806 1277.15 557.897C1283.32 552.987 1287.25 550.297 1287.25 550.297C1287.25 550.297 1288.99 559.721 1283.19 564.676C1278.97 568.135 1274.46 571.236 1269.71 573.948L1270.52 566.758Z" fill="#92E3A9"/>
<path d="M1268.89 557C1268.89 557 1268.21 553.063 1261.76 548.518C1255.32 543.974 1251.25 541.45 1251.25 541.45C1251.25 541.45 1250.06 550.981 1256.11 555.571C1260.54 558.78 1265.22 561.612 1270.12 564.038L1268.89 557Z" fill="#92E3A9"/>
<path d="M1268.8 578.341C1268.8 578.341 1269.15 574.358 1264.06 568.339C1258.97 562.32 1255.67 558.809 1255.67 558.809C1255.67 558.809 1252.11 567.701 1256.81 573.705C1260.28 577.939 1264.09 581.879 1268.21 585.485L1268.8 578.341Z" fill="#92E3A9"/>
<path d="M1237.61 460.693C1238.6 464.734 1239.81 468.718 1241.24 472.625C1245.35 483.462 1252.04 489.77 1255.96 499.529C1259.88 509.287 1255.96 523.438 1259.83 536.161C1263.71 548.883 1270.09 555.222 1270.14 564.205C1270.18 573.188 1266.72 598.01 1266.72 598.01" stroke="#263238" stroke-width="1.78978" stroke-linecap="round" stroke-linejoin="round"/>
<path d="M1240.3 470.831L1233.6 467.32" stroke="#263238" stroke-width="1.78978" stroke-linecap="round" stroke-linejoin="round"/>
<path d="M1239.11 465.648L1240.83 460.814" stroke="#263238" stroke-width="1.78978" stroke-linecap="round" stroke-linejoin="round"/>
<path d="M1255.56 499.118C1255.56 499.118 1249.95 496.261 1244.22 493.418" stroke="#263238" stroke-width="1.78978" stroke-linecap="round" stroke-linejoin="round"/>
<path d="M1251.73 491.853C1253.38 486.649 1255.55 481.628 1258.22 476.865" stroke="#263238" stroke-width="1.78978" stroke-linecap="round" stroke-linejoin="round"/>
<path d="M1258.87 533.014C1255.13 528.292 1250.73 524.135 1245.8 520.672" stroke="#263238" stroke-width="1.78978" stroke-linecap="round" stroke-linejoin="round"/>
<path d="M1260.79 538.365C1261.68 534.567 1262.88 530.85 1264.39 527.253C1266.51 522.465 1266.87 521.842 1266.87 521.842" stroke="#263238" stroke-width="1.78978" stroke-linecap="round" stroke-linejoin="round"/>
<path d="M1269.85 570.984C1272.02 568.282 1274.44 565.78 1277.05 563.506C1278.72 562.27 1280.29 560.903 1281.74 559.417" stroke="#263238" stroke-width="1.78978" stroke-linecap="round" stroke-linejoin="round"/>
<path d="M1270.14 564.205C1268.32 561.305 1266.29 558.546 1264.06 555.951C1261.88 553.567 1259.5 551.366 1256.96 549.37" stroke="#263238" stroke-width="1.78978" stroke-linecap="round" stroke-linejoin="round"/>
<path d="M1268.24 585.485C1268 582.442 1266.95 579.52 1265.2 577.018C1262.43 573.37 1259.12 568.537 1257.87 566.637" stroke="#263238" stroke-width="1.78978" stroke-linecap="round" stroke-linejoin="round"/>
<path d="M1297.39 640.813H1257.48C1256.68 640.813 1255.92 640.503 1255.35 639.949C1254.79 639.396 1254.46 638.642 1254.44 637.849L1248.71 593.677H1306.04L1300.31 637.849C1300.29 638.621 1299.98 639.357 1299.44 639.908C1298.9 640.459 1298.16 640.782 1297.39 640.813Z" fill="#263238"/>
<path d="M1305.58 601.141H1248.77C1247.58 601.145 1246.45 600.68 1245.61 599.848C1244.77 599.016 1244.29 597.885 1244.28 596.702C1244.3 595.522 1244.78 594.395 1245.61 593.558C1246.45 592.722 1247.57 592.242 1248.75 592.218H1305.58C1306.17 592.216 1306.76 592.33 1307.3 592.554C1307.84 592.778 1308.34 593.107 1308.75 593.522C1309.17 593.937 1309.5 594.43 1309.73 594.973C1309.95 595.517 1310.07 596.099 1310.07 596.687C1310.07 597.274 1309.95 597.855 1309.72 598.396C1309.5 598.937 1309.17 599.429 1308.75 599.843C1308.33 600.256 1307.84 600.584 1307.3 600.806C1306.75 601.029 1306.17 601.143 1305.58 601.141Z" fill="#263238"/>
<path d="M1177.5 424.471C1177.49 436.946 1173.27 449.052 1165.5 458.815C1157.74 468.578 1146.89 475.423 1134.74 478.233H1134.57C1133.13 478.553 1131.68 478.841 1130.19 479.054C1127.58 479.426 1124.94 479.614 1122.3 479.617C1107.88 479.565 1094.04 473.866 1083.77 463.741C1073.49 453.616 1067.59 439.869 1067.32 425.444C1067.05 411.02 1072.45 397.065 1082.34 386.567C1092.24 376.069 1105.85 369.864 1120.27 369.28C1120.77 369.28 1121.3 369.28 1121.79 369.28C1121.95 369.265 1122.11 369.265 1122.27 369.28C1122.46 369.265 1122.65 369.265 1122.84 369.28C1130.28 369.328 1137.64 370.906 1144.45 373.916C1154.28 378.22 1162.63 385.294 1168.5 394.272C1174.37 403.251 1177.5 413.745 1177.5 424.471Z" fill="#92E3A9"/>
<path opacity="0.4" d="M1144.48 373.931C1080.75 370.618 1080.44 441.374 1080.44 441.374C1080.44 441.374 1070.72 418.285 1086.6 392.734C1095.48 378.43 1110.92 372.122 1122.87 369.326C1130.31 369.364 1137.67 370.932 1144.48 373.931Z" fill="white"/>
<path d="M1177.5 424.471C1177.5 436.976 1173.25 449.111 1165.45 458.886C1157.65 468.662 1146.76 475.5 1134.57 478.279C1130.55 479.205 1126.43 479.669 1122.3 479.662C1107.67 479.932 1093.52 474.377 1082.98 464.217C1072.44 454.058 1066.37 440.127 1066.1 425.49C1065.82 410.852 1071.38 396.707 1081.54 386.165C1091.7 375.624 1105.63 369.55 1120.27 369.28C1120.94 369.28 1121.62 369.28 1122.3 369.28C1136.94 369.284 1150.98 375.1 1161.33 385.449C1171.68 395.799 1177.49 409.835 1177.5 424.471V424.471Z" stroke="#263238" stroke-width="1.52" stroke-linecap="round" stroke-linejoin="round"/>
<path d="M1177.5 424.471C1177.5 436.976 1173.25 449.111 1165.45 458.886C1157.65 468.662 1146.76 475.5 1134.57 478.279C1133.9 478.279 1133.22 478.279 1132.53 478.279C1118.99 478.243 1105.93 473.227 1095.84 464.186C1085.75 455.145 1079.34 442.709 1077.82 429.247C1076.31 415.784 1079.79 402.234 1087.62 391.177C1095.45 380.119 1107.07 372.326 1120.27 369.28C1120.94 369.28 1121.62 369.28 1122.31 369.28C1136.94 369.284 1150.98 375.1 1161.33 385.449C1171.68 395.799 1177.49 409.835 1177.5 424.471V424.471Z" stroke="#263238" stroke-width="1.52" stroke-linecap="round" stroke-linejoin="round"/>
<path d="M1141.32 458.96L1142.75 464.797L1133.2 467.122L1131.77 461.301C1123.23 461.301 1116.38 455.753 1114.19 446.845L1113.53 444.201L1124.07 440.385L1124.74 443.137C1126.06 448.548 1129.63 451.147 1134.08 450.053C1135.06 449.901 1136 449.538 1136.82 448.991C1137.64 448.443 1138.34 447.723 1138.86 446.881C1139.38 446.038 1139.71 445.093 1139.82 444.111C1139.94 443.129 1139.85 442.133 1139.54 441.191C1138.26 435.993 1132.31 432.74 1125.41 429.381C1117.24 425.429 1108.82 420.413 1106.51 410.973C1104.26 401.762 1107.09 394.086 1114.37 390.286L1112.94 384.449L1122.47 382.124L1123.9 387.946C1132.18 387.824 1138.36 393.281 1140.62 402.705L1141.09 404.62L1130.57 408.435L1130.04 406.322C1128.64 400.592 1125.69 398.175 1121.77 399.133C1117.85 400.09 1116.22 403.085 1117.36 407.736C1118.64 412.934 1124.68 416.066 1131.5 419.562C1139.57 423.65 1148.08 428.529 1150.39 437.953C1152.72 447.028 1149.01 455.114 1141.32 458.96Z" stroke="#263238" stroke-width="1.52" stroke-miterlimit="10"/>
<path opacity="0.3" d="M1141.32 458.96L1142.75 464.797L1133.2 467.122L1131.77 461.301C1123.23 461.301 1116.38 455.753 1114.19 446.845L1113.53 444.201L1124.07 440.385L1124.74 443.137C1126.06 448.548 1129.63 451.147 1134.08 450.053C1135.06 449.901 1136 449.538 1136.82 448.991C1137.64 448.443 1138.34 447.723 1138.86 446.881C1139.38 446.038 1139.71 445.093 1139.82 444.111C1139.94 443.129 1139.85 442.133 1139.54 441.191C1138.26 435.993 1132.31 432.74 1125.41 429.381C1117.24 425.429 1108.82 420.413 1106.51 410.973C1104.26 401.762 1107.09 394.086 1114.37 390.286L1112.94 384.449L1122.47 382.124L1123.9 387.946C1132.18 387.824 1138.36 393.281 1140.62 402.705L1141.09 404.62L1130.57 408.435L1130.04 406.322C1128.64 400.592 1125.69 398.175 1121.77 399.133C1117.85 400.09 1116.22 403.085 1117.36 407.736C1118.64 412.934 1124.68 416.066 1131.5 419.562C1139.57 423.65 1148.08 428.529 1150.39 437.953C1152.72 447.028 1149.01 455.114 1141.32 458.96Z" fill="black"/>
<path d="M1094.09 471.926L1105.75 471.394" stroke="#263238" stroke-width="1.52" stroke-linecap="round" stroke-linejoin="round"/>
<path d="M1088.48 468.049L1098.65 467.183" stroke="#263238" stroke-width="1.52" stroke-linecap="round" stroke-linejoin="round"/>
<path d="M1083.92 463.961L1094.09 463.094" stroke="#263238" stroke-width="1.52" stroke-linecap="round" stroke-linejoin="round"/>
<path d="M1082.53 386.198H1091.24" stroke="#263238" stroke-width="1.52" stroke-linecap="round" stroke-linejoin="round"/>
<path d="M1086.83 382.185L1095.51 381.79" stroke="#263238" stroke-width="1.52" stroke-linecap="round" stroke-linejoin="round"/>
<path d="M1092.27 378.157L1101.42 377.29" stroke="#263238" stroke-width="1.52" stroke-linecap="round" stroke-linejoin="round"/>
<path opacity="0.3" d="M1134.74 478.233H1134.57C1130.55 479.16 1126.43 479.624 1122.3 479.617C1107.88 479.565 1094.04 473.866 1083.77 463.741C1073.49 453.616 1067.59 439.869 1067.32 425.445C1067.05 411.02 1072.45 397.065 1082.34 386.567C1092.24 376.069 1105.85 369.864 1120.27 369.28C1120.77 369.28 1121.3 369.28 1121.79 369.28C1108.34 373.521 1085.76 384.358 1079.73 406.961C1071.2 439.078 1090.4 475.543 1134.74 478.233Z" fill="black"/>
<path opacity="0.1" d="M1177.5 424.471C1177.49 436.946 1173.27 449.052 1165.5 458.815C1157.74 468.578 1146.89 475.423 1134.74 478.233H1134.57C1133.13 478.553 1131.68 478.841 1130.19 479.054L1144.48 373.885C1154.31 378.196 1162.66 385.277 1168.52 394.261C1174.39 403.245 1177.51 413.743 1177.5 424.471Z" fill="black"/>
<path d="M1208.81 337.588C1204.44 343.761 1198.1 348.27 1190.84 350.379C1183.58 352.488 1175.81 352.073 1168.82 349.201L1168.62 349.11C1167.58 348.653 1166.57 348.146 1165.58 347.59C1164.46 346.99 1163.39 346.32 1162.36 345.583C1155.62 340.441 1151.09 332.935 1149.68 324.581C1148.27 316.227 1150.08 307.649 1154.75 300.579C1159.42 293.509 1166.6 288.475 1174.83 286.494C1183.07 284.513 1191.75 285.732 1199.13 289.906L1199.87 290.377C1200.22 290.574 1200.55 290.818 1200.9 291.061C1201.25 291.304 1201.92 291.806 1202.42 292.201C1209.07 297.53 1213.43 305.194 1214.61 313.629C1215.8 322.063 1213.72 330.633 1208.81 337.588Z" fill="#92E3A9"/>
<path opacity="0.4" d="M1158.44 338.044C1158.44 338.044 1152.98 321.978 1160.23 310.152C1169.35 295.332 1183.32 288.568 1202.33 292.216C1202.33 292.216 1192.03 285.254 1174.78 290.194C1157.52 295.134 1148.27 318.877 1158.44 338.044Z" fill="white"/>
<path d="M1208.81 337.603C1204.43 343.771 1198.1 348.274 1190.83 350.377C1183.57 352.481 1175.81 352.061 1168.82 349.186C1166.51 348.242 1164.32 347.039 1162.28 345.598C1155.51 340.401 1150.98 332.808 1149.62 324.377C1148.26 315.946 1150.18 307.316 1154.99 300.256C1159.79 293.196 1167.11 288.24 1175.45 286.406C1183.79 284.572 1192.52 285.998 1199.84 290.392C1200.17 290.59 1200.52 290.818 1200.86 291.061C1208.07 296.187 1212.96 303.965 1214.45 312.689C1215.94 321.413 1213.91 330.373 1208.81 337.603Z" stroke="#263238" stroke-width="1.52" stroke-linecap="round" stroke-linejoin="round"/>
<path d="M1208.81 337.603C1204.43 343.771 1198.1 348.274 1190.83 350.377C1183.57 352.481 1175.81 352.061 1168.82 349.186L1167.8 348.517C1161.19 343.73 1156.57 336.695 1154.79 328.735C1153.01 320.776 1154.2 312.441 1158.14 305.298C1162.08 298.155 1168.49 292.698 1176.17 289.953C1183.85 287.208 1192.27 287.364 1199.84 290.392C1200.17 290.59 1200.52 290.818 1200.86 291.061C1208.07 296.187 1212.96 303.965 1214.45 312.689C1215.94 321.413 1213.91 330.372 1208.81 337.603Z" stroke="#263238" stroke-width="1.52" stroke-linecap="round" stroke-linejoin="round"/>
<path d="M1178.88 342.042L1177.56 345.416L1172.02 343.242L1173.35 339.853C1171.29 338.407 1169.81 336.293 1169.14 333.872C1168.48 331.452 1168.67 328.875 1169.7 326.583L1170.31 325.063L1176.84 326.842L1176.22 328.453C1174.99 331.584 1175.82 334.107 1178.41 335.126C1178.94 335.392 1179.53 335.54 1180.13 335.557C1180.73 335.574 1181.33 335.461 1181.88 335.225C1182.43 334.99 1182.92 334.637 1183.32 334.192C1183.72 333.747 1184.02 333.22 1184.2 332.648C1185.39 329.608 1183.58 325.945 1181.34 321.886C1178.7 317.083 1176.3 311.672 1178.44 306.2C1180.58 300.728 1184.63 298.053 1189.53 298.722L1190.87 295.347L1196.39 297.521L1195.07 300.88C1199.2 303.707 1200.34 308.48 1198.2 314.028L1197.76 315.122L1191.22 313.344L1191.71 312.113C1193.02 308.799 1192.41 306.565 1190.19 305.668C1187.97 304.771 1186.07 305.668 1185.01 308.389C1183.82 311.429 1185.72 315.046 1187.86 319.15C1190.43 323.999 1192.92 329.38 1190.78 334.837C1189.97 337.25 1188.33 339.298 1186.15 340.617C1183.97 341.936 1181.39 342.441 1178.88 342.042V342.042Z" stroke="#263238" stroke-width="1.52" stroke-miterlimit="10"/>
<path opacity="0.3" d="M1178.88 342.042L1177.56 345.416L1172.02 343.242L1173.35 339.853C1171.29 338.407 1169.81 336.293 1169.14 333.872C1168.48 331.452 1168.67 328.875 1169.7 326.583L1170.31 325.063L1176.84 326.842L1176.22 328.453C1174.99 331.584 1175.82 334.107 1178.41 335.126C1178.94 335.392 1179.53 335.54 1180.13 335.557C1180.73 335.574 1181.33 335.461 1181.88 335.225C1182.43 334.99 1182.92 334.637 1183.32 334.192C1183.72 333.747 1184.02 333.22 1184.2 332.648C1185.39 329.608 1183.58 325.945 1181.34 321.886C1178.7 317.083 1176.3 311.672 1178.44 306.2C1180.58 300.728 1184.63 298.053 1189.53 298.722L1190.87 295.347L1196.39 297.521L1195.07 300.88C1199.2 303.707 1200.34 308.48 1198.2 314.028L1197.76 315.122L1191.22 313.344L1191.71 312.113C1193.02 308.799 1192.41 306.565 1190.19 305.668C1187.97 304.771 1186.07 305.668 1185.01 308.389C1183.82 311.429 1185.72 315.046 1187.86 319.15C1190.43 323.999 1192.92 329.38 1190.78 334.837C1189.97 337.25 1188.33 339.298 1186.15 340.617C1183.97 341.936 1181.39 342.441 1178.88 342.042Z" fill="black"/>
<path opacity="0.3" d="M1199.05 289.921C1189.93 288.294 1178.38 287.398 1172.15 291.441C1160.7 298.782 1153.57 308.039 1153.68 323.042C1153.78 338.044 1167.8 348.562 1167.8 348.562L1168.62 349.155C1166.38 348.222 1164.26 347.044 1162.28 345.644C1155.55 340.502 1151.02 332.996 1149.6 324.642C1148.19 316.288 1150 307.71 1154.67 300.64C1159.34 293.57 1166.52 288.536 1174.76 286.555C1182.99 284.574 1191.68 285.793 1199.05 289.966V289.921Z" fill="black"/>
<path opacity="0.1" d="M1208.81 337.588C1204.44 343.761 1198.1 348.27 1190.84 350.379C1183.58 352.488 1175.81 352.073 1168.82 349.201L1168.62 349.11C1167.58 348.653 1166.57 348.146 1165.58 347.59L1202.33 292.216C1208.99 297.532 1213.36 305.187 1214.57 313.618C1215.77 322.05 1213.71 330.623 1208.81 337.588Z" fill="black"/>
<path d="M1191.6 765.635C1177.45 782.654 1160.59 797.215 1141.69 808.727C1135.8 812.251 1129.71 815.428 1123.45 818.242C1080.26 837.653 1031.04 838.914 985.019 827.758C888.24 804.304 836.895 718.88 830.374 624.047C828.626 598.42 824.704 570.741 835.086 546.36C845.468 521.979 866.459 506.84 890.201 496.322C907.438 488.646 926.058 483.493 942.976 479.282C973.592 471.719 1005.89 475.051 1034.31 488.706C1054.21 498.146 1068.38 514.546 1085.11 528.363C1086.88 529.822 1088.67 531.277 1090.46 532.726C1107.37 546.333 1125.14 558.828 1143.66 570.133C1171.8 587.294 1200.6 603.482 1218.58 632.301C1247.26 678.235 1223.07 728.243 1191.6 765.635Z" fill="#92E3A9"/>
<path opacity="0.4" d="M1191.6 765.635C1177.45 782.654 1160.59 797.215 1141.69 808.727C1135.8 812.251 1129.71 815.428 1123.45 818.242C1080.26 837.653 1031.04 838.914 985.019 827.758C888.24 804.304 836.895 718.88 830.374 624.047C828.626 598.42 824.704 570.741 835.086 546.36C845.468 521.979 866.459 506.84 890.201 496.322C907.438 488.646 926.058 483.493 942.976 479.282C973.592 471.719 1005.89 475.051 1034.31 488.706C1054.21 498.146 1068.38 514.546 1085.11 528.363C1086.88 529.822 1088.67 531.277 1090.46 532.726C1107.37 546.333 1125.14 558.828 1143.66 570.133C1171.8 587.294 1200.6 603.482 1218.58 632.301C1247.26 678.235 1223.07 728.243 1191.6 765.635Z" fill="white"/>
<path d="M1090.4 532.726C1088.61 531.287 1086.82 529.827 1085.05 528.348C1068.33 514.501 1054.13 498.146 1034.25 488.706C1005.82 475.059 973.531 471.727 942.915 479.282C902.681 489.269 852.779 504.651 834.995 546.375C824.613 570.695 828.535 598.42 830.298 624.047C836.895 718.88 888.241 804.304 985.019 827.758C1037.67 840.526 1094.46 837.03 1141.69 808.727C1160.59 797.215 1177.45 782.654 1191.6 765.635C1223.07 728.243 1247.26 678.235 1218.61 632.301C1200.65 603.421 1171.84 587.294 1143.69 570.133C1125.14 558.831 1107.34 546.336 1090.4 532.726V532.726Z" stroke="#263238" stroke-width="1.52" stroke-miterlimit="10"/>
<path d="M943.797 701.826C935.739 704.264 927.92 707.428 920.434 711.28" stroke="#263238" stroke-width="1.52" stroke-linecap="round" stroke-linejoin="round"/>
<path d="M993.121 692.432C981.35 693.451 969.668 695.305 958.161 697.98" stroke="#263238" stroke-width="1.52" stroke-linecap="round" stroke-linejoin="round"/>
<path d="M982.86 690C982.86 690 937.443 663.582 882.632 684.756" stroke="#263238" stroke-width="1.52" stroke-linecap="round" stroke-linejoin="round"/>
<path opacity="0.1" d="M1191.6 765.635C1177.45 782.654 1160.59 797.215 1141.69 808.727C1135.8 812.251 1129.71 815.428 1123.45 818.242C1118.5 816.729 1113.65 814.948 1108.9 812.907C1080.54 800.747 1056.73 780.182 1033.48 759.905C1019.45 747.745 1005.19 735.281 988.394 727.27C965.681 716.531 939.841 714.403 915.677 721.282C928.175 707.176 945.166 697.826 963.77 694.818C951.762 683.89 935.057 679.299 918.823 679.01C902.59 678.722 893.652 680.713 877.783 684.27C883.088 674.511 897.163 665.68 908.275 665.938C897.712 665.798 887.166 665.052 876.689 663.704C862.355 661.394 855.941 644.522 853.798 630.173C847.87 590.653 853.874 548.564 875.443 514.972C879.713 508.272 884.653 502.023 890.187 496.322C907.423 488.646 926.043 483.493 942.961 479.282C973.577 471.719 1005.87 475.051 1034.3 488.706C1054.19 498.146 1068.36 514.546 1085.1 528.363C1086.87 529.822 1088.65 531.276 1090.45 532.726C1107.35 546.333 1125.12 558.828 1143.65 570.133C1171.78 587.294 1200.59 603.482 1218.57 632.301C1247.27 678.235 1223.07 728.243 1191.6 765.635Z" fill="black"/>
<path d="M1207.44 764.48C1215.96 771.565 1224.88 778.162 1234.15 784.24C1252.22 785.456 1244.12 807.298 1244.12 807.298L1228.64 817.254C1228.64 817.254 1202.15 796.202 1187.68 789.378C1173.21 782.553 1207.44 764.48 1207.44 764.48Z" fill="white"/>
<path opacity="0.3" d="M1079.02 534.504C1079.02 534.504 1076.54 509.986 1072.59 503.101L1012.58 490.88V486.229C1012.58 486.229 1013.96 478.142 1000.58 473.081C987.208 468.019 959.331 474.601 952.141 480.042C944.952 485.484 947.581 494.847 947.581 494.847C947.581 494.847 923.413 507.053 912.561 511.704C903.677 515.803 895.016 520.369 886.614 525.384C886.614 525.384 881.689 581.746 882.662 594.833C883.635 607.92 881.872 620.232 882.997 627.482C884.121 634.733 885.003 638.852 892.603 645.023C900.203 651.194 907.119 660.223 927.046 651.27L924.265 649.066L1055.44 604.88L1079.02 534.504Z" fill="black"/>
<path d="M1079.02 534.504C1079.02 534.504 1076.54 509.986 1072.59 503.101L1012.58 490.88V486.229C1012.58 486.229 1013.96 478.142 1000.58 473.081C987.208 468.019 959.331 474.601 952.141 480.042C944.952 485.484 947.581 494.847 947.581 494.847C947.581 494.847 923.413 507.053 912.561 511.704C903.677 515.803 895.016 520.369 886.614 525.384C886.614 525.384 881.689 581.746 882.662 594.833C883.635 607.92 881.872 620.232 882.997 627.482C884.121 634.733 885.003 638.852 892.603 645.023C900.203 651.194 907.119 660.223 927.046 651.27L924.265 649.066L1055.44 604.88L1079.02 534.504Z" fill="#92E3A9"/>
<path opacity="0.05" d="M1079.02 534.504C1079.02 534.504 1076.54 509.986 1072.59 503.101L1012.58 490.88V486.229C1012.58 486.229 1013.96 478.142 1000.58 473.081C987.208 468.019 959.331 474.601 952.141 480.042C944.952 485.484 947.581 494.847 947.581 494.847C947.581 494.847 923.413 507.053 912.561 511.704C903.677 515.803 895.016 520.369 886.614 525.384C886.614 525.384 881.689 581.746 882.662 594.833C883.635 607.92 881.872 620.232 882.997 627.482C884.121 634.733 885.003 638.852 892.603 645.023C900.203 651.194 907.119 660.223 927.046 651.27L924.265 649.066L1055.44 604.88L1079.02 534.504Z" fill="black"/>
<path opacity="0.1" d="M1073.38 506.08H1048.27C1045.91 506.084 1043.62 506.924 1041.82 508.452C1040.02 509.979 1038.82 512.096 1038.43 514.425L1026.06 588.905C1026.06 588.905 1009.02 590.318 996.951 599.119C984.883 607.92 955.197 545.129 908.29 545.098C908.29 545.098 921.787 575.954 924.782 600.578C924.782 600.578 895.461 597.386 890.597 608.862C885.733 620.338 892.801 641.846 905.204 633.517C917.607 625.187 929.281 611.294 937.565 620.08C945.849 628.866 982.861 633.593 982.861 633.593L1039.82 604.88L1061.9 594.498L1073.38 506.08Z" fill="black"/>
<path opacity="0.4" d="M993.653 469.159C993.653 469.159 1007.91 473.111 1010.22 477.899C1012.53 482.687 1012.29 494.802 1012.29 494.802C1008.83 502.898 1003.59 510.11 996.951 515.899L986.311 494.802L987.269 518.726C987.269 518.726 967.083 515.367 958.51 508.922L949.953 502.462C949.953 502.462 946.259 490.302 946.791 486.183C947.323 482.064 962.721 473.704 962.721 473.704L993.653 469.159Z" fill="white"/>
<path d="M1231.14 838.078C1230.74 837.212 1236.99 826.177 1232.09 814.944C1227.2 803.711 1219.4 808.043 1219.4 808.043C1219.4 808.043 1197.2 793.907 1187.86 789.438C1181.14 786.061 1174.66 782.211 1168.48 777.917L1158.62 791.202L1167.74 819.413L1231.14 838.078Z" fill="#92E3A9"/>
<path d="M1218.6 807.359L1247.11 824.778C1247.11 824.778 1267.16 811.919 1276.72 803.042C1286.28 794.166 1307.76 775.257 1307.76 775.257L1321.44 756.85C1321.44 756.85 1311.96 745.115 1296.15 754.539C1275.72 766.699 1250.81 784.362 1234.19 784.194C1234.19 784.194 1237.46 804.608 1218.7 807.359" fill="#92E3A9"/>
<path d="M988.819 395.47C988.819 395.47 1001.75 415.047 1004.11 421.386C1006.47 427.724 1008.37 437.102 1007.9 441.617C1007.42 446.131 1002.68 470.314 1000.3 471.014L998 473.613L999.52 483.858C999.52 483.858 989.397 501.353 959.635 488.524C959.635 488.524 958.48 468.095 954.863 461.681C951.245 455.266 945.834 462.897 940.407 444.368C934.981 425.839 952.263 406.368 952.263 406.368L988.819 395.47Z" fill="white"/>
<path opacity="0.5" d="M1309.02 751.134C1309.02 751.134 1294.35 753.688 1289.6 762.367C1284.84 771.046 1275.7 787.173 1272.59 794.971C1269.47 802.769 1243.71 821.601 1243.71 821.601L1247.13 824.778C1247.13 824.778 1268.1 811.813 1280.77 799.485C1293.43 787.158 1321.35 756.15 1321.35 756.15C1321.35 756.15 1319.34 754.159 1309.02 751.134Z" fill="white"/>
<path opacity="0.5" d="M1162.25 786.322L1158.62 791.201L1169.77 814.336L1231.14 836.391L1233.98 827.408C1233.98 827.408 1234.92 818.288 1213.38 811.357C1191.85 804.425 1178.71 799.85 1172.59 795.093C1166.46 790.335 1162.25 786.322 1162.25 786.322Z" fill="white"/>
<path d="M959.681 614.501C959.681 614.501 940.894 611.674 932.123 627.041C923.353 642.409 924.25 649.066 924.25 649.066C924.25 649.066 936.668 660.345 953.738 659.706C970.807 659.068 995.659 639.521 1003.76 633.152C1011.86 626.783 1032.29 608.558 1046.23 612.328L1047.75 599.15C1047.75 599.15 1046.38 593.237 1034.46 594.833C1022.55 596.429 1017.87 603.223 1014.02 603.223C1010.18 603.223 1006.54 599.53 998.821 612.723C998.806 612.723 971.704 617.526 959.681 614.501Z" fill="white"/>
<path d="M984.092 423.62C984.492 426.083 985.061 428.516 985.794 430.901C986.069 432.065 986.587 433.158 987.314 434.108C988.743 435.628 991.053 436.023 993.166 436.342C993.515 436.367 993.846 436.506 994.109 436.738C994.279 437.01 994.359 437.329 994.337 437.65C994.324 440.044 993.605 442.381 992.269 444.368" stroke="#263238" stroke-width="1.52" stroke-linecap="round" stroke-linejoin="round"/>
<path opacity="0.1" d="M1174.85 770.56L1162.25 786.262C1162.25 786.262 1176.08 799.045 1190.4 803.787C1204.72 808.53 1229.78 817.467 1233.98 824.353L1232.37 816.16C1232.37 816.16 1193.17 792.114 1184.17 786.368C1181.51 784.623 1179.28 782.29 1177.67 779.549C1176.05 776.808 1175.09 773.733 1174.85 770.56Z" fill="black"/>
<path opacity="0.1" d="M1218.6 807.359L1243.69 821.601C1243.69 821.601 1256.08 813.12 1262.16 806.873C1268.24 800.625 1275.73 793.694 1280.4 779.695C1286.77 760.345 1305.01 751.134 1305.01 751.134C1305.01 751.134 1279.64 763.081 1266.43 772.414C1253.22 781.747 1240.35 785.699 1232.87 785.061C1232.79 785.106 1238.8 804.106 1218.6 807.359Z" fill="black"/>
<path d="M975.246 447.818C975.246 447.818 985.111 455.555 995.355 452.652C995.355 452.652 985.688 471.804 975.246 447.818Z" fill="white" stroke="#263238" stroke-width="1.52" stroke-linecap="round" stroke-linejoin="round"/>
<path d="M974.881 431.098C975.17 433.226 974.516 435.066 973.452 435.218C972.388 435.37 971.278 433.698 970.99 431.615C970.701 429.533 971.339 427.648 972.418 427.496C973.498 427.344 974.653 428.97 974.881 431.098Z" fill="#263238"/>
<path d="M996.358 427.222C996.632 429.366 995.994 431.205 994.93 431.342C993.866 431.478 992.741 429.822 992.467 427.754C992.194 425.687 992.817 423.772 993.896 423.635C994.975 423.498 996.07 425.094 996.358 427.222Z" fill="#263238"/>
<path d="M973.361 422.07C973.361 422.07 967.615 419.106 963.526 425.459" stroke="#263238" stroke-width="1.52" stroke-linecap="round" stroke-linejoin="round"/>
<path d="M988.089 418.118C988.089 418.118 994.169 412.904 997.68 418.118" stroke="#263238" stroke-width="1.52" stroke-linecap="round" stroke-linejoin="round"/>
<path d="M953.844 441.632C953.844 441.632 950.15 436.175 946.244 436.342C942.337 436.51 940.787 441.982 942.185 447.271C943.584 452.561 949.405 459.948 953.813 459.249C956.3 458.928 958.568 457.666 960.152 455.722" stroke="#263238" stroke-width="1.52" stroke-linecap="round" stroke-linejoin="round"/>
<path d="M989.26 399.878C993.409 403.328 997.802 407.082 999.9 412.159C1001.75 416.476 1002.16 421.279 1003.87 425.642C1005.68 430.308 1007.65 435.187 1007.8 440.279C1007.72 444.99 1007.11 449.677 1005.96 454.248C1005.33 458.212 1004.39 462.12 1003.15 465.937C1001.1 471.394 997.316 474.753 992.239 477.337C988.545 479.222 982.389 481.897 978.392 479.374C976.066 477.854 972.57 473.506 969.667 469.509" stroke="#263238" stroke-width="1.52" stroke-linecap="round" stroke-linejoin="round"/>
<path d="M953.844 459.249C953.844 459.249 960.38 475.27 958.799 486.533" stroke="#263238" stroke-width="1.52" stroke-linecap="round" stroke-linejoin="round"/>
<path d="M952.172 438.942C953.042 438.298 953.731 437.441 954.173 436.453C954.615 435.465 954.795 434.38 954.695 433.302C954.452 430.84 952.75 428.56 953.084 426.098C953.364 424.918 953.804 423.783 954.391 422.723C955.277 420.678 955.666 418.453 955.529 416.229C955.392 414.005 954.731 411.845 953.601 409.925C953.601 409.925 974.364 410.898 984.092 404.711C993.82 398.525 1001.24 382.702 995.355 375.147C989.473 367.593 978.012 377.898 969.515 379.038C961.019 380.178 930.801 384.997 925.983 396.64C921.164 408.283 928.506 412.463 928.734 423.574C928.962 434.686 928.962 455.738 945.575 453.807C945.575 453.807 939.359 445.766 943.675 437.482C946.609 434.002 952.172 438.942 952.172 438.942Z" fill="#263238"/>
<path d="M992.892 388.28C995.712 390.476 998.049 393.228 999.759 396.366C1001.47 399.504 1002.52 402.96 1002.83 406.52C1003.76 414.85 1018.53 431.038 1007.88 440.264C1007.88 440.264 1005.4 430.46 1003.94 425.626C1002.48 420.793 1000.61 411.946 998.167 408.906C995.719 405.866 982.739 395.226 982.739 395.226L992.892 388.28Z" fill="#263238"/>
<path d="M955.759 486.183C955.759 486.183 966.004 492.932 985.034 493.206L987.268 518.726C987.268 518.726 965.867 517.1 949.952 502.462C949.952 502.462 945.651 491.078 946.791 486.183C947.931 481.289 958.16 476.44 958.16 476.44" stroke="#263238" stroke-width="1.52" stroke-linecap="round" stroke-linejoin="round"/>
<path d="M998.805 474.768L999.413 483.888C995.401 488.067 990.481 491.265 985.034 493.236L996.951 515.93C996.951 515.93 1011.16 504.864 1012.58 493.236C1012.58 493.236 1012.7 481.334 1010.22 477.93C1007.74 474.525 998.714 472.929 998.714 472.929" stroke="#263238" stroke-width="1.52" stroke-linecap="round" stroke-linejoin="round"/>
<path opacity="0.8" d="M941.136 404.24C942.656 400.425 946.821 398.16 950.88 397.552C954.938 396.944 959.103 397.37 963.207 397.263C968.89 397.217 974.455 395.642 979.319 392.703C981.735 391.231 983.838 389.298 985.508 387.013C987.177 384.729 988.379 382.138 989.047 379.388" stroke="white" stroke-width="1.52" stroke-linecap="round" stroke-linejoin="round"/>
<path opacity="0.8" d="M931.332 403.495C933.901 395.698 942.231 390.879 950.423 390.195C954.482 389.846 958.586 390.317 962.583 389.846C966.581 389.374 970.837 387.702 972.95 384.222" stroke="white" stroke-width="1.52" stroke-linecap="round" stroke-linejoin="round"/>
<path d="M927.016 651.27C907.256 661.515 900.233 650.966 889.229 642.242C878.224 633.517 885.444 617.922 883.149 592.918C880.853 567.914 886.569 525.384 886.569 525.384C886.569 525.384 891.493 524.259 905.158 515.899C918.823 507.539 947.581 494.802 947.581 494.802" stroke="#263238" stroke-width="1.52" stroke-linecap="round" stroke-linejoin="round"/>
<path d="M946.593 613.422C946.593 613.422 943.462 603.497 934.616 603.238C925.769 602.98 911.816 606.962 901.875 625.765" stroke="#263238" stroke-width="1.52" stroke-linecap="round" stroke-linejoin="round"/>
<path d="M932.594 602.646C932.044 602.61 931.505 602.481 930.998 602.266C923.705 599.641 915.79 599.281 908.289 601.232" stroke="#263238" stroke-width="1.52" stroke-linecap="round" stroke-linejoin="round"/>
<path d="M903.198 538.958C919.294 556.742 927.138 580.271 934.57 603.071" stroke="#263238" stroke-width="1.52" stroke-linecap="round" stroke-linejoin="round"/>
<path d="M1012.58 490.88C1012.58 490.88 1041.76 497.842 1056.02 499.498C1070.28 501.155 1072.59 503.146 1072.59 503.146L1075.25 513.087" stroke="#263238" stroke-width="1.52" stroke-linecap="round" stroke-linejoin="round"/>
<path d="M1148.57 508.178L1049.18 511.993L1041.06 614.213H1058.09L1144.39 594.894L1155.24 510.625L1148.57 508.178Z" fill="white"/>
<path d="M1046.23 617.238L1154.94 513.042L1144.39 594.894L1046.23 617.238Z" fill="#92E3A9"/>
<path opacity="0.7" d="M1046.23 617.238L1154.94 513.042L1144.39 594.894L1046.23 617.238Z" fill="white"/>
<path d="M1046.23 614.502L1054.92 515.899L1155.24 510.625L1144.39 594.894L1046.23 614.502Z" stroke="#263238" stroke-width="1.52" stroke-linecap="round" stroke-linejoin="round"/>
<path d="M1112.96 558.398C1112.29 564.402 1109.08 568.962 1105.8 568.598C1102.51 568.233 1100.42 563.05 1101.09 557.046C1101.75 551.042 1104.98 546.482 1108.26 546.846C1111.54 547.211 1113.64 552.394 1112.96 558.398Z" fill="#263238"/>
<path d="M1144.39 594.894C1144.39 594.894 1190.33 593.586 1204.69 603.071C1219.05 612.556 1227.49 660.117 1225.5 685.379C1223.51 710.642 1206.18 768.614 1206.18 768.614L1172.98 731.04C1172.98 731.04 1156.63 671.578 1165.55 648.291C1165.55 648.291 1121.47 650.769 1104.11 645.327C1104.11 645.327 1088.56 619.867 1061.9 611.446L1144.39 594.894Z" fill="#263238"/>
<path d="M1213.19 769.602C1201.4 758.595 1190.81 746.367 1181.6 733.122C1165.53 708.301 1143.33 684.482 1120.48 665.893C1102.07 650.966 1097.91 626.646 1075.2 614.441C1037.58 594.27 1005.05 634.353 992.892 642.47C980.732 650.586 959.68 659.782 959.68 659.782C959.68 659.782 967.372 688.662 989.959 692.082C1012.55 695.502 1035.39 679.922 1046.2 687.446C1057.01 694.97 1065 728.562 1100.69 748.246C1129.86 764.328 1169.61 780.014 1190.11 790.594C1194.67 792.965 1198.08 795.458 1200.66 796.871C1207.74 800.732 1215.31 805.277 1222.46 809.776L1247.07 824.763C1247.07 824.763 1271.77 810.156 1281.25 796.689C1282.51 794.88 1285.14 790.062 1287.61 785.41C1292.97 775.242 1299.77 766.122 1309.17 761.09C1315.68 757.579 1321.47 756.53 1321.33 756.166C1320.71 755.01 1308.92 748.976 1300.91 752.274C1283.94 759.282 1250.03 786.201 1234.03 784.194C1226.58 780.084 1219.59 775.192 1213.19 769.602V769.602Z" stroke="#263238" stroke-width="1.52" stroke-miterlimit="10"/>
<path d="M1213.19 769.602C1198.4 775.576 1192.44 784.802 1190.16 790.609C1169.65 779.969 1129.91 764.343 1100.74 748.262C1065.05 728.502 1057.11 694.97 1046.24 687.462C1035.38 679.953 1012.52 695.578 990.004 692.098C967.493 688.617 959.68 659.767 959.68 659.767C959.68 659.767 980.748 650.647 992.908 642.53C1005.07 634.414 1033.11 594.316 1075.2 614.502C1098.44 625.643 1102.07 650.982 1120.48 665.954C1143.28 684.482 1165.53 708.362 1181.6 733.183C1190.78 746.426 1201.37 758.637 1213.19 769.602Z" fill="#263238"/>
<path d="M1102.04 640.737C1102.04 640.737 1090.66 617.602 1072.4 613.118" stroke="white" stroke-width="1.52" stroke-linecap="round" stroke-linejoin="round"/>
<path d="M1042.37 594.681C1029.81 591.945 1016.03 605.822 1010.22 603.223C1005.9 601.293 998.805 612.723 998.805 612.723C987.121 614.41 975.306 615.006 963.511 614.502C946.593 613.422 938.583 616.721 932.594 625.765L924.234 647.911C924.234 647.911 946.289 667.671 969.834 656.165C993.379 644.658 1024.66 609.942 1046.21 610.063" stroke="#263238" stroke-width="1.52" stroke-linecap="round" stroke-linejoin="round"/>
<path d="M1217.64 806.766C1217.64 806.766 1238.25 808.454 1233.42 783.83" stroke="#263238" stroke-width="1.52" stroke-miterlimit="10"/>
<path d="M1314.77 768.614C1313.25 771.654 1294.35 787.736 1278.08 801.796C1278.08 801.583 1282.64 792.995 1284.52 789.332C1288.85 781.246 1300.04 759.069 1321.33 756.15C1324.36 757.974 1314.77 768.614 1314.77 768.614Z" fill="#263238"/>
<path d="M1306.67 751.302C1285.13 755.588 1280.23 783.222 1272.59 794.971C1264.94 806.721 1243.71 822.696 1243.71 822.696" stroke="#263238" stroke-width="1.52" stroke-miterlimit="10"/>
<path d="M1232.09 815.643C1235.61 822.058 1233.95 829.506 1232.09 834.172C1231.19 836.49 1230.06 838.714 1228.72 840.814C1198.23 835.798 1167.74 819.413 1167.74 819.413L1159.88 795.093L1158.62 791.202L1170.46 775.257" stroke="#263238" stroke-width="1.52" stroke-miterlimit="10"/>
<path d="M1232.09 834.172C1231.19 836.49 1230.06 838.714 1228.72 840.814C1198.23 835.798 1167.74 819.413 1167.74 819.413L1159.88 795.093C1163.82 800.23 1171.11 807.754 1182.06 810.84C1196.91 815.05 1224.31 819.975 1232.09 834.172Z" fill="#263238"/>
<path d="M1041.06 610.656L1049.18 511.993L1148.57 508.178L1155.24 510.625" stroke="#263238" stroke-width="1.52" stroke-linecap="round" stroke-linejoin="round"/>
<path d="M1233.28 794.971C1233.28 794.971 1246.87 797.403 1257.31 788.891C1267.75 780.379 1284.58 761.121 1284.58 761.121" stroke="#263238" stroke-width="1.52" stroke-miterlimit="10"/>
<path d="M1247.11 782.72C1247.11 782.72 1243.83 787.66 1247.11 797.57" stroke="#263238" stroke-width="1.52" stroke-linecap="round" stroke-linejoin="round"/>
<path d="M1256.75 777.993C1255.26 782.919 1255.7 788.23 1257.98 792.843" stroke="#263238" stroke-width="1.52" stroke-linecap="round" stroke-linejoin="round"/>
<path d="M1268.24 771.335C1268.24 771.335 1265.49 779.589 1268.24 786.87" stroke="#263238" stroke-width="1.52" stroke-linecap="round" stroke-linejoin="round"/>
<path d="M1173.15 773.205L1162.25 786.322C1162.25 786.322 1173.23 798.315 1188.71 803.301C1204.2 808.286 1231.87 816.753 1234.16 825.766" stroke="#263238" stroke-width="1.52" stroke-miterlimit="10"/>
<path d="M1105.1 554C1104.49 554 1104 554.485 1104 555.083V561.917C1104 562.515 1104.49 563 1105.1 563C1105.71 563 1106.2 562.515 1106.2 561.917V555.083C1106.2 554.485 1105.71 554 1105.1 554Z" fill="#6FCF97"/>
<path d="M1108.08 556.864C1107.53 556.864 1107.08 557.305 1107.08 557.849V560.221C1107.08 560.765 1107.53 561.206 1108.08 561.206C1108.63 561.206 1109.08 560.765 1109.08 560.221V557.849C1109.08 557.305 1108.63 556.864 1108.08 556.864Z" fill="#6FCF97"/>
<path d="M1107.08 555.394C1107.08 554.85 1107.53 554.409 1108.08 554.409C1108.63 554.409 1109.08 554.85 1109.08 555.394V555.595C1109.08 556.139 1108.63 556.581 1108.08 556.581C1107.53 556.581 1107.08 556.139 1107.08 555.595V555.394Z" fill="#6FCF97"/>
<path d="M1111 557.366C1110.45 557.366 1110 557.807 1110 558.351V558.552C1110 559.096 1110.45 559.537 1111 559.537C1111.55 559.537 1112 559.096 1112 558.552V558.351C1112 557.807 1111.55 557.366 1111 557.366Z" fill="#6FCF97"/>
<rect x="614.955" y="58" width="13.5365" height="41.5979" rx="6.76825" fill="#6FCF97"/>
<path d="M633.906 77.3943C633.906 73.993 636.663 71.2357 640.065 71.2357V71.2357C643.466 71.2357 646.223 73.993 646.223 77.3943V85.1495C646.223 88.5508 643.466 91.3081 640.065 91.3081V91.3081C636.663 91.3081 633.906 88.5508 633.906 85.1495V77.3943Z" fill="#27AE60"/>
<rect x="633.906" y="59.8909" width="12.3172" height="10.0362" rx="5.0181" fill="#27AE60"/>
<rect x="651.863" y="73.5574" width="12.3172" height="10.0362" rx="5.0181" fill="#6FCF97"/>
</g>
<defs>
<filter id="filter0_d" x="-55.9559" y="672.034" width="549.293" height="595.581" filterUnits="userSpaceOnUse" color-interpolation-filters="sRGB">
<feFlood flood-opacity="0" result="BackgroundImageFix"/>
<feColorMatrix in="SourceAlpha" type="matrix" values="0 0 0 0 0 0 0 0 0 0 0 0 0 0 0 0 0 0 127 0" result="hardAlpha"/>
<feOffset dx="20.4354" dy="20.4354"/>
<feGaussianBlur stdDeviation="28.2009"/>
<feColorMatrix type="matrix" values="0 0 0 0 0 0 0 0 0 0 0 0 0 0 0 0 0 0 0.04 0"/>
<feBlend mode="normal" in2="BackgroundImageFix" result="effect1_dropShadow"/>
<feBlend mode="normal" in="SourceGraphic" in2="effect1_dropShadow" result="shape"/>
</filter>
<filter id="filter1_d" x="-75.9559" y="672.034" width="549.293" height="595.581" filterUnits="userSpaceOnUse" color-interpolation-filters="sRGB">
<feFlood flood-opacity="0" result="BackgroundImageFix"/>
<feColorMatrix in="SourceAlpha" type="matrix" values="0 0 0 0 0 0 0 0 0 0 0 0 0 0 0 0 0 0 127 0" result="hardAlpha"/>
<feOffset dx="20.4354" dy="20.4354"/>
<feGaussianBlur stdDeviation="28.2009"/>
<feColorMatrix type="matrix" values="0 0 0 0 0 0 0 0 0 0 0 0 0 0 0 0 0 0 0.04 0"/>
<feBlend mode="normal" in2="BackgroundImageFix" result="effect1_dropShadow"/>
<feBlend mode="normal" in="SourceGraphic" in2="effect1_dropShadow" result="shape"/>
</filter>
<clipPath id="clip0">
<rect width="1440" height="900" rx="20" fill="white"/>
</clipPath>
</defs>
</svg>
