<svg width="1920" height="940" viewBox="0 0 1920 940" fill="none" xmlns="http://www.w3.org/2000/svg">
<g clip-path="url(#clip0)">
<rect width="1920" height="940" fill="#1D1D1D"/>
<g opacity="0.05">
<path opacity="0.91" d="M271.117 215.6C-64.0647 -78.1207 -182.262 86.9446 -190.528 99.525C-190.874 100.052 -190.997 100.599 -190.991 101.229L-187.061 524.113C-185.901 648.932 -85.271 751.256 36.5524 724.05C175.056 693.118 337.425 621.852 393.401 458.321C447.187 301.188 297.966 239.127 271.117 215.6Z" fill="#6FCF97"/>
</g>
<mask id="mask0" mask-type="alpha" maskUnits="userSpaceOnUse" x="-24" y="579" width="362" height="391">
<path opacity="0.69" d="M256.682 684.787C56.4857 509.57 -16.2673 603.485 -23.407 613.916C-23.834 614.54 -23.9963 615.221 -23.9893 615.977L-22.8363 739.878C-21.4447 889.426 109.604 1024.65 236.673 945.783C278.152 920.038 313.283 883.596 330.955 832.031C363.623 736.708 272.99 699.06 256.682 684.787Z" fill="#25356A" fill-opacity="0.35"/>
</mask>
<g mask="url(#mask0)">
<circle cx="-4.95336" cy="574.547" r="5.07203" fill="#25356A" fill-opacity="0.35"/>
<circle cx="11.9534" cy="574.547" r="5.07203" fill="#25356A" fill-opacity="0.35"/>
<circle cx="28.8601" cy="574.547" r="5.07203" fill="#25356A" fill-opacity="0.35"/>
<circle cx="45.767" cy="574.547" r="5.07203" fill="#25356A" fill-opacity="0.35"/>
<circle cx="62.6737" cy="574.547" r="5.07203" fill="#25356A" fill-opacity="0.35"/>
<circle cx="79.5806" cy="574.547" r="5.07203" fill="#25356A" fill-opacity="0.35"/>
<circle cx="96.4873" cy="574.547" r="5.07203" fill="#25356A" fill-opacity="0.35"/>
<circle cx="113.394" cy="574.547" r="5.07203" fill="#25356A" fill-opacity="0.35"/>
<circle cx="130.301" cy="574.547" r="5.07203" fill="#25356A" fill-opacity="0.35"/>
<circle cx="147.208" cy="574.547" r="5.07203" fill="#25356A" fill-opacity="0.35"/>
<circle cx="164.114" cy="574.547" r="5.07203" fill="#25356A" fill-opacity="0.35"/>
<circle cx="181.021" cy="574.547" r="5.07203" fill="#25356A" fill-opacity="0.35"/>
<circle cx="197.928" cy="574.547" r="5.07203" fill="#25356A" fill-opacity="0.35"/>
<circle cx="214.835" cy="574.547" r="5.07203" fill="#25356A" fill-opacity="0.35"/>
<circle cx="231.741" cy="574.547" r="5.07203" fill="#25356A" fill-opacity="0.35"/>
<circle cx="248.648" cy="574.547" r="5.07203" fill="#25356A" fill-opacity="0.35"/>
<circle cx="265.555" cy="574.547" r="5.07203" fill="#25356A" fill-opacity="0.35"/>
<circle cx="282.462" cy="574.547" r="5.07203" fill="#25356A" fill-opacity="0.35"/>
<circle cx="299.369" cy="574.547" r="5.07203" fill="#25356A" fill-opacity="0.35"/>
<circle cx="316.275" cy="574.547" r="5.07203" fill="#25356A" fill-opacity="0.35"/>
<circle cx="333.182" cy="574.547" r="5.07203" fill="#25356A" fill-opacity="0.35"/>
<circle cx="11.9534" cy="591.454" r="5.07203" fill="#25356A" fill-opacity="0.35"/>
<circle cx="28.8601" cy="591.454" r="5.07203" fill="#25356A" fill-opacity="0.35"/>
<circle cx="45.767" cy="591.454" r="5.07203" fill="#25356A" fill-opacity="0.35"/>
<circle cx="62.6737" cy="591.454" r="5.07203" fill="#25356A" fill-opacity="0.35"/>
<circle cx="79.5806" cy="591.454" r="5.07203" fill="#25356A" fill-opacity="0.35"/>
<circle cx="130.301" cy="591.454" r="5.07203" fill="#25356A" fill-opacity="0.35"/>
<circle cx="147.208" cy="591.454" r="5.07203" fill="#25356A" fill-opacity="0.35"/>
<circle cx="164.114" cy="591.454" r="5.07203" fill="#25356A" fill-opacity="0.35"/>
<circle cx="181.021" cy="591.454" r="5.07203" fill="#25356A" fill-opacity="0.35"/>
<circle cx="197.928" cy="591.454" r="5.07203" fill="#25356A" fill-opacity="0.35"/>
<circle cx="214.835" cy="591.454" r="5.07203" fill="#25356A" fill-opacity="0.35"/>
<circle cx="231.741" cy="591.454" r="5.07203" fill="#25356A" fill-opacity="0.35"/>
<circle cx="248.648" cy="591.454" r="5.07203" fill="#25356A" fill-opacity="0.35"/>
<circle cx="265.555" cy="591.454" r="5.07203" fill="#25356A" fill-opacity="0.35"/>
<circle cx="282.462" cy="591.454" r="5.07203" fill="#25356A" fill-opacity="0.35"/>
<circle cx="299.369" cy="591.454" r="5.07203" fill="#25356A" fill-opacity="0.35"/>
<circle cx="316.275" cy="591.454" r="5.07203" fill="#25356A" fill-opacity="0.35"/>
<circle cx="333.182" cy="591.454" r="5.07203" fill="#25356A" fill-opacity="0.35"/>
<circle cx="-4.95336" cy="608.361" r="5.07203" fill="#25356A" fill-opacity="0.35"/>
<circle cx="11.9534" cy="608.361" r="5.07203" fill="#25356A" fill-opacity="0.35"/>
<circle cx="28.8601" cy="608.361" r="5.07203" fill="#25356A" fill-opacity="0.35"/>
<circle cx="45.767" cy="608.361" r="5.07203" fill="#25356A" fill-opacity="0.35"/>
<circle cx="62.6737" cy="608.361" r="5.07203" fill="#25356A" fill-opacity="0.35"/>
<circle cx="79.5806" cy="608.361" r="5.07203" fill="#25356A" fill-opacity="0.35"/>
<circle cx="96.4873" cy="608.361" r="5.07203" fill="#25356A" fill-opacity="0.35"/>
<circle cx="113.394" cy="608.361" r="5.07203" fill="#25356A" fill-opacity="0.35"/>
<circle cx="130.301" cy="608.361" r="5.07203" fill="#25356A" fill-opacity="0.35"/>
<circle cx="164.114" cy="608.361" r="5.07203" fill="#25356A" fill-opacity="0.35"/>
<circle cx="181.021" cy="608.361" r="5.07203" fill="#25356A" fill-opacity="0.35"/>
<circle cx="197.928" cy="608.361" r="5.07203" fill="#25356A" fill-opacity="0.35"/>
<circle cx="214.835" cy="608.361" r="5.07203" fill="#25356A" fill-opacity="0.35"/>
<circle cx="231.741" cy="608.361" r="5.07203" fill="#25356A" fill-opacity="0.35"/>
<circle cx="248.648" cy="608.361" r="5.07203" fill="#25356A" fill-opacity="0.35"/>
<circle cx="265.555" cy="608.361" r="5.07203" fill="#25356A" fill-opacity="0.35"/>
<circle cx="282.462" cy="608.361" r="5.07203" fill="#25356A" fill-opacity="0.35"/>
<circle cx="299.369" cy="608.361" r="5.07203" fill="#25356A" fill-opacity="0.35"/>
<circle cx="316.275" cy="608.361" r="5.07203" fill="#25356A" fill-opacity="0.35"/>
<circle cx="333.182" cy="608.361" r="5.07203" fill="#25356A" fill-opacity="0.35"/>
<circle cx="-4.95336" cy="625.267" r="5.07203" fill="#25356A" fill-opacity="0.35"/>
<circle cx="11.9534" cy="625.267" r="5.07203" fill="#25356A" fill-opacity="0.35"/>
<circle cx="28.8601" cy="625.267" r="5.07203" fill="#25356A" fill-opacity="0.35"/>
<circle cx="45.767" cy="625.267" r="5.07203" fill="#25356A" fill-opacity="0.35"/>
<circle cx="62.6737" cy="625.267" r="5.07203" fill="#25356A" fill-opacity="0.35"/>
<circle cx="79.5806" cy="625.267" r="5.07203" fill="#25356A" fill-opacity="0.35"/>
<circle cx="96.4873" cy="625.267" r="5.07203" fill="#25356A" fill-opacity="0.35"/>
<circle cx="113.394" cy="625.267" r="5.07203" fill="#25356A" fill-opacity="0.35"/>
<circle cx="130.301" cy="625.267" r="5.07203" fill="#25356A" fill-opacity="0.35"/>
<circle cx="147.208" cy="625.267" r="5.07203" fill="#25356A" fill-opacity="0.35"/>
<circle cx="164.114" cy="625.267" r="5.07203" fill="#25356A" fill-opacity="0.35"/>
<circle cx="197.928" cy="625.267" r="5.07203" fill="#25356A" fill-opacity="0.35"/>
<circle cx="214.835" cy="625.267" r="5.07203" fill="#25356A" fill-opacity="0.35"/>
<circle cx="231.741" cy="625.267" r="5.07203" fill="#25356A" fill-opacity="0.35"/>
<circle cx="248.648" cy="625.267" r="5.07203" fill="#25356A" fill-opacity="0.35"/>
<circle cx="265.555" cy="625.267" r="5.07203" fill="#25356A" fill-opacity="0.35"/>
<circle cx="282.462" cy="625.267" r="5.07203" fill="#25356A" fill-opacity="0.35"/>
<circle cx="299.369" cy="625.267" r="5.07203" fill="#25356A" fill-opacity="0.35"/>
<circle cx="316.275" cy="625.267" r="5.07203" fill="#25356A" fill-opacity="0.35"/>
<circle cx="333.182" cy="625.267" r="5.07203" fill="#25356A" fill-opacity="0.35"/>
<circle cx="-4.95336" cy="642.174" r="5.07203" fill="#25356A" fill-opacity="0.35"/>
<circle cx="11.9534" cy="642.174" r="5.07203" fill="#25356A" fill-opacity="0.35"/>
<circle cx="28.8601" cy="642.174" r="5.07203" fill="#25356A" fill-opacity="0.35"/>
<circle cx="45.767" cy="642.174" r="5.07203" fill="#25356A" fill-opacity="0.35"/>
<circle cx="62.6737" cy="642.174" r="5.07203" fill="#25356A" fill-opacity="0.35"/>
<circle cx="79.5806" cy="642.174" r="5.07203" fill="#25356A" fill-opacity="0.35"/>
<circle cx="96.4873" cy="642.174" r="5.07203" fill="#25356A" fill-opacity="0.35"/>
<circle cx="113.394" cy="642.174" r="5.07203" fill="#25356A" fill-opacity="0.35"/>
<circle cx="130.301" cy="642.174" r="5.07203" fill="#25356A" fill-opacity="0.35"/>
<circle cx="147.208" cy="642.174" r="5.07203" fill="#25356A" fill-opacity="0.35"/>
<circle cx="164.114" cy="642.174" r="5.07203" fill="#25356A" fill-opacity="0.35"/>
<circle cx="181.021" cy="642.174" r="5.07203" fill="#25356A" fill-opacity="0.35"/>
<circle cx="214.835" cy="642.174" r="5.07203" fill="#25356A" fill-opacity="0.35"/>
<circle cx="231.741" cy="642.174" r="5.07203" fill="#25356A" fill-opacity="0.35"/>
<circle cx="248.648" cy="642.174" r="5.07203" fill="#25356A" fill-opacity="0.35"/>
<circle cx="265.555" cy="642.174" r="5.07203" fill="#25356A" fill-opacity="0.35"/>
<circle cx="282.462" cy="642.174" r="5.07203" fill="#25356A" fill-opacity="0.35"/>
<circle cx="299.369" cy="642.174" r="5.07203" fill="#25356A" fill-opacity="0.35"/>
<circle cx="316.275" cy="642.174" r="5.07203" fill="#25356A" fill-opacity="0.35"/>
<circle cx="333.182" cy="642.174" r="5.07203" fill="#25356A" fill-opacity="0.35"/>
<circle cx="-4.95336" cy="659.081" r="5.07203" fill="#25356A" fill-opacity="0.35"/>
<circle cx="11.9534" cy="659.081" r="5.07203" fill="#25356A" fill-opacity="0.35"/>
<circle cx="28.8601" cy="659.081" r="5.07203" fill="#25356A" fill-opacity="0.35"/>
<circle cx="45.767" cy="659.081" r="5.07203" fill="#25356A" fill-opacity="0.35"/>
<circle cx="62.6737" cy="659.081" r="5.07203" fill="#25356A" fill-opacity="0.35"/>
<circle cx="79.5806" cy="659.081" r="5.07203" fill="#25356A" fill-opacity="0.35"/>
<circle cx="96.4873" cy="659.081" r="5.07203" fill="#25356A" fill-opacity="0.35"/>
<circle cx="113.394" cy="659.081" r="5.07203" fill="#25356A" fill-opacity="0.35"/>
<circle cx="130.301" cy="659.081" r="5.07203" fill="#25356A" fill-opacity="0.35"/>
<circle cx="147.208" cy="659.081" r="5.07203" fill="#25356A" fill-opacity="0.35"/>
<circle cx="164.114" cy="659.081" r="5.07203" fill="#25356A" fill-opacity="0.35"/>
<circle cx="181.021" cy="659.081" r="5.07203" fill="#25356A" fill-opacity="0.35"/>
<circle cx="197.928" cy="659.081" r="5.07203" fill="#25356A" fill-opacity="0.35"/>
<circle cx="214.835" cy="659.081" r="5.07203" fill="#25356A" fill-opacity="0.35"/>
<circle cx="248.648" cy="659.081" r="5.07203" fill="#25356A" fill-opacity="0.35"/>
<circle cx="265.555" cy="659.081" r="5.07203" fill="#25356A" fill-opacity="0.35"/>
<circle cx="282.462" cy="659.081" r="5.07203" fill="#25356A" fill-opacity="0.35"/>
<circle cx="299.369" cy="659.081" r="5.07203" fill="#25356A" fill-opacity="0.35"/>
<circle cx="316.275" cy="659.081" r="5.07203" fill="#25356A" fill-opacity="0.35"/>
<circle cx="333.182" cy="659.081" r="5.07203" fill="#25356A" fill-opacity="0.35"/>
<circle cx="-4.95336" cy="675.988" r="5.07203" fill="#25356A" fill-opacity="0.35"/>
<circle cx="11.9534" cy="675.988" r="5.07203" fill="#25356A" fill-opacity="0.35"/>
<circle cx="28.8601" cy="675.988" r="5.07203" fill="#25356A" fill-opacity="0.35"/>
<circle cx="45.767" cy="675.988" r="5.07203" fill="#25356A" fill-opacity="0.35"/>
<circle cx="62.6737" cy="675.988" r="5.07203" fill="#25356A" fill-opacity="0.35"/>
<circle cx="79.5806" cy="675.988" r="5.07203" fill="#25356A" fill-opacity="0.35"/>
<circle cx="96.4873" cy="675.988" r="5.07203" fill="#25356A" fill-opacity="0.35"/>
<circle cx="113.394" cy="675.988" r="5.07203" fill="#25356A" fill-opacity="0.35"/>
<circle cx="130.301" cy="675.988" r="5.07203" fill="#25356A" fill-opacity="0.35"/>
<circle cx="147.208" cy="675.988" r="5.07203" fill="#25356A" fill-opacity="0.35"/>
<circle cx="164.114" cy="675.988" r="5.07203" fill="#25356A" fill-opacity="0.35"/>
<circle cx="181.021" cy="675.988" r="5.07203" fill="#25356A" fill-opacity="0.35"/>
<circle cx="197.928" cy="675.988" r="5.07203" fill="#25356A" fill-opacity="0.35"/>
<circle cx="214.835" cy="675.988" r="5.07203" fill="#25356A" fill-opacity="0.35"/>
<circle cx="231.741" cy="675.988" r="5.07203" fill="#25356A" fill-opacity="0.35"/>
<circle cx="265.555" cy="675.988" r="5.07203" fill="#25356A" fill-opacity="0.35"/>
<circle cx="282.462" cy="675.988" r="5.07203" fill="#25356A" fill-opacity="0.35"/>
<circle cx="299.369" cy="675.988" r="5.07203" fill="#25356A" fill-opacity="0.35"/>
<circle cx="316.275" cy="675.988" r="5.07203" fill="#25356A" fill-opacity="0.35"/>
<circle cx="333.182" cy="675.988" r="5.07203" fill="#25356A" fill-opacity="0.35"/>
<circle cx="-4.95336" cy="692.895" r="5.07203" fill="#25356A" fill-opacity="0.35"/>
<circle cx="11.9534" cy="692.895" r="5.07203" fill="#25356A" fill-opacity="0.35"/>
<circle cx="28.8601" cy="692.895" r="5.07203" fill="#25356A" fill-opacity="0.35"/>
<circle cx="45.767" cy="692.895" r="5.07203" fill="#25356A" fill-opacity="0.35"/>
<circle cx="62.6737" cy="692.895" r="5.07203" fill="#25356A" fill-opacity="0.35"/>
<circle cx="79.5806" cy="692.895" r="5.07203" fill="#25356A" fill-opacity="0.35"/>
<circle cx="96.4873" cy="692.895" r="5.07203" fill="#25356A" fill-opacity="0.35"/>
<circle cx="113.394" cy="692.895" r="5.07203" fill="#25356A" fill-opacity="0.35"/>
<circle cx="130.301" cy="692.895" r="5.07203" fill="#25356A" fill-opacity="0.35"/>
<circle cx="147.208" cy="692.895" r="5.07203" fill="#25356A" fill-opacity="0.35"/>
<circle cx="164.114" cy="692.895" r="5.07203" fill="#25356A" fill-opacity="0.35"/>
<circle cx="181.021" cy="692.895" r="5.07203" fill="#25356A" fill-opacity="0.35"/>
<circle cx="197.928" cy="692.895" r="5.07203" fill="#25356A" fill-opacity="0.35"/>
<circle cx="214.835" cy="692.895" r="5.07203" fill="#25356A" fill-opacity="0.35"/>
<circle cx="231.741" cy="692.895" r="5.07203" fill="#25356A" fill-opacity="0.35"/>
<circle cx="248.648" cy="692.895" r="5.07203" fill="#25356A" fill-opacity="0.35"/>
<circle cx="282.462" cy="692.895" r="5.07203" fill="#25356A" fill-opacity="0.35"/>
<circle cx="299.369" cy="692.895" r="5.07203" fill="#25356A" fill-opacity="0.35"/>
<circle cx="316.275" cy="692.895" r="5.07203" fill="#25356A" fill-opacity="0.35"/>
<circle cx="333.182" cy="692.895" r="5.07203" fill="#25356A" fill-opacity="0.35"/>
<circle cx="-4.95336" cy="709.801" r="5.07203" fill="#25356A" fill-opacity="0.35"/>
<circle cx="11.9534" cy="709.801" r="5.07203" fill="#25356A" fill-opacity="0.35"/>
<circle cx="28.8601" cy="709.801" r="5.07203" fill="#25356A" fill-opacity="0.35"/>
<circle cx="45.767" cy="709.801" r="5.07203" fill="#25356A" fill-opacity="0.35"/>
<circle cx="62.6737" cy="709.801" r="5.07203" fill="#25356A" fill-opacity="0.35"/>
<circle cx="79.5806" cy="709.801" r="5.07203" fill="#25356A" fill-opacity="0.35"/>
<circle cx="96.4873" cy="709.801" r="5.07203" fill="#25356A" fill-opacity="0.35"/>
<circle cx="113.394" cy="709.801" r="5.07203" fill="#25356A" fill-opacity="0.35"/>
<circle cx="130.301" cy="709.801" r="5.07203" fill="#25356A" fill-opacity="0.35"/>
<circle cx="147.208" cy="709.801" r="5.07203" fill="#25356A" fill-opacity="0.35"/>
<circle cx="164.114" cy="709.801" r="5.07203" fill="#25356A" fill-opacity="0.35"/>
<circle cx="181.021" cy="709.801" r="5.07203" fill="#25356A" fill-opacity="0.35"/>
<circle cx="197.928" cy="709.801" r="5.07203" fill="#25356A" fill-opacity="0.35"/>
<circle cx="214.835" cy="709.801" r="5.07203" fill="#25356A" fill-opacity="0.35"/>
<circle cx="231.741" cy="709.801" r="5.07203" fill="#25356A" fill-opacity="0.35"/>
<circle cx="248.648" cy="709.801" r="5.07203" fill="#25356A" fill-opacity="0.35"/>
<circle cx="265.555" cy="709.801" r="5.07203" fill="#25356A" fill-opacity="0.35"/>
<circle cx="282.462" cy="709.801" r="5.07203" fill="#25356A" fill-opacity="0.35"/>
<circle cx="316.275" cy="709.801" r="5.07203" fill="#25356A" fill-opacity="0.35"/>
<circle cx="333.182" cy="709.801" r="5.07203" fill="#25356A" fill-opacity="0.35"/>
<circle cx="-4.95336" cy="726.708" r="5.07203" fill="#25356A" fill-opacity="0.35"/>
<circle cx="11.9534" cy="726.708" r="5.07203" fill="#25356A" fill-opacity="0.35"/>
<circle cx="28.8601" cy="726.708" r="5.07203" fill="#25356A" fill-opacity="0.35"/>
<circle cx="45.767" cy="726.708" r="5.07203" fill="#25356A" fill-opacity="0.35"/>
<circle cx="62.6737" cy="726.708" r="5.07203" fill="#25356A" fill-opacity="0.35"/>
<circle cx="79.5806" cy="726.708" r="5.07203" fill="#25356A" fill-opacity="0.35"/>
<circle cx="96.4873" cy="726.708" r="5.07203" fill="#25356A" fill-opacity="0.35"/>
<circle cx="113.394" cy="726.708" r="5.07203" fill="#25356A" fill-opacity="0.35"/>
<circle cx="130.301" cy="726.708" r="5.07203" fill="#25356A" fill-opacity="0.35"/>
<circle cx="147.208" cy="726.708" r="5.07203" fill="#25356A" fill-opacity="0.35"/>
<circle cx="164.114" cy="726.708" r="5.07203" fill="#25356A" fill-opacity="0.35"/>
<circle cx="181.021" cy="726.708" r="5.07203" fill="#25356A" fill-opacity="0.35"/>
<circle cx="197.928" cy="726.708" r="5.07203" fill="#25356A" fill-opacity="0.35"/>
<circle cx="214.835" cy="726.708" r="5.07203" fill="#25356A" fill-opacity="0.35"/>
<circle cx="231.741" cy="726.708" r="5.07203" fill="#25356A" fill-opacity="0.35"/>
<circle cx="248.648" cy="726.708" r="5.07203" fill="#25356A" fill-opacity="0.35"/>
<circle cx="265.555" cy="726.708" r="5.07203" fill="#25356A" fill-opacity="0.35"/>
<circle cx="282.462" cy="726.708" r="5.07203" fill="#25356A" fill-opacity="0.35"/>
<circle cx="299.369" cy="726.708" r="5.07203" fill="#25356A" fill-opacity="0.35"/>
<circle cx="333.182" cy="726.708" r="5.07203" fill="#25356A" fill-opacity="0.35"/>
<circle cx="-4.95336" cy="743.615" r="5.07203" fill="#25356A" fill-opacity="0.35"/>
<circle cx="11.9534" cy="743.615" r="5.07203" fill="#25356A" fill-opacity="0.35"/>
<circle cx="28.8601" cy="743.615" r="5.07203" fill="#25356A" fill-opacity="0.35"/>
<circle cx="45.767" cy="743.615" r="5.07203" fill="#25356A" fill-opacity="0.35"/>
<circle cx="62.6737" cy="743.615" r="5.07203" fill="#25356A" fill-opacity="0.35"/>
<circle cx="79.5806" cy="743.615" r="5.07203" fill="#25356A" fill-opacity="0.35"/>
<circle cx="96.4873" cy="743.615" r="5.07203" fill="#25356A" fill-opacity="0.35"/>
<circle cx="113.394" cy="743.615" r="5.07203" fill="#25356A" fill-opacity="0.35"/>
<circle cx="130.301" cy="743.615" r="5.07203" fill="#25356A" fill-opacity="0.35"/>
<circle cx="147.208" cy="743.615" r="5.07203" fill="#25356A" fill-opacity="0.35"/>
<circle cx="164.114" cy="743.615" r="5.07203" fill="#25356A" fill-opacity="0.35"/>
<circle cx="181.021" cy="743.615" r="5.07203" fill="#25356A" fill-opacity="0.35"/>
<circle cx="197.928" cy="743.615" r="5.07203" fill="#25356A" fill-opacity="0.35"/>
<circle cx="214.835" cy="743.615" r="5.07203" fill="#25356A" fill-opacity="0.35"/>
<circle cx="231.741" cy="743.615" r="5.07203" fill="#25356A" fill-opacity="0.35"/>
<circle cx="248.648" cy="743.615" r="5.07203" fill="#25356A" fill-opacity="0.35"/>
<circle cx="265.555" cy="743.615" r="5.07203" fill="#25356A" fill-opacity="0.35"/>
<circle cx="282.462" cy="743.615" r="5.07203" fill="#25356A" fill-opacity="0.35"/>
<circle cx="299.369" cy="743.615" r="5.07203" fill="#25356A" fill-opacity="0.35"/>
<circle cx="316.275" cy="743.615" r="5.07203" fill="#25356A" fill-opacity="0.35"/>
<circle cx="333.182" cy="743.615" r="5.07203" fill="#25356A" fill-opacity="0.35"/>
<circle cx="-4.95336" cy="760.521" r="5.07203" fill="#25356A" fill-opacity="0.35"/>
<circle cx="11.9534" cy="760.521" r="5.07203" fill="#25356A" fill-opacity="0.35"/>
<circle cx="28.8601" cy="760.521" r="5.07203" fill="#25356A" fill-opacity="0.35"/>
<circle cx="45.767" cy="760.521" r="5.07203" fill="#25356A" fill-opacity="0.35"/>
<circle cx="62.6737" cy="760.521" r="5.07203" fill="#25356A" fill-opacity="0.35"/>
<circle cx="79.5806" cy="760.521" r="5.07203" fill="#25356A" fill-opacity="0.35"/>
<circle cx="96.4873" cy="760.521" r="5.07203" fill="#25356A" fill-opacity="0.35"/>
<circle cx="113.394" cy="760.521" r="5.07203" fill="#25356A" fill-opacity="0.35"/>
<circle cx="130.301" cy="760.521" r="5.07203" fill="#25356A" fill-opacity="0.35"/>
<circle cx="147.208" cy="760.521" r="5.07203" fill="#25356A" fill-opacity="0.35"/>
<circle cx="164.114" cy="760.521" r="5.07203" fill="#25356A" fill-opacity="0.35"/>
<circle cx="181.021" cy="760.521" r="5.07203" fill="#25356A" fill-opacity="0.35"/>
<circle cx="197.928" cy="760.521" r="5.07203" fill="#25356A" fill-opacity="0.35"/>
<circle cx="214.835" cy="760.521" r="5.07203" fill="#25356A" fill-opacity="0.35"/>
<circle cx="231.741" cy="760.521" r="5.07203" fill="#25356A" fill-opacity="0.35"/>
<circle cx="248.648" cy="760.521" r="5.07203" fill="#25356A" fill-opacity="0.35"/>
<circle cx="265.555" cy="760.521" r="5.07203" fill="#25356A" fill-opacity="0.35"/>
<circle cx="282.462" cy="760.521" r="5.07203" fill="#25356A" fill-opacity="0.35"/>
<circle cx="299.369" cy="760.521" r="5.07203" fill="#25356A" fill-opacity="0.35"/>
<circle cx="316.275" cy="760.521" r="5.07203" fill="#25356A" fill-opacity="0.35"/>
<circle cx="-4.95336" cy="777.428" r="5.07203" fill="#25356A" fill-opacity="0.35"/>
<circle cx="11.9534" cy="777.428" r="5.07203" fill="#25356A" fill-opacity="0.35"/>
<circle cx="28.8601" cy="777.428" r="5.07203" fill="#25356A" fill-opacity="0.35"/>
<circle cx="45.767" cy="777.428" r="5.07203" fill="#25356A" fill-opacity="0.35"/>
<circle cx="62.6737" cy="777.428" r="5.07203" fill="#25356A" fill-opacity="0.35"/>
<circle cx="79.5806" cy="777.428" r="5.07203" fill="#25356A" fill-opacity="0.35"/>
<circle cx="96.4873" cy="777.428" r="5.07203" fill="#25356A" fill-opacity="0.35"/>
<circle cx="113.394" cy="777.428" r="5.07203" fill="#25356A" fill-opacity="0.35"/>
<circle cx="130.301" cy="777.428" r="5.07203" fill="#25356A" fill-opacity="0.35"/>
<circle cx="147.208" cy="777.428" r="5.07203" fill="#25356A" fill-opacity="0.35"/>
<circle cx="164.114" cy="777.428" r="5.07203" fill="#25356A" fill-opacity="0.35"/>
<circle cx="181.021" cy="777.428" r="5.07203" fill="#25356A" fill-opacity="0.35"/>
<circle cx="197.928" cy="777.428" r="5.07203" fill="#25356A" fill-opacity="0.35"/>
<circle cx="214.835" cy="777.428" r="5.07203" fill="#25356A" fill-opacity="0.35"/>
<circle cx="231.741" cy="777.428" r="5.07203" fill="#25356A" fill-opacity="0.35"/>
<circle cx="248.648" cy="777.428" r="5.07203" fill="#25356A" fill-opacity="0.35"/>
<circle cx="265.555" cy="777.428" r="5.07203" fill="#25356A" fill-opacity="0.35"/>
<circle cx="282.462" cy="777.428" r="5.07203" fill="#25356A" fill-opacity="0.35"/>
<circle cx="299.369" cy="777.428" r="5.07203" fill="#25356A" fill-opacity="0.35"/>
<circle cx="316.275" cy="777.428" r="5.07203" fill="#25356A" fill-opacity="0.35"/>
<circle cx="-4.95336" cy="794.335" r="5.07203" fill="#25356A" fill-opacity="0.35"/>
<circle cx="11.9534" cy="794.335" r="5.07203" fill="#25356A" fill-opacity="0.35"/>
<circle cx="28.8601" cy="794.335" r="5.07203" fill="#25356A" fill-opacity="0.35"/>
<circle cx="45.767" cy="794.335" r="5.07203" fill="#25356A" fill-opacity="0.35"/>
<circle cx="62.6737" cy="794.335" r="5.07203" fill="#25356A" fill-opacity="0.35"/>
<circle cx="79.5806" cy="794.335" r="5.07203" fill="#25356A" fill-opacity="0.35"/>
<circle cx="96.4873" cy="794.335" r="5.07203" fill="#25356A" fill-opacity="0.35"/>
<circle cx="113.394" cy="794.335" r="5.07203" fill="#25356A" fill-opacity="0.35"/>
<circle cx="130.301" cy="794.335" r="5.07203" fill="#25356A" fill-opacity="0.35"/>
<circle cx="147.208" cy="794.335" r="5.07203" fill="#25356A" fill-opacity="0.35"/>
<circle cx="164.114" cy="794.335" r="5.07203" fill="#25356A" fill-opacity="0.35"/>
<circle cx="181.021" cy="794.335" r="5.07203" fill="#25356A" fill-opacity="0.35"/>
<circle cx="197.928" cy="794.335" r="5.07203" fill="#25356A" fill-opacity="0.35"/>
<circle cx="214.835" cy="794.335" r="5.07203" fill="#25356A" fill-opacity="0.35"/>
<circle cx="231.741" cy="794.335" r="5.07203" fill="#25356A" fill-opacity="0.35"/>
<circle cx="248.648" cy="794.335" r="5.07203" fill="#25356A" fill-opacity="0.35"/>
<circle cx="265.555" cy="794.335" r="5.07203" fill="#25356A" fill-opacity="0.35"/>
<circle cx="282.462" cy="794.335" r="5.07203" fill="#25356A" fill-opacity="0.35"/>
<circle cx="299.369" cy="794.335" r="5.07203" fill="#25356A" fill-opacity="0.35"/>
<circle cx="316.275" cy="794.335" r="5.07203" fill="#25356A" fill-opacity="0.35"/>
<circle cx="333.182" cy="794.335" r="5.07203" fill="#25356A" fill-opacity="0.35"/>
<circle cx="-4.95336" cy="811.242" r="5.07203" fill="#25356A" fill-opacity="0.35"/>
<circle cx="11.9534" cy="811.242" r="5.07203" fill="#25356A" fill-opacity="0.35"/>
<circle cx="28.8601" cy="811.242" r="5.07203" fill="#25356A" fill-opacity="0.35"/>
<circle cx="45.767" cy="811.242" r="5.07203" fill="#25356A" fill-opacity="0.35"/>
<circle cx="62.6737" cy="811.242" r="5.07203" fill="#25356A" fill-opacity="0.35"/>
<circle cx="79.5806" cy="811.242" r="5.07203" fill="#25356A" fill-opacity="0.35"/>
<circle cx="96.4873" cy="811.242" r="5.07203" fill="#25356A" fill-opacity="0.35"/>
<circle cx="113.394" cy="811.242" r="5.07203" fill="#25356A" fill-opacity="0.35"/>
<circle cx="130.301" cy="811.242" r="5.07203" fill="#25356A" fill-opacity="0.35"/>
<circle cx="147.208" cy="811.242" r="5.07203" fill="#25356A" fill-opacity="0.35"/>
<circle cx="164.114" cy="811.242" r="5.07203" fill="#25356A" fill-opacity="0.35"/>
<circle cx="181.021" cy="811.242" r="5.07203" fill="#25356A" fill-opacity="0.35"/>
<circle cx="197.928" cy="811.242" r="5.07203" fill="#25356A" fill-opacity="0.35"/>
<circle cx="214.835" cy="811.242" r="5.07203" fill="#25356A" fill-opacity="0.35"/>
<circle cx="231.741" cy="811.242" r="5.07203" fill="#25356A" fill-opacity="0.35"/>
<circle cx="248.648" cy="811.242" r="5.07203" fill="#25356A" fill-opacity="0.35"/>
<circle cx="265.555" cy="811.242" r="5.07203" fill="#25356A" fill-opacity="0.35"/>
<circle cx="282.462" cy="811.242" r="5.07203" fill="#25356A" fill-opacity="0.35"/>
<circle cx="299.369" cy="811.242" r="5.07203" fill="#25356A" fill-opacity="0.35"/>
<circle cx="316.275" cy="811.242" r="5.07203" fill="#25356A" fill-opacity="0.35"/>
<circle cx="-4.95336" cy="828.149" r="5.07203" fill="#25356A" fill-opacity="0.35"/>
<circle cx="11.9534" cy="828.149" r="5.07203" fill="#25356A" fill-opacity="0.35"/>
<circle cx="28.8601" cy="828.149" r="5.07203" fill="#25356A" fill-opacity="0.35"/>
<circle cx="45.767" cy="828.149" r="5.07203" fill="#25356A" fill-opacity="0.35"/>
<circle cx="62.6737" cy="828.149" r="5.07203" fill="#25356A" fill-opacity="0.35"/>
<circle cx="79.5806" cy="828.149" r="5.07203" fill="#25356A" fill-opacity="0.35"/>
<circle cx="96.4873" cy="828.149" r="5.07203" fill="#25356A" fill-opacity="0.35"/>
<circle cx="113.394" cy="828.149" r="5.07203" fill="#25356A" fill-opacity="0.35"/>
<circle cx="130.301" cy="828.149" r="5.07203" fill="#25356A" fill-opacity="0.35"/>
<circle cx="147.208" cy="828.149" r="5.07203" fill="#25356A" fill-opacity="0.35"/>
<circle cx="164.114" cy="828.149" r="5.07203" fill="#25356A" fill-opacity="0.35"/>
<circle cx="181.021" cy="828.149" r="5.07203" fill="#25356A" fill-opacity="0.35"/>
<circle cx="197.928" cy="828.149" r="5.07203" fill="#25356A" fill-opacity="0.35"/>
<circle cx="214.835" cy="828.149" r="5.07203" fill="#25356A" fill-opacity="0.35"/>
<circle cx="231.741" cy="828.149" r="5.07203" fill="#25356A" fill-opacity="0.35"/>
<circle cx="248.648" cy="828.149" r="5.07203" fill="#25356A" fill-opacity="0.35"/>
<circle cx="265.555" cy="828.149" r="5.07203" fill="#25356A" fill-opacity="0.35"/>
<circle cx="282.462" cy="828.149" r="5.07203" fill="#25356A" fill-opacity="0.35"/>
<circle cx="299.369" cy="828.149" r="5.07203" fill="#25356A" fill-opacity="0.35"/>
<circle cx="316.275" cy="828.149" r="5.07203" fill="#25356A" fill-opacity="0.35"/>
<circle cx="-4.95336" cy="845.055" r="5.07203" fill="#25356A" fill-opacity="0.35"/>
<circle cx="11.9534" cy="845.055" r="5.07203" fill="#25356A" fill-opacity="0.35"/>
<circle cx="28.8601" cy="845.055" r="5.07203" fill="#25356A" fill-opacity="0.35"/>
<circle cx="45.767" cy="845.055" r="5.07203" fill="#25356A" fill-opacity="0.35"/>
<circle cx="62.6737" cy="845.055" r="5.07203" fill="#25356A" fill-opacity="0.35"/>
<circle cx="79.5806" cy="845.055" r="5.07203" fill="#25356A" fill-opacity="0.35"/>
<circle cx="96.4873" cy="845.055" r="5.07203" fill="#25356A" fill-opacity="0.35"/>
<circle cx="113.394" cy="845.055" r="5.07203" fill="#25356A" fill-opacity="0.35"/>
<circle cx="130.301" cy="845.055" r="5.07203" fill="#25356A" fill-opacity="0.35"/>
<circle cx="147.208" cy="845.055" r="5.07203" fill="#25356A" fill-opacity="0.35"/>
<circle cx="164.114" cy="845.055" r="5.07203" fill="#25356A" fill-opacity="0.35"/>
<circle cx="181.021" cy="845.055" r="5.07203" fill="#25356A" fill-opacity="0.35"/>
<circle cx="197.928" cy="845.055" r="5.07203" fill="#25356A" fill-opacity="0.35"/>
<circle cx="214.835" cy="845.055" r="5.07203" fill="#25356A" fill-opacity="0.35"/>
<circle cx="231.741" cy="845.055" r="5.07203" fill="#25356A" fill-opacity="0.35"/>
<circle cx="248.648" cy="845.055" r="5.07203" fill="#25356A" fill-opacity="0.35"/>
<circle cx="265.555" cy="845.055" r="5.07203" fill="#25356A" fill-opacity="0.35"/>
<circle cx="282.462" cy="845.055" r="5.07203" fill="#25356A" fill-opacity="0.35"/>
<circle cx="299.369" cy="845.055" r="5.07203" fill="#25356A" fill-opacity="0.35"/>
<circle cx="316.275" cy="845.055" r="5.07203" fill="#25356A" fill-opacity="0.35"/>
<circle cx="333.182" cy="845.055" r="5.07203" fill="#25356A" fill-opacity="0.35"/>
<circle cx="-4.95336" cy="861.962" r="5.07203" fill="#25356A" fill-opacity="0.35"/>
<circle cx="11.9534" cy="861.962" r="5.07203" fill="#25356A" fill-opacity="0.35"/>
<circle cx="28.8601" cy="861.962" r="5.07203" fill="#25356A" fill-opacity="0.35"/>
<circle cx="45.767" cy="861.962" r="5.07203" fill="#25356A" fill-opacity="0.35"/>
<circle cx="62.6737" cy="861.962" r="5.07203" fill="#25356A" fill-opacity="0.35"/>
<circle cx="79.5806" cy="861.962" r="5.07203" fill="#25356A" fill-opacity="0.35"/>
<circle cx="96.4873" cy="861.962" r="5.07203" fill="#25356A" fill-opacity="0.35"/>
<circle cx="113.394" cy="861.962" r="5.07203" fill="#25356A" fill-opacity="0.35"/>
<circle cx="130.301" cy="861.962" r="5.07203" fill="#25356A" fill-opacity="0.35"/>
<circle cx="147.208" cy="861.962" r="5.07203" fill="#25356A" fill-opacity="0.35"/>
<circle cx="164.114" cy="861.962" r="5.07203" fill="#25356A" fill-opacity="0.35"/>
<circle cx="181.021" cy="861.962" r="5.07203" fill="#25356A" fill-opacity="0.35"/>
<circle cx="197.928" cy="861.962" r="5.07203" fill="#25356A" fill-opacity="0.35"/>
<circle cx="214.835" cy="861.962" r="5.07203" fill="#25356A" fill-opacity="0.35"/>
<circle cx="231.741" cy="861.962" r="5.07203" fill="#25356A" fill-opacity="0.35"/>
<circle cx="248.648" cy="861.962" r="5.07203" fill="#25356A" fill-opacity="0.35"/>
<circle cx="265.555" cy="861.962" r="5.07203" fill="#25356A" fill-opacity="0.35"/>
<circle cx="282.462" cy="861.962" r="5.07203" fill="#25356A" fill-opacity="0.35"/>
<circle cx="299.369" cy="861.962" r="5.07203" fill="#25356A" fill-opacity="0.35"/>
<circle cx="316.275" cy="861.962" r="5.07203" fill="#25356A" fill-opacity="0.35"/>
<circle cx="333.182" cy="861.962" r="5.07203" fill="#25356A" fill-opacity="0.35"/>
<circle cx="-4.95336" cy="878.869" r="5.07203" fill="#25356A" fill-opacity="0.35"/>
<circle cx="11.9534" cy="878.869" r="5.07203" fill="#25356A" fill-opacity="0.35"/>
<circle cx="28.8601" cy="878.869" r="5.07203" fill="#25356A" fill-opacity="0.35"/>
<circle cx="45.767" cy="878.869" r="5.07203" fill="#25356A" fill-opacity="0.35"/>
<circle cx="62.6737" cy="878.869" r="5.07203" fill="#25356A" fill-opacity="0.35"/>
<circle cx="79.5806" cy="878.869" r="5.07203" fill="#25356A" fill-opacity="0.35"/>
<circle cx="96.4873" cy="878.869" r="5.07203" fill="#25356A" fill-opacity="0.35"/>
<circle cx="113.394" cy="878.869" r="5.07203" fill="#25356A" fill-opacity="0.35"/>
<circle cx="130.301" cy="878.869" r="5.07203" fill="#25356A" fill-opacity="0.35"/>
<circle cx="147.208" cy="878.869" r="5.07203" fill="#25356A" fill-opacity="0.35"/>
<circle cx="164.114" cy="878.869" r="5.07203" fill="#25356A" fill-opacity="0.35"/>
<circle cx="181.021" cy="878.869" r="5.07203" fill="#25356A" fill-opacity="0.35"/>
<circle cx="197.928" cy="878.869" r="5.07203" fill="#25356A" fill-opacity="0.35"/>
<circle cx="214.835" cy="878.869" r="5.07203" fill="#25356A" fill-opacity="0.35"/>
<circle cx="231.741" cy="878.869" r="5.07203" fill="#25356A" fill-opacity="0.35"/>
<circle cx="248.648" cy="878.869" r="5.07203" fill="#25356A" fill-opacity="0.35"/>
<circle cx="265.555" cy="878.869" r="5.07203" fill="#25356A" fill-opacity="0.35"/>
<circle cx="282.462" cy="878.869" r="5.07203" fill="#25356A" fill-opacity="0.35"/>
<circle cx="299.369" cy="878.869" r="5.07203" fill="#25356A" fill-opacity="0.35"/>
<circle cx="316.275" cy="878.869" r="5.07203" fill="#25356A" fill-opacity="0.35"/>
<circle cx="333.182" cy="878.869" r="5.07203" fill="#25356A" fill-opacity="0.35"/>
<circle cx="-4.95336" cy="895.776" r="5.07203" fill="#25356A" fill-opacity="0.35"/>
<circle cx="11.9534" cy="895.776" r="5.07203" fill="#25356A" fill-opacity="0.35"/>
<circle cx="28.8601" cy="895.776" r="5.07203" fill="#25356A" fill-opacity="0.35"/>
<circle cx="45.767" cy="895.776" r="5.07203" fill="#25356A" fill-opacity="0.35"/>
<circle cx="62.6737" cy="895.776" r="5.07203" fill="#25356A" fill-opacity="0.35"/>
<circle cx="79.5806" cy="895.776" r="5.07203" fill="#25356A" fill-opacity="0.35"/>
<circle cx="96.4873" cy="895.776" r="5.07203" fill="#25356A" fill-opacity="0.35"/>
<circle cx="113.394" cy="895.776" r="5.07203" fill="#25356A" fill-opacity="0.35"/>
<circle cx="130.301" cy="895.776" r="5.07203" fill="#25356A" fill-opacity="0.35"/>
<circle cx="147.208" cy="895.776" r="5.07203" fill="#25356A" fill-opacity="0.35"/>
<circle cx="164.114" cy="895.776" r="5.07203" fill="#25356A" fill-opacity="0.35"/>
<circle cx="181.021" cy="895.776" r="5.07203" fill="#25356A" fill-opacity="0.35"/>
<circle cx="197.928" cy="895.776" r="5.07203" fill="#25356A" fill-opacity="0.35"/>
<circle cx="214.835" cy="895.776" r="5.07203" fill="#25356A" fill-opacity="0.35"/>
<circle cx="231.741" cy="895.776" r="5.07203" fill="#25356A" fill-opacity="0.35"/>
<circle cx="248.648" cy="895.776" r="5.07203" fill="#25356A" fill-opacity="0.35"/>
<circle cx="265.555" cy="895.776" r="5.07203" fill="#25356A" fill-opacity="0.35"/>
<circle cx="282.462" cy="895.776" r="5.07203" fill="#25356A" fill-opacity="0.35"/>
<circle cx="299.369" cy="895.776" r="5.07203" fill="#25356A" fill-opacity="0.35"/>
<circle cx="316.275" cy="895.776" r="5.07203" fill="#25356A" fill-opacity="0.35"/>
<circle cx="333.182" cy="895.776" r="5.07203" fill="#25356A" fill-opacity="0.35"/>
<circle cx="-4.95336" cy="912.683" r="5.07203" fill="#25356A" fill-opacity="0.35"/>
<circle cx="11.9534" cy="912.683" r="5.07203" fill="#25356A" fill-opacity="0.35"/>
<circle cx="28.8601" cy="912.683" r="5.07203" fill="#25356A" fill-opacity="0.35"/>
<circle cx="45.767" cy="912.683" r="5.07203" fill="#25356A" fill-opacity="0.35"/>
<circle cx="62.6737" cy="912.683" r="5.07203" fill="#25356A" fill-opacity="0.35"/>
<circle cx="79.5806" cy="912.683" r="5.07203" fill="#25356A" fill-opacity="0.35"/>
<circle cx="96.4873" cy="912.683" r="5.07203" fill="#25356A" fill-opacity="0.35"/>
<circle cx="113.394" cy="912.683" r="5.07203" fill="#25356A" fill-opacity="0.35"/>
<circle cx="130.301" cy="912.683" r="5.07203" fill="#25356A" fill-opacity="0.35"/>
<circle cx="147.208" cy="912.683" r="5.07203" fill="#25356A" fill-opacity="0.35"/>
<circle cx="164.114" cy="912.683" r="5.07203" fill="#25356A" fill-opacity="0.35"/>
<circle cx="181.021" cy="912.683" r="5.07203" fill="#25356A" fill-opacity="0.35"/>
<circle cx="197.928" cy="912.683" r="5.07203" fill="#25356A" fill-opacity="0.35"/>
<circle cx="214.835" cy="912.683" r="5.07203" fill="#25356A" fill-opacity="0.35"/>
<circle cx="231.741" cy="912.683" r="5.07203" fill="#25356A" fill-opacity="0.35"/>
<circle cx="248.648" cy="912.683" r="5.07203" fill="#25356A" fill-opacity="0.35"/>
<circle cx="265.555" cy="912.683" r="5.07203" fill="#25356A" fill-opacity="0.35"/>
<circle cx="282.462" cy="912.683" r="5.07203" fill="#25356A" fill-opacity="0.35"/>
<circle cx="299.369" cy="912.683" r="5.07203" fill="#25356A" fill-opacity="0.35"/>
<circle cx="316.275" cy="912.683" r="5.07203" fill="#25356A" fill-opacity="0.35"/>
<circle cx="333.182" cy="912.683" r="5.07203" fill="#25356A" fill-opacity="0.35"/>
<circle cx="-4.95336" cy="929.589" r="5.07203" fill="#25356A" fill-opacity="0.35"/>
<circle cx="11.9534" cy="929.589" r="5.07203" fill="#25356A" fill-opacity="0.35"/>
<circle cx="28.8601" cy="929.589" r="5.07203" fill="#25356A" fill-opacity="0.35"/>
<circle cx="45.767" cy="929.589" r="5.07203" fill="#25356A" fill-opacity="0.35"/>
<circle cx="62.6737" cy="929.589" r="5.07203" fill="#25356A" fill-opacity="0.35"/>
<circle cx="79.5806" cy="929.589" r="5.07203" fill="#25356A" fill-opacity="0.35"/>
<circle cx="96.4873" cy="929.589" r="5.07203" fill="#25356A" fill-opacity="0.35"/>
<circle cx="113.394" cy="929.589" r="5.07203" fill="#25356A" fill-opacity="0.35"/>
<circle cx="130.301" cy="929.589" r="5.07203" fill="#25356A" fill-opacity="0.35"/>
<circle cx="147.208" cy="929.589" r="5.07203" fill="#25356A" fill-opacity="0.35"/>
<circle cx="164.114" cy="929.589" r="5.07203" fill="#25356A" fill-opacity="0.35"/>
<circle cx="181.021" cy="929.589" r="5.07203" fill="#25356A" fill-opacity="0.35"/>
<circle cx="197.928" cy="929.589" r="5.07203" fill="#25356A" fill-opacity="0.35"/>
<circle cx="214.835" cy="929.589" r="5.07203" fill="#25356A" fill-opacity="0.35"/>
<circle cx="231.741" cy="929.589" r="5.07203" fill="#25356A" fill-opacity="0.35"/>
<circle cx="248.648" cy="929.589" r="5.07203" fill="#25356A" fill-opacity="0.35"/>
<circle cx="265.555" cy="929.589" r="5.07203" fill="#25356A" fill-opacity="0.35"/>
<circle cx="282.462" cy="929.589" r="5.07203" fill="#25356A" fill-opacity="0.35"/>
<circle cx="299.369" cy="929.589" r="5.07203" fill="#25356A" fill-opacity="0.35"/>
<circle cx="316.275" cy="929.589" r="5.07203" fill="#25356A" fill-opacity="0.35"/>
<circle cx="333.182" cy="929.589" r="5.07203" fill="#25356A" fill-opacity="0.35"/>
</g>
<path d="M125.238 850.922C128.369 863.471 126.902 876.775 121.077 888.663C115.252 900.551 105.412 910.322 93.1625 916.384L92.9842 916.428C91.5251 917.134 90.0584 917.809 88.524 918.419C85.8319 919.489 83.0691 920.379 80.2561 921.084C64.8645 924.872 48.6876 922.821 35.1897 915.37C21.6918 907.919 11.946 895.662 8.03934 881.222C4.13273 866.782 6.3759 851.309 14.2885 838.115C22.2011 824.921 35.1541 815.055 50.3735 810.631C50.9081 810.498 51.4752 810.356 51.9937 810.227C52.1624 810.169 52.336 810.125 52.5122 810.097C52.7079 810.032 52.9084 809.982 53.1117 809.948C61.0613 808.014 69.2999 807.644 77.3162 808.859C88.8702 810.574 99.5559 815.466 108.067 822.936C116.577 830.406 122.544 840.131 125.238 850.922Z" fill="#92E3A9"/>
<path opacity="0.4" d="M77.3526 808.866C8.58262 822.495 26.0292 893.754 26.0292 893.754C26.0292 893.754 9.86067 873.116 20.3752 843.185C26.2452 826.434 41.1228 815.979 53.1557 809.986C61.1006 808.043 69.3365 807.662 77.3526 808.866Z" fill="white"/>
<path d="M125.238 850.922C128.378 863.502 126.898 876.839 121.04 888.748C115.183 900.658 105.294 910.434 92.9957 916.474C88.94 918.476 84.6697 920.039 80.2676 921.13C64.7322 925.297 48.2584 923.473 34.4701 916.059C20.6819 908.644 10.7086 896.247 6.74445 881.594C2.78025 866.941 5.14983 851.232 13.3319 837.924C21.5139 824.616 34.8382 814.799 50.3735 810.632C51.0864 810.454 51.8155 810.272 52.5446 810.09C68.1475 806.198 84.5699 808.314 98.2014 815.971C111.833 823.627 121.558 836.199 125.238 850.922V850.922Z" stroke="#263238" stroke-width="1.52" stroke-linecap="round" stroke-linejoin="round"/>
<path d="M125.238 850.921C128.379 863.501 126.899 876.839 121.041 888.748C115.183 900.658 105.295 910.433 92.9962 916.474C92.2833 916.652 91.5542 916.834 90.8251 917.016C76.375 920.586 61.1923 919.016 48.1669 912.606C35.1415 906.195 25.183 895.392 20.1868 882.253C15.1907 869.113 15.5058 854.554 21.0722 841.348C26.6386 828.141 37.0676 817.209 50.374 810.631C51.0869 810.453 51.8161 810.271 52.5452 810.089C68.1481 806.198 84.5704 808.313 98.2019 815.97C111.833 823.627 121.558 836.199 125.238 850.921V850.921Z" stroke="#263238" stroke-width="1.52" stroke-linecap="round" stroke-linejoin="round"/>
<path d="M95.3375 895.244L98.3265 900.735L88.7353 905.615L85.7501 900.139C76.6442 902.412 67.9434 898.656 63.3732 890.278L62.0122 887.791L72.2825 881.15L73.6863 883.739C76.455 888.831 80.9154 890.495 85.388 888.209C86.3918 887.796 87.2953 887.183 88.036 886.413C88.7768 885.642 89.3371 884.733 89.6785 883.748C90.0199 882.762 90.1342 881.724 90.0134 880.704C89.8927 879.685 89.5398 878.708 88.9791 877.842C86.3125 872.953 79.1441 871.266 70.9444 869.723C61.251 867.92 51.015 865.115 46.1815 856.235C41.47 847.567 42.5559 839.093 49.3626 833.333L46.3736 827.841L55.9486 822.966L58.9338 828.442C67.7337 826.115 75.6825 829.962 80.4635 838.839L81.4468 840.64L71.1927 847.278L70.095 845.294C67.1651 839.901 63.4149 838.255 59.4751 840.262C55.5353 842.269 54.5536 845.714 56.937 850.089C59.6036 854.979 66.8225 856.523 74.9756 858.224C84.6061 860.189 94.905 862.832 99.7347 871.697C104.493 880.207 102.57 889.328 95.3375 895.244Z" stroke="#263238" stroke-width="1.52" stroke-miterlimit="10"/>
<path opacity="0.3" d="M95.3375 895.244L98.3265 900.735L88.7353 905.615L85.7501 900.139C76.6442 902.412 67.9434 898.656 63.3732 890.278L62.0122 887.791L72.2825 881.15L73.6863 883.739C76.455 888.831 80.9154 890.495 85.388 888.209C86.3918 887.796 87.2953 887.183 88.036 886.413C88.7768 885.642 89.3371 884.733 89.6785 883.748C90.0199 882.762 90.1342 881.724 90.0134 880.704C89.8927 879.685 89.5398 878.708 88.9791 877.842C86.3125 872.953 79.1441 871.266 70.9444 869.723C61.251 867.92 51.015 865.115 46.1815 856.235C41.47 847.567 42.5559 839.093 49.3626 833.333L46.3736 827.841L55.9486 822.966L58.9338 828.442C67.7337 826.115 75.6825 829.962 80.4635 838.839L81.4468 840.64L71.1927 847.278L70.095 845.294C67.1651 839.901 63.4149 838.255 59.4751 840.262C55.5353 842.269 54.5536 845.714 56.937 850.089C59.6036 854.979 66.8225 856.523 74.9756 858.224C84.6061 860.189 94.905 862.832 99.7347 871.697C104.493 880.207 102.57 889.328 95.3375 895.244Z" fill="black"/>
<path d="M48.2529 920.855L60.5467 917.217" stroke="#263238" stroke-width="1.52" stroke-linecap="round" stroke-linejoin="round"/>
<path d="M41.3004 918.449L51.9223 914.871" stroke="#263238" stroke-width="1.52" stroke-linecap="round" stroke-linejoin="round"/>
<path d="M35.4126 915.549L46.0346 911.971" stroke="#263238" stroke-width="1.52" stroke-linecap="round" stroke-linejoin="round"/>
<path d="M14.3914 837.694L23.6754 835.376" stroke="#263238" stroke-width="1.52" stroke-linecap="round" stroke-linejoin="round"/>
<path d="M17.9688 832.513L27.1212 829.805" stroke="#263238" stroke-width="1.52" stroke-linecap="round" stroke-linejoin="round"/>
<path d="M22.7575 827.013L32.2939 823.706" stroke="#263238" stroke-width="1.52" stroke-linecap="round" stroke-linejoin="round"/>
<path opacity="0.3" d="M93.1625 916.384L92.9842 916.428C88.9285 918.43 84.6582 919.993 80.2561 921.084C64.8645 924.872 48.6876 922.821 35.1897 915.37C21.6917 907.919 11.9459 895.662 8.0393 881.222C4.13269 866.782 6.37587 851.309 14.2885 838.115C22.2011 824.921 35.1541 815.055 50.3735 810.632C50.9082 810.498 51.4752 810.356 51.9937 810.227C38.7195 818.073 17.3804 834.982 16.6246 859.326C15.6014 893.904 45.2236 925.477 93.1625 916.384Z" fill="black"/>
<path opacity="0.1" d="M125.238 850.921C128.369 863.471 126.902 876.775 121.077 888.663C115.252 900.551 105.413 910.322 93.1631 916.384L92.9848 916.428C91.5257 917.134 90.059 917.808 88.5246 918.419L77.3416 808.82C88.8962 810.542 99.5802 815.442 108.087 822.919C116.593 830.396 122.554 840.127 125.238 850.921Z" fill="black"/>
<path d="M136.795 755.187C133.686 762.56 128.067 768.781 120.855 772.836C113.642 776.891 105.262 778.539 97.0819 777.512L96.8484 777.473C95.6276 777.29 94.4187 777.05 93.2261 776.753C91.8862 776.446 90.5706 776.059 89.2872 775.592C80.8183 772.211 74.1037 765.866 70.5003 757.838C66.8968 749.81 66.673 740.699 69.8742 732.344C73.0754 723.99 79.4628 717.016 87.7459 712.83C96.0291 708.645 105.59 707.561 114.498 709.797L115.41 710.073C115.832 710.179 116.25 710.334 116.684 710.486C117.117 710.637 117.956 710.964 118.59 711.228C127.011 714.821 133.584 721.37 136.967 729.539C140.35 737.708 140.288 746.882 136.795 755.187Z" fill="#92E3A9"/>
<path opacity="0.4" d="M83.2133 769.052C83.2133 769.052 73.3614 754.342 78.12 740.516C84.1195 723.18 97.311 712.658 118.497 711.268C118.497 711.268 105.763 707.007 88.6136 716.568C71.4642 726.129 67.5598 752.476 83.2133 769.052Z" fill="white"/>
<path d="M136.798 755.202C133.684 762.571 128.062 768.787 120.848 772.836C113.634 776.885 105.255 778.528 97.0782 777.497C94.381 777.162 91.7412 776.535 89.2101 775.628C80.6824 772.202 73.9463 765.77 70.3831 757.65C66.8198 749.53 66.6994 740.337 70.0464 731.956C73.3934 723.575 79.9544 716.642 88.3839 712.577C96.8134 708.513 106.473 707.625 115.382 710.096C115.788 710.206 116.218 710.342 116.635 710.498C125.613 713.735 132.777 720.258 136.556 728.638C140.336 737.018 140.423 746.57 136.798 755.202Z" stroke="#263238" stroke-width="1.52" stroke-linecap="round" stroke-linejoin="round"/>
<path d="M136.798 755.202C133.684 762.571 128.061 768.787 120.847 772.836C113.634 776.885 105.254 778.528 97.0775 777.497L95.824 777.095C87.5826 774.037 80.884 768.192 76.9886 760.658C73.0932 753.124 72.2696 744.422 74.6729 736.189C77.0761 727.956 82.5404 720.76 90.0376 715.954C97.5348 711.149 106.548 709.065 115.381 710.096C115.787 710.206 116.217 710.342 116.635 710.498C125.613 713.735 132.776 720.259 136.556 728.638C140.335 737.018 140.422 746.57 136.798 755.202Z" stroke="#263238" stroke-width="1.52" stroke-linecap="round" stroke-linejoin="round"/>
<path d="M106.01 767.632L105.448 771.379L99.0047 770.664L99.563 766.903C97.0117 765.995 94.8962 764.264 93.5788 762.006C92.2614 759.748 91.8241 757.103 92.3416 754.525L92.608 752.834L100.022 752.884L99.7621 754.67C99.2361 758.148 100.761 760.463 103.771 760.8C104.41 760.926 105.074 760.918 105.716 760.776C106.359 760.634 106.965 760.361 107.493 759.978C108.021 759.594 108.458 759.108 108.774 758.554C109.09 757.999 109.277 757.39 109.322 756.767C109.822 753.393 106.974 750.189 103.573 746.701C99.5476 742.573 95.6286 737.769 96.5389 731.694C97.4491 725.619 101.087 721.852 106.489 721.218L107.067 717.468L113.494 718.186L112.928 721.917C118.046 723.661 120.46 728.158 119.568 734.31L119.373 735.528L111.959 735.479L112.169 734.111C112.73 730.429 111.521 728.343 108.93 728.032C106.339 727.72 104.539 729.128 104.088 732.148C103.588 735.522 106.522 738.656 109.837 742.214C113.793 746.408 117.802 751.157 116.888 757.217C116.628 759.861 115.392 762.358 113.401 764.264C111.41 766.171 108.792 767.364 106.01 767.632V767.632Z" stroke="#263238" stroke-width="1.52" stroke-miterlimit="10"/>
<path opacity="0.3" d="M106.01 767.632L105.448 771.379L99.0047 770.664L99.563 766.903C97.0117 765.995 94.8962 764.264 93.5788 762.006C92.2614 759.748 91.8241 757.103 92.3416 754.525L92.608 752.834L100.022 752.884L99.7621 754.67C99.2361 758.148 100.761 760.463 103.771 760.8C104.41 760.926 105.074 760.918 105.716 760.776C106.359 760.634 106.965 760.361 107.493 759.978C108.021 759.594 108.458 759.108 108.774 758.554C109.09 757.999 109.277 757.39 109.322 756.767C109.822 753.393 106.974 750.189 103.573 746.701C99.5476 742.573 95.6286 737.769 96.5389 731.694C97.4491 725.619 101.087 721.852 106.489 721.218L107.067 717.468L113.494 718.186L112.928 721.917C118.046 723.661 120.46 728.158 119.568 734.31L119.373 735.528L111.959 735.479L112.169 734.111C112.73 730.429 111.521 728.343 108.93 728.032C106.339 727.72 104.539 729.128 104.088 732.148C103.588 735.522 106.522 738.656 109.837 742.214C113.793 746.408 117.802 751.157 116.888 757.217C116.628 759.861 115.392 762.358 113.401 764.264C111.41 766.171 108.792 767.364 106.01 767.632Z" fill="black"/>
<path opacity="0.3" d="M114.421 709.833C104.29 710.624 91.7512 712.796 86.1236 718.522C75.7668 728.953 70.4927 740.162 74.374 755.226C78.2553 770.289 95.8359 777.141 95.8359 777.141L96.8597 777.519C94.2422 777.175 91.6806 776.556 89.2214 775.673C80.7525 772.293 74.0379 765.947 70.4345 757.92C66.831 749.892 66.6072 740.78 69.8084 732.426C73.0096 724.071 79.397 717.097 87.6801 712.912C95.9632 708.726 105.524 707.642 114.432 709.878L114.421 709.833Z" fill="black"/>
<path opacity="0.1" d="M136.794 755.187C133.686 762.56 128.067 768.781 120.854 772.836C113.642 776.891 105.261 778.539 97.0817 777.512L96.8482 777.473C95.6273 777.29 94.4184 777.05 93.2259 776.753L118.497 711.268C126.925 714.844 133.511 721.38 136.912 729.542C140.312 737.704 140.27 746.876 136.794 755.187Z" fill="black"/>
<path d="M1876.5 655.849C1876.5 655.849 1876.5 649.356 1866.86 640.279C1857.23 631.201 1851.05 626 1851.05 626C1851.05 626 1846.22 640.925 1855.17 650.018C1861.75 656.424 1868.88 662.297 1876.5 667.575V655.849Z" fill="#92E3A9"/>
<path d="M1862.52 696.4C1862.52 696.4 1862.52 689.907 1852.88 680.813C1843.25 671.72 1837.07 666.535 1837.07 666.535C1837.07 666.535 1832.26 681.46 1841.19 690.553C1847.78 696.955 1854.91 702.833 1862.52 708.125V696.4Z" fill="#92E3A9"/>
<path d="M1875.88 666.913C1875.88 666.913 1876.62 660.451 1887.2 652.367C1897.79 644.282 1904.54 639.759 1904.54 639.759C1904.54 639.759 1907.64 655.125 1897.74 663.225C1890.48 668.926 1882.74 674.045 1874.58 678.528L1875.88 666.913Z" fill="#92E3A9"/>
<path d="M1859 714.792C1859 714.792 1860.45 708.488 1871.87 701.459C1883.3 694.43 1890.49 690.616 1890.49 690.616C1890.49 690.616 1891.88 706.171 1881.17 713.295C1873.33 718.244 1865.05 722.562 1856.44 726.202L1859 714.792Z" fill="#92E3A9"/>
<path d="M1862.19 766.973C1862.19 766.973 1862.19 760.48 1871.81 751.402C1881.42 742.325 1887.62 737.124 1887.62 737.124C1887.62 737.124 1892.45 752.064 1883.5 761.142C1876.93 767.557 1869.8 773.435 1862.19 778.714V766.973Z" fill="#92E3A9"/>
<path d="M1862.02 779.723C1862.02 779.723 1862.99 773.293 1854.82 763.017C1846.66 752.742 1841.33 746.753 1841.33 746.753C1841.33 746.753 1834.35 760.937 1841.81 771.087C1847.36 778.295 1853.54 785.054 1860.28 791.291L1862.02 779.723Z" fill="#92E3A9"/>
<path d="M1852.52 817.468C1852.52 817.468 1852.52 810.991 1862.15 801.897C1871.79 792.804 1877.97 787.713 1877.97 787.713C1877.97 787.713 1882.8 802.638 1873.84 811.716C1867.27 818.127 1860.14 824.005 1852.52 829.288V817.468Z" fill="#92E3A9"/>
<path d="M1858.95 851.715C1858.95 851.715 1857.28 845.411 1864.11 834.379C1870.94 823.347 1875.58 816.806 1875.58 816.806C1875.58 816.806 1884.23 830.108 1878.03 841.029C1873.39 848.791 1868.06 856.172 1862.1 863.093L1858.95 851.715Z" fill="#92E3A9"/>
<path d="M1877.37 654.242C1876.88 660.996 1876 667.72 1874.73 674.383C1870.92 692.948 1861.37 704.926 1857.59 721.663C1853.82 738.4 1864.72 760.039 1861.8 781.551C1858.88 803.064 1849.98 815.057 1852.48 829.43C1854.99 843.803 1868.35 882.699 1868.35 882.699" stroke="#263238" stroke-width="1.78978" stroke-linecap="round" stroke-linejoin="round"/>
<path d="M1875.8 671.231L1886.17 663.698" stroke="#263238" stroke-width="1.78978" stroke-linecap="round" stroke-linejoin="round"/>
<path d="M1876.26 662.579L1871.94 655.282" stroke="#263238" stroke-width="1.78978" stroke-linecap="round" stroke-linejoin="round"/>
<path d="M1858.18 720.907C1858.18 720.907 1866.86 714.745 1875.8 708.598" stroke="#263238" stroke-width="1.78978" stroke-linecap="round" stroke-linejoin="round"/>
<path d="M1862.52 708.047C1862.52 708.047 1855.27 694.651 1847.07 685.762" stroke="#263238" stroke-width="1.78978" stroke-linecap="round" stroke-linejoin="round"/>
<path d="M1862.52 776.209C1867.5 767.585 1873.77 759.686 1881.14 752.758" stroke="#263238" stroke-width="1.78978" stroke-linecap="round" stroke-linejoin="round"/>
<path d="M1860.83 785.318C1858.17 779.454 1855 773.809 1851.35 768.439C1846.34 761.378 1845.54 760.464 1845.54 760.464" stroke="#263238" stroke-width="1.78978" stroke-linecap="round" stroke-linejoin="round"/>
<path d="M1852.52 829.414C1854.72 824.254 1857.34 819.259 1860.35 814.474C1863.35 810.018 1866.74 805.802 1870.47 801.866" stroke="#263238" stroke-width="1.78978" stroke-linecap="round" stroke-linejoin="round"/>
<path d="M1862.09 863.015C1861.58 858.09 1862.48 853.128 1864.69 848.642C1868.31 842.038 1872.41 833.37 1874.11 829.966" stroke="#263238" stroke-width="1.78978" stroke-linecap="round" stroke-linejoin="round"/>
<path d="M1813.44 742.561C1813.44 742.561 1812.69 738.511 1817.68 731.813C1822.67 725.115 1826.03 721.222 1826.03 721.222C1826.03 721.222 1830.76 730.079 1826.2 736.698C1822.81 741.383 1819.01 745.79 1814.84 749.874L1813.44 742.561Z" fill="#92E3A9"/>
<path d="M1826.87 766.611C1826.87 766.611 1826.11 762.529 1831.11 755.847C1836.1 749.164 1839.46 745.272 1839.46 745.272C1839.46 745.272 1844.18 754.145 1839.63 760.748C1836.24 765.436 1832.44 769.843 1828.27 773.923L1826.87 766.611Z" fill="#92E3A9"/>
<path d="M1815.09 749.432C1815.09 749.432 1813.92 745.461 1806.33 741.552C1798.73 737.644 1794 735.406 1794 735.406C1794 735.406 1793.82 745.287 1800.98 749.432C1806.18 752.265 1811.63 754.679 1817.26 756.65L1815.09 749.432Z" fill="#92E3A9"/>
<path d="M1831.19 777.722C1831.19 777.722 1829.52 773.892 1821.57 770.693C1813.62 767.493 1808.63 765.807 1808.63 765.807C1808.63 765.807 1809.55 775.689 1817.11 779.061C1822.61 781.36 1828.29 783.221 1834.11 784.624L1831.19 777.722Z" fill="#92E3A9"/>
<path d="M1835.2 810.739C1835.2 810.739 1834.45 806.673 1827.37 801.96C1820.29 797.248 1815.79 794.616 1815.79 794.616C1815.79 794.616 1814.49 804.498 1821.16 809.257C1826.01 812.586 1831.16 815.523 1836.54 818.036L1835.2 810.739Z" fill="#92E3A9"/>
<path d="M1836.75 818.761C1836.75 818.761 1835.4 814.836 1839.34 807.555C1843.28 800.274 1846.02 795.972 1846.02 795.972C1846.02 795.972 1852.03 804.104 1848.53 811.275C1845.85 816.363 1842.73 821.234 1839.21 825.837L1836.75 818.761Z" fill="#92E3A9"/>
<path d="M1848.84 851.589C1848.84 851.589 1849.34 847.491 1856.12 842.401C1862.9 837.31 1867.23 834.521 1867.23 834.521C1867.23 834.521 1869.13 844.292 1862.77 849.429C1858.12 853.016 1853.17 856.231 1847.96 859.043L1848.84 851.589Z" fill="#92E3A9"/>
<path d="M1847.06 841.471C1847.06 841.471 1846.31 837.389 1839.22 832.677C1832.14 827.964 1827.67 825.348 1827.67 825.348C1827.67 825.348 1826.37 835.23 1833.01 839.989C1837.88 843.316 1843.03 846.253 1848.41 848.768L1847.06 841.471Z" fill="#92E3A9"/>
<path d="M1846.96 863.598C1846.96 863.598 1847.34 859.469 1841.75 853.228C1836.15 846.987 1832.53 843.346 1832.53 843.346C1832.53 843.346 1828.62 852.566 1833.78 858.791C1837.59 863.181 1841.78 867.266 1846.3 871.005L1846.96 863.598Z" fill="#92E3A9"/>
<path d="M1812.69 741.615C1813.78 745.806 1815.11 749.936 1816.68 753.987C1821.19 765.224 1828.54 771.764 1832.85 781.882C1837.15 792 1832.85 806.673 1837.1 819.864C1841.36 833.055 1848.38 839.627 1848.43 848.941C1848.48 858.255 1844.67 883.991 1844.67 883.991" stroke="#263238" stroke-width="1.78978" stroke-linecap="round" stroke-linejoin="round"/>
<path d="M1815.64 752.127L1808.28 748.487" stroke="#263238" stroke-width="1.78978" stroke-linecap="round" stroke-linejoin="round"/>
<path d="M1814.34 746.753L1816.23 741.741" stroke="#263238" stroke-width="1.78978" stroke-linecap="round" stroke-linejoin="round"/>
<path d="M1832.41 781.457C1832.41 781.457 1826.25 778.494 1819.95 775.547" stroke="#263238" stroke-width="1.78978" stroke-linecap="round" stroke-linejoin="round"/>
<path d="M1828.2 773.923C1830.01 768.528 1832.4 763.322 1835.33 758.384" stroke="#263238" stroke-width="1.78978" stroke-linecap="round" stroke-linejoin="round"/>
<path d="M1836.05 816.601C1831.94 811.705 1827.1 807.395 1821.69 803.804" stroke="#263238" stroke-width="1.78978" stroke-linecap="round" stroke-linejoin="round"/>
<path d="M1838.16 822.149C1839.13 818.211 1840.46 814.357 1842.11 810.628C1844.43 805.664 1844.84 805.018 1844.84 805.018" stroke="#263238" stroke-width="1.78978" stroke-linecap="round" stroke-linejoin="round"/>
<path d="M1848.11 855.97C1850.5 853.169 1853.15 850.574 1856.02 848.216C1857.86 846.935 1859.58 845.518 1861.17 843.977" stroke="#263238" stroke-width="1.78978" stroke-linecap="round" stroke-linejoin="round"/>
<path d="M1848.43 848.941C1846.43 845.934 1844.2 843.074 1841.75 840.383C1839.35 837.912 1836.74 835.629 1833.95 833.559" stroke="#263238" stroke-width="1.78978" stroke-linecap="round" stroke-linejoin="round"/>
<path d="M1846.34 871.005C1846.07 867.85 1844.92 864.82 1843 862.227C1839.96 858.444 1836.32 853.433 1834.95 851.463" stroke="#263238" stroke-width="1.78978" stroke-linecap="round" stroke-linejoin="round"/>
<path d="M1878.37 928.371H1834.51C1833.64 928.372 1832.81 928.05 1832.18 927.476C1831.56 926.902 1831.2 926.12 1831.17 925.298L1824.88 879.5H1887.87L1881.58 925.298C1881.56 926.099 1881.21 926.862 1880.62 927.433C1880.02 928.004 1879.22 928.34 1878.37 928.371Z" fill="#263238"/>
<path d="M1887.37 887.238H1824.95C1823.65 887.242 1822.4 886.76 1821.47 885.897C1820.55 885.035 1820.03 883.862 1820.02 882.636C1820.04 881.412 1820.56 880.243 1821.48 879.376C1822.4 878.509 1823.63 878.011 1824.93 877.987H1887.37C1888.02 877.985 1888.66 878.103 1889.25 878.335C1889.85 878.567 1890.39 878.908 1890.85 879.338C1891.31 879.769 1891.67 880.28 1891.92 880.843C1892.17 881.406 1892.3 882.01 1892.3 882.62C1892.29 883.228 1892.16 883.831 1891.92 884.392C1891.67 884.953 1891.3 885.463 1890.85 885.892C1890.39 886.321 1889.85 886.66 1889.25 886.891C1888.65 887.122 1888.01 887.24 1887.37 887.238Z" fill="#263238"/>
</g>
<defs>
<clipPath id="clip0">
<rect width="1920" height="940" fill="white"/>
</clipPath>
</defs>
</svg>
