<svg width="600" height="42" viewBox="0 0 600 42" fill="none" xmlns="http://www.w3.org/2000/svg">
<path d="M451.239 28.5902V11.4875H454.085V28.5902H451.239ZM458.125 28.5902V11.4875H460.843L469.92 24.0517V11.4875H472.612V28.5902H470.074L460.817 15.8978V28.5902H458.125ZM481.552 28.5902L475.065 11.4875H478.245L483.219 25.2568L488.142 11.5131L491.117 11.4875L484.501 28.5902H481.552ZM493.582 28.5902V11.4875H496.428V28.5902H493.582ZM505.699 28.8723C504.844 28.8723 504.092 28.821 503.443 28.7184C502.81 28.6329 502.22 28.4876 501.673 28.2825C501.143 28.0774 500.596 27.8295 500.032 27.5389V24.7184C500.699 25.2483 501.502 25.6842 502.443 26.0261C503.4 26.368 504.425 26.5389 505.519 26.5389C506.579 26.5389 507.366 26.3252 507.878 25.8979C508.408 25.4534 508.673 24.8466 508.673 24.0773C508.673 23.479 508.477 23.0004 508.084 22.6414C507.708 22.2654 507.203 21.9491 506.571 21.6927C505.938 21.4363 505.263 21.1799 504.545 20.9235C503.81 20.6671 503.101 20.3679 502.417 20.026C501.733 19.667 501.169 19.1799 500.725 18.5645C500.297 17.9491 500.084 17.1029 500.084 16.026C500.084 15.2567 500.28 14.5046 500.673 13.7696C501.066 13.0174 501.682 12.402 502.519 11.9234C503.374 11.4277 504.502 11.1798 505.904 11.1798C506.588 11.1798 507.178 11.2225 507.673 11.308C508.186 11.3935 508.665 11.5302 509.109 11.7183C509.571 11.8892 510.067 12.1029 510.596 12.3593V15.1285C509.947 14.7183 509.28 14.3508 508.596 14.026C507.913 13.7012 507.101 13.5302 506.161 13.5131C505.101 13.496 504.306 13.7012 503.776 14.1285C503.246 14.5559 502.981 15.0944 502.981 15.7439C502.981 16.3422 503.135 16.8209 503.443 17.1798C503.75 17.5217 504.169 17.8123 504.699 18.0516C505.246 18.2739 505.878 18.4961 506.596 18.7183C507.434 18.9918 508.229 19.3166 508.981 19.6927C509.75 20.0688 510.374 20.573 510.853 21.2055C511.332 21.838 511.571 22.6842 511.571 23.744C511.571 24.6329 511.366 25.4705 510.955 26.2569C510.562 27.0261 509.93 27.6586 509.058 28.1543C508.203 28.6329 507.084 28.8723 505.699 28.8723ZM518.993 28.5902V13.8721H513.48V11.4875H527.352V13.8721H521.813V28.5902H518.993ZM526.823 28.5902L533.49 11.4875H536.49L542.977 28.5902H540.003L538.311 23.9491H531.336L529.644 28.5902H526.823ZM532.157 21.6414H537.49L534.823 14.3337L532.157 21.6414ZM545.441 21.9491V19.7696H553.261V21.9491H545.441ZM557.335 28.5902V11.4875H560.283L565.668 19.4106L571.181 11.4875H574.078V28.5902H571.258V15.5644L565.54 23.4363L560.078 15.6157V28.5902H557.335ZM578.118 28.5902V11.4875H589.323V13.8721H580.964V18.8209H588.272V21.2312H580.939V26.2056H589.323V28.5902H578.118Z" fill="#EEEEEE"/>
<rect x="390.955" width="13.5365" height="41.5979" rx="6.76825" fill="#6FCF97"/>
<path d="M409.906 19.3943C409.906 15.993 412.663 13.2357 416.065 13.2357V13.2357C419.466 13.2357 422.223 15.993 422.223 19.3943V27.1495C422.223 30.5508 419.466 33.3081 416.065 33.3081V33.3081C412.663 33.3081 409.906 30.5508 409.906 27.1495V19.3943Z" fill="#27AE60"/>
<rect x="409.906" y="1.89087" width="12.3172" height="10.0362" rx="5.0181" fill="#27AE60"/>
<rect x="427.863" y="15.5574" width="12.3172" height="10.0362" rx="5.0181" fill="#6FCF97"/>
</svg>
